<svg id="Logo" xmlns="http://www.w3.org/2000/svg" viewBox="0 0 582.43 138.6"><defs><style>.cls-1{fill:#fff;}.cls-2{fill:#f7be00;}</style></defs><path class="cls-1" d="M53.93,105.22a21.81,21.81,0,0,1-1.27,8,12.9,12.9,0,0,1-4.56,5.58,33.29,33.29,0,0,1-9.45,4.36l-5-9.69a14.13,14.13,0,0,0,4.94-2.7,6.7,6.7,0,0,0,2.06-3.42,24.17,24.17,0,0,0,.44-5.15V56.65H53.93ZM42.37,47.83a7.15,7.15,0,0,1,5.1-12.24,7.1,7.1,0,0,1,5.14,2.06,7.22,7.22,0,0,1,0,10.18,7.1,7.1,0,0,1-5.14,2.06A6.94,6.94,0,0,1,42.37,47.83Z" transform="translate(-33.66 -32.46)"/><path class="cls-1" d="M67.58,70.26,64.15,59.68a27.17,27.17,0,0,1,8.13-3,40.94,40.94,0,0,1,8.91-1.32,23.57,23.57,0,0,1,10.38,2.26,18.9,18.9,0,0,1,7.5,6.26,15.43,15.43,0,0,1,2.79,9v31.24H93.53l-2.15-5.09q-6,6.27-12.54,6.27-8.52,0-12.83-4.16T61.7,89.94q0-7.25,4.9-11.21t13.12-4H89a8,8,0,0,0-2.11-5.63,7.47,7.47,0,0,0-5.53-2,31.14,31.14,0,0,0-7.15.93A36,36,0,0,0,67.58,70.26Zm5,19.68a4.87,4.87,0,0,0,1.71,3.72,6.18,6.18,0,0,0,4.36,1.57q5.67,0,10.48-4.7V83.28h-9.6a6.77,6.77,0,0,0-5,2A6.52,6.52,0,0,0,72.58,89.94Z" transform="translate(-33.66 -32.46)"/><path class="cls-1" d="M123.91,104.14H111.18V56.65h8.32l2.16,5.09a38.13,38.13,0,0,1,9.4-4.9A27.3,27.3,0,0,1,140,55.08q9,0,12.63,5.09t3.63,14.2v29.77H143.5V75a11.35,11.35,0,0,0-1.82-6.86,5.92,5.92,0,0,0-5-2.44,13.49,13.49,0,0,0-6.27,1.51,52.71,52.71,0,0,0-6.46,4.07Z" transform="translate(-33.66 -32.46)"/><path class="cls-1" d="M166.05,104.14V36.08L178.68,35v69.14Z" transform="translate(-33.66 -32.46)"/><path class="cls-1" d="M231.59,84.16h-32a12.45,12.45,0,0,0,4.26,7.64q3.28,2.65,10,2.65a21.56,21.56,0,0,0,7-1.08,41,41,0,0,0,6.76-3.13l3.72,9.2a27.91,27.91,0,0,1-7.84,4.36,29.56,29.56,0,0,1-10,1.52q-13.51,0-20.51-6.61t-7-18.27a28.89,28.89,0,0,1,2.89-13.22,20.67,20.67,0,0,1,8.28-8.76A25.14,25.14,0,0,1,210,55.37,21,21,0,0,1,222,58.7a19.79,19.79,0,0,1,7.24,9,32.36,32.36,0,0,1,2.35,12.59Zm-31.92-8.52h19.88a13.11,13.11,0,0,0-3.48-7,9,9,0,0,0-6.41-2.35,9.42,9.42,0,0,0-6.57,2.4A11.8,11.8,0,0,0,199.67,75.64Z" transform="translate(-33.66 -32.46)"/><path class="cls-1" d="M245.05,49.89a6.82,6.82,0,0,1-5-2.06,7.34,7.34,0,0,1,0-10.18,6.82,6.82,0,0,1,5-2.06,7.1,7.1,0,0,1,5.14,2.06,7.22,7.22,0,0,1,0,10.18A7.1,7.1,0,0,1,245.05,49.89Zm-6.27,54.25V56.65h12.73v47.49Z" transform="translate(-33.66 -32.46)"/><path class="cls-1" d="M330.91,59.44q3.57,4.35,3.58,13v31.73H321.75V75q0-4.6-1.42-6.95a4.81,4.81,0,0,0-4.45-2.35A10.78,10.78,0,0,0,310.49,67a68.27,68.27,0,0,0-6.26,4.11v33H291.5V75c0-3.07-.48-5.39-1.42-6.95a4.84,4.84,0,0,0-4.46-2.35A10.78,10.78,0,0,0,280.23,67a67,67,0,0,0-6.36,4.21v32.9H261.14V56.65h8.32l2.16,5.09a39.89,39.89,0,0,1,9.1-4.9A24.11,24.11,0,0,1,289,55.08q9.69,0,13.12,6.46a41.79,41.79,0,0,1,9-4.75,23.8,23.8,0,0,1,8.13-1.71Q327.34,55.08,330.91,59.44Z" transform="translate(-33.66 -32.46)"/><path class="cls-1" d="M344.3,104.14V36.08L356.93,35V74L377.3,55.27l7.15,9L371.13,75.94l17.43,28.2H374L362,84.07l-5.09,4.5v15.57Z" transform="translate(-33.66 -32.46)"/><path class="cls-1" d="M423.39,56.65h12.73v47.49h-8.33l-2.15-5.09a38.13,38.13,0,0,1-9.4,4.9,27.3,27.3,0,0,1-8.91,1.76q-9,0-12.64-5.09t-3.62-14.2V56.65H403.8V85.83a11.3,11.3,0,0,0,1.81,6.85,5.91,5.91,0,0,0,5.05,2.45,13.31,13.31,0,0,0,6.26-1.52,51.39,51.39,0,0,0,6.47-4.06ZM403.8,45.09a6.32,6.32,0,0,1-4.6-1.81,6,6,0,0,1-1.86-4.46,6.13,6.13,0,0,1,1.86-4.5,6.24,6.24,0,0,1,4.6-1.86,5.84,5.84,0,0,1,4.41,1.86,6.32,6.32,0,0,1,1.76,4.5,6.16,6.16,0,0,1-1.76,4.46A5.9,5.9,0,0,1,403.8,45.09Zm18.61,0a6.23,6.23,0,0,1-4.51-1.81A6,6,0,0,1,416,38.82a6.06,6.06,0,0,1,1.91-4.5,6.2,6.2,0,0,1,4.46-1.86A6.08,6.08,0,0,1,427,34.32a6.2,6.2,0,0,1,1.81,4.5A6,6,0,0,1,427,43.28,6.16,6.16,0,0,1,422.41,45.09Z" transform="translate(-33.66 -32.46)"/><path class="cls-1" d="M487.58,60.17q3.63,5.1,3.62,14.2v29.77H478.47V75a11.35,11.35,0,0,0-1.81-6.86,5.92,5.92,0,0,0-5-2.44,13.49,13.49,0,0,0-6.27,1.51,52.71,52.71,0,0,0-6.46,4.07v32.9H446.25V36.08L458.89,35V60.27a38,38,0,0,1,8.32-3.82A25.93,25.93,0,0,1,475,55.08Q484,55.08,487.58,60.17Z" transform="translate(-33.66 -32.46)"/><path class="cls-1" d="M501,104.14V36.08L513.66,35v69.14Z" transform="translate(-33.66 -32.46)"/><path class="cls-1" d="M566.57,84.16h-32a12.45,12.45,0,0,0,4.26,7.64q3.27,2.65,10,2.65a21.62,21.62,0,0,0,7.06-1.08,40.88,40.88,0,0,0,6.75-3.13l3.72,9.2a27.72,27.72,0,0,1-7.83,4.36,29.56,29.56,0,0,1-10,1.52q-13.51,0-20.52-6.61t-7-18.27a28.89,28.89,0,0,1,2.89-13.22,20.67,20.67,0,0,1,8.28-8.76,25.14,25.14,0,0,1,12.73-3.09,20.91,20.91,0,0,1,12,3.33,19.82,19.82,0,0,1,7.25,9,32.36,32.36,0,0,1,2.35,12.59Zm-31.93-8.52h19.88a13.1,13.1,0,0,0-3.47-7,9,9,0,0,0-6.42-2.35,9.39,9.39,0,0,0-6.56,2.4A11.86,11.86,0,0,0,534.64,75.64Z" transform="translate(-33.66 -32.46)"/><path class="cls-1" d="M586.7,104.14H574V56.65h6.66l4.21,7.93a42.25,42.25,0,0,1,8-5.49A17.81,17.81,0,0,1,601,56.65l2.55,10.18a18.79,18.79,0,0,0-8,2.35,41.09,41.09,0,0,0-8.87,6Z" transform="translate(-33.66 -32.46)"/><path class="cls-2" d="M607.9,104.14a7.1,7.1,0,0,1-5.15-2,7.23,7.23,0,0,1,0-10.19,7.11,7.11,0,0,1,5.15-2.06,6.76,6.76,0,0,1,5,2.06,7.46,7.46,0,0,1,0,10.19A6.75,6.75,0,0,1,607.9,104.14Z" transform="translate(-33.66 -32.46)"/><path class="cls-1" d="M52.6,152.88,44.36,141v21.09h-3.2v-27.9H43l10,14.24,9.73-14.24h2v27.9H61.55v-21l-7.8,11.61Z" transform="translate(-33.66 -32.46)"/><path class="cls-1" d="M74.78,143.4a7.87,7.87,0,0,1,2-.92,18.73,18.73,0,0,1,2.48-.62,12.47,12.47,0,0,1,2.1-.22,9,9,0,0,1,4,.86,6.65,6.65,0,0,1,2.72,2.38,6.23,6.23,0,0,1,1,3.49v13.7H86.64l-.41-2a9.16,9.16,0,0,1-2.61,1.72,7.73,7.73,0,0,1-3.3.78q-3.5,0-5.17-1.76a6.12,6.12,0,0,1-1.68-4.39,5.41,5.41,0,0,1,2-4.5,8.2,8.2,0,0,1,5.21-1.57h5.13v-1.11a5.56,5.56,0,0,0-1-3.41,4,4,0,0,0-3.38-1.35,10.22,10.22,0,0,0-3.26.45c-.89.3-1.71.6-2.45.9Zm2.11,14.67a3.26,3.26,0,0,0,1.21,1.37,3.76,3.76,0,0,0,2.1.54,6,6,0,0,0,3.16-.87,10,10,0,0,0,2.46-2.05v-4.55H80.61a3.9,3.9,0,0,0-3.06,1.17,3.94,3.94,0,0,0-.66,4.39Z" transform="translate(-33.66 -32.46)"/><path class="cls-1" d="M97.23,158.62c.54.25,1.11.47,1.7.68a13.53,13.53,0,0,0,1.82.49,10.1,10.1,0,0,0,1.89.19,8.43,8.43,0,0,0,2.56-.35,3.81,3.81,0,0,0,1.71-1,2.27,2.27,0,0,0,.61-1.58,2.24,2.24,0,0,0-.67-1.6,6.81,6.81,0,0,0-1.79-1.25,18.79,18.79,0,0,0-2.46-1,24,24,0,0,1-3.06-1.3A8,8,0,0,1,97.06,150a4,4,0,0,1-1-2.69,4.88,4.88,0,0,1,2-4.16,8.84,8.84,0,0,1,5.41-1.5,10.85,10.85,0,0,1,2,.22,17.68,17.68,0,0,1,2.32.62,7.24,7.24,0,0,1,1.89.92l-1,2.26a21.5,21.5,0,0,0-2.25-.95,9,9,0,0,0-3-.45,5.17,5.17,0,0,0-3,.82,2.48,2.48,0,0,0-1.17,2.1,2.37,2.37,0,0,0,1.35,1.9,16.1,16.1,0,0,0,3.28,1.46,17.43,17.43,0,0,1,3.16,1.39,8.84,8.84,0,0,1,2.5,2.06,4.27,4.27,0,0,1,1,2.83,5,5,0,0,1-2,4.24,9.69,9.69,0,0,1-5.93,1.54,13.24,13.24,0,0,1-2-.2,16.94,16.94,0,0,1-2.36-.58,7.81,7.81,0,0,1-2-.9Z" transform="translate(-33.66 -32.46)"/><path class="cls-1" d="M132.88,160.8a10,10,0,0,1-2.07.94,17.76,17.76,0,0,1-2.4.64,11.13,11.13,0,0,1-2,.22,9.58,9.58,0,0,1-5.15-1.33,8.81,8.81,0,0,1-3.3-3.71,13.22,13.22,0,0,1,.06-10.92,8.77,8.77,0,0,1,3.39-3.67,9.87,9.87,0,0,1,5.21-1.33,11.19,11.19,0,0,1,2,.22,18.58,18.58,0,0,1,2.4.64,8.16,8.16,0,0,1,2,1l-1,2.26c-.76-.33-1.56-.64-2.38-.92a9.64,9.64,0,0,0-3.16-.43,5.78,5.78,0,0,0-3.44,1,6.59,6.59,0,0,0-2.2,2.75A10.14,10.14,0,0,0,120,152a11,11,0,0,0,.7,4,6.21,6.21,0,0,0,2.11,2.81,5.79,5.79,0,0,0,3.47,1,10.66,10.66,0,0,0,3.18-.39,17.17,17.17,0,0,0,2.36-1Z" transform="translate(-33.66 -32.46)"/><path class="cls-1" d="M140.1,162.07V133.56l3.2-.46v29Zm3-17.07a11.83,11.83,0,0,1,2.17-1.76,11.47,11.47,0,0,1,2.63-1.23,8.79,8.79,0,0,1,2.71-.45,6.17,6.17,0,0,1,3.54.92,5.38,5.38,0,0,1,2,2.5,9.33,9.33,0,0,1,.66,3.63v13.46h-3.24V149a6.58,6.58,0,0,0-.76-3.36,3,3,0,0,0-2.81-1.31,5.79,5.79,0,0,0-2.19.49,12.12,12.12,0,0,0-2.36,1.29A13.72,13.72,0,0,0,143.3,148Z" transform="translate(-33.66 -32.46)"/><path class="cls-1" d="M165.23,137.6a2.35,2.35,0,0,1,0-3.16,2.06,2.06,0,0,1,1.56-.64,2.21,2.21,0,0,1,1.58.64,2.08,2.08,0,0,1,.68,1.58,2.11,2.11,0,0,1-.66,1.58,2.18,2.18,0,0,1-1.56.63A2.15,2.15,0,0,1,165.23,137.6Zm0,24.47v-19.9h3.28v19.9Z" transform="translate(-33.66 -32.46)"/><path class="cls-1" d="M177.1,162.07v-19.9h2.38l.57,2.83a11.9,11.9,0,0,1,2.18-1.76,11.4,11.4,0,0,1,2.62-1.23,8.84,8.84,0,0,1,2.71-.45,6.22,6.22,0,0,1,3.55.92,5.44,5.44,0,0,1,2,2.5,9.33,9.33,0,0,1,.66,3.63v13.46h-3.24V149a6.68,6.68,0,0,0-.76-3.36,3,3,0,0,0-2.81-1.31,5.87,5.87,0,0,0-2.2.49,12.42,12.42,0,0,0-2.36,1.29A14.13,14.13,0,0,0,180.3,148v14.11Z" transform="translate(-33.66 -32.46)"/><path class="cls-1" d="M204.52,152.63a10.81,10.81,0,0,0,.84,3.74,5.66,5.66,0,0,0,2.23,2.58,7.44,7.44,0,0,0,4,.94,9.55,9.55,0,0,0,3.12-.47,22.73,22.73,0,0,0,2.95-1.25l1.07,2.38a22.58,22.58,0,0,1-2,1,12.06,12.06,0,0,1-2.34.73,12.89,12.89,0,0,1-2.73.27,11.68,11.68,0,0,1-5.8-1.31,8.36,8.36,0,0,1-3.47-3.69,12.6,12.6,0,0,1-1.15-5.5,12.82,12.82,0,0,1,1.09-5.42,8.52,8.52,0,0,1,3.16-3.67,9.08,9.08,0,0,1,5-1.33,7.83,7.83,0,0,1,4.87,1.43,8.42,8.42,0,0,1,2.75,3.86,15.92,15.92,0,0,1,.88,5.42v.28Zm11.24-2.21a10.51,10.51,0,0,0-.82-3.16,4.68,4.68,0,0,0-4.6-2.87,5.44,5.44,0,0,0-3,.76,5.1,5.1,0,0,0-1.89,2.11,9.21,9.21,0,0,0-.88,3.16Z" transform="translate(-33.66 -32.46)"/><path class="cls-1" d="M226.36,162.07v-19.9h2.38l.57,2.83a11.58,11.58,0,0,1,2.18-1.76,11.4,11.4,0,0,1,2.62-1.23,8.79,8.79,0,0,1,2.71-.45,6.22,6.22,0,0,1,3.55.92,5.5,5.5,0,0,1,2,2.5,9.33,9.33,0,0,1,.65,3.63v13.46h-3.24V149a6.58,6.58,0,0,0-.76-3.36,2.94,2.94,0,0,0-2.81-1.31,5.87,5.87,0,0,0-2.19.49,12.42,12.42,0,0,0-2.36,1.29,13.21,13.21,0,0,0-2.13,1.83v14.11Z" transform="translate(-33.66 -32.46)"/><path class="cls-1" d="M251.22,158.62c.55.25,1.12.47,1.7.68a13.67,13.67,0,0,0,1.83.49,10.1,10.1,0,0,0,1.89.19,8.47,8.47,0,0,0,2.56-.35,3.77,3.77,0,0,0,1.7-1,2.28,2.28,0,0,0,.62-1.58,2.25,2.25,0,0,0-.68-1.6,6.58,6.58,0,0,0-1.78-1.25,18.79,18.79,0,0,0-2.46-1,24,24,0,0,1-3.06-1.3,7.93,7.93,0,0,1-2.48-1.88,4,4,0,0,1-1-2.69,4.88,4.88,0,0,1,2-4.16,8.87,8.87,0,0,1,5.42-1.5,10.94,10.94,0,0,1,2,.22,17.68,17.68,0,0,1,2.32.62,7.56,7.56,0,0,1,1.89.92l-1,2.26a21.72,21.72,0,0,0-2.26-.95,9,9,0,0,0-3-.45,5.2,5.2,0,0,0-3,.82,2.48,2.48,0,0,0-1.17,2.1,2.38,2.38,0,0,0,1.36,1.9,15.86,15.86,0,0,0,3.28,1.46,17.74,17.74,0,0,1,3.16,1.39,9,9,0,0,1,2.5,2.06,4.27,4.27,0,0,1,1,2.83,5,5,0,0,1-2,4.24,9.65,9.65,0,0,1-5.92,1.54,13.12,13.12,0,0,1-2-.2,16.6,16.6,0,0,1-2.36-.58,7.65,7.65,0,0,1-2-.9Z" transform="translate(-33.66 -32.46)"/><path class="cls-1" d="M271.66,137.6a2.32,2.32,0,0,1,0-3.16,2.06,2.06,0,0,1,1.56-.64,2.19,2.19,0,0,1,1.57.64,2,2,0,0,1,.68,1.58,2.14,2.14,0,0,1-.65,1.58,2.18,2.18,0,0,1-1.56.63A2.13,2.13,0,0,1,271.66,137.6Zm0,24.47v-19.9h3.28v19.9Z" transform="translate(-33.66 -32.46)"/><path class="cls-1" d="M298.46,160.8a10,10,0,0,1-2.07.94,18.58,18.58,0,0,1-2.4.64,11.22,11.22,0,0,1-2.05.22,9.58,9.58,0,0,1-5.15-1.33,8.68,8.68,0,0,1-3.3-3.71,13.22,13.22,0,0,1,.06-10.92,8.81,8.81,0,0,1,3.38-3.67,9.92,9.92,0,0,1,5.21-1.33,11,11,0,0,1,2,.22,17.76,17.76,0,0,1,2.4.64,7.83,7.83,0,0,1,2,1l-1,2.26c-.77-.33-1.56-.64-2.38-.92a9.64,9.64,0,0,0-3.16-.43,5.76,5.76,0,0,0-3.44,1,6.59,6.59,0,0,0-2.2,2.75,10,10,0,0,0-.8,3.86,10.83,10.83,0,0,0,.7,4,6.14,6.14,0,0,0,2.11,2.81,5.77,5.77,0,0,0,3.47,1,10.66,10.66,0,0,0,3.18-.39,17.69,17.69,0,0,0,2.36-1Z" transform="translate(-33.66 -32.46)"/><path class="cls-1" d="M305.68,162.07V133.56l3.2-.46v29Zm3-17.07a11.7,11.7,0,0,1,4.8-3,8.78,8.78,0,0,1,2.7-.45,6.2,6.2,0,0,1,3.55.92,5.38,5.38,0,0,1,2,2.5,9.33,9.33,0,0,1,.66,3.63v13.46h-3.24V149a6.58,6.58,0,0,0-.76-3.36,3,3,0,0,0-2.81-1.31,5.87,5.87,0,0,0-2.2.49,12.34,12.34,0,0,0-2.35,1.29,13.72,13.72,0,0,0-2.14,1.83Z" transform="translate(-33.66 -32.46)"/><path class="cls-1" d="M333.1,152.63a10.81,10.81,0,0,0,.84,3.74,5.62,5.62,0,0,0,2.24,2.58,7.42,7.42,0,0,0,4,.94,9.53,9.53,0,0,0,3.11-.47,22.83,22.83,0,0,0,3-1.25l1.06,2.38a21.33,21.33,0,0,1-2,1,11.85,11.85,0,0,1-2.34.73,12.86,12.86,0,0,1-2.72.27,11.72,11.72,0,0,1-5.81-1.31,8.34,8.34,0,0,1-3.46-3.69,12.46,12.46,0,0,1-1.15-5.5,12.82,12.82,0,0,1,1.08-5.42A8.58,8.58,0,0,1,334,143a9.09,9.09,0,0,1,5-1.33,7.82,7.82,0,0,1,4.86,1.43,8.42,8.42,0,0,1,2.75,3.86,15.68,15.68,0,0,1,.88,5.42v.28Zm11.24-2.21a10.51,10.51,0,0,0-.82-3.16,4.92,4.92,0,0,0-1.74-2.11,5,5,0,0,0-2.86-.76,5.46,5.46,0,0,0-3,.76,5.1,5.1,0,0,0-1.89,2.11,9.44,9.44,0,0,0-.88,3.16Z" transform="translate(-33.66 -32.46)"/><path class="cls-1" d="M355,162.07v-19.9h1.92l1,3.2c.52-.41,1.15-.87,1.91-1.37a14.36,14.36,0,0,1,2.37-1.3,6.08,6.08,0,0,1,2.32-.53l.78,2.59a6.64,6.64,0,0,0-2.48.53,12.73,12.73,0,0,0-2.52,1.35,14.78,14.78,0,0,0-2.1,1.73v13.7Z" transform="translate(-33.66 -32.46)"/><path class="cls-1" d="M372,162.07V133.56l3.2-.46v29ZM375,145a11.9,11.9,0,0,1,2.18-1.76,11.4,11.4,0,0,1,2.62-1.23,8.84,8.84,0,0,1,2.71-.45,6.22,6.22,0,0,1,3.55.92,5.44,5.44,0,0,1,2,2.5,9.33,9.33,0,0,1,.66,3.63v13.46h-3.24V149a6.68,6.68,0,0,0-.76-3.36,3,3,0,0,0-2.81-1.31,5.87,5.87,0,0,0-2.2.49,12.73,12.73,0,0,0-2.36,1.29,14.13,14.13,0,0,0-2.13,1.83Z" transform="translate(-33.66 -32.46)"/><path class="cls-1" d="M399.44,152.63a10.81,10.81,0,0,0,.84,3.74,5.66,5.66,0,0,0,2.23,2.58,7.47,7.47,0,0,0,4,.94,9.55,9.55,0,0,0,3.12-.47,22.16,22.16,0,0,0,2.95-1.25l1.07,2.38a21.33,21.33,0,0,1-2,1,11.85,11.85,0,0,1-2.34.73,12.89,12.89,0,0,1-2.73.27,11.68,11.68,0,0,1-5.8-1.31,8.36,8.36,0,0,1-3.47-3.69,12.6,12.6,0,0,1-1.15-5.5,12.82,12.82,0,0,1,1.09-5.42,8.52,8.52,0,0,1,3.16-3.67,9.08,9.08,0,0,1,5-1.33,7.83,7.83,0,0,1,4.87,1.43,8.42,8.42,0,0,1,2.75,3.86,15.92,15.92,0,0,1,.88,5.42v.28Zm11.24-2.21a10.51,10.51,0,0,0-.82-3.16,4.87,4.87,0,0,0-1.75-2.11,5,5,0,0,0-2.85-.76,5.44,5.44,0,0,0-3,.76,5.1,5.1,0,0,0-1.89,2.11,9.44,9.44,0,0,0-.88,3.16Z" transform="translate(-33.66 -32.46)"/><path class="cls-1" d="M421.27,137.6a2.35,2.35,0,0,1,0-3.16,2.06,2.06,0,0,1,1.56-.64,2.21,2.21,0,0,1,1.58.64,2.08,2.08,0,0,1,.68,1.58,2.11,2.11,0,0,1-.66,1.58,2.3,2.3,0,0,1-3.16,0Zm0,24.47v-19.9h3.29v19.9Z" transform="translate(-33.66 -32.46)"/><path class="cls-1" d="M442,145h-4.63v11.49a4.28,4.28,0,0,0,.65,2.46,2.42,2.42,0,0,0,2.14.94,3.5,3.5,0,0,0,1-.14,8.05,8.05,0,0,0,.8-.27l.78,2.55a6.42,6.42,0,0,1-.82.32,7.59,7.59,0,0,1-1.07.27,6.78,6.78,0,0,1-4.1-.57,4.75,4.75,0,0,1-2-1.95,6.57,6.57,0,0,1-.69-3.16V145H431.2l0-2.46H434v-5.05l3.28-.9v5.95h3.61Z" transform="translate(-33.66 -32.46)"/><path class="cls-1" d="M449.91,158.62c.54.25,1.11.47,1.7.68a13.67,13.67,0,0,0,1.83.49,9.91,9.91,0,0,0,1.88.19,8.54,8.54,0,0,0,2.57-.35,3.83,3.83,0,0,0,1.7-1,2.27,2.27,0,0,0,.61-1.58,2.24,2.24,0,0,0-.67-1.6,6.64,6.64,0,0,0-1.79-1.25,18.79,18.79,0,0,0-2.46-1,23.28,23.28,0,0,1-3-1.3,8.09,8.09,0,0,1-2.49-1.88,4,4,0,0,1-1-2.69,4.88,4.88,0,0,1,2-4.16,8.84,8.84,0,0,1,5.41-1.5,11,11,0,0,1,2,.22,17.13,17.13,0,0,1,2.31.62,7.24,7.24,0,0,1,1.89.92l-1,2.26a20.62,20.62,0,0,0-2.25-.95,9,9,0,0,0-3-.45,5.17,5.17,0,0,0-3,.82,2.48,2.48,0,0,0-1.17,2.1,2.39,2.39,0,0,0,1.35,1.9,16.1,16.1,0,0,0,3.28,1.46,17.43,17.43,0,0,1,3.16,1.39,8.89,8.89,0,0,1,2.51,2.06,4.31,4.31,0,0,1,1,2.83,5,5,0,0,1-2,4.24,9.67,9.67,0,0,1-5.93,1.54,13.24,13.24,0,0,1-2-.2,16.94,16.94,0,0,1-2.36-.58,8,8,0,0,1-2-.9Z" transform="translate(-33.66 -32.46)"/><path class="cls-1" d="M472.77,152.63a10.81,10.81,0,0,0,.84,3.74,5.66,5.66,0,0,0,2.23,2.58,7.47,7.47,0,0,0,4,.94,9.55,9.55,0,0,0,3.12-.47,22.16,22.16,0,0,0,2.95-1.25l1.07,2.38a21.33,21.33,0,0,1-2,1,11.85,11.85,0,0,1-2.34.73,12.89,12.89,0,0,1-2.73.27,11.68,11.68,0,0,1-5.8-1.31,8.36,8.36,0,0,1-3.47-3.69,12.6,12.6,0,0,1-1.15-5.5,12.82,12.82,0,0,1,1.09-5.42,8.52,8.52,0,0,1,3.16-3.67,9.08,9.08,0,0,1,5-1.33,7.83,7.83,0,0,1,4.87,1.43,8.42,8.42,0,0,1,2.75,3.86,15.92,15.92,0,0,1,.88,5.42v.28ZM484,150.42a10.51,10.51,0,0,0-.82-3.16,4.87,4.87,0,0,0-1.75-2.11,5,5,0,0,0-2.85-.76,5.44,5.44,0,0,0-3,.76,5.1,5.1,0,0,0-1.89,2.11,9.44,9.44,0,0,0-.88,3.16Z" transform="translate(-33.66 -32.46)"/><path class="cls-1" d="M492.72,162.07,499.41,152l-6-9.15,2.87-1.19,5.42,8.45,5.09-7.92h3.57l-6.86,10.38,6.24,9.52h-3.57l-5-7.67-4.84,7.67Z" transform="translate(-33.66 -32.46)"/><path class="cls-1" d="M517,171.05V142.17h1.92l1.27,2.59V170.6ZM518.25,145a8.07,8.07,0,0,1,2-1.86,8.63,8.63,0,0,1,2.38-1.13,7.75,7.75,0,0,1,2.25-.37A9.46,9.46,0,0,1,530,143a8.56,8.56,0,0,1,3.24,3.69,12.89,12.89,0,0,1,1.11,5.52,12,12,0,0,1-1.17,5.4,9,9,0,0,1-3.3,3.69,9.49,9.49,0,0,1-5.13,1.33,7.24,7.24,0,0,1-2.28-.41,10.57,10.57,0,0,1-2.34-1.15,9.28,9.28,0,0,1-2-1.76l1-2.22a9.85,9.85,0,0,0,2.46,2,6.37,6.37,0,0,0,3.24.76,5.61,5.61,0,0,0,3.43-1,6.4,6.4,0,0,0,2.07-2.75,10.32,10.32,0,0,0,.7-3.86,11.56,11.56,0,0,0-.66-4.06,6,6,0,0,0-2-2.77,5.66,5.66,0,0,0-3.43-1,6.14,6.14,0,0,0-3.22.78,10.25,10.25,0,0,0-2.48,2.17Z" transform="translate(-33.66 -32.46)"/><path class="cls-1" d="M544.05,152.63a10.81,10.81,0,0,0,.84,3.74,5.66,5.66,0,0,0,2.23,2.58,7.44,7.44,0,0,0,4,.94,9.55,9.55,0,0,0,3.12-.47,22.73,22.73,0,0,0,2.95-1.25l1.07,2.38a22.58,22.58,0,0,1-2,1,12.06,12.06,0,0,1-2.34.73,12.89,12.89,0,0,1-2.73.27,11.68,11.68,0,0,1-5.8-1.31,8.36,8.36,0,0,1-3.47-3.69,13.87,13.87,0,0,1-.06-10.92A8.52,8.52,0,0,1,545,143a9.08,9.08,0,0,1,5-1.33,7.83,7.83,0,0,1,4.87,1.43,8.34,8.34,0,0,1,2.74,3.86,15.68,15.68,0,0,1,.89,5.42v.28Zm11.24-2.21a10.51,10.51,0,0,0-.82-3.16,4.68,4.68,0,0,0-4.6-2.87,5.44,5.44,0,0,0-3,.76,5.1,5.1,0,0,0-1.89,2.11,9.21,9.21,0,0,0-.88,3.16Z" transform="translate(-33.66 -32.46)"/><path class="cls-1" d="M566,162.07v-19.9h1.93l1,3.2c.52-.41,1.16-.87,1.91-1.37a14.45,14.45,0,0,1,2.38-1.3,6,6,0,0,1,2.32-.53l.78,2.59a6.56,6.56,0,0,0-2.48.53,13.09,13.09,0,0,0-2.53,1.35,14.68,14.68,0,0,0-2.09,1.73v13.7Z" transform="translate(-33.66 -32.46)"/><path class="cls-1" d="M592.64,145H588v11.49a4.21,4.21,0,0,0,.66,2.46,2.41,2.41,0,0,0,2.13.94,3.57,3.57,0,0,0,1-.14,8.05,8.05,0,0,0,.8-.27l.78,2.55a6.42,6.42,0,0,1-.82.32,8,8,0,0,1-1.07.27,6.38,6.38,0,0,1-1.15.1,6.2,6.2,0,0,1-3-.67,4.69,4.69,0,0,1-2-1.95,6.45,6.45,0,0,1-.7-3.16V145h-2.83l0-2.46h2.87v-5.05l3.28-.9v5.95h3.61Z" transform="translate(-33.66 -32.46)"/><path class="cls-1" d="M601.65,152.63a10.81,10.81,0,0,0,.84,3.74,5.68,5.68,0,0,0,2.24,2.58,7.44,7.44,0,0,0,4,.94,9.55,9.55,0,0,0,3.12-.47,22.73,22.73,0,0,0,2.95-1.25l1.07,2.38a22.58,22.58,0,0,1-2,1,12.28,12.28,0,0,1-2.34.73,13,13,0,0,1-2.73.27,11.72,11.72,0,0,1-5.81-1.31,8.34,8.34,0,0,1-3.46-3.69,12.46,12.46,0,0,1-1.15-5.5,12.67,12.67,0,0,1,1.09-5.42,8.45,8.45,0,0,1,3.16-3.67,9.06,9.06,0,0,1,5-1.33,7.78,7.78,0,0,1,4.86,1.43,8.35,8.35,0,0,1,2.75,3.86,15.68,15.68,0,0,1,.88,5.42v.28Zm11.24-2.21a10.22,10.22,0,0,0-.82-3.16,4.65,4.65,0,0,0-4.59-2.87,5.48,5.48,0,0,0-3,.76,5.14,5.14,0,0,0-1.88,2.11,9.22,9.22,0,0,0-.89,3.16Z" transform="translate(-33.66 -32.46)"/></svg>