<?xml version="1.0" encoding="UTF-8"?><svg id="Logo" xmlns="http://www.w3.org/2000/svg" viewBox="0 0 594.93 119.51"><defs><style>.cls-1{fill:#f7be00;}.cls-2{fill:#fff;}</style></defs><g><path class="cls-2" d="M7.28,60.16V4.85h12.22V61.94c0,2.92-.45,5.32-1.35,7.18-.9,1.87-2.4,3.47-4.48,4.8-2.08,1.34-5.02,2.63-8.81,3.87L0,68.84c2.3-.81,3.93-1.54,4.9-2.19,.96-.65,1.6-1.43,1.91-2.33,.31-.9,.47-2.29,.47-4.15Z"/><path class="cls-2" d="M33.88,36.01l-3.27-10.07c1.62-1.06,4.2-2.01,7.74-2.85,3.54-.84,6.37-1.26,8.49-1.26,3.61,0,6.9,.72,9.89,2.15,2.98,1.43,5.36,3.42,7.14,5.97,1.77,2.55,2.66,5.41,2.66,8.58v29.76h-7.93l-2.05-4.85c-3.79,3.98-7.77,5.97-11.94,5.97-5.41,0-9.48-1.32-12.22-3.96-2.74-2.64-4.1-6.2-4.1-10.68s1.55-8.16,4.66-10.68c3.11-2.52,7.28-3.78,12.5-3.78h8.86c-.06-2.3-.73-4.09-2.01-5.36-1.28-1.27-3.03-1.91-5.27-1.91-2.05,0-4.32,.3-6.81,.89-2.49,.59-4.6,1.29-6.34,2.1Zm4.76,18.75c0,1.37,.54,2.55,1.63,3.54,1.09,1,2.47,1.49,4.15,1.49,3.61,0,6.93-1.49,9.98-4.48v-6.9h-9.14c-1.99,0-3.59,.62-4.8,1.87-1.21,1.24-1.82,2.74-1.82,4.48Z"/><path class="cls-2" d="M87.29,68.28h-12.13V23.04h7.93l2.05,4.85c2.8-1.99,5.78-3.54,8.95-4.66,3.17-1.12,6-1.68,8.49-1.68,5.72,0,9.73,1.62,12.03,4.85,2.3,3.23,3.45,7.74,3.45,13.53v28.36h-12.13v-27.8c0-2.8-.58-4.97-1.73-6.53-1.15-1.55-2.75-2.33-4.8-2.33s-4.1,.48-5.97,1.45c-1.87,.96-3.92,2.25-6.16,3.87v31.34Z"/><path class="cls-2" d="M187.09,68.28h-41.88V4.85h12.03V58.86h27.98l1.87,9.42Z"/><path class="cls-2" d="M231.78,49.25h-30.5c.62,3.17,1.97,5.6,4.06,7.28,2.08,1.68,5.27,2.52,9.56,2.52,2.49,0,4.73-.34,6.72-1.03,1.99-.68,4.13-1.68,6.44-2.98l3.54,8.77c-2.3,1.8-4.79,3.19-7.46,4.15-2.67,.96-5.85,1.45-9.51,1.45-8.58,0-15.1-2.1-19.54-6.3-4.45-4.2-6.67-10-6.67-17.4,0-4.79,.92-8.99,2.75-12.59,1.83-3.61,4.46-6.39,7.88-8.35,3.42-1.96,7.46-2.94,12.13-2.94s8.36,1.06,11.47,3.17c3.11,2.11,5.41,4.96,6.9,8.53,1.49,3.58,2.24,7.57,2.24,11.99v3.73Zm-30.41-8.12h18.94c-.62-2.98-1.73-5.22-3.31-6.72s-3.62-2.24-6.11-2.24-4.57,.76-6.25,2.29c-1.68,1.52-2.77,3.75-3.26,6.67Z"/><path class="cls-2" d="M244.36,16.6c-1.87,0-3.45-.65-4.76-1.96s-1.96-2.92-1.96-4.85,.65-3.54,1.96-4.85,2.89-1.96,4.76-1.96,3.56,.65,4.9,1.96c1.34,1.31,2.01,2.92,2.01,4.85s-.67,3.54-2.01,4.85c-1.34,1.31-2.97,1.96-4.9,1.96Zm-5.97,51.68V23.04h12.13v45.24h-12.13Z"/><path class="cls-2" d="M325.9,25.7c2.27,2.77,3.4,6.89,3.4,12.36v30.22h-12.13v-27.8c0-2.92-.45-5.13-1.35-6.62-.9-1.49-2.32-2.24-4.24-2.24s-3.58,.44-5.13,1.31c-1.55,.87-3.54,2.18-5.97,3.92v31.43h-12.13v-27.8c0-2.92-.45-5.13-1.35-6.62-.9-1.49-2.32-2.24-4.24-2.24s-3.58,.44-5.13,1.31c-1.55,.87-3.58,2.21-6.06,4.01v31.34h-12.13V23.04h7.93l2.05,4.85c2.8-1.99,5.69-3.54,8.67-4.66,2.98-1.12,5.6-1.68,7.83-1.68,6.16,0,10.32,2.05,12.5,6.16,2.8-1.93,5.66-3.44,8.58-4.52,2.92-1.09,5.5-1.63,7.74-1.63,5.16,0,8.88,1.38,11.15,4.15Z"/><path class="cls-2" d="M338.41,68.28V3.45l12.03-1.03V39.55l19.4-17.82,6.81,8.58-12.69,11.1,16.6,26.86h-13.9l-11.38-19.12-4.85,4.29v14.83h-12.03Z"/><path class="cls-2" d="M413.5,23.04h12.13v45.24h-7.93l-2.05-4.85c-2.8,1.99-5.78,3.54-8.96,4.66-3.17,1.12-6,1.68-8.49,1.68-5.72,0-9.73-1.62-12.03-4.85-2.3-3.23-3.45-7.74-3.45-13.53V23.04h12.13v27.8c0,2.8,.57,4.98,1.73,6.53,1.15,1.56,2.75,2.33,4.8,2.33s4.1-.48,5.97-1.45c1.87-.96,3.92-2.25,6.16-3.87V23.04Zm-18.66-11.01c-1.74,0-3.2-.57-4.38-1.73-1.18-1.15-1.77-2.57-1.77-4.24s.59-3.11,1.77-4.29c1.18-1.18,2.64-1.77,4.38-1.77s3.08,.59,4.2,1.77c1.12,1.18,1.68,2.61,1.68,4.29s-.56,3.09-1.68,4.24c-1.12,1.15-2.52,1.73-4.2,1.73Zm17.72,0c-1.68,0-3.11-.57-4.29-1.73-1.18-1.15-1.77-2.57-1.77-4.24s.61-3.11,1.82-4.29c1.21-1.18,2.63-1.77,4.24-1.77,1.74,0,3.19,.59,4.34,1.77,1.15,1.18,1.73,2.61,1.73,4.29s-.58,3.09-1.73,4.24c-1.15,1.15-2.6,1.73-4.34,1.73Z"/><path class="cls-2" d="M474.4,26.4c2.3,3.23,3.45,7.74,3.45,13.53v28.36h-12.13v-27.8c0-2.8-.58-4.97-1.73-6.53-1.15-1.55-2.75-2.33-4.8-2.33s-4.1,.48-5.97,1.45c-1.87,.96-3.92,2.25-6.16,3.87v31.34h-12.03V3.45l12.03-1.03V26.49c2.55-1.55,5.19-2.77,7.93-3.64,2.74-.87,5.19-1.31,7.37-1.31,5.72,0,9.73,1.62,12.03,4.85Z"/><path class="cls-2" d="M486.96,68.28V3.45l12.03-1.03V68.28h-12.03Z"/><path class="cls-2" d="M549.15,49.25h-30.5c.62,3.17,1.97,5.6,4.06,7.28,2.08,1.68,5.27,2.52,9.56,2.52,2.49,0,4.72-.34,6.72-1.03,1.99-.68,4.13-1.68,6.44-2.98l3.54,8.77c-2.3,1.8-4.79,3.19-7.46,4.15-2.67,.96-5.85,1.45-9.51,1.45-8.58,0-15.1-2.1-19.54-6.3-4.45-4.2-6.67-10-6.67-17.4,0-4.79,.92-8.99,2.75-12.59,1.83-3.61,4.46-6.39,7.88-8.35,3.42-1.96,7.46-2.94,12.13-2.94s8.36,1.06,11.47,3.17c3.11,2.11,5.41,4.96,6.9,8.53,1.49,3.58,2.24,7.57,2.24,11.99v3.73Zm-30.41-8.12h18.94c-.62-2.98-1.73-5.22-3.31-6.72s-3.62-2.24-6.11-2.24-4.57,.76-6.25,2.29c-1.68,1.52-2.77,3.75-3.26,6.67Z"/><path class="cls-2" d="M568.09,68.28h-12.13V23.04h6.34l4.01,7.56c2.18-1.93,4.72-3.67,7.65-5.22,2.92-1.55,5.5-2.33,7.74-2.33l2.43,9.7c-2.05,0-4.59,.75-7.6,2.24-3.02,1.49-5.83,3.39-8.44,5.69v27.61Z"/><path class="cls-1" d="M588.04,68.28c-1.93,0-3.56-.65-4.9-1.96-1.34-1.31-2-2.92-2-4.85s.67-3.54,2-4.85c1.34-1.31,2.97-1.96,4.9-1.96s3.53,.65,4.8,1.96c1.27,1.31,1.91,2.92,1.91,4.85s-.64,3.54-1.91,4.85c-1.28,1.31-2.88,1.96-4.8,1.96Z"/></g><g><path class="cls-2" d="M2.2,111.14l.88-3.2c.75,.39,1.6,.73,2.56,1.02,.95,.29,1.83,.44,2.62,.44,1.22,0,2.14-.19,2.77-.58,.63-.39,.94-.94,.94-1.67,0-.51-.25-.97-.75-1.39-.5-.42-1.26-.91-2.3-1.48l-.91-.55c-1.36-.81-2.44-1.51-3.24-2.1-.8-.59-1.49-1.28-2.07-2.09-.58-.8-.87-1.7-.87-2.69,0-1.05,.28-2,.85-2.85,.57-.84,1.38-1.5,2.45-1.98,1.07-.48,2.34-.72,3.82-.72,1.75,0,3.69,.52,5.84,1.55l-1.31,3.17c-.83-.41-1.59-.72-2.27-.94-.68-.22-1.42-.33-2.21-.33-.91,0-1.66,.18-2.24,.53-.58,.36-.87,.88-.87,1.57,0,.59,.23,1.08,.69,1.48s1.2,.9,2.24,1.51l.97,.55,.88,.52c1.2,.69,2.15,1.29,2.86,1.81s1.3,1.15,1.78,1.89c.48,.74,.72,1.61,.72,2.6,0,1.12-.3,2.1-.9,2.95s-1.48,1.52-2.65,2.01-2.56,.73-4.19,.73c-.85,0-1.91-.19-3.18-.56-1.27-.38-2.25-.78-2.94-1.2Z"/><path class="cls-2" d="M32.34,109.19c-.65,1.18-1.57,2.09-2.76,2.72-1.19,.64-2.57,.96-4.15,.96s-2.97-.31-4.16-.94c-1.19-.63-2.11-1.53-2.75-2.69-.65-1.17-.97-2.53-.97-4.09s.32-2.93,.97-4.11c.65-1.18,1.57-2.09,2.75-2.72,1.19-.64,2.57-.96,4.16-.96s2.97,.31,4.15,.94c1.19,.63,2.11,1.53,2.76,2.69,.65,1.17,.97,2.53,.97,4.09s-.33,2.93-.97,4.11Zm-4.19-.94c.72-.83,1.08-1.89,1.08-3.17s-.36-2.32-1.07-3.14c-.71-.81-1.62-1.22-2.74-1.22s-2,.42-2.72,1.25c-.72,.83-1.08,1.89-1.08,3.17s.35,2.32,1.07,3.14c.71,.81,1.62,1.22,2.74,1.22s2-.42,2.72-1.25Z"/><path class="cls-2" d="M39.47,112.51h-3.96v-14.76h2.59l.67,1.58c.91-.65,1.89-1.16,2.92-1.52,1.03-.37,1.96-.55,2.77-.55,1.87,0,3.18,.53,3.93,1.58,.75,1.06,1.13,2.53,1.13,4.41v9.25h-3.96v-9.07c0-.91-.19-1.62-.56-2.13-.38-.51-.9-.76-1.57-.76s-1.34,.16-1.95,.47c-.61,.31-1.28,.74-2.01,1.26v10.23Z"/><path class="cls-2" d="M66.32,91.02v21.49h-2.07l-.91-1.34c-1.3,1.14-2.72,1.7-4.26,1.7-2.29,0-4.1-.69-5.43-2.09-1.33-1.39-1.99-3.27-1.99-5.65,0-1.54,.3-2.9,.9-4.08,.6-1.18,1.47-2.09,2.6-2.74,1.14-.65,2.49-.97,4.05-.97,.49,0,1,.09,1.55,.26,.55,.17,1.08,.41,1.58,.72v-6.97l3.99-.33Zm-9.67,17.28c.62,.8,1.48,1.2,2.57,1.2,.53,0,1.04-.1,1.54-.3,.5-.2,1.02-.51,1.57-.91v-6.3c-.53-.45-1.03-.77-1.52-.96-.49-.19-1.02-.29-1.58-.29-1.08,0-1.93,.41-2.56,1.23-.63,.82-.94,1.88-.94,3.18s.31,2.35,.93,3.15Z"/><path class="cls-2" d="M82.87,106.3h-9.95c.2,1.03,.64,1.83,1.32,2.37,.68,.55,1.72,.82,3.12,.82,.81,0,1.54-.11,2.19-.33,.65-.22,1.35-.55,2.1-.97l1.16,2.86c-.75,.59-1.56,1.04-2.44,1.35-.87,.31-1.91,.47-3.1,.47-2.8,0-4.93-.68-6.38-2.05-1.45-1.37-2.18-3.26-2.18-5.68,0-1.56,.3-2.93,.9-4.11,.6-1.18,1.46-2.09,2.57-2.72,1.12-.64,2.44-.96,3.96-.96s2.73,.35,3.74,1.03c1.01,.69,1.77,1.62,2.25,2.79,.49,1.17,.73,2.47,.73,3.91v1.22Zm-9.92-2.65h6.18c-.2-.97-.56-1.7-1.08-2.19s-1.18-.73-1.99-.73-1.49,.25-2.04,.75c-.55,.5-.9,1.22-1.07,2.18Z"/><path class="cls-2" d="M89.19,112.51h-3.96v-14.76h2.07l1.31,2.47c.71-.63,1.54-1.2,2.5-1.7,.95-.51,1.8-.76,2.53-.76l.79,3.17c-.67,0-1.5,.24-2.48,.73-.98,.49-1.9,1.11-2.75,1.86v9.01Z"/><path class="cls-2" d="M117.71,98.61c.74,.9,1.11,2.25,1.11,4.03v9.86h-3.96v-9.07c0-.95-.15-1.67-.44-2.16-.29-.49-.76-.73-1.39-.73s-1.17,.14-1.67,.43c-.51,.28-1.16,.71-1.95,1.28v10.26h-3.96v-9.07c0-.95-.15-1.67-.44-2.16-.29-.49-.76-.73-1.38-.73s-1.17,.14-1.67,.43c-.51,.28-1.17,.72-1.98,1.31v10.23h-3.96v-14.76h2.59l.67,1.58c.91-.65,1.86-1.16,2.83-1.52s1.83-.55,2.56-.55c2.01,0,3.37,.67,4.08,2.01,.91-.63,1.85-1.12,2.8-1.48,.95-.35,1.8-.53,2.53-.53,1.68,0,2.9,.45,3.64,1.35Z"/><path class="cls-2" d="M123.02,101.98l-1.07-3.29c.53-.34,1.37-.65,2.53-.93,1.16-.27,2.08-.41,2.77-.41,1.18,0,2.25,.23,3.23,.7,.97,.47,1.75,1.12,2.33,1.95,.58,.83,.87,1.77,.87,2.8v9.71h-2.59l-.67-1.58c-1.24,1.3-2.54,1.95-3.9,1.95-1.77,0-3.1-.43-3.99-1.29-.89-.86-1.34-2.02-1.34-3.49s.51-2.66,1.52-3.49c1.01-.82,2.37-1.23,4.08-1.23h2.89c-.02-.75-.24-1.33-.65-1.75-.42-.42-.99-.62-1.72-.62-.67,0-1.41,.1-2.22,.29-.81,.19-1.5,.42-2.07,.68Zm1.55,6.12c0,.45,.18,.83,.53,1.16,.35,.32,.81,.49,1.35,.49,1.18,0,2.26-.49,3.26-1.46v-2.25h-2.98c-.65,0-1.17,.2-1.57,.61-.4,.41-.59,.89-.59,1.46Z"/><path class="cls-2" d="M135.78,111.35l1.19-2.68c1.5,.67,2.79,1,3.87,1,.61,0,1.17-.11,1.67-.33,.51-.22,.76-.54,.76-.94,0-.79-.86-1.45-2.59-1.98-1.4-.47-2.57-1.07-3.5-1.8-.93-.73-1.4-1.65-1.4-2.77,0-1.4,.52-2.5,1.55-3.3,1.03-.8,2.44-1.2,4.2-1.2,.69,0,1.53,.14,2.53,.43,.99,.28,1.84,.66,2.53,1.13l-1.19,2.65c-.77-.34-1.46-.6-2.05-.76-.6-.16-1.22-.24-1.87-.24-.51,0-.93,.13-1.26,.38-.33,.25-.5,.55-.5,.9,0,.26,.2,.5,.59,.72,.4,.21,.97,.45,1.72,.72,1.44,.53,2.64,1.2,3.59,2.01,.95,.81,1.43,1.81,1.43,2.98,0,1.48-.53,2.62-1.58,3.42-1.06,.8-2.58,1.2-4.57,1.2-.75,0-1.63-.13-2.65-.4-1.02-.26-1.84-.64-2.47-1.13Z"/><path class="cls-2" d="M161.27,98.9l-1.13,2.83c-.77-.34-1.46-.6-2.07-.76-.61-.16-1.24-.24-1.89-.24-1.1,0-2,.42-2.72,1.25-.72,.83-1.08,1.89-1.08,3.17s.35,2.32,1.07,3.14c.71,.81,1.62,1.22,2.74,1.22,.65,0,1.28-.08,1.89-.24,.61-.16,1.3-.42,2.07-.76l1.13,2.86c-.63,.49-1.45,.86-2.47,1.13-1.02,.26-1.9,.4-2.65,.4-1.58,0-2.97-.31-4.16-.94-1.19-.63-2.1-1.53-2.74-2.69-.64-1.17-.96-2.53-.96-4.09s.32-2.93,.96-4.11c.64-1.18,1.55-2.09,2.74-2.72,1.19-.64,2.57-.96,4.16-.96,.69,0,1.54,.14,2.56,.43,1.01,.28,1.87,.66,2.56,1.13Z"/><path class="cls-2" d="M176.29,98.84c.75,1.06,1.13,2.53,1.13,4.41v9.25h-3.96v-9.07c0-.91-.19-1.62-.56-2.13-.38-.51-.9-.76-1.57-.76s-1.34,.16-1.95,.47c-.61,.31-1.28,.74-2.01,1.26v10.23h-3.93v-21.16l3.93-.33v7.85c.83-.51,1.69-.9,2.59-1.19,.89-.28,1.69-.43,2.4-.43,1.87,0,3.18,.53,3.93,1.58Z"/><path class="cls-2" d="M182.33,95.65c-.61,0-1.13-.21-1.55-.64-.43-.43-.64-.95-.64-1.58s.21-1.16,.64-1.58c.43-.43,.94-.64,1.55-.64s1.16,.21,1.6,.64c.44,.43,.65,.95,.65,1.58s-.22,1.16-.65,1.58c-.44,.43-.97,.64-1.6,.64Zm-1.95,16.86v-14.76h3.96v14.76h-3.96Z"/><path class="cls-2" d="M191.37,112.51h-3.96v-14.76h2.59l.67,1.58c.91-.65,1.89-1.16,2.92-1.52,1.03-.37,1.96-.55,2.77-.55,1.87,0,3.18,.53,3.93,1.58,.75,1.06,1.13,2.53,1.13,4.41v9.25h-3.96v-9.07c0-.91-.19-1.62-.56-2.13-.38-.51-.9-.76-1.57-.76s-1.34,.16-1.95,.47c-.61,.31-1.28,.74-2.01,1.26v10.23Z"/><path class="cls-2" d="M217.7,106.3h-9.95c.2,1.03,.64,1.83,1.32,2.37,.68,.55,1.72,.82,3.12,.82,.81,0,1.54-.11,2.19-.33,.65-.22,1.35-.55,2.1-.97l1.16,2.86c-.75,.59-1.56,1.04-2.44,1.35-.87,.31-1.91,.47-3.1,.47-2.8,0-4.93-.68-6.38-2.05-1.45-1.37-2.18-3.26-2.18-5.68,0-1.56,.3-2.93,.9-4.11,.6-1.18,1.46-2.09,2.57-2.72,1.12-.64,2.44-.96,3.96-.96s2.73,.35,3.74,1.03c1.01,.69,1.77,1.62,2.25,2.79,.49,1.17,.73,2.47,.73,3.91v1.22Zm-9.92-2.65h6.18c-.2-.97-.56-1.7-1.08-2.19s-1.18-.73-1.99-.73-1.49,.25-2.04,.75c-.55,.5-.9,1.22-1.07,2.18Z"/><path class="cls-2" d="M221.86,112.51c-.63,0-1.16-.21-1.6-.64-.44-.43-.65-.95-.65-1.58s.22-1.16,.65-1.58c.44-.43,.97-.64,1.6-.64s1.15,.21,1.57,.64,.62,.95,.62,1.58-.21,1.16-.62,1.58c-.42,.43-.94,.64-1.57,.64Z"/><path class="cls-2" d="M248.29,92.63l-.91,2.1c-.91-.32-1.65-.55-2.22-.67-.57-.12-1.3-.18-2.19-.18-1.26,0-2.4,.35-3.42,1.05-1.03,.7-1.83,1.69-2.42,2.97-.59,1.28-.88,2.73-.88,4.35,0,1.5,.26,2.88,.78,4.12,.52,1.25,1.27,2.24,2.25,2.97,.98,.73,2.13,1.1,3.46,1.1,1.7,0,3.21-.3,4.54-.91l1.13,2.19c-.67,.35-1.54,.63-2.62,.87-1.08,.23-2.05,.35-2.92,.35-2.05,0-3.8-.47-5.25-1.42-1.45-.94-2.55-2.22-3.29-3.84s-1.11-3.41-1.11-5.4,.4-3.93,1.2-5.59c.8-1.65,1.95-2.95,3.44-3.9s3.22-1.42,5.19-1.42c.73,0,1.62,.11,2.68,.32s1.92,.52,2.59,.93Z"/><path class="cls-2" d="M251.09,112.51v-20.7h11.66l.4,2.25h-9.13v6.79h7.03l.4,2.25h-7.43v7.12h9.83l.4,2.28h-13.15Z"/><path class="cls-2" d="M272.97,105.36h-7.76l-.27-2.31h7.76l.27,2.31Z"/><path class="cls-2" d="M289.19,112.51l-7.28-9.53-2.22,2.37v7.15h-2.92v-20.7h2.92v9.59l9.44-10.05,2.07,1.7-7.34,7.82,8.89,11.63h-3.56Z"/><path class="cls-2" d="M306.32,105.78h-10.47c.12,1.44,.58,2.58,1.39,3.41,.8,.83,1.99,1.25,3.58,1.25,.77,0,1.45-.1,2.02-.29,.58-.19,1.39-.53,2.42-1.02l.91,2.13c-1.79,1.08-3.57,1.61-5.36,1.61-2.58,0-4.56-.7-5.94-2.1-1.38-1.4-2.07-3.29-2.07-5.66,0-1.52,.28-2.87,.85-4.05,.57-1.18,1.38-2.09,2.45-2.74,1.07-.65,2.32-.97,3.76-.97,2.13,0,3.74,.72,4.83,2.15,1.08,1.43,1.63,3.26,1.63,5.49v.79Zm-10.41-1.98h7.58c-.39-2.64-1.62-3.96-3.71-3.96-1.12,0-2,.35-2.66,1.05-.66,.7-1.06,1.67-1.2,2.91Z"/><path class="cls-2" d="M311.84,112.51h-2.92v-14.76h2.04l.52,1.95c.79-.71,1.68-1.29,2.68-1.75,.99-.46,1.98-.68,2.95-.68,1.6,0,2.79,.5,3.58,1.49,.78,.99,1.17,2.33,1.17,4.02v9.74h-2.92v-9.47c0-1.08-.18-1.89-.53-2.45-.36-.56-.99-.84-1.9-.84-.69,0-1.44,.22-2.25,.65-.81,.44-1.61,1-2.4,1.69v10.41Z"/><path class="cls-2" d="M328.06,112.51h-2.92v-14.76h2.04l.52,1.95c.79-.71,1.68-1.29,2.68-1.75,.99-.46,1.98-.68,2.95-.68,1.6,0,2.79,.5,3.58,1.49,.78,.99,1.17,2.33,1.17,4.02v9.74h-2.92v-9.47c0-1.08-.18-1.89-.53-2.45-.36-.56-.99-.84-1.9-.84-.69,0-1.44,.22-2.25,.65-.81,.44-1.61,1-2.4,1.69v10.41Z"/><path class="cls-2" d="M351.99,99.36l-8.4,10.84h8.16l.3,2.31h-11.75l-.37-1.52,8.28-10.87h-7.03l-.64-2.37h11.29l.15,1.61Z"/><path class="cls-2" d="M366.26,105.78h-10.47c.12,1.44,.58,2.58,1.39,3.41,.8,.83,1.99,1.25,3.58,1.25,.77,0,1.45-.1,2.02-.29,.58-.19,1.39-.53,2.42-1.02l.91,2.13c-1.79,1.08-3.57,1.61-5.36,1.61-2.58,0-4.56-.7-5.94-2.1-1.38-1.4-2.07-3.29-2.07-5.66,0-1.52,.28-2.87,.85-4.05,.57-1.18,1.38-2.09,2.45-2.74,1.07-.65,2.32-.97,3.76-.97,2.13,0,3.74,.72,4.83,2.15,1.08,1.43,1.63,3.26,1.63,5.49v.79Zm-10.41-1.98h7.58c-.39-2.64-1.62-3.96-3.71-3.96-1.12,0-2,.35-2.66,1.05-.66,.7-1.06,1.67-1.2,2.91Z"/><path class="cls-2" d="M370.26,95.1c-.51,0-.93-.18-1.28-.53-.34-.35-.52-.79-.52-1.29s.17-.94,.52-1.29c.34-.35,.77-.53,1.28-.53s.94,.18,1.31,.53c.37,.36,.55,.79,.55,1.29s-.18,.94-.55,1.29c-.37,.36-.8,.53-1.31,.53Zm-1.43,17.41v-14.76h2.95v14.76h-2.95Z"/><path class="cls-2" d="M385.75,109.4l.88,2.1c-.61,.41-1.43,.74-2.45,1-1.03,.26-1.88,.4-2.57,.4-1.48,0-2.78-.32-3.88-.97s-1.96-1.56-2.56-2.74c-.6-1.18-.9-2.54-.9-4.08s.3-2.87,.91-4.05c.61-1.18,1.48-2.09,2.6-2.74,1.13-.65,2.44-.97,3.94-.97,.67,0,1.51,.14,2.53,.41,1.01,.27,1.83,.61,2.43,1.02l-.85,2.07c-.83-.34-1.54-.6-2.12-.76-.58-.16-1.25-.24-2.02-.24-1.34,0-2.41,.5-3.21,1.49-.8,.99-1.21,2.24-1.23,3.74,0,1.58,.39,2.87,1.16,3.85,.77,.98,1.84,1.48,3.2,1.48,.83,0,1.55-.08,2.16-.24,.61-.16,1.27-.42,1.98-.76Z"/><path class="cls-2" d="M400.8,98.75c.78,.99,1.17,2.33,1.17,4.02v9.74h-2.92v-9.47c0-1.08-.18-1.89-.53-2.45-.36-.56-.99-.84-1.9-.84-.69,0-1.44,.22-2.25,.65-.81,.44-1.61,1-2.4,1.69v10.41h-2.92v-21.16l2.92-.33v8.37c.77-.65,1.62-1.17,2.54-1.55,.92-.39,1.83-.58,2.72-.58,1.6,0,2.8,.5,3.58,1.49Z"/><path class="cls-2" d="M408.2,112.51h-2.92v-14.76h2.04l.52,1.95c.79-.71,1.68-1.29,2.68-1.75,.99-.46,1.98-.68,2.95-.68,1.6,0,2.79,.5,3.58,1.49,.78,.99,1.17,2.33,1.17,4.02v9.74h-2.92v-9.47c0-1.08-.18-1.89-.53-2.45-.36-.56-.99-.84-1.9-.84-.69,0-1.44,.22-2.25,.65-.81,.44-1.61,1-2.4,1.69v10.41Z"/><path class="cls-2" d="M431.4,97.75h2.92v14.76h-2.04l-.52-1.95c-.79,.71-1.68,1.29-2.68,1.75-.99,.46-1.98,.68-2.95,.68-1.6,0-2.8-.5-3.58-1.49-.78-.99-1.17-2.33-1.17-4.02v-9.74h2.92v9.47c0,1.08,.18,1.89,.53,2.45,.35,.56,.99,.84,1.9,.84,.69,0,1.44-.22,2.25-.65,.81-.44,1.61-1,2.4-1.69v-10.41Z"/><path class="cls-2" d="M440.63,112.51h-2.92v-14.76h2.04l.52,1.95c.79-.71,1.68-1.29,2.68-1.75,.99-.46,1.98-.68,2.95-.68,1.6,0,2.79,.5,3.58,1.49,.78,.99,1.17,2.33,1.17,4.02v9.74h-2.92v-9.47c0-1.08-.18-1.89-.53-2.45-.36-.56-.99-.84-1.9-.84-.69,0-1.44,.22-2.25,.65-.81,.44-1.61,1-2.4,1.69v10.41Z"/><path class="cls-2" d="M466.58,97.75v16.07c0,1.1-.28,2.07-.84,2.94-.56,.86-1.37,1.54-2.42,2.02-1.06,.49-2.32,.73-3.8,.73-.71,0-1.6-.14-2.68-.41-1.08-.27-1.93-.62-2.56-1.05l.88-2.1c1.01,.45,1.78,.76,2.3,.93,.52,.17,1.17,.26,1.96,.26,1.26,0,2.27-.29,3.04-.87s1.16-1.41,1.16-2.48v-1.92c-.55,.32-1.12,.58-1.71,.76s-1.1,.27-1.52,.27c-1.5,0-2.81-.32-3.91-.97-1.11-.65-1.95-1.57-2.54-2.75s-.88-2.57-.88-4.16,.3-2.86,.91-4.02c.61-1.16,1.47-2.05,2.59-2.69,1.12-.64,2.4-.96,3.87-.96,.53,0,1.16,.12,1.89,.37,.73,.24,1.4,.6,2.01,1.07l.58-1.03h1.67Zm-4.41,12.36c.51-.2,.99-.52,1.46-.94v-8.16c-.47-.41-.96-.7-1.48-.88s-1.1-.27-1.75-.27c-1.36,0-2.43,.48-3.2,1.45-.77,.96-1.16,2.2-1.16,3.7,0,1.62,.38,2.93,1.14,3.93,.76,.99,1.83,1.49,3.21,1.49,.67,0,1.26-.1,1.77-.3Z"/><path class="cls-2" d="M471.43,112.51c-.53,0-.97-.18-1.32-.53-.36-.35-.53-.79-.53-1.29s.18-.94,.53-1.29c.35-.35,.8-.53,1.32-.53s.93,.18,1.28,.53c.34,.36,.52,.79,.52,1.29s-.17,.94-.52,1.29c-.35,.36-.77,.53-1.28,.53Z"/><path class="cls-2" d="M489.85,112.51h-5.81v-20.7h4.99c2.35,0,4.19,.41,5.5,1.23,1.31,.82,1.96,2.21,1.96,4.16,0,.97-.29,1.82-.85,2.54-.57,.72-1.31,1.3-2.22,1.75,1.34,.41,2.38,1.05,3.12,1.92,.74,.87,1.11,2,1.11,3.38,0,2.03-.71,3.49-2.13,4.38-1.42,.89-3.31,1.34-5.66,1.34Zm-.76-19.09h-3.17v7.58h2.77c3.94-.04,5.91-1.3,5.91-3.77,0-1.48-.46-2.49-1.37-3.01-.91-.53-2.29-.79-4.14-.79Zm1.16,9.13h-4.32v8.37h3.99c1.81,0,3.23-.31,4.28-.93,1.04-.62,1.57-1.67,1.57-3.15s-.48-2.57-1.45-3.26c-.96-.69-2.32-1.04-4.06-1.04Z"/><path class="cls-2" d="M512.65,105.23h-10.96c.02,1.89,.47,3.38,1.34,4.49,.87,1.11,2.25,1.66,4.14,1.66,.81,0,1.58-.11,2.31-.32,.73-.21,1.5-.53,2.31-.96l.64,1.4c-.87,.47-1.69,.82-2.45,1.05s-1.67,.35-2.72,.35c-2.48,0-4.34-.71-5.6-2.13-1.26-1.42-1.89-3.33-1.89-5.72,.02-2.29,.61-4.15,1.78-5.57,1.17-1.42,2.8-2.13,4.92-2.13s3.64,.72,4.66,2.15c1.01,1.43,1.52,3.34,1.52,5.74Zm-10.9-1.31h8.98c-.33-3.33-1.78-4.99-4.35-4.99-1.4,0-2.49,.45-3.26,1.35-.77,.9-1.23,2.12-1.37,3.64Z"/><path class="cls-2" d="M517.2,101.98v10.53h-1.89v-14.76h1.25l.55,2.34c.69-.57,1.5-1.1,2.42-1.6,.92-.5,1.73-.75,2.42-.75l.52,1.49c-.87,0-1.81,.28-2.82,.85-1,.57-1.82,1.2-2.45,1.89Z"/><path class="cls-2" d="M525.37,99.97l-.58-1.34c.53-.37,1.28-.67,2.25-.91,.97-.24,1.8-.37,2.47-.37,1.68,0,3.02,.44,4.02,1.31,.99,.87,1.49,2.04,1.49,3.5v10.35h-1.55l-.24-1.58c-.51,.53-1.18,.99-2.02,1.39-.84,.4-1.67,.59-2.48,.59-1.6,0-2.83-.42-3.68-1.26-.85-.84-1.28-1.93-1.28-3.27s.49-2.47,1.46-3.26c.97-.79,2.24-1.18,3.81-1.16h4.11v-1.49c0-1.08-.3-1.93-.9-2.57-.6-.64-1.48-.96-2.63-.96-.95,0-1.7,.08-2.24,.24-.54,.16-1.2,.43-1.99,.79Zm.24,8.4c0,.79,.25,1.49,.76,2.09,.51,.6,1.27,.9,2.28,.9,.89,0,1.72-.23,2.48-.69,.76-.46,1.43-1.03,1.99-1.72v-3.74h-4.17c-1.05,0-1.88,.3-2.47,.91-.59,.61-.88,1.36-.88,2.25Z"/><path class="cls-2" d="M540.99,98.05h2.68l.64,1.43h-3.32v9.28c0,.77,.17,1.38,.5,1.83,.33,.45,.86,.67,1.57,.67,.41,0,.82-.09,1.25-.27l.37,1.55c-.06,.02-.26,.09-.61,.2-.34,.11-.81,.17-1.4,.17-1.1,0-1.97-.34-2.62-1.02-.65-.68-.97-1.65-.97-2.91v-9.5h-2.16l-.03-1.43h2.19v-3.84l1.92-.67v4.51Z"/><path class="cls-2" d="M556.67,108.25v-10.53h1.89v14.79h-1.55l-.3-2.28c-.63,.73-1.47,1.35-2.53,1.87-1.06,.52-2.04,.78-2.95,.78-1.52,0-2.66-.45-3.41-1.34-.75-.89-1.13-2.08-1.13-3.56v-10.23h1.89v9.86c0,2.44,.95,3.65,2.86,3.65,.77,0,1.67-.29,2.69-.87,1.02-.58,1.87-1.29,2.54-2.15Z"/><path class="cls-2" d="M564,101.98v10.53h-1.89v-14.76h1.55l.3,2.25c.63-.73,1.47-1.35,2.53-1.87,1.05-.52,2.04-.78,2.95-.78,1.52,0,2.66,.45,3.41,1.34,.75,.89,1.13,2.08,1.13,3.56v10.23h-1.89v-9.86c0-2.44-.96-3.65-2.86-3.65-.77,0-1.67,.29-2.69,.87-1.03,.58-1.87,1.29-2.54,2.15Z"/><path class="cls-2" d="M588.98,114.4c0,.97-.25,1.85-.76,2.62-.51,.77-1.24,1.38-2.19,1.83-.95,.45-2.06,.67-3.32,.67-.67,0-1.53-.12-2.57-.37-1.04-.24-1.86-.54-2.45-.88l.58-1.4c.65,.3,1.31,.55,1.98,.75,.67,.19,1.47,.3,2.41,.32,1.3,0,2.36-.3,3.18-.91,.82-.61,1.23-1.49,1.23-2.65v-2.74c-1.16,.85-2.39,1.28-3.71,1.28-2.13,0-3.79-.71-4.96-2.13-1.18-1.42-1.77-3.31-1.77-5.66,.02-1.48,.3-2.81,.84-3.99,.54-1.18,1.32-2.1,2.34-2.77,1.03-.67,2.25-1,3.67-1,1.24,0,2.52,.51,3.83,1.52l.43-1.13h1.25v16.65Zm-1.92-4.66v-9.35c-.51-.47-1.05-.83-1.63-1.08-.58-.25-1.26-.38-2.05-.38-1.56,0-2.75,.57-3.58,1.72-.82,1.15-1.24,2.62-1.26,4.43,0,1.91,.4,3.42,1.19,4.55,.79,1.13,1.99,1.69,3.59,1.69,1.44,0,2.69-.53,3.74-1.58Z"/><path class="cls-2" d="M593.5,112.51c-.41,0-.75-.14-1.03-.43-.29-.28-.43-.63-.43-1.03,0-.39,.14-.72,.43-.99,.28-.27,.63-.41,1.03-.41s.72,.14,1,.41c.28,.27,.43,.6,.43,.99,0,.41-.14,.75-.43,1.03-.28,.28-.62,.43-1,.43Z"/></g></svg>