<?xml version="1.0" encoding="utf-8"?>
<!-- Generator: Adobe Illustrator 15.0.0, SVG Export Plug-In . SVG Version: 6.00 Build 0)  -->
<!DOCTYPE svg PUBLIC "-//W3C//DTD SVG 1.1//EN" "http://www.w3.org/Graphics/SVG/1.1/DTD/svg11.dtd">
<svg version="1.1" id="Ebene_1" xmlns="http://www.w3.org/2000/svg" xmlns:xlink="http://www.w3.org/1999/xlink" x="0px" y="0px"
	 width="181.479px" height="37.422px" viewBox="0 0 181.479 37.422" enable-background="new 0 0 181.479 37.422"
	 xml:space="preserve">
<path fill="#2C62A8" d="M131.454,22.713c0,3.636-0.327,6.051-0.979,7.246c-0.654,1.195-1.914,1.793-3.779,1.793
	c-1.864,0-3.133-0.605-3.801-1.817c-0.67-1.211-1.006-3.617-1.006-7.222c0-3.602,0.336-6.009,1.006-7.221
	c0.668-1.212,1.937-1.817,3.801-1.817c1.865,0,3.125,0.598,3.779,1.793C131.127,16.663,131.454,19.079,131.454,22.713
	 M139.01,22.713c0-4.813-0.932-8.465-2.797-10.951c-1.865-2.487-5.029-3.73-9.492-3.73c-4.465,0-7.646,1.252-9.541,3.754
	c-1.898,2.504-2.847,6.146-2.847,10.928c0,4.783,0.948,8.426,2.847,10.929c1.895,2.503,5.076,3.755,9.541,3.755
	c4.463,0,7.627-1.244,9.492-3.731C138.078,31.179,139.01,27.528,139.01,22.713"/>
<path fill="#2C62A8" d="M150.105,16.4c0.766-0.542,1.689-1.012,2.774-1.41c1.084-0.398,2.056-0.599,2.917-0.599
	s1.498,0.256,1.912,0.767c0.414,0.51,0.623,2.008,0.623,4.494v17.121h7.412V18.84c0-0.574-0.032-1.371-0.096-2.391
	c2.01-1.371,3.889-2.058,5.645-2.058c0.923,0,1.601,0.263,2.031,0.789s0.646,2.019,0.646,4.472v17.121h7.509V18.361
	c0-3.283-0.566-5.843-1.697-7.677c-1.133-1.832-3.069-2.749-5.812-2.749c-1.179,0-2.407,0.215-3.683,0.646
	c-1.275,0.43-2.279,0.852-3.012,1.267c-0.734,0.414-1.675,0.989-2.822,1.722c-1.211-2.423-3.269-3.635-6.17-3.635
	c-1.211,0-2.502,0.231-3.873,0.694c-1.371,0.462-2.392,0.876-3.062,1.243c-0.669,0.367-1.594,0.9-2.774,1.602h-0.285l-0.861-2.822
	h-4.734v28.121h7.412V16.4z"/>
<rect y="0.001" fill="none" width="181.479" height="37.421"/>
<path fill="#2C62A8" d="M114.607,36.786l-8.582,0.512l-7.764-15.839l6.693-11.994h8.802l-7.842,11.688L114.607,36.786z
	 M90.608,36.786h7.654V0h-7.654V36.786z"/>
<path fill="#72ACD9" d="M57.813,37.422c-2.613,0-4.578-0.708-5.839-2.104c-1.269-1.404-1.886-3.979-1.886-7.868V14.672h-3.202
	v-4.107l3.487-0.678l1.109-6.65h4.928v6.5h5.591v5.031h-5.64v12.921c0,2.706,0.227,3.522,0.362,3.769
	c0.198,0.361,0.822,0.551,1.807,0.551l3.424-0.161v5.116l-0.282,0.066C60.563,37.29,59.265,37.422,57.813,37.422"/>
<path fill="#72ACD9" d="M86.936,21.332c0-4.691-0.905-8.116-2.689-10.173c-1.798-2.074-4.515-3.124-8.077-3.124
	c-7.952,0-11.984,4.938-11.984,14.679c0,9.742,4.063,14.683,12.078,14.683c3.415,0,6.717-0.771,9.815-2.288l0.278-0.135L84.837,30.2
	l-1.795,0.638c-2.763,0.921-5.423,1.389-7.904,1.389c-1.218,0-2.195-0.317-2.898-0.938c-1.067-0.98-1.626-3.074-1.665-6.223h16.36
	V21.332z M70.623,20.265c0.033-2.743,0.436-4.621,1.201-5.584c0.778-0.979,2.199-1.477,4.223-1.477c1.986,0,3.103,0.376,3.813,1.37
	c0.571,0.899,0.805,2.514,0.827,5.506L70.623,20.265z"/>
<path fill="#4F4D4D" d="M16.27,3.222H8.812L1.108,16.675C0.402,17.9,0,19.328,0,20.845c0,4.613,3.74,8.342,8.353,8.342h16.512
	l-3.656-6.502H8.324c-1.033,0-1.872-0.837-1.872-1.869c0-0.359,0.101-0.696,0.277-0.98L16.27,3.222z"/>
<path fill="#4F4D4D" d="M5.625,30.964l3.729,6.453h15.502c1.415-0.001,2.853-0.395,4.166-1.152c3.995-2.307,5.355-7.41,3.047-11.405
	c-0.006-0.011-8.255-14.3-8.255-14.3l-3.803,6.417l6.443,11.158c0.516,0.895,0.211,2.04-0.684,2.557
	c-0.311,0.18-0.653,0.282-0.988,0.272H5.625z"/>
<path fill="#4F4D4D" d="M34.964,26.403l3.729-6.458l-7.8-13.397c-0.708-1.225-1.743-2.286-3.056-3.045
	c-3.996-2.307-9.095-0.932-11.401,3.063C16.43,6.576,8.18,20.907,8.18,20.907h7.459l6.442-11.116
	c0.516-0.894,1.66-1.201,2.555-0.686c0.311,0.179,0.552,0.436,0.71,0.73L34.964,26.403z"/>
</svg>
