<?xml version="1.0"?>
<svg xmlns="http://www.w3.org/2000/svg" viewBox="0 0 141.96 33.39" width="319" height="75">
  <title>car-solutions-international_logo</title>
  <g id="a80bd081-045d-4e5b-8cfe-494a82723008" data-name="Ebene 2">
    <g id="fda17fa3-526c-4bba-a3df-669e0cd26d81" data-name="Ebene 1">
      <g>
        <g>
          <path d="M6.4,6.4V27H37.25V24.33H15.75a7.73,7.73,0,0,1,0-15.46h35.6V33.39H45V15.27H14.42v2.66h21.5a7.73,7.73,0,0,1,0,15.46H7.73A7.74,7.74,0,0,1,0,25.66V7.73A7.73,7.73,0,0,1,7.73,0H51.35V6.4Z" fill="#e8473f"/>
          <path d="M59,4.19C59,1.54,60.92,0,63.82,0c2.54,0,4,1.19,4.46,2.51l-1,.32c-.39-1-1.56-1.93-3.5-1.93C61.34.9,60,2.23,60,4.19s1.2,3.4,3.83,3.4a3.53,3.53,0,0,0,3.58-2l.93.33c-.49,1.24-1.86,2.59-4.52,2.59C60.68,8.47,59,6.88,59,4.19" fill="#ffffff"/>
        </g>
        <path d="M75.61,5.16l-2.15-4.1L71.3,5.16ZM72.94.08h1.12l4.29,8.23h-1.1L76,6H70.88L69.67,8.31h-1Z" fill="#ffffff"/>
        <g>
          <path d="M85.19,3.94c1.33,0,2-.52,2-1.42s-.66-1.46-2-1.46h-4.3V3.94ZM79.87.17h5.35c1.92,0,3,.8,3,2.33a2.12,2.12,0,0,1-2,2.17l2.08,3.64H87.14l-2-3.5H80.89v3.5h-1Z" fill="#ffffff"/>
          <path d="M58.83,20.13l1-.22c.32,1,1.51,1.73,3.56,1.73s3.19-.51,3.19-1.46c0-1.21-1.38-1.34-3.29-1.57s-3.94-.52-3.94-2.34c0-1.4,1.31-2.27,3.89-2.27s3.8,1,4.16,2l-.94.33c-.32-.77-1.31-1.42-3.22-1.42s-2.89.51-2.89,1.32c0,1.1,1.24,1.27,3,1.49,2.06.25,4.2.48,4.2,2.42,0,1.38-1.19,2.37-4.18,2.37-2.8,0-4.13-1.06-4.53-2.34" fill="#ffffff"/>
          <path d="M77.64,18.24c0-2-1.44-3.34-3.91-3.34s-3.89,1.37-3.89,3.34,1.43,3.35,3.89,3.35,3.91-1.38,3.91-3.35m-8.81,0c0-2.7,2.06-4.24,4.9-4.24s4.92,1.54,4.92,4.24-2.07,4.23-4.92,4.23-4.9-1.54-4.9-4.23" fill="#ffffff"/>
        </g>
        <polygon points="80.42 14.16 81.44 14.16 81.44 21.43 87.57 21.43 87.57 22.31 80.42 22.31 80.42 14.16" fill="#ffffff"/>
        <path d="M88.67,19.42V14.16h1V19.4c0,1.44,1.26,2.15,3.2,2.15s3.24-.7,3.24-2.09v-5.3h1v5.31c0,1.91-1.61,3-4.23,3s-4.21-1.08-4.21-3" fill="#ffffff"/>
        <polygon points="102.29 15.08 98.55 15.08 98.53 14.16 107.06 14.16 107.06 15.08 103.33 15.08 103.33 22.31 102.28 22.31 102.29 15.08" fill="#ffffff"/>
        <rect x="108.64" y="14.16" width="1.02" height="8.14" fill="#ffffff"/>
        <path d="M120.33,18.24c0-2-1.44-3.34-3.91-3.34s-3.89,1.37-3.89,3.34,1.43,3.35,3.89,3.35,3.91-1.38,3.91-3.35m-8.81,0c0-2.7,2.06-4.24,4.9-4.24s4.92,1.54,4.92,4.24-2.07,4.23-4.92,4.23-4.9-1.54-4.9-4.23" fill="#ffffff"/>
        <polygon points="123.11 14.16 124.23 14.16 130.63 20.96 130.63 14.16 131.61 14.16 131.61 22.31 130.62 22.31 124.09 15.36 124.09 22.31 123.11 22.31 123.11 14.16" fill="#ffffff"/>
        <path d="M133.25,20.13l1-.22c.32,1,1.51,1.73,3.55,1.73s3.19-.51,3.19-1.46c0-1.21-1.37-1.34-3.29-1.57s-3.94-.52-3.94-2.34c0-1.4,1.31-2.27,3.9-2.27s3.79,1,4.16,2l-.95.33c-.32-.77-1.31-1.42-3.21-1.42s-2.89.51-2.89,1.32c0,1.1,1.24,1.27,3,1.49,2.07.25,4.2.48,4.2,2.42,0,1.38-1.18,2.37-4.18,2.37-2.79,0-4.12-1.06-4.53-2.34" fill="#ffffff"/>
        <rect x="58.73" y="28.87" width="1.2" height="4.44" fill="#e8473f"/>
        <polygon points="61.39 33.31 61.39 28.87 62.57 28.87 64.2 31.36 64.21 31.36 64.21 28.87 65.31 28.87 65.31 33.31 64.2 33.31 62.5 30.82 62.49 30.82 62.49 33.31 61.39 33.31" fill="#e8473f"/>
        <polygon points="67.7 33.31 67.7 29.86 66.42 29.86 66.42 28.87 70.18 28.87 70.18 29.86 68.9 29.86 68.9 33.31 67.7 33.31" fill="#e8473f"/>
        <polygon points="71.3 33.31 71.3 28.87 74.46 28.87 74.46 29.86 72.49 29.86 72.49 30.58 73.9 30.58 73.9 31.52 72.49 31.52 72.49 32.34 74.56 32.34 74.56 33.31 71.3 33.31" fill="#e8473f"/>
        <path d="M76.94,30.85h.52c.49,0,.7-.13.7-.51s-.21-.5-.7-.5h-.52Zm-1.17,2.46V28.87H77.5c1.14,0,1.83.38,1.83,1.44a1.21,1.21,0,0,1-.87,1.3l.94,1.7H78.13l-.86-1.54h-.33v1.54Z" fill="#e8473f"/>
        <polygon points="80.68 33.31 80.68 28.87 81.86 28.87 83.49 31.36 83.5 31.36 83.5 28.87 84.59 28.87 84.59 33.31 83.49 33.31 81.79 30.82 81.78 30.82 81.78 33.31 80.68 33.31" fill="#e8473f"/>
        <path d="M87.33,31.63h.85l-.41-1.23h0Zm-1.66,1.68,1.57-4.46h1.12l1.57,4.46H88.72l-.27-.83h-1.4l-.29.83Z" fill="#e8473f"/>
        <polygon points="91.43 33.31 91.43 29.86 90.15 29.86 90.15 28.87 93.91 28.87 93.91 29.86 92.63 29.86 92.63 33.31 91.43 33.31" fill="#e8473f"/>
        <rect x="95.06" y="28.87" width="1.2" height="4.44" fill="#e8473f"/>
        <path d="M100.67,31.09c0-.82-.35-1.32-1-1.32s-1,.5-1,1.32.36,1.34,1,1.34,1-.53,1-1.34m-3.16,0a2.18,2.18,0,1,1,4.36,0,2.18,2.18,0,1,1-4.36,0" fill="#e8473f"/>
        <polygon points="103.09 33.31 103.09 28.87 104.28 28.87 105.9 31.36 105.91 31.36 105.91 28.87 107.01 28.87 107.01 33.31 105.9 33.31 104.2 30.82 104.19 30.82 104.19 33.31 103.09 33.31" fill="#e8473f"/>
        <path d="M109.75,31.63h.84l-.4-1.23h0Zm-1.66,1.68,1.57-4.46h1.11l1.57,4.46h-1.21l-.27-.83h-1.39l-.29.83Z" fill="#e8473f"/>
        <polygon points="113.42 33.31 113.42 28.87 114.62 28.87 114.62 32.34 116.49 32.34 116.49 33.31 113.42 33.31" fill="#e8473f"/>
      </g>
    </g>
  </g>
</svg>
