<svg id="Layer_1" data-name="Layer 1" xmlns="http://www.w3.org/2000/svg" viewBox="0 0 624.1 84.01"><g id="Ebene_1" data-name="Ebene 1"><path d="M24.3,56.31a15.24,15.24,0,0,0,.9,5.1c1.7,4.7,6.9,5.6,11.3,5.6,3.9,0,9.8-1.3,9.8-7,0-4-3.3-5.1-16.6-8.8-12.2-3.6-26.1-6.9-26.1-22.4,0-17.8,15.2-25.4,31-25.4,16.7,0,31.5,6.4,32.1,25.1H44.3a5.94,5.94,0,0,0-2.8-6.1,12.32,12.32,0,0,0-7-1.9c-3.2,0-8.5.9-8.5,5.2.5,5.5,11.4,6.7,22.3,9.7s21.7,7.9,21.7,22c0,20-18.4,26.5-35.6,26.5-8.7,0-33.6-3.1-33.8-27.7Z" fill="#d95930"/><path d="M79.3,33.71h21.2l7,28.5h.1l6.9-28.5h21.2v48.4H121.6v-31h-.1l-8.4,31.1H102l-8.4-31.1h-.1v31.1H79.3Z" fill="#d95930"/><path d="M159.5,33.71h14.6l17.6,48.4H176.3l-2-6.9H158.9l-2.2,6.9h-15Zm11.7,31.1-4.3-14.9h-.1l-4.7,14.9Z" fill="#d95930"/><path d="M197.8,33.71h28.4c8.5,0,15.8,4.7,15.8,13.8,0,5-2.3,10.3-7.3,12.1,4.1,1.6,6.6,6,7.1,12.1.2,2.4.3,8.1,1.6,10.4H228.5a30.93,30.93,0,0,1-1.2-7.5c-.4-4.6-.8-9.4-6.7-9.4h-7.9v16.9H197.8V33.71Zm14.9,21.2h7.8c2.8,0,6.6-.5,6.6-4.8,0-3-1.7-4.8-7.4-4.8h-7Z" fill="#d95930"/><path d="M260.8,46.11H247.2V33.71h42v12.4H275.7v36H260.8Z" fill="#d95930"/><path d="M288.1,58.51h21.2v11.1H288.1Z" fill="#d95930"/><path d="M319.8,33.71h28.4c8.5,0,15.8,4.7,15.8,13.8,0,5-2.3,10.3-7.3,12.1,4.1,1.6,6.6,6,7.1,12.1.2,2.4.3,8.1,1.6,10.4H350.5a30.93,30.93,0,0,1-1.2-7.5c-.4-4.6-.8-9.4-6.7-9.4h-7.9v16.9H319.8Zm14.9,21.2h7.8c2.8,0,6.6-.5,6.6-4.8,0-3-1.7-4.8-7.4-4.8h-7Z" fill="#d95930"/><path d="M373.4,33.71h40.1v12.4H388.4v6h22.9v11.6H388.4v6h25.9v12.4H373.5V33.71Z" fill="#d95930"/><path d="M424.5,33.71h25c13.1,0,17.8,9.6,17.8,16.6,0,11.7-7.9,17.2-19,17.2h-8.8v14.7H424.6V33.71Zm15,22.3h5.8c3.9,0,7.9-.3,7.9-5.2,0-4.4-3.4-4.7-7.1-4.7h-6.6V56Z" fill="#d95930"/><path d="M484.1,33.71h14.6l17.6,48.4H500.8l-2-6.9H483.4l-2.2,6.9h-15Zm11.7,31.1-4.4-14.9h-.1l-4.7,14.9Z" fill="#d95930"/><path d="M523,33.71h14.9v48.4H523Z" fill="#d95930"/><path d="M551.9,5.21h45.2c13.5,0,25.1,7.4,25.1,22,0,8-3.7,16.4-11.5,19.3,6.5,2.5,10.5,9.6,11.3,19.2.3,3.8.4,12.9,2.6,16.5H600.9a52.77,52.77,0,0,1-1.9-11.9c-.7-7.3-1.3-15-10.7-15H575.7v26.8H552l-.1-76.9Zm23.8,33.6h12.4c4.4,0,10.5-.8,10.5-7.7,0-4.9-2.7-7.6-11.8-7.6H575.7Z" fill="#d95930"/></g><path d="M214.5,7.35a6.47,6.47,0,0,0-.8-.9c-.3-.2-.7-.4-1-.6a5,5,0,0,0-1.2-.2,4.23,4.23,0,0,0-2,.5,3.74,3.74,0,0,0-1.3,1.2,5.09,5.09,0,0,0-.7,1.7,12.31,12.31,0,0,0-.2,2,11.08,11.08,0,0,0,.2,1.9,8.65,8.65,0,0,0,.7,1.7,3.74,3.74,0,0,0,1.3,1.2,3.94,3.94,0,0,0,2,.5,3,3,0,0,0,2.5-1,4.16,4.16,0,0,0,1.1-2.6h3.3a7.67,7.67,0,0,1-.7,2.7,6.18,6.18,0,0,1-1.5,2,5.71,5.71,0,0,1-2.1,1.3,7.66,7.66,0,0,1-2.7.4,7.94,7.94,0,0,1-3.2-.6,6.14,6.14,0,0,1-2.4-1.7,6.14,6.14,0,0,1-1.5-2.6,8.59,8.59,0,0,1-.5-3.2,11.42,11.42,0,0,1,.5-3.3,9.34,9.34,0,0,1,1.5-2.6,10.77,10.77,0,0,1,2.4-1.8,8.29,8.29,0,0,1,3.2-.6,6.9,6.9,0,0,1,2.5.4,5.29,5.29,0,0,1,2.1,1.1,6.55,6.55,0,0,1,1.5,1.8,6.11,6.11,0,0,1,.7,2.4h-3.3A3.58,3.58,0,0,0,214.5,7.35Z" fill="#3a3e3e"/><path d="M234.1,3.15v2.9h-8.3v3.4h7.6v2.7h-7.6V16h8.5v2.9H222.4V3.15Z" fill="#3a3e3e"/><path d="M241.7,3.15l6.6,10.5h0V3.15h3.2v15.7H248l-6.5-10.5h0v10.5h-3.2V3.15Z" fill="#3a3e3e"/><path d="M255,6.05V3.15h12.9v2.9h-4.7v12.8h-3.5V6.05Z" fill="#3a3e3e"/><path d="M283,3.15v2.9h-8.3v3.4h7.6v2.7h-7.6V16h8.5v2.9H271.3V3.15Z" fill="#3a3e3e"/><path d="M295.7,3.15a5.82,5.82,0,0,1,1.9.3,4.62,4.62,0,0,1,1.5.9,4.19,4.19,0,0,1,.9,1.4,4.67,4.67,0,0,1,.3,1.7,4.75,4.75,0,0,1-.6,2.4,3.24,3.24,0,0,1-1.9,1.5h0a3.7,3.7,0,0,1,1.1.5,2.18,2.18,0,0,1,.7.9,3.58,3.58,0,0,1,.4,1.1c.1.4.1.8.2,1.2V16a3.4,3.4,0,0,0,.1,1,3,3,0,0,0,.2,1,2,2,0,0,0,.4.8h-3.5A8,8,0,0,1,297,17c-.1-.7-.1-1.3-.2-2a3.76,3.76,0,0,0-.7-1.8,2.55,2.55,0,0,0-1.9-.6h-3.5v6.1h-3.5V3.15Zm-1.3,7.1a3,3,0,0,0,1.8-.5,2.2,2.2,0,0,0,.6-1.7,2.2,2.2,0,0,0-.6-1.7,2.43,2.43,0,0,0-1.8-.5h-3.8v4.4Z" fill="#3a3e3e"/><path d="M319.3,3.15a8.21,8.21,0,0,1,2.8.5,5.74,5.74,0,0,1,2.3,1.5,8.17,8.17,0,0,1,1.5,2.4,9,9,0,0,1,.5,3.4,11.24,11.24,0,0,1-.4,3.2,6.61,6.61,0,0,1-1.3,2.5,6.2,6.2,0,0,1-2.2,1.7,7.45,7.45,0,0,1-3.1.6h-6.8V3.15ZM319,16a7.72,7.72,0,0,0,1.5-.2,3.53,3.53,0,0,0,1.3-.8,3.77,3.77,0,0,0,.9-1.5,6.87,6.87,0,0,0,.3-2.2,12.48,12.48,0,0,0-.2-2.1,4,4,0,0,0-.8-1.6,2.81,2.81,0,0,0-1.4-1,6.54,6.54,0,0,0-2.1-.4H316v9.9l3-.1Z" fill="#3a3e3e"/><path d="M333.9,3.15v15.7h-3.5V3.15Z" fill="#3a3e3e"/><path d="M350.3,3.15v2.9H342v3.4h7.6v2.7H342V16h8.5v2.9H338.6V3.15Z" fill="#3a3e3e"/><path d="M361.9,3.15a12.31,12.31,0,0,1,2,.2,4.42,4.42,0,0,1,1.6.6,2.94,2.94,0,0,1,1,1.2,4.78,4.78,0,0,1,.4,1.8,3.94,3.94,0,0,1-.5,2,4.17,4.17,0,0,1-1.6,1.3,4,4,0,0,1,2.2,1.5,4.09,4.09,0,0,1,.7,2.5,4.65,4.65,0,0,1-.5,2.1,3.33,3.33,0,0,1-1.2,1.4,7.5,7.5,0,0,1-1.8.8,7.61,7.61,0,0,1-2.1.3h-7.6V3.15Zm-.5,6.3a2.41,2.41,0,0,0,1.5-.4,1.68,1.68,0,0,0,.6-1.4,2,2,0,0,0-.2-.9,1.21,1.21,0,0,0-.5-.5A6.89,6.89,0,0,0,362,6a2.77,2.77,0,0,0-.9-.1h-3.2v3.7l3.5-.1Zm.2,6.7a3.4,3.4,0,0,0,1-.1,6.89,6.89,0,0,0,.8-.3l.6-.6a1.5,1.5,0,0,0,.2-1,1.83,1.83,0,0,0-.7-1.7,3.45,3.45,0,0,0-1.8-.5h-3.8v4.3l3.7-.1Z" fill="#3a3e3e"/><path d="M383.2,17.65a7.39,7.39,0,0,1-4.9,1.6,7.18,7.18,0,0,1-4.9-1.5c-1.2-1-1.7-2.6-1.7-4.8V3.15h3.5V13a6.15,6.15,0,0,0,.1,1.3,2.22,2.22,0,0,0,.5,1.1,2.72,2.72,0,0,0,1,.8,4,4,0,0,0,1.7.3,3.67,3.67,0,0,0,2.6-.8,3.68,3.68,0,0,0,.7-2.6V3.25h3.5v9.8A7.34,7.34,0,0,1,383.2,17.65Z" fill="#3a3e3e"/><path d="M398,3.15a5.82,5.82,0,0,1,1.9.3,4.62,4.62,0,0,1,1.5.9,4.19,4.19,0,0,1,.9,1.4,4.67,4.67,0,0,1,.3,1.7,4.75,4.75,0,0,1-.6,2.4,3.24,3.24,0,0,1-1.9,1.5h0a3.7,3.7,0,0,1,1.1.5,2.18,2.18,0,0,1,.7.9,4.87,4.87,0,0,1,.4,1.1c.1.4.1.8.2,1.2V16a3.4,3.4,0,0,0,.1,1,3,3,0,0,0,.2,1,2,2,0,0,0,.4.8h-3.5a8,8,0,0,1-.4-1.8c-.1-.7-.1-1.3-.2-2a3.76,3.76,0,0,0-.7-1.8,2.55,2.55,0,0,0-1.9-.6H393v6.1h-3.5V3.15Zm-1.2,7.1a3,3,0,0,0,1.8-.5,2.2,2.2,0,0,0,.6-1.7,2.2,2.2,0,0,0-.6-1.7,3,3,0,0,0-1.8-.5H393v4.4Z" fill="#3a3e3e"/><path d="M416.4,18.75a5.93,5.93,0,0,1-2.3.5,7.94,7.94,0,0,1-3.2-.6,6.14,6.14,0,0,1-2.4-1.7,6.14,6.14,0,0,1-1.5-2.6,8.59,8.59,0,0,1-.5-3.2,11.42,11.42,0,0,1,.5-3.3,9.34,9.34,0,0,1,1.5-2.6,10.77,10.77,0,0,1,2.4-1.8,8.29,8.29,0,0,1,3.2-.6,5.87,5.87,0,0,1,2.3.4,4.9,4.9,0,0,1,2,1.1,6.12,6.12,0,0,1,1.5,1.7,6.11,6.11,0,0,1,.7,2.4h-3.3a3.4,3.4,0,0,0-1.2-2,2.13,2.13,0,0,0-1.9-.8,4.23,4.23,0,0,0-2,.5,3.74,3.74,0,0,0-1.3,1.2,5.09,5.09,0,0,0-.7,1.7,6.48,6.48,0,0,0-.2,2,11.08,11.08,0,0,0,.2,1.9,8.65,8.65,0,0,0,.7,1.7,3.74,3.74,0,0,0,1.3,1.2,3.94,3.94,0,0,0,2,.5,4,4,0,0,0,2.7-.9A3.88,3.88,0,0,0,418,13h-3.5v-2.6h6.6v8.5h-2.2l-.4-1.8A6.56,6.56,0,0,1,416.4,18.75Z" fill="#3a3e3e"/></svg>