<svg id="Layer_1" data-name="Layer 1" xmlns="http://www.w3.org/2000/svg" viewBox="0 0 624 83.45"><g id="Ebene_1" data-name="Ebene 1"><path d="M23.7,55.45a15.24,15.24,0,0,0,.9,5.1c1.7,4.7,6.9,5.6,11.3,5.6,3.9,0,9.8-1.3,9.8-7,0-4-3.3-5.1-16.6-8.8C16.9,46.85,3,43.55,3,28.05c0-17.8,15.2-25.3,31-25.3,16.7,0,31.5,6.4,32.1,25.1H43.7a5.94,5.94,0,0,0-2.8-6.1,12.32,12.32,0,0,0-7-1.9c-3.2,0-8.5.9-8.5,5.2.5,5.5,11.4,6.7,22.3,9.7S69.4,42.85,69.4,57c0,20-18.4,26.5-35.6,26.5-8.7,0-33.6-3.1-33.8-27.7Z" fill="#2978c7"/><path d="M78.7,32.85H99.9l7,28.5h.1l6.9-28.5h21.2v48.4H121v-31h-.1l-8.4,31.1H101.4L93,50.25h-.1v31.1H78.7V32.85Z" fill="#2978c7"/><path d="M158.9,32.85h14.6l17.6,48.4H175.7l-2-6.9H158.3l-2.2,6.9h-15ZM170.6,64l-4.3-14.9h-.1L161.5,64Z" fill="#2978c7"/><path d="M197.2,32.85h28.4c8.5,0,15.8,4.7,15.8,13.8,0,5-2.3,10.3-7.3,12.1,4.1,1.6,6.6,6,7.1,12.1.2,2.4.3,8.1,1.6,10.4H227.9a30.93,30.93,0,0,1-1.2-7.5c-.4-4.6-.8-9.4-6.7-9.4h-7.9v16.9H197.2V32.85Zm14.9,21.2h7.8c2.8,0,6.6-.5,6.6-4.8,0-3.1-1.7-4.8-7.4-4.8h-7v9.6Z" fill="#2978c7"/><path d="M260.2,45.25H246.6V32.85h42v12.4H275.1v36H260.2Z" fill="#2978c7"/><path d="M287.5,57.75h21.2v11.1H287.5Z" fill="#2978c7"/><path d="M319.2,32.85h28.4c8.5,0,15.8,4.7,15.8,13.8,0,5-2.3,10.3-7.3,12.1,4.1,1.6,6.6,6,7.1,12.1.2,2.4.3,8.1,1.6,10.4H349.9a30.93,30.93,0,0,1-1.2-7.5c-.4-4.6-.8-9.4-6.7-9.4h-7.9v16.9H319.2Zm14.9,21.2h7.8c2.8,0,6.6-.5,6.6-4.8,0-3.1-1.7-4.8-7.4-4.8h-7Z" fill="#2978c7"/><path d="M372.8,32.85h40.1v12.4H387.8v6h22.8v11.6H387.7v6h25.9v12.4H372.8Z" fill="#2978c7"/><path d="M423.9,32.85h25c13.1,0,17.8,9.6,17.8,16.6,0,11.7-7.9,17.2-19,17.2h-8.8v14.7H424V32.85Zm15,22.4h5.8c3.9,0,7.9-.3,7.9-5.2,0-4.4-3.4-4.7-7.1-4.7h-6.6v9.9Z" fill="#2978c7"/><path d="M483.5,32.85h14.6l17.6,48.4H500.2l-2-6.9H482.8l-2.2,6.9h-15ZM495.2,64l-4.4-14.9h-.1L486,64Z" fill="#2978c7"/><path d="M522.4,32.85h14.9v48.4H522.4Z" fill="#2978c7"/><path d="M551.3,4.35h45.2c13.5,0,25.1,7.4,25.1,22,0,8-3.7,16.4-11.5,19.3,6.5,2.5,10.5,9.6,11.3,19.2.3,3.8.4,12.9,2.6,16.5H600.3a52.77,52.77,0,0,1-1.9-11.9c-.7-7.3-1.3-15-10.7-15H575.1v26.8H551.4l-.1-76.9Zm23.8,33.7h12.4c4.4,0,10.5-.8,10.5-7.6,0-4.9-2.7-7.6-11.8-7.6H575.1v15.2Z" fill="#2978c7"/><path d="M180.9,10.55a6.47,6.47,0,0,0-.8-.9,8.79,8.79,0,0,0-1-.6,5,5,0,0,0-1.2-.2,4.48,4.48,0,0,0-2,.4,3.74,3.74,0,0,0-1.3,1.2,5.31,5.31,0,0,0-.8,1.7,6.8,6.8,0,0,0-.2,2,12.25,12.25,0,0,0,.2,1.9,5.09,5.09,0,0,0,.7,1.7,3.74,3.74,0,0,0,1.3,1.2,4.16,4.16,0,0,0,4.5-.6,4.71,4.71,0,0,0,1.1-2.6h3.3a9,9,0,0,1-.7,2.7,7.18,7.18,0,0,1-1.4,2,5.71,5.71,0,0,1-2.1,1.3,7.83,7.83,0,0,1-2.6.4,8.66,8.66,0,0,1-3.2-.6,8.07,8.07,0,0,1-2.4-1.7,6.81,6.81,0,0,1-1.5-2.6,8.59,8.59,0,0,1-.5-3.2,12.57,12.57,0,0,1,.5-3.3,6.14,6.14,0,0,1,1.5-2.6,6.9,6.9,0,0,1,2.4-1.8,7,7,0,0,1,3.2-.6,6.37,6.37,0,0,1,2.4.4,7.09,7.09,0,0,1,2.1,1.1,6.55,6.55,0,0,1,1.5,1.8,6.81,6.81,0,0,1,.8,2.4h-3.3A7.26,7.26,0,0,1,180.9,10.55Z" fill="#3a3e3e"/><path d="M200.7,6.35v2.9h-8.3v3.3H200v2.7h-7.6v3.8h8.4V22H188.9V6.35Z" fill="#3a3e3e"/><path d="M208.6,6.35l6.5,10.5h0V6.35h3.2v15.7h-3.5l-6.5-10.5h0v10.5h-3.2V6.35Z" fill="#3a3e3e"/><path d="M222.2,9.25V6.35h12.9v2.9h-4.7v12.8h-3.5V9.25Z" fill="#3a3e3e"/><path d="M250.6,6.35v2.9h-8.3v3.3h7.6v2.7h-7.6v3.8h8.5V22H238.9V6.35Z" fill="#3a3e3e"/><path d="M263.5,6.35a6.28,6.28,0,0,1,1.9.3,6,6,0,0,1,1.5.9,4.19,4.19,0,0,1,.9,1.4,4.67,4.67,0,0,1,.3,1.7,5,5,0,0,1-.6,2.4,3.17,3.17,0,0,1-1.9,1.5h0a3.13,3.13,0,0,1,1,.5,2.18,2.18,0,0,1,.7.9,3.58,3.58,0,0,1,.4,1.1c.1.4.1.8.2,1.2v.9a3.08,3.08,0,0,0,.1,1,3.55,3.55,0,0,0,.2,1,2,2,0,0,0,.4.8h-3.5a11.63,11.63,0,0,1-.4-1.8,13.55,13.55,0,0,0-.2-2,2.87,2.87,0,0,0-.7-1.8,3.08,3.08,0,0,0-1.9-.6h-3.4v6.1H255V6.25l8.5.1Zm-1.2,7.1a2.9,2.9,0,0,0,1.8-.5,2.72,2.72,0,0,0,.6-1.7,2.24,2.24,0,0,0-.6-1.7,2.27,2.27,0,0,0-1.8-.5h-3.8v4.4Z" fill="#3a3e3e"/></g><path d="M285.87,6.62a7.88,7.88,0,0,1,2.82.49A6,6,0,0,1,291,8.56a6.67,6.67,0,0,1,1.5,2.41,10,10,0,0,1,.53,3.41,10.63,10.63,0,0,1-.44,3.16,7,7,0,0,1-1.32,2.51A6.33,6.33,0,0,1,289,21.7a7.41,7.41,0,0,1-3.13.61H279.1V6.62Zm-.24,12.79a4.5,4.5,0,0,0,1.45-.24,3.21,3.21,0,0,0,1.25-.81,4.09,4.09,0,0,0,.88-1.46,6.39,6.39,0,0,0,.33-2.19,8.75,8.75,0,0,0-.24-2.14,4.2,4.2,0,0,0-.75-1.64,3.37,3.37,0,0,0-1.4-1A5.4,5.4,0,0,0,285,9.52h-2.46v9.89Z" fill="#3a3e3e"/><path d="M308.56,21.11a7.27,7.27,0,0,1-4.92,1.55,7.17,7.17,0,0,1-4.93-1.54A6,6,0,0,1,297,16.38V6.62h3.45v9.76a7.45,7.45,0,0,0,.11,1.25,2.59,2.59,0,0,0,.46,1.09,2.46,2.46,0,0,0,1,.76,4,4,0,0,0,1.68.3,3.23,3.23,0,0,0,2.55-.82,4,4,0,0,0,.7-2.58V6.62h3.45v9.76A5.92,5.92,0,0,1,308.56,21.11ZM302.87,2.3V4.87h-3V2.3Zm4.52,0V4.87h-3V2.3Z" fill="#3a3e3e"/><path d="M317.59,18.44a2.51,2.51,0,0,0,.75.89,3.32,3.32,0,0,0,1.11.51,5.3,5.3,0,0,0,1.32.16,5.82,5.82,0,0,0,1-.08,3.65,3.65,0,0,0,1-.29,2.2,2.2,0,0,0,.77-.61,1.52,1.52,0,0,0,.31-1,1.4,1.4,0,0,0-.41-1,3.37,3.37,0,0,0-1.07-.66,12.07,12.07,0,0,0-1.49-.46c-.56-.13-1.12-.27-1.69-.44a13.59,13.59,0,0,1-1.71-.53,6,6,0,0,1-1.5-.83,3.82,3.82,0,0,1-1.06-1.26,3.76,3.76,0,0,1-.41-1.84A4,4,0,0,1,315,8.9a4.59,4.59,0,0,1,1.35-1.49,5.85,5.85,0,0,1,1.89-.87,8,8,0,0,1,2.11-.29,10.23,10.23,0,0,1,2.36.27,6.1,6.1,0,0,1,2,.89A4.56,4.56,0,0,1,326.12,9a4.88,4.88,0,0,1,.52,2.32H323.3a2.74,2.74,0,0,0-.3-1.16,2,2,0,0,0-.67-.73,2.86,2.86,0,0,0-.95-.37,6.15,6.15,0,0,0-1.18-.11,3.84,3.84,0,0,0-.83.09,2.22,2.22,0,0,0-.76.31,1.7,1.7,0,0,0-.56.54,1.46,1.46,0,0,0-.22.84,1.49,1.49,0,0,0,.17.75,1.57,1.57,0,0,0,.7.52,8.75,8.75,0,0,0,1.42.49l2.39.61c.29.06.7.17,1.22.32a5.76,5.76,0,0,1,1.55.74,4.48,4.48,0,0,1,1.32,1.35,3.77,3.77,0,0,1,.57,2.16,4.78,4.78,0,0,1-.42,2,4.33,4.33,0,0,1-1.24,1.59,5.92,5.92,0,0,1-2.05,1.05,9.94,9.94,0,0,1-2.82.37,10.12,10.12,0,0,1-2.52-.32,6.16,6.16,0,0,1-2.15-1,5,5,0,0,1-1.48-1.73A5.22,5.22,0,0,1,314,17.1h3.34A2.86,2.86,0,0,0,317.59,18.44Z" fill="#3a3e3e"/><path d="M333.49,18.44a2.44,2.44,0,0,0,.76.89,3.15,3.15,0,0,0,1.11.51,5.19,5.19,0,0,0,1.32.16,5.78,5.78,0,0,0,1-.08,3.45,3.45,0,0,0,1-.29,2.11,2.11,0,0,0,.77-.61,1.47,1.47,0,0,0,.31-1,1.4,1.4,0,0,0-.41-1,3.31,3.31,0,0,0-1.06-.66,12.83,12.83,0,0,0-1.5-.46c-.55-.13-1.12-.27-1.69-.44a14.69,14.69,0,0,1-1.71-.53,5.8,5.8,0,0,1-1.49-.83,3.69,3.69,0,0,1-1.48-3.1,4.13,4.13,0,0,1,.52-2.09,4.59,4.59,0,0,1,1.35-1.49,6.05,6.05,0,0,1,1.89-.87,8.07,8.07,0,0,1,2.11-.29,10.1,10.1,0,0,1,2.36.27,6.1,6.1,0,0,1,2,.89A4.46,4.46,0,0,1,342,9a4.76,4.76,0,0,1,.52,2.32H339.2a2.9,2.9,0,0,0-.29-1.16,2.05,2.05,0,0,0-.67-.73,2.91,2.91,0,0,0-1-.37,6.15,6.15,0,0,0-1.18-.11,4,4,0,0,0-.83.09,2.22,2.22,0,0,0-.76.31,1.92,1.92,0,0,0-.56.54,1.54,1.54,0,0,0-.22.84,1.39,1.39,0,0,0,.18.75,1.59,1.59,0,0,0,.69.52,8.58,8.58,0,0,0,1.43.49l2.38.61c.29.06.7.17,1.22.32a5.62,5.62,0,0,1,1.55.74,4.63,4.63,0,0,1,1.33,1.35,3.85,3.85,0,0,1,.56,2.16,4.78,4.78,0,0,1-.42,2,4.33,4.33,0,0,1-1.24,1.59,6,6,0,0,1-2,1.05,10.51,10.51,0,0,1-5.34.05,6.16,6.16,0,0,1-2.15-1,4.89,4.89,0,0,1-1.49-1.73,5.22,5.22,0,0,1-.52-2.51h3.34A2.86,2.86,0,0,0,333.49,18.44Z" fill="#3a3e3e"/><path d="M358.49,6.62v2.9h-8.28v3.36h7.6v2.68h-7.6v3.85h8.45v2.9h-11.9V6.62Z" fill="#3a3e3e"/><path d="M366.09,6.62V19.41h7.64v2.9H362.64V6.62Z" fill="#3a3e3e"/><path d="M384.08,6.62a7.88,7.88,0,0,1,2.82.49,6.09,6.09,0,0,1,2.27,1.45A6.79,6.79,0,0,1,390.66,11a9.76,9.76,0,0,1,.54,3.41,11,11,0,0,1-.44,3.16,7.18,7.18,0,0,1-1.33,2.51,6.24,6.24,0,0,1-2.22,1.65,7.41,7.41,0,0,1-3.13.61h-6.77V6.62Zm-.24,12.79a4.5,4.5,0,0,0,1.45-.24,3.14,3.14,0,0,0,1.25-.81,4,4,0,0,0,.88-1.46,6.39,6.39,0,0,0,.33-2.19,9.3,9.3,0,0,0-.23-2.14,4.36,4.36,0,0,0-.76-1.64,3.37,3.37,0,0,0-1.4-1,5.37,5.37,0,0,0-2.14-.37h-2.46v9.89Z" fill="#3a3e3e"/><path d="M395.08,11.27a8.06,8.06,0,0,1,1.52-2.63A7,7,0,0,1,399,6.89a8.55,8.55,0,0,1,6.49,0,7,7,0,0,1,2.42,1.75,8,8,0,0,1,1.51,2.63,9.82,9.82,0,0,1,.53,3.26,9.55,9.55,0,0,1-.53,3.2,7.7,7.7,0,0,1-1.51,2.58A6.93,6.93,0,0,1,405.52,22,8.67,8.67,0,0,1,399,22a6.88,6.88,0,0,1-2.43-1.72,7.73,7.73,0,0,1-1.52-2.58,9.55,9.55,0,0,1-.52-3.2A9.82,9.82,0,0,1,395.08,11.27Zm3.16,5.18a5.1,5.1,0,0,0,.73,1.68,3.81,3.81,0,0,0,1.32,1.2,4,4,0,0,0,2,.45,4.08,4.08,0,0,0,2-.45,3.69,3.69,0,0,0,1.31-1.2,5.12,5.12,0,0,0,.74-1.68,8.14,8.14,0,0,0,.23-1.92,8.82,8.82,0,0,0-.23-2,5.33,5.33,0,0,0-.74-1.72,3.63,3.63,0,0,0-1.31-1.21,4.08,4.08,0,0,0-2-.45,4,4,0,0,0-2,.45A3.74,3.74,0,0,0,399,10.81a5.32,5.32,0,0,0-.73,1.72,8.29,8.29,0,0,0-.23,2A7.65,7.65,0,0,0,398.24,16.45Z" fill="#3a3e3e"/><path d="M422.43,6.62a5.15,5.15,0,0,1,1.9.34,4.28,4.28,0,0,1,1.45.94,4,4,0,0,1,.93,1.37A4.45,4.45,0,0,1,427,11a4.74,4.74,0,0,1-.59,2.4,3.66,3.66,0,0,1-1.9,1.53v0a2.58,2.58,0,0,1,1.06.53,3.15,3.15,0,0,1,.68.86,4.13,4.13,0,0,1,.38,1.09,9.47,9.47,0,0,1,.17,1.19c0,.24,0,.54,0,.87s0,.68.08,1a6.32,6.32,0,0,0,.17,1,2.36,2.36,0,0,0,.37.8H424a6,6,0,0,1-.35-1.78c-.05-.69-.11-1.35-.2-2a3.13,3.13,0,0,0-.75-1.8,2.57,2.57,0,0,0-1.87-.57h-3.44v6.13H414V6.62Zm-1.23,7.1a2.61,2.61,0,0,0,1.78-.53,2.16,2.16,0,0,0,.6-1.71,2.08,2.08,0,0,0-.6-1.66,2.66,2.66,0,0,0-1.78-.52h-3.77v4.42Z" fill="#3a3e3e"/><path d="M442.51,6.62v2.9h-7.58v3.63h6.57v2.68h-6.57v6.48h-3.45V6.62Z" fill="#3a3e3e"/></svg>