<svg id="Layer_1" data-name="Layer 1" xmlns="http://www.w3.org/2000/svg" viewBox="0 0 624.06 80.64"><g id="Ebene_1" data-name="Ebene 1"><g style="isolation:isolate"><g style="isolation:isolate"><path d="M24.45,53.05a14.16,14.16,0,0,0,.86,5.06c1.73,4.64,6.9,5.61,11.32,5.61,3.88,0,9.81-1.29,9.81-7,0-4-3.34-5.06-16.6-8.84C17.66,44.42,3.75,41.08,3.75,25.56,3.75,7.77,19,.12,34.8.12c16.71,0,31.48,6.36,32.12,25.11H44.5a5.88,5.88,0,0,0-2.8-6.14,12.32,12.32,0,0,0-7-1.94c-3.23,0-8.51.86-8.51,5.17C26.61,27.82,37.6,29,48.49,32s21.67,8.08,21.67,22.2c0,20.05-18.44,26.52-35.58,26.52C25.85,80.75,1,77.63.73,53.05Z" transform="translate(-0.73 -0.12)" fill="#e47025"/></g><g style="isolation:isolate"><path d="M79.46,30.49h21.23L107.61,59h.13l6.92-28.49h21.23V78.92H121.78V47.86h-.13l-8.41,31.06H102.11L93.7,47.86h-.13V78.92H79.46Z" transform="translate(-0.73 -0.12)" fill="#e47025"/><path d="M159.69,30.49h14.58l17.64,48.43H176.44l-2-6.92H159l-2.17,6.92h-15Zm11.73,31.13L167.08,46.7H167l-4.68,14.92Z" transform="translate(-0.73 -0.12)" fill="#e47025"/></g><g style="isolation:isolate"><path d="M197.94,30.49h28.41c8.48,0,15.81,4.68,15.81,13.84,0,5-2.31,10.31-7.26,12.14,4.07,1.56,6.58,6,7.12,12.07.21,2.38.27,8.14,1.63,10.38H228.73a34.48,34.48,0,0,1-1.22-7.46c-.41-4.61-.82-9.43-6.72-9.43h-7.93V78.92H197.94Zm14.92,21.16h7.8c2.78,0,6.58-.47,6.58-4.81,0-3.05-1.7-4.82-7.4-4.82h-7Z" transform="translate(-0.73 -0.12)" fill="#e47025"/></g><g style="isolation:isolate"><path d="M261,42.9H247.45V30.49H289.5V42.9H275.93v36H261Z" transform="translate(-0.73 -0.12)" fill="#e47025"/></g><g style="isolation:isolate"><path d="M288.28,55.25h21.23V66.37H288.28Z" transform="translate(-0.73 -0.12)" fill="#e47025"/><path d="M320,30.49h28.42c8.48,0,15.8,4.68,15.8,13.84,0,5-2.3,10.31-7.25,12.14,4.06,1.56,6.57,6,7.12,12.07.2,2.38.27,8.14,1.62,10.38H350.74a35.1,35.1,0,0,1-1.22-7.46c-.41-4.61-.81-9.43-6.71-9.43h-7.94V78.92H320Zm14.92,21.16h7.8c2.78,0,6.58-.47,6.58-4.81,0-3.05-1.7-4.82-7.39-4.82h-7Z" transform="translate(-0.73 -0.12)" fill="#e47025"/><path d="M373.6,30.49h40.08V42.9H388.52v6h22.85V60.47H388.52v6h25.91V78.92H373.6Z" transform="translate(-0.73 -0.12)" fill="#e47025"/></g><g style="isolation:isolate"><path d="M424.73,30.49h25c13.15,0,17.77,9.63,17.77,16.55,0,11.74-7.87,17.23-19,17.23h-8.81V78.92H424.73Zm14.92,22.25h5.76c3.87,0,7.94-.27,7.94-5.16,0-4.4-3.39-4.68-7.06-4.68h-6.64Z" transform="translate(-0.73 -0.12)" fill="#e47025"/></g><g style="isolation:isolate"><path d="M484.28,30.49h14.58l17.63,48.43H501L499,72H483.6l-2.17,6.92h-15ZM496,61.62,491.67,46.7h-.14l-4.68,14.92Z" transform="translate(-0.73 -0.12)" fill="#e47025"/></g><g style="isolation:isolate"><path d="M523.21,30.49h14.92V78.92H523.21Z" transform="translate(-0.73 -0.12)" fill="#e47025"/></g><g style="isolation:isolate"><path d="M552.13,2H597.3c13.48,0,25.12,7.44,25.12,22,0,8-3.66,16.39-11.53,19.3,6.47,2.48,10.45,9.59,11.32,19.19.32,3.77.43,12.93,2.58,16.49H601.08a55.1,55.1,0,0,1-1.94-11.86c-.65-7.33-1.3-15-10.68-15H575.85V78.92H552.13Zm23.72,33.63h12.4c4.42,0,10.46-.75,10.46-7.65,0-4.85-2.7-7.65-11.75-7.65H575.85Z" transform="translate(-0.73 -0.12)" fill="#e47025"/></g></g><g style="isolation:isolate"><path d="M187.49,7.69A2.51,2.51,0,0,0,185,5.39c-2.26,0-3,2.19-3,4.3s.73,4.31,3,4.31c1.62,0,2.26-1.15,2.54-2.62h4.75c0,3.16-2.57,6.52-7.16,6.52-5.07,0-7.95-3.58-7.95-8.21,0-4.94,3.12-8.21,7.95-8.21,4.3,0,6.67,2.28,7.09,6.21Z" transform="translate(-0.73 -0.12)" fill="#3a3e3e"/><path d="M196.25,1.85h13v4h-8.14v2h7.4v3.73h-7.4v1.95h8.38v4H196.25Z" transform="translate(-0.73 -0.12)" fill="#3a3e3e"/><path d="M213.7,1.85h4.94l4.56,8.39h.05V1.85h4.57V17.53h-4.7L218.31,9h-.05v8.56H213.7Z" transform="translate(-0.73 -0.12)" fill="#3a3e3e"/><path d="M236,5.87h-4.39v-4H245.2v4h-4.39V17.53H236Z" transform="translate(-0.73 -0.12)" fill="#3a3e3e"/><path d="M249,1.85h13v4h-8.15v2h7.4v3.73h-7.4v1.95h8.39v4H249Z" transform="translate(-0.73 -0.12)" fill="#3a3e3e"/><path d="M266.38,1.85h9.2c2.74,0,5.11,1.52,5.11,4.48a4,4,0,0,1-2.35,3.93c1.32.51,2.13,2,2.31,3.91a10.14,10.14,0,0,0,.53,3.36h-4.83a11,11,0,0,1-.4-2.41c-.13-1.5-.26-3.06-2.17-3.06h-2.57v5.47h-4.83Zm4.83,6.85h2.52c.9,0,2.13-.15,2.13-1.56,0-1-.55-1.56-2.39-1.56h-2.26Z" transform="translate(-0.73 -0.12)" fill="#3a3e3e"/><path d="M293.92,1.85h13v4h-8.15v2h7.4v3.73h-7.4v1.95h8.39v4H293.92Z" transform="translate(-0.73 -0.12)" fill="#3a3e3e"/><path d="M311.35,1.85h8.59c4.13,0,5,2.33,5,3.93A3.25,3.25,0,0,1,323,8.86a3.81,3.81,0,0,1,2.72,3.91c0,3.14-2.72,4.76-5.48,4.76h-8.9ZM316.18,8h2.55c1,0,1.65-.29,1.65-1.3,0-.79-.66-1.08-1.65-1.08h-2.55Zm0,5.84H319c1,0,1.89-.29,1.89-1.5,0-.92-.55-1.42-1.69-1.42h-3Z" transform="translate(-0.73 -0.12)" fill="#3a3e3e"/><path d="M329.59,1.85h13v4h-8.15v2h7.4v3.73h-7.4v1.95h8.39v4H329.59Z" transform="translate(-0.73 -0.12)" fill="#3a3e3e"/><path d="M347,1.85h9.2c2.75,0,5.12,1.52,5.12,4.48A4,4,0,0,1,359,10.26c1.31.51,2.13,2,2.3,3.91a10.4,10.4,0,0,0,.53,3.36H357a11.67,11.67,0,0,1-.4-2.41c-.13-1.5-.26-3.06-2.17-3.06h-2.57v5.47H347Zm4.83,6.85h2.53c.9,0,2.13-.15,2.13-1.56,0-1-.55-1.56-2.4-1.56h-2.26Z" transform="translate(-0.73 -0.12)" fill="#3a3e3e"/><path d="M369.1,12.26a2.83,2.83,0,0,0,.18,1c.35,1,1.4,1.14,2.3,1.14s2-.26,2-1.42c0-.82-.68-1-3.38-1.8-2.48-.71-5.31-1.39-5.31-4.55,0-3.62,3.09-5.18,6.32-5.18,3.41,0,6.41,1.29,6.54,5.12h-4.56a1.22,1.22,0,0,0-.57-1.26A2.57,2.57,0,0,0,371.19,5c-.66,0-1.73.17-1.73,1,.08,1.12,2.32,1.36,4.54,2s4.41,1.65,4.41,4.52c0,4.09-3.75,5.4-7.24,5.4-1.78,0-6.85-.63-6.9-5.64Z" transform="translate(-0.73 -0.12)" fill="#3a3e3e"/><path d="M381.88,1.85h8.58c4.13,0,5,2.33,5,3.93a3.25,3.25,0,0,1-1.93,3.08,3.82,3.82,0,0,1,2.72,3.91c0,3.14-2.72,4.76-5.49,4.76h-8.89ZM386.71,8h2.54c1,0,1.65-.29,1.65-1.3,0-.79-.66-1.08-1.65-1.08h-2.54Zm0,5.84h2.83c1,0,1.89-.29,1.89-1.5,0-.92-.55-1.42-1.69-1.42h-3Z" transform="translate(-0.73 -0.12)" fill="#3a3e3e"/><path d="M400.12,1.85h13v4H405v2h7.4v3.73H405v1.95h8.39v4H400.12Z" transform="translate(-0.73 -0.12)" fill="#3a3e3e"/><path d="M417.55,1.85h9.2c2.74,0,5.11,1.52,5.11,4.48a4,4,0,0,1-2.35,3.93c1.32.51,2.13,2,2.31,3.91a10.39,10.39,0,0,0,.52,3.36h-4.83a11.65,11.65,0,0,1-.39-2.41c-.13-1.5-.26-3.06-2.17-3.06h-2.57v5.47h-4.83Zm4.83,6.85h2.52c.9,0,2.13-.15,2.13-1.56,0-1-.55-1.56-2.39-1.56h-2.26Z" transform="translate(-0.73 -0.12)" fill="#3a3e3e"/><path d="M447.27,15.93a5.5,5.5,0,0,1-4.46,2c-4.63,0-7.48-3.6-7.48-8.06,0-6,4.19-8.36,7.72-8.36,4,0,6.53,2.17,7.23,5.86h-4.64a2.29,2.29,0,0,0-2.28-1.95c-3.31,0-3.2,3.49-3.2,4.57,0,1.47.59,4,3.53,4a2.4,2.4,0,0,0,2.5-1.74h-2.13V8.9h6.42v8.63h-3.06Z" transform="translate(-0.73 -0.12)" fill="#3a3e3e"/></g></g></svg>