<svg id="Layer_1" data-name="Layer 1" xmlns="http://www.w3.org/2000/svg" viewBox="0 0 624 84"><g id="Ebene_1" data-name="Ebene 1"><path d="M23.7,55.45a15.24,15.24,0,0,0,.9,5.1c1.7,4.7,6.9,5.6,11.3,5.6,3.9,0,9.8-1.3,9.8-7,0-4-3.3-5.1-16.6-8.8C16.9,46.85,3,43.55,3,28.05c0-17.8,15.2-25.4,31-25.4,16.7,0,31.5,6.4,32.1,25.1H43.7a5.94,5.94,0,0,0-2.8-6.1,12.32,12.32,0,0,0-7-1.9c-3.2,0-8.5.9-8.5,5.2.5,5.5,11.4,6.7,22.3,9.7s21.7,8.1,21.7,22.2c0,20-18.4,26.5-35.6,26.5-8.7,0-33.6-3.1-33.8-27.7Z" fill="#e47025"/><path d="M78.7,32.85H99.9l7,28.5h.1l6.9-28.5h21.2v48.4H121V50.15h-.1l-8.4,31.1H101.4L93,50.15h-.1v31.1H78.7Z" fill="#e47025"/><path d="M158.9,32.85h14.6l17.6,48.4H175.7l-2-6.9H158.3l-2.2,6.9h-15ZM170.6,64l-4.3-14.9h-.1L161.5,64Z" fill="#e47025"/><path d="M197.2,32.85h28.4c8.5,0,15.8,4.7,15.8,13.8,0,5-2.3,10.3-7.3,12.1,4.1,1.6,6.6,6,7.1,12.1.2,2.4.3,8.1,1.6,10.4H227.9a30.93,30.93,0,0,1-1.2-7.5c-.4-4.6-.8-9.4-6.7-9.4h-7.9v16.9H197.2V32.85Zm14.9,21.2h7.8c2.8,0,6.6-.5,6.6-4.8,0-3.1-1.7-4.8-7.4-4.8h-7Z" fill="#e47025"/><path d="M260.2,45.25H246.6V32.85h42v12.4H275.1v36H260.2Z" fill="#e47025"/><path d="M287.5,57.65h21.2v11.1H287.5Z" fill="#e47025"/><path d="M319.2,32.85h28.4c8.5,0,15.8,4.7,15.8,13.8,0,5-2.3,10.3-7.3,12.1,4.1,1.6,6.6,6,7.1,12.1.2,2.4.3,8.1,1.6,10.4H349.9a30.93,30.93,0,0,1-1.2-7.5c-.4-4.6-.8-9.4-6.7-9.4h-7.9v16.9H319.2Zm14.9,21.2h7.8c2.8,0,6.6-.5,6.6-4.8,0-3.1-1.7-4.8-7.4-4.8h-7Z" fill="#e47025"/><path d="M372.8,32.85h40.1v12.4H387.8v6h22.8v11.6H387.7v6h25.9v12.4H372.8Z" fill="#e47025"/><path d="M423.9,32.85h25c13.1,0,17.8,9.6,17.8,16.6,0,11.7-7.9,17.2-19,17.2h-8.8v14.7H424V32.85Zm15,22.3h5.8c3.9,0,7.9-.3,7.9-5.2,0-4.4-3.4-4.7-7.1-4.7h-6.6v9.9Z" fill="#e47025"/><path d="M483.5,32.85h14.6l17.6,48.4H500.2l-2-6.9H482.8l-2.2,6.9h-15ZM495.2,64l-4.4-14.9h-.1L486,64Z" fill="#e47025"/><path d="M522.4,32.85h14.9v48.4H522.4Z" fill="#e47025"/><path d="M551.3,4.35h45.2c13.5,0,25.1,7.4,25.1,22,0,8-3.7,16.4-11.5,19.3,6.5,2.5,10.5,9.6,11.3,19.2.3,3.8.4,12.9,2.6,16.5H600.3a52.77,52.77,0,0,1-1.9-11.9c-.7-7.3-1.3-15-10.7-15H575.1v26.8H551.4l-.1-76.9ZM575.1,38h12.4c4.4,0,10.5-.8,10.5-7.6,0-4.9-2.7-7.6-11.8-7.6H575.1Z" fill="#e47025"/><path d="M216.9,7.51a6.47,6.47,0,0,0-.8-.9,8.79,8.79,0,0,0-1-.6,5,5,0,0,0-1.2-.2,4.48,4.48,0,0,0-2,.4,3.74,3.74,0,0,0-1.3,1.2,5.31,5.31,0,0,0-.8,1.7,6.8,6.8,0,0,0-.2,2,12.25,12.25,0,0,0,.2,1.9,5.09,5.09,0,0,0,.7,1.7,3.74,3.74,0,0,0,1.3,1.2,4.16,4.16,0,0,0,4.5-.6,4.71,4.71,0,0,0,1.1-2.6h3.3a9,9,0,0,1-.7,2.7,7.18,7.18,0,0,1-1.4,2,5.71,5.71,0,0,1-2.1,1.3,7.83,7.83,0,0,1-2.6.4,8.66,8.66,0,0,1-3.2-.6,8.07,8.07,0,0,1-2.4-1.7,6.81,6.81,0,0,1-1.5-2.6,8.59,8.59,0,0,1-.5-3.2,12.57,12.57,0,0,1,.5-3.3,6.14,6.14,0,0,1,1.5-2.6,6.9,6.9,0,0,1,2.4-1.8,7,7,0,0,1,3.2-.6,6.37,6.37,0,0,1,2.4.4,7.09,7.09,0,0,1,2.1,1.1A6.55,6.55,0,0,1,219.9,6a6.81,6.81,0,0,1,.8,2.4h-3.3A7.26,7.26,0,0,1,216.9,7.51Z" fill="#3a3e3e"/><path d="M236.7,3.31v2.9h-8.3v3.3H236v2.7h-7.6V16h8.4v2.9H224.9V3.31Z" fill="#3a3e3e"/><path d="M244.6,3.31l6.5,10.5h0V3.31h3.2V19h-3.5l-6.5-10.5h0V19h-3.2V3.31Z" fill="#3a3e3e"/><path d="M258.2,6.21V3.31h12.9v2.9h-4.7V19h-3.5V6.21Z" fill="#3a3e3e"/><path d="M286.6,3.31v2.9h-8.3v3.3h7.6v2.7h-7.6V16h8.5v2.9H274.9V3.31Z" fill="#3a3e3e"/><path d="M299.5,3.31a6.28,6.28,0,0,1,1.9.3,6,6,0,0,1,1.5.9,4.19,4.19,0,0,1,.9,1.4,4.67,4.67,0,0,1,.3,1.7,5,5,0,0,1-.6,2.4,3.17,3.17,0,0,1-1.9,1.5h0a3.13,3.13,0,0,1,1,.5,2.18,2.18,0,0,1,.7.9,3.58,3.58,0,0,1,.4,1.1c.1.4.1.8.2,1.2v.9a3.08,3.08,0,0,0,.1,1,3.55,3.55,0,0,0,.2,1,2,2,0,0,0,.4.8h-3.5a11.63,11.63,0,0,1-.4-1.8,13.55,13.55,0,0,0-.2-2,2.87,2.87,0,0,0-.7-1.8,3.08,3.08,0,0,0-1.9-.6h-3.4v6.1H291V3.21h8.5Zm-1.2,7.1a2.9,2.9,0,0,0,1.8-.5,2.72,2.72,0,0,0,.6-1.7,2.24,2.24,0,0,0-.6-1.7,2.27,2.27,0,0,0-1.8-.5h-3.8v4.4Z" fill="#3a3e3e"/><path d="M328.7,3.31v2.9h-8.3v3.3H328v2.7h-7.6V16h8.5v2.9H317V3.31Z" fill="#3a3e3e"/><path d="M341.6,3.31a6.28,6.28,0,0,1,1.9.3,6,6,0,0,1,1.5.9,4.19,4.19,0,0,1,.9,1.4,4.67,4.67,0,0,1,.3,1.7,5,5,0,0,1-.6,2.4,3.17,3.17,0,0,1-1.9,1.5h0a3.13,3.13,0,0,1,1,.5,2.18,2.18,0,0,1,.7.9,3.58,3.58,0,0,1,.4,1.1c.1.4.1.8.2,1.2v.9a3.08,3.08,0,0,0,.1,1,3.55,3.55,0,0,0,.2,1,2,2,0,0,0,.4.8h-3.5a4.67,4.67,0,0,1-.3-1.7,13.55,13.55,0,0,0-.2-2,2.87,2.87,0,0,0-.7-1.8,3.08,3.08,0,0,0-1.9-.6h-3.5v6.1h-3.5V3.21h8.5Zm-1.2,7.1a2.9,2.9,0,0,0,1.8-.5,2.72,2.72,0,0,0,.6-1.7,2.24,2.24,0,0,0-.6-1.7,2.27,2.27,0,0,0-1.8-.5h-3.8v4.4Z" fill="#3a3e3e"/><path d="M357.7,3.31a8.68,8.68,0,0,1,2.8.5,7.89,7.89,0,0,1,2.3,1.4,6.08,6.08,0,0,1,1.5,2.4,10.16,10.16,0,0,1,.6,3.4,11.7,11.7,0,0,1-.4,3.2,7.45,7.45,0,0,1-1.3,2.5,7.23,7.23,0,0,1-2.2,1.7,8.53,8.53,0,0,1-3.1.6h-6.8V3.31Zm-.2,12.8a7.72,7.72,0,0,0,1.5-.2,2.55,2.55,0,0,0,1.2-.8,3.77,3.77,0,0,0,.9-1.5,7.8,7.8,0,0,0,.3-2.2,16.35,16.35,0,0,0-.2-2.2,3,3,0,0,0-.8-1.6,3.59,3.59,0,0,0-1.4-1,5.22,5.22,0,0,0-2.1-.4h-2.5v9.9Z" fill="#3a3e3e"/><path d="M372.7,3.31V19h-3.5V3.31Z" fill="#3a3e3e"/><path d="M381.1,3.31l6.5,10.5h0V3.31h3.2V19h-3.5l-6.5-10.5h0V19h-3.2V3.31Z" fill="#3a3e3e"/><path d="M405.2,18.81a5.93,5.93,0,0,1-2.3.5,8.66,8.66,0,0,1-3.2-.6,7,7,0,0,1-2.4-1.7,6.81,6.81,0,0,1-1.5-2.6,8.59,8.59,0,0,1-.5-3.2,12.57,12.57,0,0,1,.5-3.3,6.14,6.14,0,0,1,1.5-2.6,6.9,6.9,0,0,1,2.4-1.8,7,7,0,0,1,3.2-.6,5.87,5.87,0,0,1,2.3.4,5.64,5.64,0,0,1,2,1.1,8,8,0,0,1,1.5,1.7,4.81,4.81,0,0,1,.7,2.4h-3.3a3.22,3.22,0,0,0-1.2-2,4,4,0,0,0-2.1-.7,4.48,4.48,0,0,0-2,.4,3.74,3.74,0,0,0-1.3,1.2,4.84,4.84,0,0,0-.7,1.8,6.8,6.8,0,0,0-.2,2,12.25,12.25,0,0,0,.2,1.9,5.09,5.09,0,0,0,.7,1.7,3.74,3.74,0,0,0,1.3,1.2,3.44,3.44,0,0,0,2,.4,3.11,3.11,0,0,0,2.6-.9,3.58,3.58,0,0,0,1.1-2.5H403v-2.6h6.6v8.5h-2l-.3-1.8A4.82,4.82,0,0,1,405.2,18.81Z" fill="#3a3e3e"/></g></svg>