<svg xmlns="http://www.w3.org/2000/svg" width="185.552" height="63.535" viewBox="0 0 185.552 63.535">
  <g id="Group_4" data-name="Group 4" transform="translate(-26.917 -26.476)">
    <g id="Group_1" data-name="Group 1" transform="translate(26.917 62.321)">
      <rect id="Rectangle_1" data-name="Rectangle 1" width="6.131" height="27.367" transform="translate(112.338 0.192)" fill="#fff"/>
      <path id="Path_1" data-name="Path 1" d="M172.072,61.847v18.38l-17.55-18.38h-6.131V89.214h6.131V70.9l17.55,18.315H178.2V61.847Z" transform="translate(-24.632 -61.655)" fill="#fff"/>
      <path id="Path_2" data-name="Path 2" d="M33.048,83.109V61.847H26.917V89.214H47.832V83.109Z" transform="translate(-26.917 -61.655)" fill="#fff"/>
      <path id="Path_3" data-name="Path 3" d="M73.47,67.953V61.847H50.988V89.214H73.47V83.109H57.12V78.583H71.9V72.478H57.12V67.953Z" transform="translate(-26.464 -61.655)" fill="#fff"/>
      <path id="Path_4" data-name="Path 4" d="M209.486,72.421H194.463v6.064h8.9C203,82.57,201.617,83,197.225,83h-2.239c-6.55,0-7.668-.628-7.668-7.787s2.326-7.2,8.125-7.2h9.378V61.659h-9.493c-9.3,0-14.263,1-14.263,13.551s4.667,14.139,13.8,14.139h2.05c8.482,0,12.65-1.087,12.65-14.139C209.569,74.209,209.539,73.287,209.486,72.421Z" transform="translate(-24.017 -61.659)" fill="#fff"/>
      <path id="Path_5" data-name="Path 5" d="M101.788,89.214h6.8L95.566,61.847H87.951L74.926,89.214h6.8l3-6.5H98.784Zm-14.234-12.6,4.2-9.1,4.2,9.1Z" transform="translate(-26.014 -61.655)" fill="#fff"/>
      <path id="Path_6" data-name="Path 6" d="M116.96,67.956h15.665V61.847H115.4c-4.334,0-6.828,2.993-6.828,8.37h0c0,5.314,3.514,8.365,7.847,8.365h8.758a2.259,2.259,0,1,1,0,4.518H110.1v6.108H126.31c4.334,0,7.847-3.057,7.847-8.368s-3.514-8.366-7.847-8.366H116.96a2.259,2.259,0,1,1,0-4.517Z" transform="translate(-25.381 -61.655)" fill="#fff"/>
      <line id="Line_1" data-name="Line 1" x1="9.35" transform="translate(91.579 10.826)" fill="#fff"/>
    </g>
    <g id="Group_2" data-name="Group 2" transform="translate(62.555 26.476)">
      <path id="Path_7" data-name="Path 7" d="M84.378,33.022V26.917H61.9V54.284H84.378V48.178H68.028V43.653H82.813V37.547H68.028V33.022Z" transform="translate(-61.897 -26.468)" fill="#fff"/>
      <path id="Path_8" data-name="Path 8" d="M125.468,37.51V32.991h12.514A2.11,2.11,0,0,1,140.1,35.1a2.149,2.149,0,0,1-2.424,2.414Zm20.759-2.553c0-5.315-4.368-8.071-8.5-8.071h-12.26v-.01h-6.131V54.269h6.131V43.615h5.362l10.01,10.654h8.382l-10.075-10.72C143.135,43.063,146.227,40.272,146.227,34.957Z" transform="translate(-60.817 -26.468)" fill="#fff"/>
      <path id="Path_9" data-name="Path 9" d="M163.318,26.476c-11.2,0-13.751,2.039-13.751,14.083s2.555,14.083,13.751,14.083,13.751-2.04,13.751-14.083S174.514,26.476,163.318,26.476Zm0,22.012c-5.656,0-7.479-.639-7.479-7.929s1.823-7.929,7.479-7.929,7.479.638,7.479,7.929S168.974,48.488,163.318,48.488Z" transform="translate(-60.248 -26.476)" fill="#fff"/>
      <path id="Path_10" data-name="Path 10" d="M108.744,26.917V41.655c0,5.324-1.753,6.692-7.2,6.692s-7.2-1.367-7.2-6.692V26.917H88.01V41.645c0,9.526,2.689,12.989,13.535,12.989s13.534-3.463,13.534-12.989V26.917Z" transform="translate(-61.406 -26.468)" fill="#fff"/>
    </g>
    <g id="Group_3" data-name="Group 3" transform="translate(26.917 26.925)">
      <path id="Path_11" data-name="Path 11" d="M40.82,40.6l-13.9,13.684h8.671l13.9-13.675-.008-.008.008-.008-13.9-13.675H26.917Z" transform="translate(-26.917 -26.917)" fill="#fae146"/>
      <path id="Path_12" data-name="Path 12" d="M57.841,40.6l-13.9,13.684h8.671L66.5,40.608,66.5,40.6l.008-.008L52.609,26.917H43.938Z" transform="translate(-26.596 -26.917)" fill="#fae146"/>
    </g>
  </g>
</svg>
