<svg id="Layer_1" data-name="Layer 1" xmlns="http://www.w3.org/2000/svg" viewBox="0 0 624 84"><g id="Ebene_1" data-name="Ebene 1"><path d="M24,55.86a15.24,15.24,0,0,0,.9,5.1c1.7,4.7,6.9,5.6,11.4,5.6,3.9,0,9.8-1.3,9.8-7,0-4-3.3-5.1-16.6-8.8-12.2-3.5-26.1-6.8-26.1-22.3,0-17.8,15.2-25.4,31-25.4,16.7,0,31.5,6.4,32.1,25.1H44.06a5.94,5.94,0,0,0-2.8-6.1,12.32,12.32,0,0,0-7-1.9c-3.2,0-8.5.9-8.5,5.2.5,5.5,11.5,6.7,22.3,9.7s21.7,8.1,21.7,22.2c0,20.1-18.4,26.6-35.6,26.6-8.7,0-33.6-3.1-33.8-27.7Z" fill="#d95930"/><path d="M79,33.36h21.2l7,28.5h.1l6.9-28.5h21.3v48.4h-14.1V50.66h-.1l-8.4,31.1h-11.1l-8.4-31.1h-.1v31.1H79Z" fill="#d95930"/><path d="M159.16,33.36h14.6l17.6,48.4H176l-2-6.9h-15.4l-2.2,6.9h-15ZM171,64.46l-4.3-14.9h-.2l-4.7,14.9Z" fill="#d95930"/><path d="M197.46,33.36h28.4c8.5,0,15.8,4.7,15.8,13.8,0,5-2.3,10.3-7.3,12.1,4.1,1.6,6.6,6,7.1,12.1.2,2.4.3,8.1,1.6,10.4h-14.9a30.93,30.93,0,0,1-1.2-7.5c-.4-4.6-.8-9.4-6.7-9.4h-7.9v16.9h-14.9Zm14.9,21.1h7.8c2.8,0,6.6-.5,6.6-4.8,0-3.1-1.7-4.8-7.4-4.8h-7Z" fill="#d95930"/><path d="M260.56,45.76H247V33.36h42v12.4h-13.5v36h-14.9Z" fill="#d95930"/><path d="M287.86,58.06h21.2v11.1h-21.2Z" fill="#d95930"/><path d="M319.46,33.36h28.4c8.5,0,15.8,4.7,15.8,13.8,0,5-2.3,10.3-7.3,12.1,4.1,1.6,6.6,6,7.1,12.1.2,2.4.3,8.1,1.6,10.4h-14.9a30.93,30.93,0,0,1-1.2-7.5c-.4-4.6-.8-9.4-6.7-9.4h-7.8v16.9h-15Zm15,21.1h7.8c2.8,0,6.6-.5,6.6-4.8,0-3.1-1.7-4.8-7.4-4.8h-7Z" fill="#d95930"/><path d="M373.16,33.36h40.1v12.4h-25.1v6h22.9v11.6h-22.9v6h25.9v12.4h-40.8V33.36Z" fill="#d95930"/><path d="M424.26,33.36h25c13.1,0,17.8,9.6,17.8,16.6,0,11.7-7.9,17.2-19,17.2h-8.8v14.7h-14.9V33.36Zm14.9,22.2H445c3.9,0,7.9-.3,7.9-5.2,0-4.4-3.4-4.7-7.1-4.7h-6.6v9.9Z" fill="#d95930"/><path d="M483.86,33.36h14.6l17.6,48.4h-15.5l-2-6.9h-15.4l-2.2,6.9H466Zm11.7,31.1-4.4-14.9h-.1l-4.7,14.9Z" fill="#d95930"/><path d="M522.76,33.36h14.9v48.4h-14.9Z" fill="#d95930"/><path d="M551.66,4.76h45.2c13.5,0,25.1,7.4,25.1,22,0,8-3.7,16.4-11.5,19.3,6.5,2.5,10.5,9.6,11.3,19.2.3,3.8.4,12.9,2.6,16.5h-23.7a52.77,52.77,0,0,1-1.9-11.9c-.7-7.3-1.3-15-10.7-15h-12.6v26.9h-23.7l-.1-77Zm23.7,33.6h12.4c4.4,0,10.5-.8,10.5-7.7,0-4.8-2.7-7.6-11.8-7.6h-11.1Z" fill="#d95930"/></g><path d="M226.46,7.35a6.47,6.47,0,0,0-.8-.9c-.3-.2-.7-.4-1-.6a2.34,2.34,0,0,0-1.2-.2,4.23,4.23,0,0,0-2,.5,3.74,3.74,0,0,0-1.3,1.2,5.09,5.09,0,0,0-.7,1.7,6.48,6.48,0,0,0-.2,2,11.08,11.08,0,0,0,.2,1.9,8.65,8.65,0,0,0,.7,1.7,3.74,3.74,0,0,0,1.3,1.2,3.94,3.94,0,0,0,2,.5,3,3,0,0,0,2.5-1,4.16,4.16,0,0,0,1.1-2.6h3.3a7.67,7.67,0,0,1-.7,2.7,6.18,6.18,0,0,1-1.5,2,5.71,5.71,0,0,1-2.1,1.3,7.66,7.66,0,0,1-2.7.4,7.94,7.94,0,0,1-3.2-.6,6.14,6.14,0,0,1-2.4-1.7,6.14,6.14,0,0,1-1.5-2.6,8.59,8.59,0,0,1-.5-3.2,11.42,11.42,0,0,1,.5-3.3,9.34,9.34,0,0,1,1.5-2.6,10.77,10.77,0,0,1,2.4-1.8,8.29,8.29,0,0,1,3.2-.6,6.9,6.9,0,0,1,2.5.4,5.29,5.29,0,0,1,2.1,1.1,6.55,6.55,0,0,1,1.5,1.8,6.11,6.11,0,0,1,.7,2.4h-3.3A2.46,2.46,0,0,0,226.46,7.35Z" fill="#3a3e3e"/><path d="M246.06,3.15v2.9h-8.3v3.4h7.6v2.7h-7.6v3.9h8.5V19h-11.9V3.25h11.7Z" fill="#3a3e3e"/><path d="M253.66,3.15l6.6,10.5h0V3.15h3.2v15.7H260l-6.5-10.5h0v10.5h-3.2V3.15Z" fill="#3a3e3e"/><path d="M267,6.05V3.15h12.9v2.9h-4.7v12.8h-3.5V6.05Z" fill="#3a3e3e"/><path d="M295.06,3.15v2.9h-8.3v3.4h7.6v2.7h-7.6v3.9h8.5V19h-11.9V3.25h11.7v-.1Z" fill="#3a3e3e"/><path d="M307.66,3.15a5.82,5.82,0,0,1,1.9.3,4.62,4.62,0,0,1,1.5.9,4.19,4.19,0,0,1,.9,1.4,4.67,4.67,0,0,1,.3,1.7,4.75,4.75,0,0,1-.6,2.4,3.24,3.24,0,0,1-1.9,1.5h0a3.7,3.7,0,0,1,1.1.5,2.18,2.18,0,0,1,.7.9,3.58,3.58,0,0,1,.4,1.1c.1.4.1.8.2,1.2V16a3.4,3.4,0,0,0,.1,1,3,3,0,0,0,.2,1,2,2,0,0,0,.4.8h-3.5A8,8,0,0,1,309,17a13.55,13.55,0,0,0-.2-2,3.76,3.76,0,0,0-.7-1.8,2.55,2.55,0,0,0-1.9-.6h-3.5v6.1h-3.5V3h8.5Zm-1.2,7.1a3,3,0,0,0,1.8-.5,2.2,2.2,0,0,0,.6-1.7,2.2,2.2,0,0,0-.6-1.7,3,3,0,0,0-1.8-.5h-3.8v4.4Z" fill="#3a3e3e"/><path d="M328,3.15v6h6.4v-6h3.5v15.7h-3.5v-6.8H328v6.8h-3.5V3.15Z" fill="#3a3e3e"/><path d="M350.26,3.15l5.9,15.7h-3.6l-1.2-3.5h-5.9l-1.2,3.5h-3.5l5.9-15.7Zm.2,9.7-2-5.8h0l-2,5.8Z" fill="#3a3e3e"/><path d="M362.56,3.15l6.6,10.5h0V3.15h3.2v15.7h-3.5l-6.5-10.5h0v10.5h-3.2V3.15Z" fill="#3a3e3e"/><path d="M385,3.15l5.9,15.7h-3.6l-1.2-3.5h-5.9l-1.2,3.5h-3.5l5.9-15.7Zm.2,9.7-2-5.8h0l-2,5.8Z" fill="#3a3e3e"/><path d="M405.36,17.65a7.39,7.39,0,0,1-4.9,1.6,7.18,7.18,0,0,1-4.9-1.5,6.21,6.21,0,0,1-1.7-4.8V3.15h3.5V13a6.15,6.15,0,0,0,.1,1.3,2.22,2.22,0,0,0,.5,1.1,2.72,2.72,0,0,0,1,.8,4,4,0,0,0,1.7.3,3.67,3.67,0,0,0,2.6-.8,3.68,3.68,0,0,0,.7-2.6V3.25h3.5v9.8A7.1,7.1,0,0,1,405.36,17.65Z" fill="#3a3e3e"/></svg>