<svg xmlns="http://www.w3.org/2000/svg" viewBox="0 0 504.9 73.9"><defs><style>.cls-1{fill:#0e4174;}.cls-2{fill:#0085ca;}</style></defs><g id="Sub"><path class="cls-1" d="M221,336.36h-.84a.48.48,0,0,1-.54-.54V316.44a.48.48,0,0,1,.54-.54H221a.48.48,0,0,1,.54.54v19.38A.48.48,0,0,1,221,336.36Z" transform="translate(-219.61 -262.46)"/><path class="cls-1" d="M255,336.36h-1.59a1.51,1.51,0,0,1-1-.33l-23.73-18.51h-.06v18.3a.48.48,0,0,1-.54.54h-.75q-.57,0-.57-.54V316.44q0-.54.57-.54H229a1.52,1.52,0,0,1,.93.32l23.73,18.51h.05V316.44a.48.48,0,0,1,.54-.54H255a.48.48,0,0,1,.54.54v19.38A.48.48,0,0,1,255,336.36Z" transform="translate(-219.61 -262.46)"/><path class="cls-1" d="M273.85,336.36H273q-.57,0-.57-.54v-18.3H259.6a.45.45,0,0,1-.51-.51v-.57q0-.54.51-.54h27.69a.48.48,0,0,1,.54.54V317q0,.51-.54.51h-12.9v18.3A.48.48,0,0,1,273.85,336.36Z" transform="translate(-219.61 -262.46)"/><path class="cls-1" d="M293.26,317.52v7.68H314a.48.48,0,0,1,.54.54v.57q0,.51-.54.51h-20.7v7.92h24.6q.54,0,.54.51v.57a.48.48,0,0,1-.54.54h-26a.48.48,0,0,1-.54-.54V316.44a.48.48,0,0,1,.54-.54h26a.48.48,0,0,1,.54.54V317q0,.51-.54.51Z" transform="translate(-219.61 -262.46)"/><path class="cls-1" d="M348.07,336.36H323.35a.48.48,0,0,1-.54-.54V316.44a.48.48,0,0,1,.54-.54h.84a.48.48,0,0,1,.54.54v18.3h23.34a.45.45,0,0,1,.51.51v.57Q348.58,336.36,348.07,336.36Z" transform="translate(-219.61 -262.46)"/><path class="cls-1" d="M377.38,336.36H352.66a.48.48,0,0,1-.54-.54V316.44a.48.48,0,0,1,.54-.54h.84a.48.48,0,0,1,.54.54v18.3h23.34a.45.45,0,0,1,.51.51v.57Q377.89,336.36,377.38,336.36Z" transform="translate(-219.61 -262.46)"/><path class="cls-1" d="M382.81,336.36H382a.48.48,0,0,1-.54-.54V316.44a.48.48,0,0,1,.54-.54h.84a.48.48,0,0,1,.54.54v19.38A.48.48,0,0,1,382.81,336.36Z" transform="translate(-219.61 -262.46)"/><path class="cls-1" d="M404.23,336.36H398q-5.07,0-7.65-2.58t-2.58-7.65q0-5.07,2.58-7.65T398,315.9h17.73a.48.48,0,0,1,.54.54V317q0,.51-.54.51H398.23q-8.52,0-8.52,8.61,0,4.23,2.14,6.42t6.38,2.19h6.42a17,17,0,0,0,6.52-1,10.3,10.3,0,0,0,4.37-3.83v-3H399.49q-.54,0-.54-.51v-.57a.48.48,0,0,1,.54-.54h17.43a.48.48,0,0,1,.54.54v10a.48.48,0,0,1-.54.54h-.72q-.57,0-.57-.54v-4.14h-.06a10.18,10.18,0,0,1-4.4,3.6A18.39,18.39,0,0,1,404.23,336.36Z" transform="translate(-219.61 -262.46)"/><path class="cls-1" d="M424.12,317.52v7.68h20.7a.48.48,0,0,1,.54.54v.57q0,.51-.54.51h-20.7v7.92h24.6q.54,0,.54.51v.57a.48.48,0,0,1-.54.54h-26a.48.48,0,0,1-.54-.54V316.44a.48.48,0,0,1,.54-.54h26a.48.48,0,0,1,.54.54V317q0,.51-.54.51Z" transform="translate(-219.61 -262.46)"/><path class="cls-1" d="M481.81,336.36h-1.59a1.51,1.51,0,0,1-1-.33l-23.73-18.51h-.06v18.3a.48.48,0,0,1-.54.54h-.75q-.57,0-.57-.54V316.44q0-.54.57-.54h1.63a1.52,1.52,0,0,1,.93.32l23.73,18.51h0V316.44a.48.48,0,0,1,.54-.54h.75a.48.48,0,0,1,.54.54v19.38A.48.48,0,0,1,481.81,336.36Z" transform="translate(-219.61 -262.46)"/><path class="cls-1" d="M500.62,336.36h-.81q-.57,0-.57-.54v-18.3H486.37a.45.45,0,0,1-.51-.51v-.57q0-.54.51-.54h27.69a.48.48,0,0,1,.54.54V317q0,.51-.54.51h-12.9v18.3A.48.48,0,0,1,500.62,336.36Z" transform="translate(-219.61 -262.46)"/><path class="cls-1" d="M557.08,336.36h-1.14a1.67,1.67,0,0,1-1.08-.39l-8.16-7.44H530.53v7.29a.48.48,0,0,1-.54.54h-.84a.48.48,0,0,1-.54-.54V316.44a.48.48,0,0,1,.54-.54h21.3q6.24,0,6.24,6.24a5.59,5.59,0,0,1-6.27,6.27h-1.29v.06l8.13,7.17a.52.52,0,0,1,.18.36A.32.32,0,0,1,557.08,336.36Zm-7-18.84H530.53v9.39h19.56q4.62,0,4.62-4.68T550.09,317.52Z" transform="translate(-219.61 -262.46)"/><path class="cls-1" d="M563.41,317.52v7.68h20.7a.48.48,0,0,1,.54.54v.57q0,.51-.54.51h-20.7v7.92H588q.54,0,.54.51v.57a.48.48,0,0,1-.54.54H562a.48.48,0,0,1-.54-.54V316.44a.48.48,0,0,1,.54-.54h26a.48.48,0,0,1,.54.54V317q0,.51-.54.51Z" transform="translate(-219.61 -262.46)"/><path class="cls-1" d="M614.41,329.16H594.88v6.66a.48.48,0,0,1-.54.54h-.84a.48.48,0,0,1-.54-.54V316.44a.48.48,0,0,1,.54-.54h20.91a5.91,5.91,0,0,1,6.63,6.63Q621,329.16,614.41,329.16Zm-.27-11.64H594.88v10h19.26q4.92,0,4.92-5T614.14,317.52Z" transform="translate(-219.61 -262.46)"/><path class="cls-1" d="M653.42,336.36h-.91a1,1,0,0,1-.88-.43l-3.54-4.64H627L623.45,336a1.07,1.07,0,0,1-.91.41h-.81q-.42,0-.42-.39a.48.48,0,0,1,.12-.3l14.79-19.35a1,1,0,0,1,.89-.42H638a1,1,0,0,1,.89.44l14.79,19.35a.48.48,0,0,1,.12.29A.33.33,0,0,1,653.42,336.36Zm-6.56-6.63v0l-9.32-12.2,0,0-9.31,12.21h18.67Z" transform="translate(-219.61 -262.46)"/><path class="cls-1" d="M658.66,336.36h-.84a.48.48,0,0,1-.54-.54V316.44a.48.48,0,0,1,.54-.54h.84a.48.48,0,0,1,.54.54v19.38A.48.48,0,0,1,658.66,336.36Z" transform="translate(-219.61 -262.46)"/><path class="cls-1" d="M693,336.36H691.9a1.67,1.67,0,0,1-1.08-.39l-8.16-7.44H666.49v7.29a.48.48,0,0,1-.54.54h-.84a.48.48,0,0,1-.54-.54V316.44a.48.48,0,0,1,.54-.54h21.3q6.24,0,6.24,6.24a5.59,5.59,0,0,1-6.27,6.27h-1.29v.06l8.13,7.17a.52.52,0,0,1,.18.36A.32.32,0,0,1,693,336.36Zm-7-18.84H666.49v9.39h19.56q4.62,0,4.62-4.68T686.05,317.52Z" transform="translate(-219.61 -262.46)"/><path class="cls-1" d="M701.68,326.82a4.5,4.5,0,0,1-5-5q0-5.88,6.78-5.88H723.1q.51,0,.51.54V317a.45.45,0,0,1-.51.51H703.42q-4.8,0-4.8,4.17,0,3.51,3.45,3.51h17.28q5.16,0,5.16,5.19,0,6-6.9,6H697.18a.48.48,0,0,1-.54-.54v-.57q0-.51.54-.51h20.4q5,0,5-4.26,0-3.66-3.54-3.66Z" transform="translate(-219.61 -262.46)"/></g><g id="Main"><path class="cls-2" d="M226.07,303.38h-3.9a2.2,2.2,0,0,1-2.52-2.46v-36a2.2,2.2,0,0,1,2.52-2.46h3.9a2.17,2.17,0,0,1,2.46,2.46v36A2.17,2.17,0,0,1,226.07,303.38Z" transform="translate(-219.61 -262.46)"/><path class="cls-2" d="M294.83,303.38h-5.58a7.92,7.92,0,0,1-2.55-.3,6.31,6.31,0,0,1-1.95-1.38l-12.48-11.76H247.49v11a2.17,2.17,0,0,1-2.46,2.46h-3.9a2.2,2.2,0,0,1-2.52-2.46v-36a2.2,2.2,0,0,1,2.52-2.46h40.92q13.2,0,13.2,13.2,0,6.24-3,9.69t-8.91,3.78l0,.11,12.43,11a2.16,2.16,0,0,1,.68,1.58,1.55,1.55,0,0,1-.45,1.13A1.59,1.59,0,0,1,294.83,303.38ZM280,282.44q6.06,0,6.06-6.3T280,270H247.49v12.48Z" transform="translate(-219.61 -262.46)"/><path class="cls-2" d="M354.17,262.46a2.17,2.17,0,0,1,2.46,2.46v2.58a2.17,2.17,0,0,1-2.46,2.46H317q-5.46,0-5.46,4.92,0,4.14,4.14,4.14h31.5q11.22,0,11.22,11.34,0,6.6-3.48,9.81t-11.52,3.21H304.91a2.17,2.17,0,0,1-2.46-2.46v-2.58a2.17,2.17,0,0,1,2.46-2.46h38.76q5.64,0,5.64-5,0-4.38-4.26-4.38H313.49q-11,0-11-11.1,0-6.6,3.45-9.78t11.37-3.18Z" transform="translate(-219.61 -262.46)"/></g></svg>