<svg id="Ebene_1" data-name="Ebene 1" xmlns="http://www.w3.org/2000/svg" viewBox="0 0 614.1 177.56"><path d="M53.51,26.87v16H54A46.18,46.18,0,0,1,69.38,28.7a41.79,41.79,0,0,1,20.67-5A47.63,47.63,0,0,1,110.5,28q9.24,4.33,14,15.3a50.29,50.29,0,0,1,14.28-13.7q9-5.94,21.36-5.94A63,63,0,0,1,177.53,26a35.07,35.07,0,0,1,13.71,7.3,33.64,33.64,0,0,1,8.91,13.14q3.19,8.1,3.19,19.53v79H170.91V78q0-5.94-.46-11.19a23.77,23.77,0,0,0-2.51-9.14,15.25,15.25,0,0,0-6.05-6.16q-4-2.28-10.85-2.29T140,51.88a19,19,0,0,0-6.62,6.85,27.42,27.42,0,0,0-3.2,9.59,72.67,72.67,0,0,0-.8,10.85V145H96.91V78.72q0-5.25-.23-10.4a29.13,29.13,0,0,0-1.94-9.47,14.62,14.62,0,0,0-5.71-7q-4-2.62-11.77-2.63a24.56,24.56,0,0,0-6.05,1,20.23,20.23,0,0,0-7.31,3.88,22.7,22.7,0,0,0-6,8.23q-2.52,5.37-2.51,14V145H22.9V26.87Zm201,73a36.6,36.6,0,0,0,4.68,12.1,24.88,24.88,0,0,0,8.79,8.57q5.49,3.2,13.71,3.19t13.81-3.19a24.59,24.59,0,0,0,8.91-8.57,36.83,36.83,0,0,0,4.69-12.1A69.43,69.43,0,0,0,310.47,86a71.24,71.24,0,0,0-1.37-13.94A35.58,35.58,0,0,0,304.41,60a26,26,0,0,0-8.91-8.57,26.77,26.77,0,0,0-13.81-3.31q-8.22,0-13.71,3.31A26.31,26.31,0,0,0,259.19,60a35.37,35.37,0,0,0-4.68,12.1A70.48,70.48,0,0,0,253.14,86a68.7,68.7,0,0,0,1.37,13.82ZM225,60.33a54,54,0,0,1,31.52-32.2,67.25,67.25,0,0,1,25.13-4.46,68.17,68.17,0,0,1,25.24,4.46,53.75,53.75,0,0,1,31.63,32.2A72.59,72.59,0,0,1,342.9,86a71.6,71.6,0,0,1-4.34,25.58,55.65,55.65,0,0,1-12.33,19.53,53.92,53.92,0,0,1-19.3,12.44,69.85,69.85,0,0,1-25.24,4.35,68.9,68.9,0,0,1-25.13-4.35,53.87,53.87,0,0,1-19.18-12.44A55.39,55.39,0,0,1,225,111.61,71.6,71.6,0,0,1,220.7,86,72.59,72.59,0,0,1,225,60.33ZM390.18,26.87V48.8h.46a39.66,39.66,0,0,1,6.16-10.17,40.51,40.51,0,0,1,8.91-8,43.5,43.5,0,0,1,10.74-5.14,38.62,38.62,0,0,1,11.88-1.83,25.4,25.4,0,0,1,7.08,1.14V55q-2.3-.45-5.49-.8a57.47,57.47,0,0,0-6.16-.34,34.56,34.56,0,0,0-15.08,3,26.16,26.16,0,0,0-9.94,8.11,32.38,32.38,0,0,0-5.36,12,65.08,65.08,0,0,0-1.6,14.85V145H359.35V26.87Z" transform="translate(-22.9 -23.67)" fill="#1d333a" fill-rule="evenodd"/><path d="M348.31,137.36a7.49,7.49,0,1,1-7.48-7.48A7.48,7.48,0,0,1,348.31,137.36Z" transform="translate(-22.9 -23.67)" fill="#1d333a" fill-rule="evenodd"/><path d="M414.41,137.36a7.48,7.48,0,1,1-7.48-7.48A7.48,7.48,0,0,1,414.41,137.36Z" transform="translate(-22.9 -23.67)" fill="#1d333a" fill-rule="evenodd"/><path d="M227.58,137.36a7.49,7.49,0,1,1-7.49-7.48A7.48,7.48,0,0,1,227.58,137.36Z" transform="translate(-22.9 -23.67)" fill="#1d333a" fill-rule="evenodd"/><path d="M637,113l-6,.55c-25.57,77.26-162.68,71.82-158.26-27.67H547.5c-.45-32.25-14.84-62.45-50.92-62.1-39,.37-54.93,37.69-53.27,70.89C448.75,203.27,604.9,222.31,637,113Zm-158.87-47c.13-9.78,8.42-18.31,20.76-18.31,12.49,0,20.72,8.53,20.86,18.31Z" transform="translate(-22.9 -23.67)" fill="#eb5c49" fill-rule="evenodd"/><path d="M607.56,66c-.14-9.77-8.37-18.31-20.86-18.31S566.08,56.21,565.94,66Z" transform="translate(-22.9 -23.67)" fill="#eb5c49" fill-rule="evenodd"/><path d="M50.48,199.75a21.61,21.61,0,0,1-8.58,1.44c-11.55,0-17.49-7.19-17.49-16.71,0-11.4,8.12-17.74,18.24-17.74a19.73,19.73,0,0,1,8.22,1.48l-1.53,6A16.42,16.42,0,0,0,43,173c-6,0-10.65,3.62-10.65,11.06,0,6.69,4,10.9,10.7,10.9a19,19,0,0,0,6.3-1.09Z" transform="translate(-22.9 -23.67)" fill="#1d333a"/><path d="M76.3,186.56H64v7.93H77.74v6.2H56.42V167.28H77v6.2H64v6.94H76.3Z" transform="translate(-22.9 -23.67)" fill="#1d333a"/><path d="M83.88,200.69V167.28h8.83l6.93,12.25A95.34,95.34,0,0,1,105.1,191h.15a123.11,123.11,0,0,1-.65-13.93v-9.77h6.94v33.41h-7.93L96.47,187.8A126.51,126.51,0,0,1,90.67,176l-.15.05c.2,4.41.3,9.12.3,14.57v10.06Z" transform="translate(-22.9 -23.67)" fill="#1d333a"/><path d="M125.52,173.63h-9v-6.35h25.67v6.35H133.1v27.06h-7.58Z" transform="translate(-22.9 -23.67)" fill="#1d333a"/><path d="M167.1,186.56H154.81v7.93h13.73v6.2H147.23V167.28h20.62v6.2h-13v6.94H167.1Z" transform="translate(-22.9 -23.67)" fill="#1d333a"/><path d="M174.69,167.73a65.84,65.84,0,0,1,10.06-.69c4.95,0,8.42.74,10.8,2.62a8.5,8.5,0,0,1,3.08,7,8.88,8.88,0,0,1-5.9,8.23V185c2.33.94,3.62,3.17,4.46,6.24,1,3.77,2.08,8.13,2.72,9.42h-7.73a42.14,42.14,0,0,1-2.33-7.78c-.89-4.17-2.33-5.31-5.4-5.36h-2.28v13.14h-7.48Zm7.48,14.37h3c3.77,0,6-1.88,6-4.8,0-3.08-2.08-4.62-5.55-4.66a19,19,0,0,0-3.42.24Z" transform="translate(-22.9 -23.67)" fill="#1d333a"/><path d="M215.08,167.73a67,67,0,0,1,10.21-.69c6.35,0,10.46,1.13,13.68,3.56,3.47,2.58,5.65,6.7,5.65,12.59,0,6.4-2.33,10.81-5.55,13.53-3.52,2.93-8.87,4.32-15.41,4.32a64.85,64.85,0,0,1-8.58-.5ZM222.66,195a13.85,13.85,0,0,0,2.63.15c6.84.05,11.3-3.72,11.3-11.7,0-6.94-4-10.61-10.51-10.61a15.65,15.65,0,0,0-3.42.3Z" transform="translate(-22.9 -23.67)" fill="#1d333a"/><path d="M258.15,167.28v33.41h-7.58V167.28Z" transform="translate(-22.9 -23.67)" fill="#1d333a"/><path d="M285.56,186.56H273.27v7.93H287v6.2H265.69V167.28h20.62v6.2h-13v6.94h12.29Z" transform="translate(-22.9 -23.67)" fill="#1d333a"/><path d="M293.15,167.73a59.76,59.76,0,0,1,9.76-.69c4.61,0,7.43.44,9.86,1.88a7.28,7.28,0,0,1,4,6.54c0,3-1.74,5.75-5.5,7.14v.1c3.81,1,6.64,3.91,6.64,8.22a8.89,8.89,0,0,1-3.47,7.09c-2.43,1.94-6.49,3-13.14,3a57.83,57.83,0,0,1-8.17-.5Zm7.48,12.79h2.48c4,0,6.09-1.64,6.09-4.12s-1.93-3.86-5.35-3.86a20.44,20.44,0,0,0-3.22.2Zm0,14.82a23.6,23.6,0,0,0,2.92.1c3.42,0,6.45-1.29,6.45-4.81,0-3.37-3-4.71-6.79-4.71h-2.58Z" transform="translate(-22.9 -23.67)" fill="#1d333a"/><path d="M331.61,167.28v19.23c0,5.75,2.18,8.68,6,8.68s6.15-2.78,6.15-8.68V167.28h7.53V186c0,10.31-5.2,15.21-13.92,15.21-8.43,0-13.39-4.65-13.39-15.31V167.28Z" transform="translate(-22.9 -23.67)" fill="#1d333a"/><path d="M358.87,167.73a66,66,0,0,1,10.06-.69c5,0,8.43.74,10.8,2.62a8.48,8.48,0,0,1,3.08,7,8.88,8.88,0,0,1-5.9,8.23V185c2.33.94,3.62,3.17,4.46,6.24,1,3.77,2.08,8.13,2.73,9.42h-7.74c-.54-.94-1.33-3.67-2.33-7.78s-2.32-5.31-5.4-5.36h-2.28v13.14h-7.48Zm7.48,14.37h3c3.76,0,6-1.88,6-4.8,0-3.08-2.08-4.62-5.55-4.66a19.14,19.14,0,0,0-3.42.24Z" transform="translate(-22.9 -23.67)" fill="#1d333a"/><path d="M417,199.15A37.13,37.13,0,0,1,405.81,201c-6.1,0-10.51-1.54-13.58-4.51a16.16,16.16,0,0,1-4.71-12.15c.05-11.1,8.12-17.44,19.08-17.44a23.12,23.12,0,0,1,9.27,1.63l-1.59,6.05a18.52,18.52,0,0,0-7.78-1.44c-6.29,0-11.05,3.57-11.05,10.81,0,6.89,4.31,10.95,10.5,10.95a10,10,0,0,0,3.72-.5v-7h-5.15v-5.9H417Z" transform="translate(-22.9 -23.67)" fill="#1d333a"/></svg>