<svg id="Layer_1" data-name="Layer 1" xmlns="http://www.w3.org/2000/svg" viewBox="0 0 624 80.7"><g id="Ebene_1" data-name="Ebene 1"><path d="M23.7,52.7a15.24,15.24,0,0,0,.9,5.1c1.7,4.7,6.9,5.6,11.3,5.6,3.9,0,9.8-1.3,9.8-7,0-4-3.3-5.1-16.6-8.8C16.9,44.1,3,40.8,3,25.3,3,7.5,18.2,0,34,0,50.7,0,65.5,6.4,66.1,25.1H43.7A5.94,5.94,0,0,0,40.9,19a12.32,12.32,0,0,0-7-1.9c-3.2,0-8.5.9-8.5,5.2.5,5.5,11.4,6.7,22.3,9.7s21.7,8.1,21.7,22.2c0,20-18.4,26.5-35.6,26.5C25.1,80.7.2,77.6,0,53Z" fill="#e47025"/><path d="M78.7,30.1H99.9l7,28.5h.1l6.9-28.5h21.2V78.5H121v-31h-.1l-8.4,31.1H101.4L93,47.5h-.1V78.6H78.7V30.1Z" fill="#e47025"/><path d="M158.9,30.1h14.6l17.6,48.4H175.7l-2-6.9H158.3l-2.2,6.9h-15Zm11.7,31.1-4.3-14.9h-.1l-4.7,14.9Z" fill="#e47025"/><path d="M197.2,30.1h28.4c8.5,0,15.8,4.7,15.8,13.8,0,5-2.3,10.3-7.3,12.1,4.1,1.6,6.6,6,7.1,12.1.2,2.4.3,8.1,1.6,10.4H227.9a30.93,30.93,0,0,1-1.2-7.5c-.4-4.6-.8-9.4-6.7-9.4h-7.9V78.5H197.2V30.1Zm14.9,21.2h7.8c2.8,0,6.6-.5,6.6-4.8,0-3.1-1.7-4.8-7.4-4.8h-7Z" fill="#e47025"/><path d="M260.2,42.5H246.6V30.1h42V42.5H275.1v36H260.2Z" fill="#e47025"/><path d="M287.5,55h21.2V66.1H287.5Z" fill="#e47025"/><path d="M319.2,30.1h28.4c8.5,0,15.8,4.7,15.8,13.8,0,5-2.3,10.3-7.3,12.1,4.1,1.6,6.6,6,7.1,12.1.2,2.4.3,8.1,1.6,10.4H349.9a30.93,30.93,0,0,1-1.2-7.5c-.4-4.6-.8-9.4-6.7-9.4h-7.9V78.5H319.2Zm14.9,21.2h7.8c2.8,0,6.6-.5,6.6-4.8,0-3.1-1.7-4.8-7.4-4.8h-7Z" fill="#e47025"/><path d="M372.8,30.1h40.1V42.5H387.8v6h22.8V60.1H387.7v6h25.9V78.5H372.8Z" fill="#e47025"/><path d="M423.9,30.1h25c13.1,0,17.8,9.6,17.8,16.6,0,11.7-7.9,17.2-19,17.2h-8.8V78.6H424V30.1Zm15,22.4h5.8c3.9,0,7.9-.3,7.9-5.2,0-4.4-3.4-4.7-7.1-4.7h-6.6v9.9Z" fill="#e47025"/><path d="M483.5,30.1h14.6l17.6,48.4H500.2l-2-6.9H482.8l-2.2,6.9h-15Zm11.7,31.1-4.4-14.9h-.1L486,61.2Z" fill="#e47025"/><path d="M522.4,30.1h14.9V78.5H522.4Z" fill="#e47025"/><path d="M551.3,1.6h45.2c13.5,0,25.1,7.4,25.1,22,0,8-3.7,16.4-11.5,19.3,6.5,2.5,10.5,9.6,11.3,19.2.3,3.8.4,12.9,2.6,16.5H600.3a52.77,52.77,0,0,1-1.9-11.9c-.7-7.3-1.3-15-10.7-15H575.1V78.5H551.4l-.1-76.9Zm23.8,33.7h12.4c4.4,0,10.5-.8,10.5-7.6,0-4.9-2.7-7.6-11.8-7.6H575.1Z" fill="#e47025"/><path d="M180.9,7.8a6.47,6.47,0,0,0-.8-.9,8.79,8.79,0,0,0-1-.6,5,5,0,0,0-1.2-.2,4.48,4.48,0,0,0-2,.4,3.74,3.74,0,0,0-1.3,1.2,5.31,5.31,0,0,0-.8,1.7,6.8,6.8,0,0,0-.2,2,12.25,12.25,0,0,0,.2,1.9,5.09,5.09,0,0,0,.7,1.7,3.74,3.74,0,0,0,1.3,1.2,4.16,4.16,0,0,0,4.5-.6,4.71,4.71,0,0,0,1.1-2.6h3.3a9,9,0,0,1-.7,2.7,7.18,7.18,0,0,1-1.4,2,5.71,5.71,0,0,1-2.1,1.3,7.83,7.83,0,0,1-2.6.4,8.66,8.66,0,0,1-3.2-.6,8.07,8.07,0,0,1-2.4-1.7,6.81,6.81,0,0,1-1.5-2.6,8.59,8.59,0,0,1-.5-3.2,12.57,12.57,0,0,1,.5-3.3,6.14,6.14,0,0,1,1.5-2.6,6.9,6.9,0,0,1,2.4-1.8,7,7,0,0,1,3.2-.6,6.37,6.37,0,0,1,2.4.4,7.09,7.09,0,0,1,2.1,1.1,6.55,6.55,0,0,1,1.5,1.8,6.81,6.81,0,0,1,.8,2.4h-3.3A7.26,7.26,0,0,1,180.9,7.8Z" fill="#3a3e3e"/><path d="M200.7,3.6V6.5h-8.3V9.8H200v2.7h-7.6v3.8h8.4v2.9H188.9V3.6Z" fill="#3a3e3e"/><path d="M208.6,3.6l6.5,10.5h0V3.6h3.2V19.3h-3.5L208.3,8.8h0V19.3h-3.2V3.6Z" fill="#3a3e3e"/><path d="M222.2,6.5V3.6h12.9V6.5h-4.7V19.3h-3.5V6.5Z" fill="#3a3e3e"/><path d="M250.6,3.6V6.5h-8.3V9.8h7.6v2.7h-7.6v3.8h8.5v2.9H238.9V3.6Z" fill="#3a3e3e"/><path d="M263.5,3.6a6.28,6.28,0,0,1,1.9.3,6,6,0,0,1,1.5.9,4.19,4.19,0,0,1,.9,1.4,4.67,4.67,0,0,1,.3,1.7,5,5,0,0,1-.6,2.4,3.17,3.17,0,0,1-1.9,1.5h0a3.13,3.13,0,0,1,1,.5,2.18,2.18,0,0,1,.7.9,3.58,3.58,0,0,1,.4,1.1c.1.4.1.8.2,1.2v.9a3.08,3.08,0,0,0,.1,1,3.55,3.55,0,0,0,.2,1,2,2,0,0,0,.4.8h-3.5a11.63,11.63,0,0,1-.4-1.8,13.55,13.55,0,0,0-.2-2,2.87,2.87,0,0,0-.7-1.8,3.08,3.08,0,0,0-1.9-.6h-3.4v6.1H255V3.5l8.5.1Zm-1.2,7.1a2.9,2.9,0,0,0,1.8-.5,2.72,2.72,0,0,0,.6-1.7,2.24,2.24,0,0,0-.6-1.7,2.27,2.27,0,0,0-1.8-.5h-3.8v4.4Z" fill="#3a3e3e"/></g><path d="M279.3,8.1a9.34,9.34,0,0,1,1.5-2.6,8.88,8.88,0,0,1,2.4-1.8,8.29,8.29,0,0,1,3.2-.6,8.81,8.81,0,0,1,3.3.6,5.46,5.46,0,0,1,2.4,1.8,6.14,6.14,0,0,1,1.5,2.6,8.8,8.8,0,0,1,.5,3.3,11.27,11.27,0,0,1-.5,3.2,9.34,9.34,0,0,1-1.5,2.6,8.07,8.07,0,0,1-2.4,1.7,8.45,8.45,0,0,1-3.3.6,7.94,7.94,0,0,1-3.2-.6,6.14,6.14,0,0,1-2.4-1.7,6.14,6.14,0,0,1-1.5-2.6,8.59,8.59,0,0,1-.5-3.2A10.9,10.9,0,0,1,279.3,8.1Zm3.2,5.1a8.65,8.65,0,0,0,.7,1.7,3.74,3.74,0,0,0,1.3,1.2,3.94,3.94,0,0,0,2,.5,4.23,4.23,0,0,0,2-.5,3.74,3.74,0,0,0,1.3-1.2,5.09,5.09,0,0,0,.7-1.7,6.15,6.15,0,0,0,.2-1.9,12.31,12.31,0,0,0-.2-2,8.65,8.65,0,0,0-.7-1.7,3.74,3.74,0,0,0-1.3-1.2,3.94,3.94,0,0,0-2-.5,4.23,4.23,0,0,0-2,.5,3.74,3.74,0,0,0-1.3,1.2,5.09,5.09,0,0,0-.7,1.7,6.48,6.48,0,0,0-.2,2A4,4,0,0,0,282.5,13.2Z" fill="#3a3e3e"/><path d="M305.1,3.4a12.31,12.31,0,0,1,2,.2,4.42,4.42,0,0,1,1.6.6,2.34,2.34,0,0,1,1,1.2,4.78,4.78,0,0,1,.4,1.8,3.94,3.94,0,0,1-.5,2,3.54,3.54,0,0,1-1.6,1.3,4,4,0,0,1,2.2,1.5,4.09,4.09,0,0,1,.7,2.5,4.65,4.65,0,0,1-.5,2.1,3.33,3.33,0,0,1-1.2,1.4,4.94,4.94,0,0,1-1.8.8,7.61,7.61,0,0,1-2.1.3h-7.6V3.4Zm-.5,6.4a2.41,2.41,0,0,0,1.5-.4,1.68,1.68,0,0,0,.6-1.4,2,2,0,0,0-.2-.9,1.21,1.21,0,0,0-.5-.5,6.89,6.89,0,0,0-.8-.3,2.77,2.77,0,0,0-.9-.1h-3.2V9.9h3.5Zm.2,6.6a3.4,3.4,0,0,0,1-.1,6.89,6.89,0,0,0,.8-.3l.6-.6a3,3,0,0,0,.2-1,1.83,1.83,0,0,0-.7-1.7,3.45,3.45,0,0,0-1.8-.5h-3.8v4.2Z" fill="#3a3e3e"/><path d="M326,3.4V6.3h-8.3V9.7h7.6v2.7h-7.6v3.9h8.5v2.9H314.3V3.4Z" fill="#3a3e3e"/><path d="M338.1,3.4a5.82,5.82,0,0,1,1.9.3,4.62,4.62,0,0,1,1.5.9,3.07,3.07,0,0,1,.9,1.4,4.67,4.67,0,0,1,.3,1.7,4.75,4.75,0,0,1-.6,2.4,3.24,3.24,0,0,1-1.9,1.5h0a3.7,3.7,0,0,1,1.1.5,2.18,2.18,0,0,1,.7.9,4.87,4.87,0,0,1,.4,1.1c.1.4.1.8.2,1.2v.9a3.4,3.4,0,0,0,.1,1,3,3,0,0,0,.2,1,2,2,0,0,0,.4.8h-3.5a8,8,0,0,1-.4-1.8,13.55,13.55,0,0,0-.2-2,3.76,3.76,0,0,0-.7-1.8,2.55,2.55,0,0,0-1.9-.6h-3.5v6.1h-3.5V3.4Zm-1.2,7.1a3,3,0,0,0,1.8-.5,2.2,2.2,0,0,0,.6-1.7,2.2,2.2,0,0,0-.6-1.7,3,3,0,0,0-1.8-.5h-3.8v4.4Z" fill="#3a3e3e"/><path d="M345,6.3V3.4h12.9V6.3h-4.7V19.1h-3.5V6.3Z" fill="#3a3e3e"/><path d="M363.4,15.2a1.76,1.76,0,0,0,.8.9,3.7,3.7,0,0,0,1.1.5,5.85,5.85,0,0,0,1.3.2,3.75,3.75,0,0,0,1-.1,2.93,2.93,0,0,0,1-.3,1.56,1.56,0,0,0,.8-.6,1.69,1.69,0,0,0,.3-1,1.16,1.16,0,0,0-.4-1,3,3,0,0,0-1.1-.7,13.08,13.08,0,0,0-1.5-.5c-.6-.1-1.1-.3-1.7-.4a8.45,8.45,0,0,1-1.7-.5,5.3,5.3,0,0,1-1.5-.8,4.73,4.73,0,0,1-1.1-1.3,3.42,3.42,0,0,1-.4-1.8,4.65,4.65,0,0,1,.5-2.1,4,4,0,0,1,1.4-1.5,6.63,6.63,0,0,1,1.9-.9,7.61,7.61,0,0,1,2.1-.3,9.86,9.86,0,0,1,2.4.3,6.11,6.11,0,0,1,2,.9A3.64,3.64,0,0,1,372,5.8a5.21,5.21,0,0,1,.5,2.3h-3.3a2.13,2.13,0,0,0-.3-1.2,2.34,2.34,0,0,0-.7-.7,3,3,0,0,0-1-.4,4.87,4.87,0,0,0-1.2-.1,2,2,0,0,0-.8.1c-.3.1-.5.2-.8.3a2.65,2.65,0,0,0-.6.5,1.88,1.88,0,0,0-.2.8,1.17,1.17,0,0,0,.2.7,1,1,0,0,0,.7.5,7.17,7.17,0,0,0,1.4.5,20.76,20.76,0,0,0,2.4.6,10.38,10.38,0,0,0,1.2.3c.5.2,1,.4,1.6.7a3.53,3.53,0,0,1,1.3,1.4,3.8,3.8,0,0,1,.6,2.2,4.48,4.48,0,0,1-.4,2,6.1,6.1,0,0,1-1.2,1.6,4.21,4.21,0,0,1-2,1,11.8,11.8,0,0,1-2.8.4,10.07,10.07,0,0,1-2.5-.3,6.25,6.25,0,0,1-2.2-1,6.12,6.12,0,0,1-1.5-1.7,4.87,4.87,0,0,1-.5-2.5h3.3A2,2,0,0,0,363.4,15.2Z" fill="#3a3e3e"/><path d="M379.6,3.4v6H386v-6h3.5V19.1H386V12.3h-6.4v6.8h-3.5V3.4Z" fill="#3a3e3e"/><path d="M401.4,3.4l5.9,15.7h-3.6l-1.2-3.5h-5.9l-1.2,3.5h-3.5l5.9-15.7Zm.2,9.6-2-5.8h0l-2,5.8Z" fill="#3a3e3e"/><path d="M421.2,17.9a7.39,7.39,0,0,1-4.9,1.6,7.18,7.18,0,0,1-4.9-1.5c-1.2-1-1.7-2.6-1.7-4.8V3.4h3.5v9.8a6.15,6.15,0,0,0,.1,1.3,1.88,1.88,0,0,0,.5,1.1,2.72,2.72,0,0,0,1,.8,4,4,0,0,0,1.7.3,3.67,3.67,0,0,0,2.6-.8,3.68,3.68,0,0,0,.7-2.6V3.4h3.5v9.8C423,15.3,422.4,16.9,421.2,17.9Z" fill="#3a3e3e"/><path d="M429.7,15.2a1.76,1.76,0,0,0,.8.9,3.7,3.7,0,0,0,1.1.5,5.85,5.85,0,0,0,1.3.2,3.75,3.75,0,0,0,1-.1,2.93,2.93,0,0,0,1-.3,1.56,1.56,0,0,0,.8-.6,1.69,1.69,0,0,0,.3-1,1.16,1.16,0,0,0-.4-1,3,3,0,0,0-1.1-.7,13.08,13.08,0,0,0-1.5-.5c-.6-.1-1.1-.3-1.7-.4a8.45,8.45,0,0,1-1.7-.5,5.3,5.3,0,0,1-1.5-.8A4.73,4.73,0,0,1,427,9.6a3.42,3.42,0,0,1-.4-1.8,4.65,4.65,0,0,1,.5-2.1,4,4,0,0,1,1.4-1.5,6.63,6.63,0,0,1,1.9-.9,7.61,7.61,0,0,1,2.1-.3,9.86,9.86,0,0,1,2.4.3,6.11,6.11,0,0,1,2,.9,3.64,3.64,0,0,1,1.4,1.6,5.21,5.21,0,0,1,.5,2.3h-3.3a2.13,2.13,0,0,0-.3-1.2,2.34,2.34,0,0,0-.7-.7,3,3,0,0,0-1-.4,4.87,4.87,0,0,0-1.2-.1,2,2,0,0,0-.8.1c-.3.1-.5.2-.8.3a2.65,2.65,0,0,0-.6.5,1.88,1.88,0,0,0-.2.8,1.17,1.17,0,0,0,.2.7,1,1,0,0,0,.7.5,7.17,7.17,0,0,0,1.4.5,20.76,20.76,0,0,0,2.4.6,10.38,10.38,0,0,0,1.2.3c.5.2,1,.4,1.6.7a3.53,3.53,0,0,1,1.3,1.4,3.8,3.8,0,0,1,.6,2.2,4.48,4.48,0,0,1-.4,2,6.1,6.1,0,0,1-1.2,1.6,4.21,4.21,0,0,1-2,1,11.8,11.8,0,0,1-2.8.4,10.07,10.07,0,0,1-2.5-.3,6.25,6.25,0,0,1-2.2-1,6.12,6.12,0,0,1-1.5-1.7,4.87,4.87,0,0,1-.5-2.5h3.3A2.76,2.76,0,0,0,429.7,15.2Z" fill="#3a3e3e"/><path d="M454.2,3.4V6.3h-8.3V9.7h7.6v2.7h-7.6v3.9h8.5v2.9H442.5V3.4Z" fill="#3a3e3e"/><path d="M461.3,3.4l6.6,10.5h0V3.4h3.2V19.1h-3.5L461.1,8.6h0V19.1h-3.2V3.4Z" fill="#3a3e3e"/></svg>