<?xml version="1.0" encoding="utf-8"?>
<!-- Generator: Adobe Illustrator 23.1.0, SVG Export Plug-In . SVG Version: 6.00 Build 0)  -->
<svg version="1.1" id="Layer_1" xmlns="http://www.w3.org/2000/svg" xmlns:xlink="http://www.w3.org/1999/xlink" x="0px" y="0px"
	 viewBox="0 0 411 144.32" style="enable-background:new 0 0 411 144.32;" xml:space="preserve">
<style type="text/css">
	.st0{fill:#00A4E2;}
</style>
<g>
	<g>
		<path d="M50.03,36.73c-19.16,0-35.87,14.46-35.87,35.43s16.71,35.43,35.87,35.43c19.16,0,35.87-14.46,35.87-35.43
			S69.19,36.73,50.03,36.73z M50.03,98.28c-15.3,0-26.41-10.99-26.41-26.12s11.11-26.12,26.41-26.12
			c15.31,0,26.41,10.99,26.41,26.12S65.34,98.28,50.03,98.28z"/>
	</g>
	<g>
		<path d="M128.89,36.73c-19.16,0-35.87,14.46-35.87,35.43s16.71,35.43,35.87,35.43c19.16,0,35.87-14.46,35.87-35.43
			S148.05,36.73,128.89,36.73z M128.89,98.28c-15.3,0-26.41-10.99-26.41-26.12s11.11-26.12,26.41-26.12
			c15.31,0,26.41,10.99,26.41,26.12S144.2,98.28,128.89,98.28z"/>
	</g>
	<g>
		<path class="st0" d="M207.75,36.73c-19.16,0-35.87,14.46-35.87,35.43s16.71,35.43,35.87,35.43c19.16,0,35.87-14.46,35.87-35.43
			S226.91,36.73,207.75,36.73z M207.75,98.28c-15.3,0-26.41-10.99-26.41-26.12s11.11-26.12,26.41-26.12
			c15.31,0,26.41,10.99,26.41,26.12S223.06,98.28,207.75,98.28z"/>
	</g>
	<g>
		<path d="M360.97,36.73c-19.16,0-35.87,14.46-35.87,35.43s16.71,35.43,35.87,35.43c19.16,0,35.87-14.46,35.87-35.43
			S380.13,36.73,360.97,36.73z M360.97,98.28c-15.3,0-26.41-10.99-26.41-26.12s11.11-26.12,26.41-26.12s26.41,10.99,26.41,26.12
			S376.27,98.28,360.97,98.28z"/>
	</g>
	<g>
		<path d="M317.14,72.88c0-21.4-16.71-36.16-35.87-36.16c-19.16,0-29.69,0-29.69,0v70.87h10.19V46.38h19.49
			c14.88,0,25.68,11.15,25.68,26.5v34.71h10.19C317.14,107.59,317.14,94.29,317.14,72.88z"/>
	</g>
</g>
</svg>
