<svg id="Layer_1" data-name="Layer 1" xmlns="http://www.w3.org/2000/svg" viewBox="0 0 624 84"><g id="Ebene_1" data-name="Ebene 1"><path d="M23.6,55.69a15.24,15.24,0,0,0,.9,5.1c1.7,4.7,6.9,5.6,11.4,5.6,3.9,0,9.8-1.3,9.8-7,0-4-3.3-5.1-16.6-8.8C16.9,47.09,3,43.79,3,28.29c0-17.8,15.2-25.4,31-25.4,16.7,0,31.5,6.4,32.1,25.1H43.7a5.94,5.94,0,0,0-2.8-6.1,12.32,12.32,0,0,0-7-1.9c-3.2,0-8.5.9-8.5,5.2.5,5.5,11.5,6.7,22.3,9.7S69.4,43,69.4,57.09c0,20.1-18.4,26.6-35.6,26.6C25.1,83.69.2,80.59,0,56Z" fill="#d95930"/><path d="M78.6,33.09H99.8l7,28.5h.1l6.9-28.5h21.3v48.4H121V50.39h-.1l-8.4,31.1H101.4L93,50.39h-.1v31.1H78.6Z" fill="#d95930"/><path d="M158.8,33.09h14.6L191,81.49H175.6l-2-6.9H158.2l-2.2,6.9H141Zm11.8,31.2-4.3-14.9h-.2l-4.7,14.9Z" fill="#d95930"/><path d="M197.1,33.09h28.4c8.5,0,15.8,4.7,15.8,13.8,0,5-2.3,10.3-7.3,12.1,4.1,1.6,6.6,6,7.1,12.1.2,2.4.3,8.1,1.6,10.4H227.8a30.93,30.93,0,0,1-1.2-7.5c-.4-4.6-.8-9.4-6.7-9.4H212v16.9H197.1ZM212,54.29h7.8c2.8,0,6.6-.5,6.6-4.8,0-3-1.7-4.8-7.4-4.8h-7Z" fill="#d95930"/><path d="M260.2,45.49H246.6V33.09h42v12.4H275.1v36H260.2Z" fill="#d95930"/><path d="M287.5,57.89h21.2V69H287.5Z" fill="#d95930"/><path d="M319.1,33.09h28.4c8.5,0,15.8,4.7,15.8,13.8,0,5-2.3,10.3-7.3,12.1,4.1,1.6,6.6,6,7.1,12.1.2,2.4.3,8.1,1.6,10.4H349.8a30.93,30.93,0,0,1-1.2-7.5c-.4-4.6-.8-9.4-6.7-9.4h-7.8v16.9h-15Zm15,21.2h7.8c2.8,0,6.6-.5,6.6-4.8,0-3-1.7-4.8-7.4-4.8h-7Z" fill="#d95930"/><path d="M372.8,33.09h40.1v12.4H387.8v6h22.9v11.6H387.8v6h25.9v12.4H372.9V33.09Z" fill="#d95930"/><path d="M423.9,33.09h25c13.1,0,17.8,9.6,17.8,16.6,0,11.7-7.9,17.2-19,17.2h-8.8v14.6H424V33.09Zm14.9,22.3h5.8c3.9,0,7.9-.3,7.9-5.2,0-4.4-3.4-4.7-7.1-4.7h-6.6v9.9Z" fill="#d95930"/><path d="M483.5,33.09h14.6l17.6,48.4H500.2l-2-6.9H482.8l-2.2,6.9h-15Zm11.7,31.2-4.4-14.9h-.1L486,64.29Z" fill="#d95930"/><path d="M522.4,33.09h14.9v48.4H522.4Z" fill="#d95930"/><path d="M551.3,4.59h45.2c13.5,0,25.1,7.4,25.1,22,0,8-3.7,16.4-11.5,19.3,6.5,2.5,10.5,9.6,11.3,19.2.3,3.8.4,12.9,2.6,16.5H600.3a52.77,52.77,0,0,1-1.9-11.9c-.7-7.3-1.3-15-10.7-15H575.1v26.8H551.4l-.1-76.9ZM575,38.19h12.4c4.4,0,10.5-.8,10.5-7.6,0-4.9-2.7-7.7-11.8-7.7H575Z" fill="#d95930"/></g><path d="M216.1,7.35a6.47,6.47,0,0,0-.8-.9c-.3-.2-.7-.4-1-.6a2.34,2.34,0,0,0-1.2-.2,4.23,4.23,0,0,0-2,.5,3.74,3.74,0,0,0-1.3,1.2,5.09,5.09,0,0,0-.7,1.7,6.48,6.48,0,0,0-.2,2,11.08,11.08,0,0,0,.2,1.9,8.65,8.65,0,0,0,.7,1.7,3.74,3.74,0,0,0,1.3,1.2,3.94,3.94,0,0,0,2,.5,3,3,0,0,0,2.5-1,4.16,4.16,0,0,0,1.1-2.6H220a7.67,7.67,0,0,1-.7,2.7,6.18,6.18,0,0,1-1.5,2,5.71,5.71,0,0,1-2.1,1.3,7.66,7.66,0,0,1-2.7.4,7.94,7.94,0,0,1-3.2-.6,6.14,6.14,0,0,1-2.4-1.7,6.14,6.14,0,0,1-1.5-2.6,8.59,8.59,0,0,1-.5-3.2,11.42,11.42,0,0,1,.5-3.3,9.34,9.34,0,0,1,1.5-2.6,10.77,10.77,0,0,1,2.4-1.8,8.29,8.29,0,0,1,3.2-.6,6.9,6.9,0,0,1,2.5.4,5.29,5.29,0,0,1,2.1,1.1,6.55,6.55,0,0,1,1.5,1.8,6.11,6.11,0,0,1,.7,2.4h-3.3A2.1,2.1,0,0,0,216.1,7.35Z" fill="#3a3e3e"/><path d="M235.8,3.15v2.9h-8.3v3.4h7.6v2.7h-7.6v3.9H236V19H224.1V3.25l11.7-.1Z" fill="#3a3e3e"/><path d="M243.3,3.15l6.6,10.5h0V3.15h3.2v15.7h-3.5l-6.5-10.5h0v10.5h-3.2V3.15Z" fill="#3a3e3e"/><path d="M256.6,6.05V3.15h12.9v2.9h-4.7v12.8h-3.5V6.05Z" fill="#3a3e3e"/><path d="M284.7,3.15v2.9h-8.3v3.4H284v2.7h-7.6v3.9h8.5V19H273V3.25l11.7-.1Z" fill="#3a3e3e"/><path d="M297.3,3.15a5.82,5.82,0,0,1,1.9.3,4.62,4.62,0,0,1,1.5.9,4.19,4.19,0,0,1,.9,1.4,4.67,4.67,0,0,1,.3,1.7,4.75,4.75,0,0,1-.6,2.4,3.24,3.24,0,0,1-1.9,1.5h0a3.7,3.7,0,0,1,1.1.5,2.18,2.18,0,0,1,.7.9,3.58,3.58,0,0,1,.4,1.1c.1.4.1.8.2,1.2V16a3.4,3.4,0,0,0,.1,1c.1.3.1.7.2,1a2,2,0,0,0,.4.8H299a8,8,0,0,1-.4-1.8,13.55,13.55,0,0,0-.2-2,3.76,3.76,0,0,0-.7-1.8,2.55,2.55,0,0,0-1.9-.6h-3.5v6.1h-3.5V3h8.5Zm-1.2,7.1a3,3,0,0,0,1.8-.5,2.2,2.2,0,0,0,.6-1.7,2.2,2.2,0,0,0-.6-1.7,2.43,2.43,0,0,0-1.8-.5h-3.8v4.4Z" fill="#3a3e3e"/><path d="M322.6,3.15a5.82,5.82,0,0,1,1.9.3,4.62,4.62,0,0,1,1.5.9,4.19,4.19,0,0,1,.9,1.4,4.67,4.67,0,0,1,.3,1.7,4.75,4.75,0,0,1-.6,2.4,3.24,3.24,0,0,1-1.9,1.5h0a3.7,3.7,0,0,1,1.1.5,2.18,2.18,0,0,1,.7.9,4.87,4.87,0,0,1,.4,1.1c.1.4.1.8.2,1.2V16a3.4,3.4,0,0,0,.1,1,3,3,0,0,0,.2,1,2,2,0,0,0,.4.8h-3.5a8,8,0,0,1-.4-1.8,13.55,13.55,0,0,0-.2-2,3.76,3.76,0,0,0-.7-1.8,2.55,2.55,0,0,0-1.9-.6h-3.5v6.1h-3.5V3h8.5Zm-1.2,7.1a3,3,0,0,0,1.8-.5,2.2,2.2,0,0,0,.6-1.7,2.2,2.2,0,0,0-.6-1.7,3,3,0,0,0-1.8-.5h-3.8v4.4Z" fill="#3a3e3e"/><path d="M331.5,7.85a9.34,9.34,0,0,1,1.5-2.6,10.77,10.77,0,0,1,2.4-1.8,8.29,8.29,0,0,1,3.2-.6,8.81,8.81,0,0,1,3.3.6,5.46,5.46,0,0,1,2.4,1.8,8.41,8.41,0,0,1,1.5,2.6,11.42,11.42,0,0,1,.5,3.3,11.27,11.27,0,0,1-.5,3.2,7.4,7.4,0,0,1-1.5,2.6,7,7,0,0,1-2.4,1.7,8.45,8.45,0,0,1-3.3.6,7.94,7.94,0,0,1-3.2-.6A6.14,6.14,0,0,1,333,17a6.14,6.14,0,0,1-1.5-2.6,8.59,8.59,0,0,1-.5-3.2A10.9,10.9,0,0,1,331.5,7.85Zm3.2,5.1a8.65,8.65,0,0,0,.7,1.7,3.74,3.74,0,0,0,1.3,1.2,3.94,3.94,0,0,0,2,.5,4.23,4.23,0,0,0,2-.5,3.74,3.74,0,0,0,1.3-1.2,5.09,5.09,0,0,0,.7-1.7,6.15,6.15,0,0,0,.2-1.9,12.31,12.31,0,0,0-.2-2,8.65,8.65,0,0,0-.7-1.7,3.74,3.74,0,0,0-1.3-1.2,3.94,3.94,0,0,0-2-.5,4.23,4.23,0,0,0-2,.5,3,3,0,0,0-1.3,1.2,5.09,5.09,0,0,0-.7,1.7,6.48,6.48,0,0,0-.2,2A5.84,5.84,0,0,0,334.7,13Z" fill="#3a3e3e"/><path d="M357.2,3.15a8.21,8.21,0,0,1,2.8.5,6.51,6.51,0,0,1,2.3,1.5,7.48,7.48,0,0,1,1.5,2.4,8.71,8.71,0,0,1,.5,3.4,11.24,11.24,0,0,1-.4,3.2,6.61,6.61,0,0,1-1.3,2.5,6.2,6.2,0,0,1-2.2,1.7,7.45,7.45,0,0,1-3.1.6h-6.8V3.25l6.7-.1ZM357,16a7.72,7.72,0,0,0,1.5-.2,3.53,3.53,0,0,0,1.3-.8,3.77,3.77,0,0,0,.9-1.5,6.87,6.87,0,0,0,.3-2.2,12.48,12.48,0,0,0-.2-2.1,4,4,0,0,0-.8-1.6,2.81,2.81,0,0,0-1.4-1,6.54,6.54,0,0,0-2.1-.4H354v9.9l3-.1Z" fill="#3a3e3e"/><path d="M377.7,18.75a5.93,5.93,0,0,1-2.3.5,7.94,7.94,0,0,1-3.2-.6,6.14,6.14,0,0,1-2.4-1.7,7.4,7.4,0,0,1-1.5-2.6,11.27,11.27,0,0,1-.5-3.2,11.42,11.42,0,0,1,.5-3.3,7.4,7.4,0,0,1,1.5-2.6,8.88,8.88,0,0,1,2.4-1.8,8.29,8.29,0,0,1,3.2-.6,5.87,5.87,0,0,1,2.3.4,4.9,4.9,0,0,1,2,1.1,6.12,6.12,0,0,1,1.5,1.7,6.11,6.11,0,0,1,.7,2.4h-3.3a3.4,3.4,0,0,0-1.2-2,3.77,3.77,0,0,0-2.1-.7,4.23,4.23,0,0,0-2,.5,3.74,3.74,0,0,0-1.3,1.2,5.09,5.09,0,0,0-.7,1.7,6.48,6.48,0,0,0-.2,2,11.08,11.08,0,0,0,.2,1.9,8.65,8.65,0,0,0,.7,1.7,3.74,3.74,0,0,0,1.3,1.2,3.94,3.94,0,0,0,2,.5,4,4,0,0,0,2.7-.9,3.88,3.88,0,0,0,1.1-2.5h-3.5v-2.6h6.6V19h-2.1l-.4-1.8A5.08,5.08,0,0,1,377.7,18.75Z" fill="#3a3e3e"/><path d="M394.6,3.15l5.9,15.7h-3.6l-1.2-3.5h-5.9l-1.2,3.5h-3.5L391,3.15Zm.2,9.6-2-5.8h0l-2,5.8Z" fill="#3a3e3e"/><path d="M415,17.65a7.39,7.39,0,0,1-4.9,1.6,7.18,7.18,0,0,1-4.9-1.5,6.21,6.21,0,0,1-1.7-4.8V3.15H407V13a6.15,6.15,0,0,0,.1,1.3,2.22,2.22,0,0,0,.5,1.1,3.92,3.92,0,0,0,1,.8,4,4,0,0,0,1.7.3,3.67,3.67,0,0,0,2.6-.8,3.68,3.68,0,0,0,.7-2.6V3.25h3.5v9.8A7.1,7.1,0,0,1,415,17.65Z" fill="#3a3e3e"/></svg>