<svg id="Layer_1" data-name="Layer 1" xmlns="http://www.w3.org/2000/svg" viewBox="0 0 624 80.7"><g id="Ebene_1" data-name="Ebene 1"><path d="M22.9,52.5a15.24,15.24,0,0,0,.9,5.1c1.7,4.7,6.9,5.6,11.3,5.6,3.9,0,9.8-1.3,9.8-7,0-4-3.3-5.1-16.6-8.8C16.1,43.9,2.2,40.6,2.2,25.1,2.2,7.3,17.4-.2,33.2-.2c16.7,0,31.5,6.4,32.1,25.1H42.9a5.94,5.94,0,0,0-2.8-6.1,12.32,12.32,0,0,0-7-1.9c-3.2,0-8.5.9-8.5,5.2.5,5.5,11.4,6.7,22.3,9.7S68.6,39.9,68.6,54c0,20-18.4,26.5-35.6,26.5C24.3,80.5-.6,77.4-.8,52.8Z" fill="#e47025"/><path d="M77.9,29.9H99.1l7,28.5h.1l6.9-28.5h21.2V78.3H120.2v-31h-.1l-8.4,31.1H100.6L92.2,47.3h-.1V78.4H77.9Z" fill="#e47025"/><path d="M158.1,29.9h14.6l17.6,48.4H174.9l-2-6.9H157.5l-2.2,6.9h-15ZM169.8,61l-4.3-14.9h-.1L160.7,61Z" fill="#e47025"/><path d="M196.4,29.9h28.4c8.5,0,15.8,4.7,15.8,13.8,0,5-2.3,10.3-7.3,12.1,4.1,1.6,6.6,6,7.1,12.1.2,2.4.3,8.1,1.6,10.4H227.1a30.93,30.93,0,0,1-1.2-7.5c-.4-4.6-.8-9.4-6.7-9.4h-7.9V78.3H196.4V29.9Zm14.9,21.2h7.8c2.8,0,6.6-.5,6.6-4.8,0-3.1-1.7-4.8-7.4-4.8h-7Z" fill="#e47025"/><path d="M259.4,42.3H245.8V29.9h42V42.3H274.3v36H259.4Z" fill="#e47025"/><path d="M286.7,54.8h21.2V65.9H286.7Z" fill="#e47025"/><path d="M318.4,29.9h28.4c8.5,0,15.8,4.7,15.8,13.8,0,5-2.3,10.3-7.3,12.1,4.1,1.6,6.6,6,7.1,12.1.2,2.4.3,8.1,1.6,10.4H349.1a30.93,30.93,0,0,1-1.2-7.5c-.4-4.6-.8-9.4-6.7-9.4h-7.9V78.3H318.4Zm14.9,21.2h7.8c2.8,0,6.6-.5,6.6-4.8,0-3.1-1.7-4.8-7.4-4.8h-7Z" fill="#e47025"/><path d="M372,29.9h40.1V42.3H387v6h22.8V59.9H386.9v6h25.9V78.3H372Z" fill="#e47025"/><path d="M423.1,29.9h25c13.1,0,17.8,9.6,17.8,16.6,0,11.7-7.9,17.2-19,17.2h-8.8V78.4H423.2V29.9Zm15,22.4h5.8c3.9,0,7.9-.3,7.9-5.2,0-4.4-3.4-4.7-7.1-4.7h-6.6v9.9Z" fill="#e47025"/><path d="M482.7,29.9h14.6l17.6,48.4H499.4l-2-6.9H482l-2.2,6.9h-15ZM494.4,61,490,46.1h-.1L485.2,61Z" fill="#e47025"/><path d="M521.6,29.9h14.9V78.3H521.6Z" fill="#e47025"/><path d="M550.5,1.4h45.2c13.5,0,25.1,7.4,25.1,22,0,8-3.7,16.4-11.5,19.3,6.5,2.5,10.5,9.6,11.3,19.2.3,3.8.4,12.9,2.6,16.5H599.5a52.77,52.77,0,0,1-1.9-11.9c-.7-7.3-1.3-15-10.7-15H574.3V78.3H550.6l-.1-76.9Zm23.8,33.7h12.4c4.4,0,10.5-.8,10.5-7.6,0-4.9-2.7-7.6-11.8-7.6H574.3Z" fill="#e47025"/><path d="M185.1,7.6a6.47,6.47,0,0,0-.8-.9,8.79,8.79,0,0,0-1-.6,5,5,0,0,0-1.2-.2,4.48,4.48,0,0,0-2,.4,3.74,3.74,0,0,0-1.3,1.2,5.31,5.31,0,0,0-.8,1.7,6.8,6.8,0,0,0-.2,2,12.25,12.25,0,0,0,.2,1.9,5.09,5.09,0,0,0,.7,1.7A3.74,3.74,0,0,0,180,16a4.16,4.16,0,0,0,4.5-.6,4.71,4.71,0,0,0,1.1-2.6h3.3a9,9,0,0,1-.7,2.7,7.18,7.18,0,0,1-1.4,2,5.71,5.71,0,0,1-2.1,1.3,7.83,7.83,0,0,1-2.6.4,8.66,8.66,0,0,1-3.2-.6,8.07,8.07,0,0,1-2.4-1.7,6.81,6.81,0,0,1-1.5-2.6,8.59,8.59,0,0,1-.5-3.2,12.57,12.57,0,0,1,.5-3.3,6.14,6.14,0,0,1,1.5-2.6,6.9,6.9,0,0,1,2.4-1.8,7,7,0,0,1,3.2-.6,6.37,6.37,0,0,1,2.4.4,7.09,7.09,0,0,1,2.1,1.1,6.55,6.55,0,0,1,1.5,1.8,6.81,6.81,0,0,1,.8,2.4h-3.3A7.26,7.26,0,0,1,185.1,7.6Z" fill="#3a3e3e"/><path d="M204.9,3.4V6.3h-8.3V9.6h7.6v2.7h-7.6v3.8H205V19H193.1V3.4Z" fill="#3a3e3e"/><path d="M212.8,3.4l6.5,10.5h0V3.4h3.2V19.1H219L212.5,8.6h0V19.1h-3.2V3.4Z" fill="#3a3e3e"/><path d="M226.4,6.3V3.4h12.9V6.3h-4.7V19.1h-3.5V6.3Z" fill="#3a3e3e"/><path d="M254.8,3.4V6.3h-8.3V9.6h7.6v2.7h-7.6v3.8H255V19H243.1V3.4Z" fill="#3a3e3e"/><path d="M267.7,3.4a6.28,6.28,0,0,1,1.9.3,6,6,0,0,1,1.5.9A4.19,4.19,0,0,1,272,6a4.67,4.67,0,0,1,.3,1.7,5,5,0,0,1-.6,2.4,3.17,3.17,0,0,1-1.9,1.5h0a3.13,3.13,0,0,1,1,.5,2.18,2.18,0,0,1,.7.9,3.58,3.58,0,0,1,.4,1.1c.1.4.1.8.2,1.2v.9a3.08,3.08,0,0,0,.1,1,3.55,3.55,0,0,0,.2,1,2,2,0,0,0,.4.8h-3.5a11.63,11.63,0,0,1-.4-1.8,13.55,13.55,0,0,0-.2-2,2.87,2.87,0,0,0-.7-1.8,3.08,3.08,0,0,0-1.9-.6h-3.4v6.1h-3.5V3.3l8.5.1Zm-1.2,7.1a2.9,2.9,0,0,0,1.8-.5,2.72,2.72,0,0,0,.6-1.7,2.24,2.24,0,0,0-.6-1.7,2.27,2.27,0,0,0-1.8-.5h-3.8v4.4Z" fill="#3a3e3e"/></g><rect x="284.1" y="3.7" width="183.5" height="15.9" fill="none"/><text transform="translate(284.14 19.36)" font-size="22" fill="#3a3e3e" font-family="HelveticaNeue-Bold, Helvetica Neue" font-weight="700" style="isolation:isolate">SELIGENSTADT</text></svg>