<?xml version="1.0" encoding="utf-8"?>
<!-- Generator: Adobe Illustrator 24.3.0, SVG Export Plug-In . SVG Version: 6.00 Build 0)  -->
<svg version="1.1" id="Ebene_3" xmlns="http://www.w3.org/2000/svg" xmlns:xlink="http://www.w3.org/1999/xlink" x="0px" y="0px"
	 viewBox="0 0 841.89 595.28" style="enable-background:new 0 0 841.89 595.28;" xml:space="preserve">
<style type="text/css">
	.Grün_x0020_bogenförmig{fill:url(#SVGID_1_);stroke:#FFFFFF;stroke-width:0.25;stroke-miterlimit:1;}
	.st0{fill:#E66E00;}
	.st1{fill:#31312F;}
</style>
<linearGradient id="SVGID_1_" gradientUnits="userSpaceOnUse" x1="0" y1="595.2803" x2="0.7071" y2="594.5732">
	<stop  offset="0" style="stop-color:#1D9239"/>
	<stop  offset="0.9831" style="stop-color:#1B3B1C"/>
</linearGradient>
<g>
	<path class="st0" d="M114.72,306.88c0,2.31,0.38,4.36,1.03,6.03c2.05,5.51,8.21,6.67,13.47,6.67c4.62,0,11.67-1.54,11.67-8.34
		c0-4.75-3.98-6.03-19.75-10.52c-14.49-4.1-31.04-8.08-31.04-26.55c0-21.16,18.08-30.27,36.94-30.27c19.88,0,37.45,7.57,38.22,29.88
		h-26.68c0.51-3.46-1.03-5.77-3.33-7.31c-2.31-1.67-5.51-2.31-8.34-2.31c-3.85,0-10.13,1.03-10.13,6.16
		c0.51,6.54,13.59,7.95,26.55,11.54c12.95,3.59,25.78,9.62,25.78,26.42c0,23.85-21.93,31.55-42.32,31.55
		c-10.39,0-40.01-3.72-40.27-32.96H114.72z"/>
	<path class="st0" d="M180.24,280.05h29.69c15.65,0,21.14,11.46,21.14,19.69c0,13.96-9.36,20.5-22.59,20.5h-10.49v17.43h-17.75
		V280.05z M197.99,306.52h6.86c4.6,0,9.44-0.32,9.44-6.13c0-5.24-4.03-5.57-8.39-5.57h-7.91V306.52z"/>
	<path class="st0" d="M264.55,278.68c17.51,0,29.21,12.59,29.21,30.18c0,17.59-11.7,30.18-29.21,30.18
		c-17.51,0-29.21-12.59-29.21-30.18C235.34,291.27,247.04,278.68,264.55,278.68z M264.55,324.67c4.52,0,11.46-2.99,11.46-15.81
		c0-12.83-6.94-15.81-11.46-15.81s-11.46,2.99-11.46,15.81C253.09,321.69,260.03,324.67,264.55,324.67z"/>
	<path class="st0" d="M314.74,294.82H298.6v-14.77h50.03v14.77h-16.14v42.85h-17.75V294.82z"/>
	<path class="st0" d="M347.98,309.5h25.26v13.23h-25.26V309.5z"/>
	<path class="st0" d="M385.66,280.05h33.81c10.09,0,18.8,5.57,18.8,16.46c0,5.97-2.74,12.26-8.63,14.44
		c4.84,1.86,7.83,7.18,8.47,14.36c0.24,2.82,0.32,9.68,1.94,12.35H422.3c-0.89-2.9-1.21-5.89-1.45-8.88
		c-0.48-5.49-0.97-11.22-7.99-11.22h-9.44v20.09h-17.75V280.05z M403.42,305.23h9.28c3.31,0,7.83-0.57,7.83-5.73
		c0-3.63-2.02-5.73-8.79-5.73h-8.31V305.23z"/>
	<path class="st0" d="M449.48,280.05h47.69v14.77h-29.94V302h27.19v13.72h-27.19v7.18h30.82v14.77h-48.57V280.05z"/>
	<path class="st0" d="M510.32,280.05h29.69c15.65,0,21.14,11.46,21.14,19.69c0,13.96-9.36,20.5-22.59,20.5h-10.49v17.43h-17.75
		V280.05z M528.07,306.52h6.86c4.6,0,9.44-0.32,9.44-6.13c0-5.24-4.04-5.57-8.39-5.57h-7.91V306.52z"/>
	<path class="st0" d="M581.16,280.05h17.35l20.98,57.61h-18.4l-2.42-8.23h-18.32l-2.58,8.23h-17.83L581.16,280.05z M595.12,317.09
		l-5.16-17.75h-0.16l-5.57,17.75H595.12z"/>
	<path class="st0" d="M627.47,280.05h17.75v57.61h-17.75V280.05z"/>
	<path class="st0" d="M661.89,246.09h53.74c16.03,0,29.88,8.85,29.88,26.16c0,9.49-4.36,19.49-13.72,22.96
		c7.7,2.95,12.44,11.41,13.47,22.83c0.38,4.49,0.51,15.39,3.08,19.62h-28.21c-1.41-4.62-1.92-9.36-2.31-14.11
		c-0.77-8.72-1.54-17.83-12.7-17.83h-15.01v31.93h-28.21V246.09z M690.11,286.11h14.75c5.26,0,12.44-0.9,12.44-9.11
		c0-5.77-3.21-9.11-13.98-9.11h-13.21V286.11z"/>
</g>
<g>
	<path class="st1" d="M277.33,252.94c-0.1-0.68-0.63-2.74-3-2.74c-2.69,0-3.55,2.61-3.55,5.12s0.86,5.12,3.55,5.12
		c1.93,0,2.69-1.36,3.03-3.11H283c0,3.76-3.06,7.76-8.52,7.76c-6.03,0-9.46-4.26-9.46-9.77c0-5.88,3.71-9.77,9.46-9.77
		c5.12,0.03,7.94,2.72,8.44,7.39H277.33z"/>
	<path class="st1" d="M287.8,245.99h15.44v4.78h-9.69v2.32h8.8v4.44h-8.8v2.33h9.98v4.78H287.8V245.99z"/>
	<path class="st1" d="M308.62,245.99h5.88l5.43,9.98h0.05v-9.98h5.43v18.65h-5.59l-5.72-10.19h-0.05v10.19h-5.43V245.99z"/>
	<path class="st1" d="M335.18,250.77h-5.22v-4.78h16.2v4.78h-5.22v13.87h-5.75V250.77z"/>
	<path class="st1" d="M350.66,245.99h15.44v4.78h-9.69v2.32h8.8v4.44h-8.8v2.33h9.98v4.78h-15.73V245.99z"/>
	<path class="st1" d="M371.45,245.99h10.95c3.27,0,6.09,1.8,6.09,5.33c0,1.93-0.89,3.97-2.8,4.68c1.57,0.6,2.53,2.32,2.74,4.65
		c0.08,0.92,0.1,3.13,0.63,4h-5.75c-0.29-0.94-0.39-1.91-0.47-2.87c-0.16-1.78-0.31-3.63-2.59-3.63h-3.06v6.5h-5.75V245.99z
		 M377.2,254.14h3c1.07,0,2.53-0.18,2.53-1.85c0-1.17-0.65-1.85-2.85-1.85h-2.69V254.14z"/>
	<path class="st1" d="M404.31,245.99h8.18l2.66,10.97h0.05l2.66-10.97h8.18v18.65h-5.43v-11.96h-0.05l-3.24,11.96h-4.28l-3.24-11.96
		h-0.05v11.96h-5.43V245.99z"/>
	<path class="st1" d="M448.32,257.43c0,5.17-2.79,7.65-8.49,7.65s-8.52-2.48-8.52-7.65v-11.44h5.75v10.16c0,1.91,0,4.28,2.79,4.28
		c2.72,0,2.72-2.38,2.72-4.28v-10.16h5.75V257.43z M434.66,241.16h4.44v3.4h-4.44V241.16z M440.59,241.16h4.44v3.4h-4.44V241.16z"/>
	<path class="st1" d="M453.64,245.99h5.88l5.43,9.98h0.05v-9.98h5.43v18.65h-5.59l-5.72-10.19h-0.05v10.19h-5.43V245.99z"/>
	<path class="st1" d="M487.6,252.94c-0.11-0.68-0.63-2.74-3-2.74c-2.69,0-3.55,2.61-3.55,5.12s0.86,5.12,3.55,5.12
		c1.93,0,2.69-1.36,3.03-3.11h5.64c0,3.76-3.06,7.76-8.52,7.76c-6.04,0-9.46-4.26-9.46-9.77c0-5.88,3.71-9.77,9.46-9.77
		c5.12,0.03,7.94,2.72,8.44,7.39H487.6z"/>
	<path class="st1" d="M498.07,245.99h5.75v6.48h5.38v-6.48h5.75v18.65h-5.75v-7.39h-5.38v7.39h-5.75V245.99z"/>
	<path class="st1" d="M520.29,245.99h15.44v4.78h-9.69v2.32h8.8v4.44h-8.8v2.33h9.98v4.78h-15.72V245.99z"/>
	<path class="st1" d="M541.11,245.99h5.88l5.43,9.98h0.05v-9.98h5.43v18.65h-5.59l-5.72-10.19h-0.05v10.19h-5.43V245.99z"/>
</g>
</svg>
