<svg id="Layer_1" data-name="Layer 1" xmlns="http://www.w3.org/2000/svg" viewBox="0 0 624 83.5"><g id="Ebene_1" data-name="Ebene 1"><path d="M23.7,55.5a15.24,15.24,0,0,0,.9,5.1c1.7,4.7,6.9,5.6,11.3,5.6,3.9,0,9.8-1.3,9.8-7,0-4-3.3-5.1-16.6-8.8C16.9,46.9,3,43.6,3,28.1,3,10.3,18.2,2.8,34,2.8c16.7,0,31.5,6.4,32.1,25.1H43.7a5.94,5.94,0,0,0-2.8-6.1,12.32,12.32,0,0,0-7-1.9c-3.2,0-8.5.9-8.5,5.2.5,5.5,11.4,6.7,22.3,9.7S69.4,42.9,69.4,57c0,20-18.4,26.5-35.6,26.5C25.1,83.5.2,80.4,0,55.8Z" fill="#b7bc41"/><path d="M78.7,32.9H99.9l7,28.5h.1l6.9-28.5h21.2V81.3H121v-31h-.1l-8.4,31.1H101.4L93,50.3h-.1V81.4H78.7V32.9Z" fill="#b7bc41"/><path d="M158.9,32.9h14.6l17.6,48.4H175.7l-2-6.9H158.3l-2.2,6.9h-15ZM170.6,64l-4.3-14.9h-.1L161.5,64Z" fill="#b7bc41"/><path d="M197.2,32.9h28.4c8.5,0,15.8,4.7,15.8,13.8,0,5-2.3,10.3-7.3,12.1,4.1,1.6,6.6,6,7.1,12.1.2,2.4.3,8.1,1.6,10.4H227.9a30.93,30.93,0,0,1-1.2-7.5c-.4-4.6-.8-9.4-6.7-9.4h-7.9V81.3H197.2V32.9Zm14.9,21.2h7.8c2.8,0,6.6-.5,6.6-4.8,0-3.1-1.7-4.8-7.4-4.8h-7v9.6Z" fill="#b7bc41"/><path d="M260.2,45.3H246.6V32.9h42V45.3H275.1v36H260.2Z" fill="#b7bc41"/><path d="M287.5,57.8h21.2V68.9H287.5Z" fill="#b7bc41"/><path d="M319.2,32.9h28.4c8.5,0,15.8,4.7,15.8,13.8,0,5-2.3,10.3-7.3,12.1,4.1,1.6,6.6,6,7.1,12.1.2,2.4.3,8.1,1.6,10.4H349.9a30.93,30.93,0,0,1-1.2-7.5c-.4-4.6-.8-9.4-6.7-9.4h-7.9V81.3H319.2Zm14.9,21.2h7.8c2.8,0,6.6-.5,6.6-4.8,0-3.1-1.7-4.8-7.4-4.8h-7Z" fill="#b7bc41"/><path d="M372.8,32.9h40.1V45.3H387.8v6h22.8V62.9H387.7v6h25.9V81.3H372.8Z" fill="#b7bc41"/><path d="M423.9,32.9h25c13.1,0,17.8,9.6,17.8,16.6,0,11.7-7.9,17.2-19,17.2h-8.8V81.4H424V32.9Zm15,22.4h5.8c3.9,0,7.9-.3,7.9-5.2,0-4.4-3.4-4.7-7.1-4.7h-6.6v9.9Z" fill="#b7bc41"/><path d="M483.5,32.9h14.6l17.6,48.4H500.2l-2-6.9H482.8l-2.2,6.9h-15ZM495.2,64l-4.4-14.9h-.1L486,64Z" fill="#b7bc41"/><path d="M522.4,32.9h14.9V81.3H522.4Z" fill="#b7bc41"/><path d="M551.3,4.4h45.2c13.5,0,25.1,7.4,25.1,22,0,8-3.7,16.4-11.5,19.3,6.5,2.5,10.5,9.6,11.3,19.2.3,3.8.4,12.9,2.6,16.5H600.3a52.77,52.77,0,0,1-1.9-11.9c-.7-7.3-1.3-15-10.7-15H575.1V81.3H551.4l-.1-76.9Zm23.8,33.7h12.4c4.4,0,10.5-.8,10.5-7.6,0-4.9-2.7-7.6-11.8-7.6H575.1V38.1Z" fill="#b7bc41"/><path d="M180.9,10.6a6.47,6.47,0,0,0-.8-.9,8.79,8.79,0,0,0-1-.6,5,5,0,0,0-1.2-.2,4.48,4.48,0,0,0-2,.4,3.74,3.74,0,0,0-1.3,1.2,5.31,5.31,0,0,0-.8,1.7,6.8,6.8,0,0,0-.2,2,12.25,12.25,0,0,0,.2,1.9,5.09,5.09,0,0,0,.7,1.7,3.74,3.74,0,0,0,1.3,1.2,4.16,4.16,0,0,0,4.5-.6,4.71,4.71,0,0,0,1.1-2.6h3.3a9,9,0,0,1-.7,2.7,7.18,7.18,0,0,1-1.4,2,5.71,5.71,0,0,1-2.1,1.3,7.83,7.83,0,0,1-2.6.4,8.66,8.66,0,0,1-3.2-.6,8.07,8.07,0,0,1-2.4-1.7,6.81,6.81,0,0,1-1.5-2.6,8.59,8.59,0,0,1-.5-3.2,12.57,12.57,0,0,1,.5-3.3,6.14,6.14,0,0,1,1.5-2.6,6.9,6.9,0,0,1,2.4-1.8,7,7,0,0,1,3.2-.6,6.37,6.37,0,0,1,2.4.4,7.09,7.09,0,0,1,2.1,1.1,6.55,6.55,0,0,1,1.5,1.8,6.81,6.81,0,0,1,.8,2.4h-3.3A7.26,7.26,0,0,1,180.9,10.6Z" fill="#3a3e3e"/><path d="M200.7,6.4V9.3h-8.3v3.3H200v2.7h-7.6v3.8h8.4V22H188.9V6.4Z" fill="#3a3e3e"/><path d="M208.6,6.4l6.5,10.5h0V6.4h3.2V22.1h-3.5l-6.5-10.5h0V22.1h-3.2V6.4Z" fill="#3a3e3e"/><path d="M222.2,9.3V6.4h12.9V9.3h-4.7V22.1h-3.5V9.3Z" fill="#3a3e3e"/><path d="M250.6,6.4V9.3h-8.3v3.3h7.6v2.7h-7.6v3.8h8.5V22H238.9V6.4Z" fill="#3a3e3e"/><path d="M263.5,6.4a6.28,6.28,0,0,1,1.9.3,6,6,0,0,1,1.5.9,4.19,4.19,0,0,1,.9,1.4,4.67,4.67,0,0,1,.3,1.7,5,5,0,0,1-.6,2.4,3.17,3.17,0,0,1-1.9,1.5h0a3.13,3.13,0,0,1,1,.5,2.18,2.18,0,0,1,.7.9,3.58,3.58,0,0,1,.4,1.1c.1.4.1.8.2,1.2v.9a3.08,3.08,0,0,0,.1,1,3.55,3.55,0,0,0,.2,1,2,2,0,0,0,.4.8h-3.5a11.63,11.63,0,0,1-.4-1.8,13.55,13.55,0,0,0-.2-2,2.87,2.87,0,0,0-.7-1.8,3.08,3.08,0,0,0-1.9-.6h-3.4v6.1H255V6.3l8.5.1Zm-1.2,7.1a2.9,2.9,0,0,0,1.8-.5,2.72,2.72,0,0,0,.6-1.7,2.24,2.24,0,0,0-.6-1.7,2.27,2.27,0,0,0-1.8-.5h-3.8v4.4Z" fill="#3a3e3e"/></g><text/><path d="M282.92,17.23c.34,1.52,1.44,2.19,3.19,2.19s2.5-.69,2.5-1.8-.73-1.77-3.32-2.38c-4.13-1-5.15-2.47-5.15-4.52,0-2.64,2-4.44,5.57-4.44,4,0,5.63,2.17,5.84,4.39h-3.3c-.16-.94-.67-1.95-2.63-1.95-1.33,0-2.13.55-2.13,1.63s.64,1.48,3.09,2.05c4.41,1,5.38,2.68,5.38,4.82,0,2.77-2.1,4.67-6.11,4.67-3.85,0-5.87-1.9-6.24-4.66Z" fill="#3a3e3e"/><path d="M298.25,9.19h-4.61V6.5h12.48V9.19h-4.59V21.67h-3.28Z" fill="#3a3e3e"/><path d="M311.91,15.6v6.07H308.7V6.5h6.67c3.3,0,5.09,1.83,5.09,4.17a3.63,3.63,0,0,1-2.21,3.59c.75.28,1.89,1.06,1.89,3.77v.75a12,12,0,0,0,.21,2.89h-3.11a10.86,10.86,0,0,1-.31-3.4v-.22c0-1.66-.42-2.45-2.87-2.45Zm0-2.61h2.75c1.79,0,2.48-.68,2.48-2s-.8-1.92-2.41-1.92h-2.82Z" fill="#3a3e3e"/><path d="M326.94,18.17l-1.18,3.5h-3.22L327.69,6.5h4.12l5.37,15.17h-3.45l-1.24-3.5Zm4.84-2.69c-1.08-3.2-1.76-5.25-2.13-6.61h0c-.38,1.5-1.13,3.88-2,6.61Z" fill="#3a3e3e"/><path d="M342.23,6.5v9c0,2.91,1.5,3.78,3.13,3.78,1.88,0,3.06-1,3.06-3.78v-9h3.28v8.88c0,5.19-3,6.51-6.38,6.51s-6.38-1.38-6.38-6.45V6.5Z" fill="#3a3e3e"/><path d="M355.74,6.5h6.62c3.67,0,5.06,1.92,5.06,3.89a3.44,3.44,0,0,1-1.93,3.28,3.63,3.63,0,0,1,2.36,3.46c0,2.6-2,4.54-5.26,4.54h-6.85Zm6.25,6c1.56,0,2.2-.7,2.2-1.77S363.35,9,362.08,9H359v3.45Zm-3,6.65h3c1.77,0,2.57-.74,2.57-2.12,0-1.22-.79-2-2.59-2H359Z" fill="#3a3e3e"/><path d="M374.59,6.5V21.67h-3.28V6.5Z" fill="#3a3e3e"/><path d="M379,21.67V6.5H383c1.9,3.41,5.4,9.55,6.1,11.21h0C389,16.12,389,13.49,389,11V6.5h3V21.67h-3.85c-1.63-3-5.51-10-6.26-11.77h-.05c.11,1.33.15,4.44.15,7.16v4.61Z" fill="#3a3e3e"/><path d="M409.33,21.67h-2.41a7.86,7.86,0,0,1-.25-1.49c-.84,1.13-2.32,1.75-4.43,1.75-4.4,0-6.86-3.33-6.86-7.65,0-4.56,2.65-8,7.43-8,3.91,0,6.2,2.21,6.57,4.79H406.1a3.08,3.08,0,0,0-3.33-2.21c-3.12,0-4,2.6-4,5.28s1,5.18,4,5.18A3,3,0,0,0,406.11,16v-.13h-3.33V13.19h6.55Z" fill="#3a3e3e"/></svg>