<svg xmlns="http://www.w3.org/2000/svg" xmlns:xlink="http://www.w3.org/1999/xlink" id="Ebene_1" x="0" y="0" version="1.1" viewBox="0 0 283.5 70" xml:space="preserve" style="enable-background:new 0 0 283.5 70"><style type="text/css">.st0{fill:#e91b2d}.st1,.st2{fill:#fff}.st2{fill-rule:evenodd;clip-rule:evenodd}</style><path d="M0,0h283.5v70H0V0z" class="st0"/><polygon points="177.7 47.9 177.7 22.2 172.5 22.2 172.5 47.9" class="st1"/><polygon points="219.7 47.9 219.7 22.2 214.7 22.2 214.7 35.2 209.1 22.2 204.7 22.2 204.7 47.9 209.7 47.9 209.7 34.7 215.4 47.9" class="st1"/><path d="M264.4,47.9l-4.6-11.1c2.9-1.4,3.1-4,3.1-6.8c0-4.9-1.3-7.8-6.5-7.8h-8.2v25.7h5.1v-10h1.7l4,10H264.4	L264.4,47.9z M258,30c0,1.5-0.1,3.3-2.1,3.3h-2.6v-6.5h2.6C257.9,26.8,258,28.6,258,30L258,30z" class="st2"/><path d="M189.1,29.3c0-1.9,0.6-2.8,2.3-2.8c1.8,0,2.3,0.9,2.3,2.8v11.6c0,1.9-0.6,2.8-2.3,2.8c-1.8,0-2.3-0.9-2.3-2.8	V29.3L189.1,29.3z M199,35.1c0-6.2,0.2-8.1-1.9-10.6c-1.2-1.4-2.8-2.6-5.7-2.6c-2.9,0-4.5,1.2-5.6,2.6c-2.1,2.5-1.9,4.4-1.9,10.6	c0,6.2-0.2,8.1,1.9,10.6c1.2,1.4,2.7,2.6,5.6,2.6c2.9,0,4.5-1.2,5.7-2.6C199.2,43.2,199,41.3,199,35.1L199,35.1z" class="st2"/><path d="M121.2,39.3h-4.3l2.2-11.2L121.2,39.3L121.2,39.3z M128.2,47.9l-6.6-25.7h-5.1l-6.6,25.7h5.3l0.7-4h6.3l0.7,4	H128.2L128.2,47.9z" class="st2"/><polygon points="228.4 26.8 228.4 22.2 224.4 22.2 224.4 26.8" class="st1"/><polygon points="244 26.8 244 22.2 240 22.2 240 26.8" class="st1"/><path d="M236.3,39.3H232l2.2-11.2L236.3,39.3L236.3,39.3z M243.3,47.9l-6.6-25.7h-5.1L225,47.9h5.3l0.7-4h6.3l0.7,4	H243.3L243.3,47.9z" class="st2"/><polygon points="167.9 26.8 167.9 22.2 152.3 22.2 152.3 26.8 157.6 26.8 157.6 47.9 162.7 47.9 162.7 26.8" class="st1"/><polygon points="150.2 47.9 143 33.5 148.7 22.2 143.6 22.2 138.5 33.3 138.5 22.2 133.3 22.2 133.3 47.9 138.5 47.9 138.5 41.1 139.9 38.1 144.7 47.9" class="st1"/><path d="M75.5,47.9l-4.6-11.1c2.9-1.4,3.1-4,3.1-6.8c0-4.9-1.3-7.8-6.5-7.8h-8.2v25.7h5.1v-10h1.7l4,10H75.5L75.5,47.9z M69.1,30c0,1.5-0.1,3.3-2.1,3.3h-2.6v-6.5H67C69,26.8,69.1,28.6,69.1,30L69.1,30z" class="st2"/><path d="M25.9,26.8h2c2.3,0,2.8,1.3,2.8,4v8.4c0,2.7-0.4,4-2.8,4h-2V26.8L25.9,26.8z M20.9,47.9h7.8c4.6,0,7-2.5,7-7.8	V30c0-5.3-2.4-7.8-7-7.8h-7.8V47.9L20.9,47.9z" class="st2"/><polygon points="53.6 47.9 53.6 43.3 46.7 43.3 46.7 37.3 52.3 37.3 52.3 32.6 46.7 32.6 46.7 26.8 53.6 26.8 53.6 22.2 41.6 22.2 41.6 47.9" class="st1"/><g><g><path d="M96.9,46.6l-0.2,0.1l-0.1,0.2L96.5,47l-0.2,0.1l-0.1,0.2l-0.2,0.1l-0.1,0.1l-0.1,0l-0.2,0.3L95.4,48l0,0.2 c0.2,0,0.5-0.1,0.8-0.2l0-0.1l0.1-0.1l0.2-0.2l0.1-0.2l0.2-0.2l0.1-0.2l0-0.2l0.1-0.1l0-0.1H96.9z" class="st1"/></g><g><polygon points="94 28 93.7 27.9 93.6 28 93.4 28 93.3 28 93.1 28.1 93 28.2 93 28.3 93.1 28.4 93.2 28.5 93.5 28.6 93.7 28.6 94 28.4 94 28.3 94.1 28.2" class="st1"/></g><g><path d="M90.5,27.3l0.2,0l0.4,0l0.2,0.1l0.2,0l0.2,0.1l0.3,0l0.2,0.1l0.2,0.1l0.2,0.2l0.2,0.1l0.2,0l0.1-0.1l0.2-0.2 l0.2-0.1l0.3,0.1l0.4,0.1l0.2,0h0.2l0.2,0l0.2-0.1l0.2,0l0.1-0.2l0.2-0.4l0-0.4l0-0.2l0-0.3l-0.2-0.1l-0.2-0.2l-0.1-0.2l-0.2-0.2 C93.8,25,93,25,92.2,25.1l-0.1,0.3v0.2l-0.1,0.1L92,25.8L91.9,26L91.7,26l-0.2,0.1l-0.2,0l-0.2,0l-0.2,0l-0.2,0.1l-0.2,0.2 l-0.1,0.2L90.4,27l-0.1,0l0.1,0.2L90.5,27.3z" class="st1"/></g><g><path d="M83.3,39.6l-0.1-0.1l-0.1-0.1L83,39.2l0-0.2l0-0.2l0-0.2l0-0.2l-0.2-0.1h-0.1l-0.1-0.1l0-0.2l0.1-0.1l0.2,0 l0.2-0.1l0.2-0.2l0-0.3l0-0.2l0-0.2l0-0.2l0-0.2l0-0.2l0.1-0.2L83.2,36v-0.2l-0.1-0.2l0-0.2l0-0.1l-0.1-0.1l0-0.2l0-0.2l0-0.1 l0.1-0.2l-0.1-0.2l-0.1-0.2l-0.1-0.1L82.6,34l-0.1-0.1l-0.1-0.2l-0.4-0.3c-0.9,2.9-0.6,5.8,0.7,8.3l0.2-0.2l0.1-0.2l0.2-0.2 l0.2-0.2l0.1-0.1l0.1-0.2l0.1-0.2v-0.2l0-0.2l0.1-0.2l-0.1-0.2L83.3,39.6z" class="st1"/></g><g><polygon points="93.2 31.1 93.1 31.2 93 31.3 93 31.5 93.1 31.6 93.2 31.6 93.3 31.5 93.3 31.2" class="st1"/></g><g><polygon points="94.1 31.4 94 31.3 93.9 31.2 93.8 31 94 30.9 93.9 30.8 93.8 30.8 93.6 31 93.6 31.2 93.5 31.3 93.7 31.4 93.6 31.5 93.5 31.6 93.5 31.7 93.3 31.7 93.3 31.9 93.4 31.9 93.5 32 93.7 32 93.9 32 94 32 94 31.8 93.9 31.7 94 31.5" class="st1"/></g><g><polygon points="96.8 36.6 97 36.6 96.9 36.4 96.7 36.3 96.5 36.3 96.4 36.5 96.6 36.6" class="st1"/></g><g><path d="M88.7,27.9l0.2,0l0.1-0.1l0-0.2l0-0.2l0-0.2V27l0-0.2l0.2-0.2l0.2-0.2l0.1,0l0.1-0.1l0.2-0.1l0.2-0.1L90,26 v-0.2l0.1-0.2L90,25.4c-1.6,0.4-3,1.2-4.3,2.2l0.1,0.3L86,28l0.2,0.1l0.1,0.1l0.1,0.1l0.2,0h0.1l0.2,0h0.2l0.1-0.2V28l-0.1-0.2 l-0.1,0l-0.1,0l-0.1-0.1l0.1-0.1l0.1,0.1l0.2,0l0.2,0l0.1-0.1l0.2,0.1l0.2,0.1l0.2,0.1l0,0.2l-0.2,0l-0.1,0l-0.1,0.1v0.2l0,0.2 l0.2,0l0.1-0.1h0.2h0.2l0.2-0.1l0-0.2l0-0.1l0.1-0.1L88.7,27.9z" class="st1"/></g><g><polygon points="98.1 37.2 98.2 37.1 98.2 37 98 36.9 97.8 37 97.9 37.2" class="st1"/></g><g><path d="M100.2,27.3l-0.4,0.3l0,0.2l0.1,0.3l-0.2,0.2l-0.3,0.1l-0.2-0.1l-0.2,0.1L99,28.7L98.9,29l-0.2,0.1l0,0.2 l0.2,0.3l-0.2,0.2l-0.3,0.1l-0.4,0l-0.2-0.3l0.2-0.2l0.1-0.2l0-0.2l-0.2-0.3l-0.3,0l-0.3-0.2l-0.4,0l-0.3,0.1l-0.3,0.2L96,29 l-0.2,0.2l-0.2,0.4l-0.2,0.2L95,29.9l-0.3,0.2v0.3l0,0.3l0,0.2l0.1,0.3l0.2,0l0.1-0.1h0.3l0.2-0.1l0,0.3l0.1,0.3H96l0.3-0.2 l0.2-0.2v-0.3l-0.2-0.2v-0.3l0-0.2l0.4-0.5l0.2-0.2l0.1-0.2l0.1,0.1l0.1,0.4l-0.1,0.3L97,30.1l-0.2,0.2l0,0.3l0.2,0.3l0.1,0.2 l0.3,0l0.1,0.2l-0.2,0.1l-0.2,0.2l-0.3,0.1c-0.2,0.1-0.1,0.3-0.1,0.3l-0.1,0.2l-0.1,0.2l-0.2-0.1l-0.3,0.1l-0.4,0l-0.2-0.1l0-0.2 l0.2-0.2l0-0.2l-0.3,0l-0.1,0.1l0,0.2l-0.2,0.1l-0.2,0.1l-0.2,0l-0.1,0.1l-0.2,0.1l-0.2,0l-0.3-0.1l-0.2-0.1l-0.2,0l-0.1,0.2v0.3 l0,0.2l-0.1,0.1L93,33.4c-0.2,0.1-0.4,0-0.4,0l-0.3-0.1l-0.2-0.1l-0.1,0.1l-0.1,0.3l-0.2,0.3l-0.1,0.3l0.1,0.2l0.2,0.2l0.2,0.2 l0.2,0.4l0.2,0l0.3-0.1l0.4,0l0.1-0.3l0-0.2l0.2-0.1l0.3-0.1l0.4,0l0.4,0l0.2-0.1l0.2,0.1l0.2,0.2l0,0.3l0.1,0.3l0,0.2l0,0.2 l-0.3,0.2l-0.2-0.2l0,0.3l0.2,0.2l0.3-0.1l0.1-0.2l0.3-0.1l0.2,0.2l0-0.2l-0.1-0.3l-0.1-0.2l0-0.2l-0.1-0.2v-0.3l0.1-0.1l0.2,0.2 l0,0.3l0.1,0.3l0.1,0.1l0,0.2l0.1,0.2l0.2,0.2l0.2,0.2l0.2-0.2l0.1-0.3l-0.1-0.2l0.1-0.1l0.3,0l0.4,0l0.3-0.1l0-0.2v-0.2l0.1-0.1 l0.2,0l0.2,0.1l0,0.2l0.1,0.1l0.2,0l0.3,0.1l0.2,0.1l0,0.2l-0.3,0.2l-0.4,0.2l-0.2,0L98,35.6h-0.3l-0.3,0l-0.2,0.1v0.2l-0.1,0.2 l0.2,0.3l0.3,0.1l0.4,0l0.3,0l0.3,0.1l0.1,0.2l0,0.2l-0.1,0.2l-0.3,0.1l-0.2,0.2l-0.2,0.2L98,38.1l-0.2,0.1L97.6,38l-0.1-0.2 l-0.2,0L97,37.7L97,37.5l-0.2-0.1l-0.2,0.1l-0.2,0.2l-0.3-0.1l-0.2-0.1l-0.2,0l-0.3-0.1l-0.2-0.1L95,37l-0.2-0.2l0.1-0.2l-0.2-0.2 l-0.2-0.2h-0.3l-0.4-0.3L93.7,36l-0.3,0l-0.3,0.1L92.8,36l-0.2-0.2l-0.3-0.2l-0.2,0.1l-0.3,0.1L91.5,36l-0.3,0L91,36.3l-0.2,0.1 l-0.2,0.2h-0.4L90,36.8L89.7,37l-0.1,0.2l-0.2,0.1l-0.3,0.3L89,37.9L89,38.1l0,0.3l0,0.3l0,0.2l-0.2,0.2l-0.1,0.2l0.1,0.3v0.3 l0.1,0.1l0.2,0.1v0.2l0,0.3l0,0.3l0.1,0.3l0.2,0.2l0,0.3l0.2,0.1l0.1,0.2l0.2,0.1l0.2,0.2l0.2,0.1l0.4,0l0.2,0.1l0.3,0.1l0.3,0 l0.3,0l0.1,0.2l0.1,0.2l0.2,0.2l0,0l-0.1,0.2L92,43.6l-0.1,0.3l0.1,0.3l0,0.2v0.2l-0.2,0.1l-0.1,0.2l-0.1,0.2l0,0.2l-0.2,0.2 l-0.2,0.2l-0.2,0L91,45.9l0,0.2l0,0.2l-0.1,0.3l-0.2,0.3l-0.1,0.2l-0.1,0.2l0.1,0.2v0.3l0,0.2l0,0.2l0.1,0.1c1,0.2,2,0.3,2.9,0.3 l0.5-0.3l0.2-0.1l0.2-0.1l0.1-0.2l0.2-0.2l0.1-0.2l0.2-0.2h0.2l0.3,0l0.1-0.3l0.2-0.2l0.1-0.3l0.1-0.2L95.9,46l0.1-0.2l0.1-0.2 l0.2-0.1l0.1-0.1l0.1-0.2l0.2-0.1h0.2l0.2-0.1l0.2-0.2l0.1-0.2l0.2-0.2l0.2-0.2l0.2-0.1l0.4-0.1l0.5-0.1l0-0.2l0.2-0.1l0.3-0.1 l0.2-0.2l0.1-0.2l0-0.1l0.2-0.3l0.2-0.3l0.1-0.2l0.2-0.2l-0.1-0.2l-0.2,0l-0.3,0.1L99.8,42l-0.2,0l-0.2,0.1l-0.2-0.1l0-0.2 l-0.2-0.4l0-0.2l-0.1-0.2l-0.2-0.3l-0.2-0.2c-0.1-0.2-0.2-0.2-0.2-0.2l0-0.4L98,39.5l0-0.3l0-0.2l0-0.2l0.1-0.1l0.2,0.1l0.1,0.3 l0.1,0.3l0.1,0.3l0,0.3v0.2l0.1,0.2l0.2,0.1l0.2,0.1l0.1,0.3l0,0.2l0.2,0.1l0.2-0.1l0.2-0.1l0.1-0.2l0.3-0.1l0.4-0.2l0.4-0.3 l0.2-0.3l0.3-0.2l0.1-0.2l-0.1-0.2l-0.1-0.2v-0.2l-0.2-0.2l-0.2,0.1l-0.2,0l-0.2-0.2l-0.2-0.2l-0.2-0.1l-0.2-0.2L100,38l0.2-0.2 l0.2,0.2l0.3,0.1l0.4,0.1l0.3,0l0.3,0.2l0.2,0.1l0.2-0.2l0.2-0.1l0.3-0.1l0.3,0.1l0.3,0.2l0.2,0.2l0.2,0.1l0.1,0.2l-0.1,0.2 l0.1,0.3l0,0.4l0,0.2l0.1,0.3l0.1,0.3l0.2-0.4l0.3-0.2l0.3-0.2C105.8,35.2,104,30.2,100.2,27.3z M101.7,35.6l0,0.2l0.1,0.1v0.2 l-0.1,0.2l-0.2,0.1l-0.2-0.1l-0.1-0.2c0,0,0-0.2,0-0.3c-0.1-0.2-0.1-0.3-0.1-0.3l0-0.2l-0.1-0.2l-0.1-0.2l0-0.2l0-0.2l0.1-0.2 l0.3,0l0.2-0.1l0.3,0.2l-0.1,0.2l-0.2,0.2l0,0.2v0.1l0.2-0.1l0.2-0.1v0.2l0,0.2L101.7,35.6z M102.9,34.2l-0.2,0l-0.2-0.1l0-0.2 l0.2-0.1l0.2,0l0.1,0.1L102.9,34.2L102.9,34.2z" class="st1"/></g><g><polygon points="94.4 35.2 94.5 35 94.5 34.8 94.3 34.8 94.2 35 94.2 35.3 94.3 35.3" class="st1"/></g></g><path d="M97.3,24.4c-6.8-2.2-14.1,1.5-16.3,8.3c-2.2,6.8,1.5,14.1,8.3,16.3c6.8,2.2,14.1-1.5,16.3-8.3	C107.8,33.9,104.1,26.6,97.3,24.4z M104.7,37.9c0,0.4-0.1,0.8-0.2,1.2c-0.1,0.4-0.2,0.8-0.3,1.1c-0.1,0.2-0.1,0.4-0.2,0.5	c0,0,0,0.1-0.1,0.2c0,0.1-0.1,0.2-0.1,0.4c0,0.1,0,0.1-0.1,0.2c0,0.1-0.1,0.2-0.2,0.3c0,0,0,0.1-0.1,0.2c-0.1,0.1-0.2,0.3-0.2,0.4	c0,0,0,0,0,0c-0.1,0.2-0.2,0.3-0.3,0.4c0,0-0.1,0.1-0.1,0.1c-0.1,0.1-0.1,0.2-0.2,0.3c0,0-0.1,0.1-0.1,0.2c-0.1,0.1-0.1,0.2-0.2,0.3	c0,0-0.1,0.1-0.1,0.1c-0.1,0.1-0.2,0.2-0.3,0.3c0,0,0,0,0,0.1c-0.1,0.1-0.2,0.2-0.4,0.4c0,0-0.1,0.1-0.1,0.1	c-0.1,0.1-0.2,0.2-0.3,0.3c0,0-0.1,0.1-0.1,0.1c-0.1,0.1-0.2,0.2-0.2,0.2c0,0-0.1,0.1-0.1,0.1c-0.1,0.1-0.2,0.2-0.3,0.2	c0,0-0.1,0-0.1,0.1c-0.1,0.1-0.3,0.2-0.4,0.3c0,0-0.1,0-0.1,0.1c-0.1,0.1-0.2,0.1-0.3,0.2c0,0-0.1,0.1-0.2,0.1	c-0.1,0.1-0.2,0.1-0.3,0.2c0,0-0.1,0.1-0.2,0.1c-0.1,0.1-0.2,0.1-0.3,0.2c0,0-0.1,0-0.1,0.1c-0.2,0.1-0.3,0.2-0.4,0.2	c0,0-0.1,0-0.1,0c-0.1,0-0.2,0.1-0.4,0.2c0,0-0.1,0-0.2,0.1c-0.1,0-0.2,0.1-0.3,0.1c-0.1,0-0.1,0-0.2,0.1c-0.1,0-0.2,0.1-0.4,0.1	c0,0-0.1,0-0.1,0c-0.2,0-0.3,0.1-0.5,0.1c0,0-0.1,0-0.1,0c-0.1,0-0.3,0.1-0.4,0.1c-0.1,0-0.1,0-0.2,0c-0.1,0-0.2,0-0.3,0	c-0.1,0-0.1,0-0.2,0c-0.1,0-0.2,0-0.4,0c0,0-0.1,0-0.1,0c-0.2,0-0.3,0-0.5,0c0,0-0.1,0-0.1,0c-0.1,0-0.3,0-0.4,0c0,0-0.1,0-0.2,0	c-0.1,0-0.2,0-0.4,0c-0.1,0-0.1,0-0.2,0c-0.1,0-0.3,0-0.4,0c0,0-0.1,0-0.1,0c-0.2,0-0.4,0-0.5-0.1c0,0-0.1,0-0.1,0	c-0.1,0-0.3,0-0.4-0.1c-0.1,0-0.1,0-0.2,0c-0.1,0-0.2-0.1-0.4-0.1c0,0-0.1,0-0.2,0c-0.2,0-0.4-0.1-0.5-0.2l0,0	c-1-0.3-1.8-0.7-2.6-1.2c-0.2-0.1-0.3-0.2-0.5-0.3c-0.6-0.4-1.2-0.9-1.7-1.5c-0.3-0.3-0.5-0.6-0.7-0.8c-0.2-0.3-0.4-0.6-0.6-0.9	c-0.3-0.5-0.6-1-0.8-1.5c-0.2-0.4-0.3-0.8-0.5-1.2c-0.1-0.3-0.2-0.6-0.3-0.9c0-0.2-0.1-0.4-0.1-0.6c-0.1-0.3-0.1-0.6-0.1-1	c0,0,0-0.1,0-0.1c0-0.4,0-0.7,0-1.1l0,0c0-1.1,0.2-2.3,0.6-3.4c0.1-0.2,0.1-0.4,0.2-0.5c0,0,0-0.1,0.1-0.2c0-0.1,0.1-0.2,0.1-0.4	c0-0.1,0-0.1,0.1-0.2c0-0.1,0.1-0.2,0.2-0.3c0,0,0-0.1,0.1-0.2c0.1-0.1,0.2-0.3,0.2-0.4c0,0,0,0,0,0c0.1-0.2,0.2-0.3,0.3-0.4	c0,0,0.1-0.1,0.1-0.1c0.1-0.1,0.1-0.2,0.2-0.3c0,0,0.1-0.1,0.1-0.2c0.1-0.1,0.1-0.2,0.2-0.3c0,0,0.1-0.1,0.1-0.1	c0.1-0.1,0.2-0.2,0.3-0.3c0,0,0,0,0.1-0.1c0.1-0.1,0.2-0.2,0.3-0.4c0,0,0.1-0.1,0.1-0.1c0.1-0.1,0.2-0.2,0.2-0.2	c0,0,0.1-0.1,0.1-0.1c0.1-0.1,0.2-0.2,0.2-0.2c0,0,0.1-0.1,0.1-0.1c0.1-0.1,0.2-0.2,0.3-0.2c0,0,0.1,0,0.1-0.1	c0.1-0.1,0.3-0.2,0.4-0.3c0,0,0.1-0.1,0.1-0.1c0.1-0.1,0.2-0.1,0.3-0.2c0,0,0.1-0.1,0.2-0.1c0.1-0.1,0.2-0.1,0.3-0.2	c0,0,0.1-0.1,0.2-0.1c0.1-0.1,0.2-0.1,0.3-0.2c0,0,0.1,0,0.1-0.1c0.2-0.1,0.3-0.2,0.4-0.2c0,0,0.1,0,0.1-0.1c0.1,0,0.2-0.1,0.3-0.1	c0.1,0,0.1,0,0.2-0.1c0.1,0,0.2-0.1,0.3-0.1c0.1,0,0.1,0,0.2-0.1c0.1,0,0.2-0.1,0.4-0.1c0,0,0.1,0,0.1,0c0.2,0,0.3-0.1,0.5-0.1	c0,0,0.1,0,0.1,0c0.1,0,0.2,0,0.4-0.1c0.1,0,0.1,0,0.2,0c0.1,0,0.2,0,0.3,0c0.1,0,0.1,0,0.2,0c0.1,0,0.2,0,0.4,0c0,0,0.1,0,0.2,0	c0.2,0,0.3,0,0.5,0c0,0,0.1,0,0.1,0c0.1,0,0.3,0,0.4,0c0,0,0.1,0,0.2,0c0.1,0,0.2,0,0.4,0c0.1,0,0.1,0,0.2,0c0.1,0,0.3,0,0.4,0	c0,0,0.1,0,0.1,0c0.2,0,0.4,0,0.5,0.1c0,0,0.1,0,0.1,0c0.1,0,0.3,0,0.4,0.1c0.1,0,0.1,0,0.2,0c0.1,0,0.2,0.1,0.4,0.1	c0,0,0.1,0,0.2,0c0.2,0,0.4,0.1,0.5,0.2c4,1.3,6.8,4.5,7.7,8.3c0,0.2,0.1,0.4,0.1,0.6c0.1,0.6,0.2,1.1,0.2,1.7	C104.8,36.8,104.8,37.4,104.7,37.9z" class="st1"/><path d="M92.7,48.7l-0.3-0.4c1-0.7,1.8-1.5,2.6-2.5c-1.4-0.1-2.8-0.4-4.3-0.8l-1,3l-0.4-0.1l1-3	c-1.4-0.5-2.7-1.1-3.9-1.9c0.1,1.2,0.3,2.4,0.6,3.5l-0.4,0.1c-0.4-1.3-0.6-2.6-0.7-4C84.8,42,83.8,41,83,40c0.1,1,0.3,2.1,0.6,3.1	l-0.4,0.1c-0.4-1.3-0.6-2.6-0.7-3.9c-0.6-0.8-1-1.6-1.2-2.5l0.4-0.1c0.2,0.6,0.5,1.2,0.8,1.8c0-1.4,0.3-2.7,0.7-4	c0.1-0.3,0.2-0.6,0.3-0.8c-0.5-0.8-0.9-1.7-1.1-2.5l0.4-0.1c0.2,0.7,0.5,1.4,0.8,2.1c0.7-1.5,1.5-2.8,2.6-4	c-0.3-0.7-0.3-1.5-0.1-2.1c0-0.1,0.1-0.2,0.2-0.4l0.4,0.3c0,0.1-0.1,0.1-0.1,0.2c-0.2,0.5-0.2,1.1,0,1.6c0.9-0.9,1.9-1.6,3-2.2	c-0.2-0.4-0.2-0.8,0-1.1c0.1-0.2,0.2-0.4,0.4-0.6l0.3,0.3c-0.1,0.1-0.2,0.2-0.2,0.4c-0.1,0.2-0.1,0.5,0,0.8c1.3-0.7,2.8-1.2,4.3-1.4	c0.1-0.1,0.3-0.2,0.6-0.3l0,0.2c0.3,0,0.6-0.1,0.9-0.1l0,0.4c-0.4,0-0.9,0.1-1.3,0.1c0,0.2,0.1,0.4,0.4,0.6c0.4,0.3,0.9,0.6,1.4,0.8	c0.6,0.2,1.2,0.3,1.6,0.2c0.4,0,0.6-0.1,0.7-0.3c-0.3-0.3-0.6-0.6-1-0.9l0.3-0.4c0.2,0.2,0.5,0.4,0.7,0.6l0.2-0.1	c0.2,0.2,0.2,0.4,0.2,0.5c1.1,1.1,2,2.3,2.6,3.6c0.2-0.2,0.4-0.4,0.5-0.6c0-0.1,0.1-0.2,0-0.4l0.4,0c0,0.2,0,0.4-0.1,0.6	c-0.1,0.4-0.4,0.6-0.7,0.9c0.5,1.1,0.9,2.3,1.1,3.6c0.5-0.4,0.8-0.8,1-1.3c0-0.1,0-0.2,0.1-0.3l0.4,0.1c0,0.1,0,0.2-0.1,0.3	c-0.2,0.7-0.7,1.2-1.3,1.7c0.2,1.6,0.1,3.2-0.2,4.8c0.7-0.3,1.4-0.7,1.9-1.2l0.3,0.3c-0.7,0.6-1.5,1.1-2.4,1.4	c-0.1,0.3-0.2,0.6-0.2,0.9c-0.4,1.3-1,2.5-1.8,3.7c0.6-0.3,1.2-0.6,1.8-1l0.3,0.4c-0.8,0.6-1.6,1-2.5,1.3c-0.8,1-1.7,1.9-2.8,2.7	l-0.3-0.4c0.8-0.6,1.6-1.3,2.3-2.1c-1.2,0.3-2.6,0.5-4,0.4C94.7,46.9,93.8,47.9,92.7,48.7z M95.9,45.4c1.5,0,2.9-0.2,4.2-0.6	c0.9-1.2,1.6-2.6,2.1-4.1c0.1-0.2,0.1-0.4,0.2-0.5c-1.2,0.4-2.6,0.7-4,0.7C97.8,42.5,96.9,44,95.9,45.4z M90.9,44.6	c1.5,0.5,3,0.7,4.5,0.8c1-1.3,1.9-2.9,2.5-4.5c-1.7,0-3.6-0.3-5.5-0.9L90.9,44.6z M86.4,42.5c1.2,0.8,2.6,1.5,4.1,2l1.5-4.6	c-1.8-0.6-3.5-1.5-4.9-2.5C86.6,39.1,86.4,40.8,86.4,42.5z M83,39.2c0.8,1.1,1.8,2.1,3,3c0-1.7,0.2-3.4,0.7-5.1	c-1.2-0.9-2.1-1.9-2.8-2.9c-0.1,0.2-0.1,0.4-0.2,0.5C83.2,36.2,82.9,37.7,83,39.2z M92.5,39.6c1.9,0.6,3.7,0.8,5.5,0.8	c0-0.1,0.1-0.2,0.1-0.3c0.5-1.5,0.8-2.9,0.8-4.4c-1.5,0-3.2-0.2-4.9-0.8L92.5,39.6z M99.4,35.7c-0.1,1.5-0.4,3-0.9,4.6	c0,0,0,0.1,0,0.2c1.5-0.1,2.8-0.3,4-0.8c0.4-1.6,0.5-3.2,0.3-4.7C101.9,35.4,100.8,35.7,99.4,35.7z M87.2,36.9	c1.4,1.1,3.1,1.9,4.9,2.6l1.5-4.6c-1.7-0.6-3.2-1.4-4.5-2.3c-0.8,1.2-1.4,2.6-1.9,4.1C87.3,36.7,87.2,36.8,87.2,36.9z M84,33.6	c0.7,1.1,1.6,2.1,2.8,3c0,0,0-0.1,0-0.2c0.5-1.5,1.2-2.9,2-4.2c-1-0.8-1.8-1.7-2.3-2.7C85.5,30.8,84.7,32.1,84,33.6z M94.2,34.6	c1.7,0.5,3.3,0.8,4.8,0.8c0-1.4-0.1-2.8-0.4-4.1c-1-0.1-2.1-0.3-3.1-0.6L94.2,34.6z M99.1,31.2c0.3,1.3,0.4,2.7,0.4,4.1	c1.3-0.1,2.5-0.4,3.3-0.8c-0.2-1.3-0.6-2.5-1.1-3.6c-0.4,0.2-1,0.3-1.6,0.4C99.8,31.2,99.4,31.2,99.1,31.2z M89.4,32.2	c1.2,0.9,2.7,1.7,4.3,2.2l1.3-4c-1.1-0.4-2.1-0.8-2.9-1.4C91.1,30,90.2,31,89.4,32.2z M86.9,29.3c0.4,0.9,1.2,1.8,2.2,2.6	c0.8-1.2,1.7-2.2,2.7-3.1c-0.9-0.6-1.5-1.2-1.9-1.9C88.8,27.6,87.8,28.4,86.9,29.3z M99,30.8c0.4,0,0.8,0,1.1,0c0.6,0,1-0.2,1.4-0.3	c-0.6-1.2-1.4-2.3-2.4-3.4c-0.2,0.2-0.5,0.4-1,0.4c-0.2,0-0.3,0-0.5,0C98.2,28.5,98.7,29.6,99,30.8z M95.6,30.2c1,0.3,2,0.5,2.9,0.6	c-0.3-1.2-0.8-2.3-1.4-3.4c-0.2,0-0.4-0.1-0.6-0.1L95.6,30.2z M92.5,28.8c0.8,0.5,1.7,0.9,2.7,1.2l1-2.9c-0.2-0.1-0.4-0.1-0.5-0.2	C94.5,27.4,93.5,28,92.5,28.8z M90.3,26.8c0.3,0.6,1,1.2,1.8,1.8c0.9-0.8,1.9-1.4,3-1.9c-0.1-0.1-0.3-0.2-0.4-0.3	c-0.4-0.3-0.5-0.6-0.6-0.9C92.8,25.7,91.5,26.2,90.3,26.8z" class="st1"/></svg>