<svg xmlns="http://www.w3.org/2000/svg" xmlns:svg="http://www.w3.org/2000/svg" id="svg3348" width="353.025" height="500.1" version="1.1"><defs id="defs3350"><clipPath id="clipPath168" clipPathUnits="userSpaceOnUse"><path id="path170" d="m 459.832,263.651 90.09,0 0,127.53 -90.09,0 0,-127.53 z"/></clipPath></defs><metadata id="metadata3353"/><g id="layer1" transform="translate(-344.04121,-151.53406)"><path style="fill:#ed1c24;fill-opacity:1;fill-rule:nonzero;stroke:none" id="path162" d="m 344.04125,151.53406 353.02522,0 0,500.1 -353.02522,0 0,-500.1 z"/><g id="g164" transform="matrix(3.9429179,0,0,-3.9429179,-1470.6079,1692.8641)"><g id="g166" clip-path="url(#clipPath168)"><g id="g172" transform="translate(472.782,345.1917)"><path style="fill:#730b0e;fill-opacity:1;fill-rule:nonzero;stroke:none" id="path174" d="m 0,0 -5.862,-19.58 -6.69,0 0,5.635 15.571,52.011 6.717,0 1.66,0 6.554,0 -7.17,-57.646 -8.214,0 L 5.001,0 0,0 z M 9.045,28.581 2.841,9.49 l 3.83,0 2.374,19.091 z m 13.251,-52.045 9.49,0 0,-9.49 -9.49,0 0,9.49 z m 0,-11.365 9.49,0 0,-39.864 -9.49,0 0,39.864 z m -13.397,-18.996 -3.497,0 0,-11.6 3.497,0 0,11.6 z m 0,21.093 -3.496,0 0,-11.603 3.496,0 0,11.603 z m -3.497,9.268 9.838,0 c 1.739,0 3.148,-1.409 3.148,-3.147 l 0,-19.319 c 0,-1.738 -1.409,-3.15 -3.148,-3.15 1.739,0 3.148,-1.409 3.148,-3.148 l 0,-19.318 c 0,-1.738 -1.409,-3.148 -3.148,-3.148 l -9.838,-10e-4 -9.489,0 0,25.615 0,25.616 9.489,0 z m 30.292,0 9.49,0 0,-51.23 -9.49,0 0,51.23 z m 13.398,-48.082 0,33.697 c 0,1.738 1.409,3.148 3.148,3.148 l 9.907,0 0,11.237 9.489,0 0,-51.23 -9.489,0 -9.907,0 c -1.739,0 -3.148,1.41 -3.148,3.148 m 9.907,6.342 3.148,0 0,21.013 -3.148,0 0,-21.013 z m 3.871,53.964 3.865,31.476 -3.573,0 -3.865,-31.476 3.573,0 z m 9.43,39.817 c 1.738,0 2.975,-1.41 2.761,-3.148 l -5.14,-41.861 c -0.213,-1.739 -1.796,-3.148 -3.534,-3.148 l -12.981,0 c -1.738,0 -2.975,1.409 -2.761,3.148 l 5.14,41.861 c 0.213,1.738 1.796,3.148 3.534,3.148 l 12.981,0 z M 33.656,-16.432 c -0.214,-1.739 -1.796,-3.148 -3.535,-3.148 l -12.817,0 c -1.739,0 -2.975,1.409 -2.762,3.148 l 5.527,45.009 7.852,0 -4.889,-39.817 3.573,0 4.889,39.817 7.688,0 -5.526,-45.009 z m 18.531,45.009 2.433,0 -1.024,-8.341 -2.433,0 -4.889,-39.816 -8.829,0 4.889,39.816 -2.433,0 1.024,8.341 2.433,0 1.165,9.489 8.829,0 -1.165,-9.489 z"/></g><g id="g176" transform="translate(471.4787,346.332)"><path style="fill:#fff;fill-opacity:1;fill-rule:nonzero;stroke:none" id="path178" d="m 0,0 -5.862,-19.58 -5.386,0 0,9.989 14.267,47.657 6.717,0 1.66,0 6.555,0 -7.171,-57.646 -8.214,0 L 5.001,0 0,0 z M 9.045,28.581 2.841,9.49 l 3.83,0 2.374,19.091 z m 13.251,-52.045 9.49,0 0,-9.49 -9.49,0 0,9.49 z m 0,-11.365 9.49,0 0,-39.864 -9.49,0 0,39.864 z m -13.398,-18.996 -3.496,0 0,-11.6 3.496,0 0,11.6 z m 0,21.093 -3.496,0 0,-11.603 3.496,0 0,11.603 z m -3.496,9.268 9.838,0 c 1.739,0 3.148,-1.409 3.148,-3.147 l 0,-19.318 c 0,-1.739 -1.409,-3.151 -3.148,-3.151 1.739,0 3.148,-1.409 3.148,-3.148 l 0,-19.318 c 0,-1.738 -1.409,-3.148 -3.148,-3.148 l -9.838,-10e-4 -9.489,0 0,25.615 0,25.616 9.489,0 z m 30.292,0 9.49,0 0,-51.23 -9.49,0 0,51.23 z m 13.398,-48.082 0,33.697 c 0,1.738 1.409,3.148 3.148,3.148 l 9.907,0 0,11.237 9.489,0 0,-51.23 -9.489,0 -9.907,0 c -1.739,0 -3.148,1.41 -3.148,3.148 m 9.907,27.355 0,-21.013 3.148,0 0,21.013 -3.148,0 z m 3.871,32.951 3.865,31.476 -3.573,0 -3.865,-31.476 3.573,0 z m 9.43,39.817 c 1.738,0 2.975,-1.41 2.761,-3.148 l -5.14,-41.861 c -0.213,-1.739 -1.796,-3.148 -3.534,-3.148 l -12.981,0 c -1.738,0 -2.975,1.409 -2.761,3.148 l 5.14,41.861 c 0.213,1.738 1.796,3.148 3.534,3.148 l 12.981,0 z M 33.656,-16.432 c -0.214,-1.739 -1.796,-3.148 -3.535,-3.148 l -12.817,0 c -1.739,0 -2.975,1.409 -2.762,3.148 l 5.527,45.009 7.851,0 -4.889,-39.817 3.574,0 4.888,39.817 7.689,0 -5.526,-45.009 z m 18.531,45.009 2.433,0 -1.024,-8.341 -2.433,0 -4.889,-39.816 -8.829,0 4.889,39.816 -2.433,0 1.024,8.341 2.433,0 1.165,9.489 8.829,0 -1.165,-9.489 z"/></g></g></g></g></svg>