<svg xmlns="http://www.w3.org/2000/svg" xmlns:xlink="http://www.w3.org/1999/xlink" xmlns:xodm="http://www.corel.com/coreldraw/odm/2003" width="702.879" height="173.357" version="1.1" viewBox="0 0 13703.82 3379.89" xml:space="preserve" style="shape-rendering:geometricPrecision;text-rendering:geometricPrecision;image-rendering:optimizeQuality;fill-rule:evenodd;clip-rule:evenodd"><defs><style type="text/css">.fil0{fill:#677f91;fill-rule:nonzero}</style></defs><g id="Ebene_x0020_1"><metadata id="CorelCorpID_0Corel-Layer"/><path d="M2867.63 1623.67c212.67,-167.8 320.28,-388.97 320.28,-659.33 0,-291.09 -104.23,-528 -309.73,-704.13 -201.4,-172.67 -478.21,-260.21 -822.79,-260.21l-2055.38 0 0 3379.89 2020 0c862.98,0 1300.54,-312.54 1300.54,-928.88 0,-393.02 -152.19,-670.66 -452.91,-827.34zm-2134.65 371.29l0 0 1375.41 0c435.66,0 491.56,203.62 491.56,381.01 0,150.12 -59.73,349.63 -575.61,349.63l-1291.36 0 0 -730.64zm1643.33 -759.88l0 0c-83.19,71.11 -185.3,105.65 -312.08,105.65l-1331.25 0 0 -686.44 1353.42 0c130.67,0 233.29,31.72 304.84,93.99 68.95,60 102.44,140.13 102.44,244.79 0,95.49 -38.38,174.69 -117.36,242.01z" class="fil0"/><polygon points="6386.5 .31 5183.2 2561.35 3979.85 .31 3280.29 .31 4867.03 3377.25 5499.32 3377.25 7086.1 .31" class="fil0"/><path d="M13411.04 278.08c-192.95,-182.46 -455.04,-275.03 -778.83,-275.03l-2489.03 0 0 616.39 723.95 0 20.54 0 1584.01 0c450.16,0 512.13,179.75 512.13,373.94 0,173.42 -56.9,350.71 -479.5,350.71l-1637.17 0 0 -0.26 -723.95 0 0 2030.71 723.95 0 0 -1367.38 1671.29 0c370.66,0 659.59,-85.26 858.78,-253.44 203.48,-171.79 306.62,-420.94 306.62,-740.45 0,-304.02 -98.59,-551.33 -292.78,-735.19z" class="fil0"/><path d="M8793.45 2733.56l0 0.57 -1061.21 0c-453.37,0 -511.5,-212.38 -511.5,-397.31 0,-178.91 57.97,-344.51 478.78,-344.51l1064.92 0 29 0 723.93 0 0 -1989.26 -723.93 0 0 1335.36 -1085.8 0c-372.27,0 -649.52,81.34 -847.67,248.64 -207.76,175.51 -317.59,431.92 -317.59,741.44 0,317.37 106.72,600.3 292.73,776.38 192.86,182.53 454.86,275.03 778.74,275.03l1903.52 0 0 -646.33 -723.93 0z" class="fil0"/></g></svg>