<svg xmlns="http://www.w3.org/2000/svg" xmlns:xlink="http://www.w3.org/1999/xlink" width="372" height="137" version="1.1" viewBox="0 0 372 137"><title>Logo_BVMW_tagline_positiv_RGB</title><desc>Created with Sketch.</desc><g id="Page-1" fill="none" fill-rule="evenodd" stroke="none" stroke-width="1"><g id="Logo_BVMW_tagline_positiv_RGB" fill-rule="nonzero"><path id="Shape" fill="#C31923" d="M136.7,70.5 C135.6,107.2 105.5,136.9 68.5,136.9 C30.8,136.9 0.3,106.4 0.3,68.7 C0.3,31.8 30.1,1.8 66.8,0.5 L66.8,29.2 C45.6,29.9 29,47.3 29,68.7 C29,90.5 46.7,108.2 68.5,108.2 C89.8,108.2 107.2,91.6 108,70.5 L136.7,70.5 L136.7,70.5 L136.7,70.5 Z M73,0.6 L101.7,0.6 L101.7,29.3 L73,29.3 L73,0.6 L73,0.6 Z M108,35.6 L136.7,35.6 L136.7,64.3 L108,64.3 L108,35.6 L108,35.6 Z M108,0.6 L136.7,0.6 L136.7,29.3 L108,29.3 L108,0.6 L108,0.6 Z M73,35.6 L101.7,35.6 L101.7,64.3 L73,64.3 L73,35.6 L73,35.6 Z"/><g id="Group" fill="#C31923" transform="translate(151.000000, 35.000000)"><polygon id="Shape" points="3.9 29.1 .5 29.1 .5 .6 6.4 .6 13.6 24.5 13.7 24.5 21 .6 27 .6 27 29.1 23.4 29.1 23.4 3.7 23.3 3.7 15.3 29.1 11.9 29.1 4.1 3.7 4 3.7"/><path id="Shape" d="M31.6,0.6 L35.2,0.6 L35.2,4.1 L31.6,4.1 L31.6,0.6 Z M35,29.1 L31.8,29.1 L31.8,9.1 L35,9.1 L35,29.1 Z"/><path id="Shape" d="M41.8,9.2 L41.8,5.4 L45,3.9 L45,9.2 L49.3,9.2 L49.3,11.7 L45,11.7 L45,23.9 C45,25.2 45,26.8 48,26.8 C48.2,26.8 48.8,26.7 49.5,26.6 L49.5,29.1 C48.4,29.2 47.4,29.4 46.3,29.4 C43.2,29.4 41.8,28.1 41.8,25.8 L41.8,11.6 L38.5,11.6 L38.5,9.1 L41.8,9.2 L41.8,9.2 Z"/><path id="Shape" d="M54.3,9.2 L54.3,5.4 L57.5,3.9 L57.5,9.2 L61.8,9.2 L61.8,11.7 L57.5,11.7 L57.5,23.9 C57.5,25.2 57.5,26.8 60.5,26.8 C60.7,26.8 61.3,26.7 62,26.6 L62,29.1 C60.9,29.2 59.9,29.4 58.8,29.4 C55.7,29.4 54.3,28.1 54.3,25.8 L54.3,11.6 L51,11.6 L51,9.1 L54.3,9.2 L54.3,9.2 Z"/><path id="Shape" d="M68.1,20.2 C68.1,25.8 69.6,26.9 72.1,26.9 C74.3,26.9 75.5,25.1 75.6,23.1 L79.2,23.1 C79.2,27.5 76.4,29.5 72.2,29.5 C68,29.5 64.6,28.2 64.6,19.4 C64.6,13.6 65.3,8.7 72.2,8.7 C77.9,8.7 79.3,11.8 79.3,18.4 L79.3,20.1 L68.1,20.2 L68.1,20.2 Z M75.9,17.8 C75.9,12 74.3,11.3 71.9,11.3 C69.8,11.3 68.1,12.3 68.1,17.8 L75.9,17.8 Z"/><polygon id="Shape" points="86.3 29.1 83.1 29.1 83.1 .6 86.3 .6"/><path id="Shape" d="M96.2,29.5 C91.9,29.5 89.2,27.6 89.3,23 L93,23 C93,24.1 93,26.8 96.3,26.8 C98.2,26.8 99.7,25.8 99.7,23.8 C99.7,20.2 89.7,20.2 89.7,14.2 C89.7,12.1 91,8.7 96.6,8.7 C100.2,8.7 103.2,10.4 102.9,14.3 L99.3,14.3 C99.3,12.2 98.2,11.1 96.2,11.1 C94.5,11.1 93.1,12 93.1,13.8 C93.1,17.3 103.1,17.2 103.1,23.3 C103.2,27.8 100.2,29.5 96.2,29.5 Z"/><path id="Shape" d="M108.6,9.2 L108.6,5.4 L111.8,3.9 L111.8,9.2 L116.1,9.2 L116.1,11.7 L111.8,11.7 L111.8,23.9 C111.8,25.2 111.8,26.8 114.8,26.8 C115,26.8 115.6,26.7 116.3,26.6 L116.3,29.1 C115.2,29.2 114.2,29.4 113.1,29.4 C110,29.4 108.6,28.1 108.6,25.8 L108.6,11.6 L105.3,11.6 L105.3,9.1 L108.6,9.2 L108.6,9.2 Z"/><path id="Shape" d="M129.5,26.2 L129.5,26.2 C128.4,28.5 126.9,29.5 124.4,29.5 C120.2,29.5 118.9,26.8 118.9,22.9 C118.9,16.9 124.8,16.6 129.4,16.7 C129.5,14.1 129.5,11.2 126,11.2 C123.8,11.2 122.7,12.7 122.9,14.8 L119.4,14.8 C119.6,10.3 121.9,8.8 126.2,8.8 C131.3,8.8 132.7,11.4 132.7,14.8 L132.7,24.4 C132.7,26 132.9,27.6 133.1,29.1 L129.5,29.1 L129.5,26.2 L129.5,26.2 Z M122.2,23.2 C122.2,25.1 123.1,26.9 125.3,26.9 C127.3,26.9 129.7,25.7 129.4,19.2 C126.4,19.3 122.2,19 122.2,23.2 Z"/><path id="Shape" d="M147.4,29.1 L147.4,15.3 C147.4,13.2 146.6,11.4 143.9,11.4 C140.3,11.4 139.8,14.6 139.8,17.3 L139.8,29.1 L136.6,29.1 L136.6,13.3 C136.6,11.9 136.5,10.5 136.4,9.2 L139.8,9.2 L139.8,11.8 L140,11.8 C141.3,9.5 142.8,8.8 145.3,8.8 C149.6,8.8 150.6,11.4 150.6,15.3 L150.6,29.1 L147.4,29.1 L147.4,29.1 Z"/><path id="Shape" d="M165.3,0.6 L168.5,0.6 L168.5,29.1 L165.3,29.1 L165.3,26.7 L165.2,26.7 C164.1,28.6 162.7,29.5 160.6,29.5 C157.4,29.5 154.2,28.2 154.2,19.5 C154.2,14.5 154.4,8.8 160.8,8.8 C162.7,8.8 164.1,9.6 165.2,11.2 L165.3,11.2 L165.3,0.6 L165.3,0.6 Z M161.6,11.4 C158.1,11.4 157.6,14.2 157.6,19.5 C157.6,22.5 157.6,26.8 161.7,26.8 C165.3,26.8 165.3,22.3 165.3,18.3 C165.3,15.7 165.2,11.4 161.6,11.4 Z"/><polygon id="Shape" points="176.4 29.1 172.7 29.1 172.7 25 176.4 25"/></g><g id="Group" fill="#C31923" transform="translate(151.000000, 0.000000)"><path id="Shape" d="M0.6,0.7 L9.4,0.7 C13,0.7 15.7,2 17.1,5.1 C18.2,7.5 18.4,13.2 18.4,14.1 C18.4,20.2 17.8,23.7 16.7,25.6 C15.2,28.1 12.3,29.3 7.3,29.3 L0.7,29.3 L0.6,0.7 L0.6,0.7 Z M4.2,26.1 L7.6,26.1 C12.7,26.1 14.5,24.2 14.5,17.5 L14.5,11.7 C14.5,5.9 12.7,3.8 8.9,3.8 L4.1,3.8 L4.2,26.1 L4.2,26.1 Z"/><path id="Shape" d="M25.2,20.3 C25.2,25.9 26.7,27 29.2,27 C31.4,27 32.6,25.2 32.7,23.2 L36.3,23.2 C36.3,27.6 33.5,29.7 29.3,29.7 C25.1,29.7 21.7,28.4 21.7,19.6 C21.7,13.7 22.4,8.9 29.3,8.9 C35,8.9 36.4,12 36.4,18.7 L36.4,20.4 L25.2,20.3 L25.2,20.3 Z M33,17.9 C33,12.1 31.4,11.4 29,11.4 C26.9,11.4 25.2,12.4 25.2,17.9 L33,17.9 Z"/><path id="Shape" d="M44.4,12.3 L44.4,12.3 C45.8,9.2 47.5,8.9 50.7,8.9 L50.7,12.3 C50.4,12.3 50.1,12.2 49.8,12.2 C49.5,12.2 49.2,12.1 48.9,12.1 C45.3,12.1 44.4,14.8 44.4,17.5 L44.4,29.3 L41.2,29.3 L41.2,9.3 L44.4,9.3 L44.4,12.3 L44.4,12.3 Z"/></g><g id="Group" fill="#6B6B6B" transform="translate(151.000000, 70.000000)"><path id="Shape" d="M0.5,25.6 L0.5,0.5 L8.7,0.5 C12.2,0.5 13.4,1.7 14.3,3.1 C15.2,4.5 15.3,6 15.3,6.4 C15.3,9.5 14.2,11.6 11,12.4 L11,12.6 C14.6,13 16.2,15.2 16.2,18.6 C16.2,25 11.5,25.7 8.6,25.7 L0.5,25.7 L0.5,25.6 L0.5,25.6 Z M3.8,11.1 L8.5,11.1 C11,11.1 12.2,9.5 12.2,7.1 C12.2,5 11,3.3 8.3,3.3 L3.8,3.3 L3.8,11.1 L3.8,11.1 Z M3.8,22.9 L8.3,22.9 C11.7,22.9 12.9,20.5 12.9,18.6 C12.9,14.6 10.4,13.9 7.2,13.9 L3.8,13.9 L3.8,22.9 L3.8,22.9 Z"/><polygon id="Shape" points="28.1 25.6 24.3 25.6 17 .5 20.5 .5 26.2 22.6 26.3 22.6 32.2 .5 35.5 .5"/><polygon id="Shape" points="41.8 25.6 38.8 25.6 38.8 .5 44 .5 50.3 21.6 50.4 21.6 56.8 .5 62.1 .5 62.1 25.6 58.9 25.6 58.9 3.3 58.8 3.3 51.8 25.6 48.8 25.6 41.9 3.3 41.8 3.3"/><polygon id="Shape" points="65.1 .5 68.5 .5 73.2 22.3 73.3 22.3 78.3 .5 82.4 .5 87 22.3 87.1 22.3 92.2 .5 95.5 .5 88.9 25.6 85 25.6 80.2 3.8 80.1 3.8 75 25.6 71.1 25.6"/></g><g id="Group" fill="#6B6B6B" transform="translate(151.000000, 104.000000)"><path id="Shape" d="M0.5,9.7 L0.5,0.2 L3.6,0.2 C4.9,0.2 5.4,0.6 5.7,1.2 C6,1.7 6.1,2.3 6.1,2.5 C6.1,3.7 5.7,4.5 4.5,4.8 L4.5,4.9 C5.9,5.1 6.5,5.9 6.5,7.2 C6.5,9.6 4.7,9.9 3.6,9.9 L0.5,9.7 L0.5,9.7 Z M1.8,4.1 L3.6,4.1 C4.6,4.1 5,3.5 5,2.6 C5,1.8 4.6,1.2 3.5,1.2 L1.8,1.2 L1.8,4.1 L1.8,4.1 Z M1.8,8.6 L3.5,8.6 C4.8,8.6 5.3,7.7 5.3,7 C5.3,5.5 4.4,5.2 3.1,5.2 L1.8,5.2 L1.8,8.6 Z"/><path id="Shape" d="M11.3,3 L12.4,3 L12.4,8.3 C12.4,8.8 12.4,9.2 12.5,9.7 L11.4,9.7 L11.4,8.9 L11.4,8.9 C11,9.5 10.4,9.8 9.7,9.8 C8.5,9.8 7.9,9.2 7.9,8.1 L7.9,3 L9,3 L9,7.6 C9,8.4 9.4,8.9 10.1,8.9 C10.7,8.9 11.4,8.5 11.4,7.4 L11.3,3 L11.3,3 Z"/><path id="Shape" d="M17.5,9.7 L17.5,5 C17.5,4.3 17.2,3.7 16.3,3.7 C15.1,3.7 14.9,4.8 14.9,5.7 L14.9,9.6 L13.8,9.6 L13.8,4.3 C13.8,3.8 13.8,3.4 13.7,2.9 L14.8,2.9 L14.8,3.8 L14.9,3.8 C15.3,3 15.8,2.8 16.7,2.8 C18.1,2.8 18.5,3.7 18.5,5 L18.5,9.6 L17.5,9.7 L17.5,9.7 Z"/><path id="Shape" d="M23.6,0.1 L24.7,0.1 L24.7,9.6 L23.6,9.6 L23.6,8.8 L23.6,8.8 C23.2,9.4 22.8,9.7 22.1,9.7 C21,9.7 19.9,9.3 19.9,6.3 C19.9,4.6 20,2.7 22.1,2.7 C22.7,2.7 23.2,3 23.6,3.5 L23.6,3.5 L23.6,0.1 L23.6,0.1 Z M22.4,3.7 C21.2,3.7 21.1,4.6 21.1,6.4 C21.1,7.4 21.1,8.9 22.5,8.9 C23.7,8.9 23.7,7.4 23.7,6 C23.6,5.2 23.6,3.7 22.4,3.7 Z"/><path id="Shape" d="M27.1,6.7 C27.1,8.6 27.6,8.9 28.4,8.9 C29.1,8.9 29.5,8.3 29.6,7.6 L30.8,7.6 C30.8,9.1 29.9,9.8 28.5,9.8 C27.1,9.8 26,9.4 26,6.4 C26,4.4 26.2,2.8 28.5,2.8 C30.4,2.8 30.9,3.8 30.9,6 L30.9,6.6 L27.1,6.7 L27.1,6.7 Z M29.7,5.9 C29.7,4 29.2,3.7 28.4,3.7 C27.7,3.7 27.1,4 27.1,5.9 L29.7,5.9 Z"/><path id="Shape" d="M34.2,9.8 C32.8,9.8 31.9,9.2 31.9,7.6 L33.1,7.6 C33.1,8 33.1,8.9 34.2,8.9 C34.8,8.9 35.3,8.6 35.3,7.9 C35.3,6.7 32,6.7 32,4.7 C32,4 32.4,2.9 34.3,2.9 C35.5,2.9 36.5,3.5 36.4,4.8 L35.2,4.8 C35.2,4.1 34.8,3.7 34.2,3.7 C33.6,3.7 33.2,4 33.2,4.6 C33.2,5.8 36.5,5.7 36.5,7.8 C36.6,9.2 35.6,9.8 34.2,9.8 Z"/><polygon id="Shape" points="37.2 3 38.4 3 39.9 8.6 39.9 8.6 41.5 3 42.6 3 40.5 9.7 39.1 9.7"/><path id="Shape" d="M44.8,6.7 C44.8,8.6 45.3,8.9 46.1,8.9 C46.8,8.9 47.2,8.3 47.3,7.6 L48.5,7.6 C48.5,9.1 47.6,9.8 46.2,9.8 C44.8,9.8 43.7,9.4 43.7,6.4 C43.7,4.4 43.9,2.8 46.2,2.8 C48.1,2.8 48.6,3.8 48.6,6 L48.6,6.6 L44.8,6.7 L44.8,6.7 Z M47.4,5.9 C47.4,4 46.9,3.7 46.1,3.7 C45.4,3.7 44.8,4 44.8,5.9 L47.4,5.9 Z"/><path id="Shape" d="M51.1,4 L51.1,4 C51.6,3 52.1,2.9 53.2,2.9 L53.2,4 C53.1,4 53,4 52.9,4 C52.8,4 52.7,4 52.6,4 C51.4,4 51.1,4.9 51.1,5.8 L51.1,9.7 L50,9.7 L50,3 L51.1,3 L51.1,4 Z"/><path id="Shape" d="M55.4,9.7 L54.3,9.7 L54.3,0.2 L55.4,0.2 L55.4,3.7 L55.4,3.7 C55.8,3.2 56.2,2.9 56.9,2.9 C59,2.9 59.1,4.8 59.1,6.5 C59.1,9.4 58,9.9 57,9.9 C56.3,9.9 55.8,9.6 55.5,9 L55.5,9 L55.4,9.7 L55.4,9.7 Z M56.6,8.9 C58,8.9 58,7.4 58,6.4 C58,4.6 57.8,3.7 56.7,3.7 C55.5,3.7 55.4,5.1 55.4,6 C55.4,7.1 55.3,8.9 56.6,8.9 Z"/><path id="Shape" d="M63.8,8.7 L63.8,8.7 C63.4,9.5 62.9,9.8 62.1,9.8 C60.7,9.8 60.3,8.9 60.3,7.6 C60.3,5.6 62.3,5.5 63.8,5.5 C63.8,4.6 63.8,3.7 62.7,3.7 C62,3.7 61.6,4.2 61.7,4.9 L60.5,4.9 C60.6,3.4 61.3,2.9 62.8,2.9 C64.5,2.9 65,3.8 65,4.9 L65,8.1 C65,8.6 65.1,9.2 65.1,9.7 L63.9,9.7 L63.8,8.7 L63.8,8.7 Z M61.4,7.7 C61.4,8.3 61.7,8.9 62.4,8.9 C63.1,8.9 63.9,8.5 63.8,6.3 C62.8,6.4 61.4,6.3 61.4,7.7 Z"/><path id="Shape" d="M70,9.7 L70,5 C70,4.3 69.8,3.7 68.8,3.7 C67.6,3.7 67.4,4.8 67.4,5.7 L67.4,9.6 L66.3,9.6 L66.3,4.3 C66.3,3.8 66.3,3.4 66.2,2.9 L67.3,2.9 L67.3,3.8 L67.4,3.8 C67.8,3 68.3,2.8 69.2,2.8 C70.6,2.8 71,3.7 71,5 L71,9.6 L70,9.7 L70,9.7 Z"/><path id="Shape" d="M76.1,0.1 L77.2,0.1 L77.2,9.6 L76.1,9.6 L76.1,8.8 L76.1,8.8 C75.7,9.4 75.3,9.7 74.6,9.7 C73.5,9.7 72.5,9.3 72.5,6.3 C72.5,4.6 72.6,2.7 74.7,2.7 C75.3,2.7 75.8,3 76.2,3.5 L76.2,3.5 L76.1,0.1 L76.1,0.1 Z M74.8,3.7 C73.6,3.7 73.5,4.6 73.5,6.4 C73.5,7.4 73.5,8.9 74.9,8.9 C76.1,8.9 76.1,7.4 76.1,6 C76.1,5.2 76,3.7 74.8,3.7 Z"/><path id="Shape" d="M85.1,9.7 L85.1,5 C85.1,4.3 84.9,3.7 84,3.7 C83.7,3.7 83.2,3.9 83.1,4.1 C82.9,4.4 82.8,4.8 82.8,5.1 L82.8,9.6 L81.7,9.6 L81.7,4.3 C81.7,3.8 81.7,3.4 81.6,2.9 L82.7,2.9 L82.7,3.7 L82.7,3.7 C83,3 83.6,2.7 84.4,2.7 C85,2.7 85.7,2.9 86,3.6 C86.4,2.9 87,2.7 87.6,2.7 C88.3,2.7 89.4,2.9 89.4,4.4 L89.4,9.5 L88.3,9.5 L88.3,5 C88.3,4.3 88.1,3.7 87.2,3.7 C86.8,3.7 86.7,3.7 86.4,3.9 C86.1,4.2 86,4.8 86,5.1 L86,9.6 L85.1,9.7 L85.1,9.7 Z"/><path id="Shape" d="M91.1,0.1 L92.3,0.1 L92.3,1.3 L91.1,1.3 L91.1,0.1 Z M92.3,9.7 L91.2,9.7 L91.2,3 L92.3,3 L92.3,9.7 Z"/><path id="Shape" d="M94.4,3 L94.4,1.7 L95.5,1.2 L95.5,3 L97,3 L97,3.8 L95.5,3.8 L95.5,7.9 C95.5,8.3 95.5,8.9 96.5,8.9 C96.6,8.9 96.8,8.9 97,8.8 L97,9.6 C96.6,9.6 96.3,9.7 95.9,9.7 C94.9,9.7 94.4,9.3 94.4,8.5 L94.4,3.8 L93.3,3.8 L93.3,3 L94.4,3 Z"/><path id="Shape" d="M98.5,3 L98.5,1.7 L99.6,1.2 L99.6,3 L101.1,3 L101.1,3.8 L99.6,3.8 L99.6,7.9 C99.6,8.3 99.6,8.9 100.6,8.9 C100.7,8.9 100.9,8.9 101.1,8.8 L101.1,9.6 C100.7,9.6 100.4,9.7 100,9.7 C99,9.7 98.5,9.3 98.5,8.5 L98.5,3.8 L97.4,3.8 L97.4,3 L98.5,3 Z"/><path id="Shape" d="M102.9,6.7 C102.9,8.6 103.4,8.9 104.2,8.9 C104.9,8.9 105.3,8.3 105.4,7.6 L106.6,7.6 C106.6,9.1 105.7,9.8 104.3,9.8 C102.9,9.8 101.8,9.4 101.8,6.4 C101.8,4.4 102,2.8 104.3,2.8 C106.2,2.8 106.7,3.8 106.7,6 L106.7,6.6 L102.9,6.7 L102.9,6.7 Z M105.5,5.9 C105.5,4 105,3.7 104.2,3.7 C103.5,3.7 102.9,4 102.9,5.9 L105.5,5.9 Z"/><polygon id="Shape" points="109.1 9.7 108 9.7 108 .2 109.1 .2"/><path id="Shape" d="M112.8,9.8 C111.4,9.8 110.5,9.2 110.5,7.6 L111.7,7.6 C111.7,8 111.7,8.9 112.8,8.9 C113.4,8.9 113.9,8.6 113.9,7.9 C113.9,6.7 110.6,6.7 110.6,4.7 C110.6,4 111,2.9 112.9,2.9 C114.1,2.9 115.1,3.5 115,4.8 L113.8,4.8 C113.8,4.1 113.4,3.7 112.8,3.7 C112.2,3.7 111.8,4 111.8,4.6 C111.8,5.8 115.1,5.7 115.1,7.8 C115.2,9.2 114.2,9.8 112.8,9.8 Z"/><path id="Shape" d="M116.7,3 L116.7,1.7 L117.8,1.2 L117.8,3 L119.3,3 L119.3,3.8 L117.8,3.8 L117.8,7.9 C117.8,8.3 117.8,8.9 118.8,8.9 C118.9,8.9 119.1,8.9 119.3,8.8 L119.3,9.6 C118.9,9.6 118.6,9.7 118.2,9.7 C117.2,9.7 116.7,9.3 116.7,8.5 L116.7,3.8 L115.6,3.8 L115.6,3 L116.7,3 Z"/><path id="Shape" d="M123.6,8.7 L123.6,8.7 C123.2,9.5 122.7,9.8 121.9,9.8 C120.5,9.8 120.1,8.9 120.1,7.6 C120.1,5.6 122.1,5.5 123.6,5.5 C123.6,4.6 123.6,3.7 122.5,3.7 C121.8,3.7 121.4,4.2 121.5,4.9 L120.3,4.9 C120.4,3.4 121.1,2.9 122.6,2.9 C124.3,2.9 124.8,3.8 124.8,4.9 L124.8,8.1 C124.8,8.6 124.9,9.2 124.9,9.7 L123.7,9.7 L123.6,8.7 L123.6,8.7 Z M122,1.9 L120.8,1.9 L120.8,0.5 L122,0.5 L122,1.9 Z M121.1,7.7 C121.1,8.3 121.4,8.9 122.1,8.9 C122.8,8.9 123.6,8.5 123.5,6.3 C122.5,6.4 121.1,6.3 121.1,7.7 Z M124.3,1.9 L123,1.9 L123,0.5 L124.2,0.5 L124.3,1.9 L124.3,1.9 Z"/><path id="Shape" d="M130,9.7 L130,5 C130,4.3 129.8,3.7 128.8,3.7 C127.6,3.7 127.4,4.8 127.4,5.7 L127.4,9.6 L126.3,9.6 L126.3,4.3 C126.3,3.8 126.3,3.4 126.2,2.9 L127.3,2.9 L127.3,3.8 L127.4,3.8 C127.8,3 128.3,2.8 129.2,2.8 C130.6,2.8 131,3.7 131,5 L131,9.6 L130,9.7 L130,9.7 Z"/><path id="Shape" d="M136.1,0.1 L137.2,0.1 L137.2,9.6 L136.1,9.6 L136.1,8.8 L136.1,8.8 C135.7,9.4 135.3,9.7 134.6,9.7 C133.5,9.7 132.4,9.3 132.4,6.3 C132.4,4.6 132.5,2.7 134.6,2.7 C135.2,2.7 135.7,3 136.1,3.5 L136.1,3.5 L136.1,0.1 L136.1,0.1 Z M134.8,3.7 C133.6,3.7 133.5,4.6 133.5,6.4 C133.5,7.4 133.5,8.9 134.9,8.9 C136.1,8.9 136.1,7.4 136.1,6 C136.1,5.2 136,3.7 134.8,3.7 Z"/><path id="Shape" d="M138.7,0.1 L139.9,0.1 L139.9,1.3 L138.7,1.3 L138.7,0.1 Z M139.8,9.7 L138.7,9.7 L138.7,3 L139.8,3 L139.8,9.7 Z"/><path id="Shape" d="M143.5,9.8 C142.1,9.8 141.2,9.2 141.2,7.6 L142.4,7.6 C142.4,8 142.4,8.9 143.5,8.9 C144.1,8.9 144.6,8.6 144.6,7.9 C144.6,6.7 141.3,6.7 141.3,4.7 C141.3,4 141.7,2.9 143.6,2.9 C144.8,2.9 145.8,3.5 145.7,4.8 L144.5,4.8 C144.5,4.1 144.1,3.7 143.5,3.7 C142.9,3.7 142.5,4 142.5,4.6 C142.5,5.8 145.8,5.7 145.8,7.8 C145.8,9.2 144.8,9.8 143.5,9.8 Z"/><path id="Shape" d="M150.2,5.1 C150.2,4 149.7,3.7 149.3,3.7 C148.5,3.7 147.9,4.1 147.9,5.9 C147.9,8.1 148.2,8.8 149.3,8.8 C149.6,8.8 150.3,8.5 150.3,7.3 L151.4,7.3 C151.4,9.2 150,9.7 149.3,9.7 C147.9,9.7 146.8,9.3 146.8,6.3 C146.8,4.3 147,2.7 149.3,2.7 C150.6,2.7 151.4,3.5 151.3,5 L150.2,5.1 L150.2,5.1 Z"/><path id="Shape" d="M156.3,9.7 L156.3,5.2 C156.3,4.4 156,3.8 155.1,3.8 C154,3.8 153.7,4.7 153.7,5.8 L153.7,9.7 L152.6,9.7 L152.6,0.2 L153.7,0.2 L153.7,3.9 L153.8,3.9 C154.2,3.1 154.7,2.9 155.6,2.9 C156.7,2.9 157.4,3.5 157.4,5 L157.4,9.7 L156.3,9.7 L156.3,9.7 Z"/><path id="Shape" d="M160,6.7 C160,8.6 160.5,8.9 161.3,8.9 C162,8.9 162.4,8.3 162.5,7.6 L163.7,7.6 C163.7,9.1 162.8,9.8 161.4,9.8 C160,9.8 158.9,9.4 158.9,6.4 C158.9,4.4 159.1,2.8 161.4,2.8 C163.3,2.8 163.8,3.8 163.8,6 L163.8,6.6 L160,6.7 L160,6.7 Z M162.6,5.9 C162.6,4 162.1,3.7 161.3,3.7 C160.6,3.7 160,4 160,5.9 L162.6,5.9 Z"/><polygon id="Shape" points="167.3 .1 168.6 .1 170.4 8.4 170.4 8.4 172.3 .1 173.9 .1 175.6 8.4 175.6 8.4 177.5 .1 178.8 .1 176.3 9.6 174.8 9.6 173 1.3 173 1.3 171.1 9.6 169.6 9.6"/><path id="Shape" d="M179.7,0.1 L180.9,0.1 L180.9,1.3 L179.7,1.3 L179.7,0.1 Z M180.8,9.7 L179.7,9.7 L179.7,3 L180.8,3 L180.8,9.7 Z"/><path id="Shape" d="M183.7,4 L183.7,4 C184.2,3 184.7,2.9 185.8,2.9 L185.8,4 C185.7,4 185.6,4 185.5,4 C185.4,4 185.3,4 185.2,4 C184,4 183.7,4.9 183.7,5.8 L183.7,9.7 L182.6,9.7 L182.6,3 L183.7,3 L183.7,4 L183.7,4 Z"/><path id="Shape" d="M187.7,3 L187.7,1.7 L188.8,1.2 L188.8,3 L190.3,3 L190.3,3.8 L188.8,3.8 L188.8,7.9 C188.8,8.3 188.8,8.9 189.8,8.9 C189.9,8.9 190.1,8.9 190.3,8.8 L190.3,9.6 C189.9,9.6 189.6,9.7 189.2,9.7 C188.2,9.7 187.7,9.3 187.7,8.5 L187.7,3.8 L186.6,3.8 L186.6,3 L187.7,3 Z"/><path id="Shape" d="M193.1,9.8 C191.7,9.8 190.8,9.2 190.8,7.6 L192,7.6 C192,8 192,8.9 193.1,8.9 C193.7,8.9 194.2,8.6 194.2,7.9 C194.2,6.7 190.9,6.7 190.9,4.7 C190.9,4 191.3,2.9 193.2,2.9 C194.4,2.9 195.4,3.5 195.3,4.8 L194.1,4.8 C194.1,4.1 193.7,3.7 193.1,3.7 C192.5,3.7 192.1,4 192.1,4.6 C192.1,5.8 195.4,5.7 195.4,7.8 C195.5,9.2 194.5,9.8 193.1,9.8 Z"/><path id="Shape" d="M199.9,5.1 C199.9,4 199.4,3.7 199,3.7 C198.2,3.7 197.6,4.1 197.6,5.9 C197.6,8.1 197.9,8.8 199,8.8 C199.2,8.8 200,8.5 200,7.3 L201.1,7.3 C201.1,9.2 199.7,9.7 199,9.7 C197.6,9.7 196.5,9.3 196.5,6.3 C196.5,4.3 196.7,2.7 199,2.7 C200.3,2.7 201.1,3.5 201,5 L199.9,5.1 L199.9,5.1 Z"/><path id="Shape" d="M205.9,9.7 L205.9,5.2 C205.9,4.4 205.6,3.8 204.7,3.8 C203.6,3.8 203.3,4.7 203.3,5.8 L203.3,9.7 L202.2,9.7 L202.2,0.2 L203.3,0.2 L203.3,3.9 L203.4,3.9 C203.8,3.1 204.3,2.9 205.2,2.9 C206.3,2.9 207,3.5 207,5 L207,9.7 L205.9,9.7 L205.9,9.7 Z"/><path id="Shape" d="M211.9,8.7 L211.9,8.7 C211.5,9.5 211,9.8 210.2,9.8 C208.8,9.8 208.4,8.9 208.4,7.6 C208.4,5.6 210.4,5.5 211.9,5.5 C211.9,4.6 211.9,3.7 210.8,3.7 C210.1,3.7 209.7,4.2 209.8,4.9 L208.6,4.9 C208.7,3.4 209.4,2.9 210.9,2.9 C212.6,2.9 213.1,3.8 213.1,4.9 L213.1,8.1 C213.1,8.6 213.2,9.2 213.2,9.7 L212,9.7 L211.9,8.7 L211.9,8.7 Z M209.5,7.7 C209.5,8.3 209.8,8.9 210.5,8.9 C211.2,8.9 212,8.5 211.9,6.3 C210.9,6.4 209.5,6.3 209.5,7.7 Z"/><path id="Shape" d="M214.9,3 L214.9,1.7 C214.9,0.4 215.8,0.1 216.8,0.1 C217,0.1 217.2,0.1 217.3,0.1 L217.3,0.9 C216.2,0.8 216,1.3 216,1.8 L216,2.9 L217.3,2.9 L217.3,3.7 L216,3.7 L216,9.5 L214.9,9.5 L214.9,3.7 L213.9,3.7 L213.9,3 L214.9,3 L214.9,3 Z"/><path id="Shape" d="M218.4,3 L218.4,1.7 L219.5,1.2 L219.5,3 L221,3 L221,3.8 L219.5,3.8 L219.5,7.9 C219.5,8.3 219.5,8.9 220.5,8.9 C220.6,8.9 220.7,8.9 221,8.8 L221,9.6 C220.6,9.6 220.3,9.7 219.9,9.7 C218.9,9.7 218.4,9.3 218.4,8.5 L218.4,3.8 L217.3,3.8 L217.3,3 L218.4,3 Z"/><path id="Shape" d="M0.6,14.8 L1.8,14.8 L1.8,20.9 C1.8,23 2.4,23.5 3.6,23.5 C4.8,23.5 5.4,23 5.4,20.9 L5.4,14.8 L6.6,14.8 L6.6,20.8 C6.6,23.4 5.6,24.5 3.6,24.5 C1.6,24.5 0.6,23.5 0.6,20.8 L0.6,14.8 L0.6,14.8 Z"/><path id="Shape" d="M11.8,24.3 L11.8,19.7 C11.8,19 11.5,18.4 10.6,18.4 C9.4,18.4 9.2,19.5 9.2,20.4 L9.2,24.3 L8.1,24.3 L8.1,19 C8.1,18.5 8.1,18.1 8,17.6 L9.1,17.6 L9.1,18.5 L9.2,18.5 C9.6,17.7 10.1,17.5 11,17.5 C12.4,17.5 12.8,18.4 12.8,19.7 L12.8,24.3 L11.8,24.3 L11.8,24.3 Z"/><path id="Shape" d="M14.7,17.7 L14.7,16.4 L15.8,15.9 L15.8,17.7 L17.3,17.7 L17.3,18.5 L15.8,18.5 L15.8,22.6 C15.8,23 15.8,23.6 16.8,23.6 C16.9,23.6 17.1,23.6 17.3,23.5 L17.3,24.3 C16.9,24.3 16.6,24.4 16.2,24.4 C15.2,24.4 14.7,24 14.7,23.2 L14.7,18.5 L13.6,18.5 L13.6,17.7 L14.7,17.7 L14.7,17.7 Z"/><path id="Shape" d="M19.2,21.3 C19.2,23.2 19.7,23.5 20.5,23.5 C21.2,23.5 21.6,22.9 21.7,22.2 L22.9,22.2 C22.9,23.7 22,24.4 20.6,24.4 C19.2,24.4 18.1,24 18.1,21 C18.1,19 18.3,17.4 20.6,17.4 C22.5,17.4 23,18.4 23,20.6 L23,21.2 L19.2,21.3 L19.2,21.3 Z M21.8,20.5 C21.8,18.6 21.3,18.3 20.5,18.3 C19.8,18.3 19.2,18.6 19.2,20.5 L21.8,20.5 Z"/><path id="Shape" d="M25.5,18.7 L25.5,18.7 C26,17.7 26.5,17.6 27.6,17.6 L27.6,18.7 C27.5,18.7 27.4,18.7 27.3,18.7 C27.2,18.7 27.1,18.7 27,18.7 C25.8,18.7 25.5,19.6 25.5,20.5 L25.5,24.4 L24.4,24.4 L24.4,17.7 L25.5,17.7 L25.5,18.7 L25.5,18.7 Z"/><path id="Shape" d="M32.2,24.3 L32.2,19.7 C32.2,19 31.9,18.4 31,18.4 C29.8,18.4 29.6,19.5 29.6,20.4 L29.6,24.3 L28.5,24.3 L28.5,19 C28.5,18.5 28.5,18.1 28.4,17.6 L29.5,17.6 L29.5,18.5 L29.6,18.5 C30,17.7 30.5,17.5 31.4,17.5 C32.8,17.5 33.2,18.4 33.2,19.7 L33.2,24.3 L32.2,24.3 L32.2,24.3 Z"/><path id="Shape" d="M35.6,21.3 C35.6,23.2 36.1,23.5 36.9,23.5 C37.6,23.5 38,22.9 38.1,22.2 L39.3,22.2 C39.3,23.7 38.4,24.4 37,24.4 C35.6,24.4 34.5,24 34.5,21 C34.5,19 34.7,17.4 37,17.4 C38.9,17.4 39.4,18.4 39.4,20.6 L39.4,21.2 L35.6,21.3 L35.6,21.3 Z M38.2,20.5 C38.2,18.6 37.7,18.3 36.9,18.3 C36.2,18.3 35.6,18.6 35.6,20.5 L38.2,20.5 Z"/><path id="Shape" d="M44.1,24.3 L44.1,19.8 C44.1,19 43.8,18.4 42.9,18.4 C41.8,18.4 41.5,19.3 41.5,20.4 L41.5,24.3 L40.4,24.3 L40.4,14.8 L41.5,14.8 L41.5,18.5 L41.6,18.5 C42,17.7 42.5,17.5 43.4,17.5 C44.5,17.5 45.2,18.1 45.2,19.6 L45.2,24.3 L44.1,24.3 L44.1,24.3 Z"/><path id="Shape" d="M50,24.3 L50,19.7 C50,19 49.8,18.4 48.9,18.4 C48.6,18.4 48.1,18.6 48,18.8 C47.8,19.1 47.7,19.5 47.7,19.8 L47.7,24.3 L46.6,24.3 L46.6,19 C46.6,18.5 46.6,18.1 46.5,17.6 L47.6,17.6 L47.6,18.4 L47.6,18.4 C47.9,17.7 48.5,17.4 49.3,17.4 C49.9,17.4 50.6,17.6 50.9,18.3 C51.3,17.6 51.9,17.4 52.5,17.4 C53.2,17.4 54.3,17.6 54.3,19.1 L54.3,24.2 L53.2,24.2 L53.2,19.6 C53.2,18.9 53,18.3 52.1,18.3 C51.7,18.3 51.6,18.3 51.3,18.5 C51,18.8 50.9,19.4 50.9,19.7 L50.9,24.2 L50,24.3 L50,24.3 Z"/><path id="Shape" d="M56.6,21.3 C56.6,23.2 57.1,23.5 57.9,23.5 C58.6,23.5 59,22.9 59.1,22.2 L60.3,22.2 C60.3,23.7 59.4,24.4 58,24.4 C56.6,24.4 55.5,24 55.5,21 C55.5,19 55.7,17.4 58,17.4 C59.9,17.4 60.4,18.4 60.4,20.6 L60.4,21.2 L56.6,21.3 L56.6,21.3 Z M59.2,20.5 C59.2,18.6 58.7,18.3 57.9,18.3 C57.2,18.3 56.6,18.6 56.6,20.5 L59.2,20.5 Z"/><path id="Shape" d="M62.9,18.7 L62.9,18.7 C63.4,17.7 63.9,17.6 65,17.6 L65,18.7 C64.9,18.7 64.8,18.7 64.7,18.7 C64.6,18.7 64.5,18.7 64.4,18.7 C63.2,18.7 62.9,19.6 62.9,20.5 L62.9,24.4 L61.8,24.4 L61.8,17.7 L62.9,17.7 L62.9,18.7 L62.9,18.7 Z"/><polygon id="Shape" points="65.8 17.7 67 17.7 68.5 23.3 68.5 23.3 70.1 17.7 71.2 17.7 69.1 24.4 67.7 24.4"/><path id="Shape" d="M73.1,21.3 C73.1,23.2 73.6,23.5 74.4,23.5 C75.1,23.5 75.5,22.9 75.6,22.2 L76.8,22.2 C76.8,23.7 75.9,24.4 74.5,24.4 C73.1,24.4 72,24 72,21 C72,19 72.2,17.4 74.5,17.4 C76.4,17.4 76.9,18.4 76.9,20.6 L76.9,21.2 L73.1,21.3 L73.1,21.3 Z M75.7,20.5 C75.7,18.6 75.2,18.3 74.4,18.3 C73.7,18.3 73.1,18.6 73.1,20.5 L75.7,20.5 Z"/><path id="Shape" d="M79.1,18.7 L79.1,18.7 C79.6,17.7 80.1,17.6 81.2,17.6 L81.2,18.7 C81.1,18.7 81,18.7 80.9,18.7 C80.8,18.7 80.7,18.7 80.6,18.7 C79.4,18.7 79.1,19.6 79.1,20.5 L79.1,24.4 L78,24.4 L78,17.7 L79.1,17.7 L79.1,18.7 Z"/><path id="Shape" d="M83.4,24.3 L82.3,24.3 L82.3,14.8 L83.4,14.8 L83.4,18.3 L83.4,18.3 C83.8,17.8 84.2,17.5 84.9,17.5 C87,17.5 87.1,19.4 87.1,21.1 C87.1,24 86,24.5 85,24.5 C84.3,24.5 83.8,24.2 83.5,23.6 L83.5,23.6 L83.4,24.3 L83.4,24.3 Z M84.6,23.6 C86,23.6 86,22.1 86,21.1 C86,19.3 85.8,18.4 84.7,18.4 C83.5,18.4 83.4,19.8 83.4,20.7 C83.4,21.7 83.3,23.6 84.6,23.6 Z"/><path id="Shape" d="M91.9,23.4 L91.9,23.4 C91.5,24.2 91,24.5 90.2,24.5 C88.8,24.5 88.4,23.6 88.4,22.3 C88.4,20.3 90.4,20.2 91.9,20.2 C91.9,19.3 91.9,18.4 90.8,18.4 C90.1,18.4 89.7,18.9 89.8,19.6 L88.6,19.6 C88.7,18.1 89.4,17.6 90.9,17.6 C92.6,17.6 93.1,18.5 93.1,19.6 L93.1,22.8 C93.1,23.3 93.2,23.9 93.2,24.4 L92,24.4 L91.9,23.4 L91.9,23.4 Z M89.4,22.3 C89.4,22.9 89.7,23.5 90.4,23.5 C91.1,23.5 91.9,23.1 91.8,20.9 C90.8,21 89.4,20.9 89.4,22.3 Z"/><path id="Shape" d="M98,24.3 L98,19.7 C98,19 97.8,18.4 96.8,18.4 C95.6,18.4 95.4,19.5 95.4,20.4 L95.4,24.3 L94.3,24.3 L94.3,19 C94.3,18.5 94.3,18.1 94.2,17.6 L95.3,17.6 L95.3,18.5 L95.4,18.5 C95.8,17.7 96.3,17.5 97.2,17.5 C98.6,17.5 99,18.4 99,19.7 L99,24.3 L98,24.3 L98,24.3 Z"/><path id="Shape" d="M104.1,14.8 L105.2,14.8 L105.2,24.3 L104.1,24.3 L104.1,23.5 L104.1,23.5 C103.7,24.1 103.3,24.4 102.6,24.4 C101.5,24.4 100.4,24 100.4,21 C100.4,19.3 100.5,17.4 102.6,17.4 C103.2,17.4 103.7,17.7 104.1,18.2 L104.1,18.2 L104.1,14.8 L104.1,14.8 Z M102.9,18.4 C101.7,18.4 101.6,19.3 101.6,21.1 C101.6,22.1 101.6,23.6 103,23.6 C104.2,23.6 104.2,22.1 104.2,20.7 C104.1,19.8 104.1,18.4 102.9,18.4 Z"/><path id="Shape" d="M110,14.8 L112.9,14.8 C114.1,14.8 115,15.2 115.5,16.3 C115.9,17.1 115.9,19 115.9,19.3 C115.9,21.3 115.7,22.5 115.3,23.1 C114.8,23.9 113.8,24.3 112.2,24.3 L110,24.3 L110,14.8 Z M111.2,23.3 L112.3,23.3 C114,23.3 114.6,22.7 114.6,20.4 L114.6,18.5 C114.6,16.6 114,15.9 112.7,15.9 L111.1,15.9 L111.2,23.3 L111.2,23.3 Z"/><path id="Shape" d="M118.3,21.3 C118.3,23.2 118.8,23.5 119.6,23.5 C120.3,23.5 120.7,22.9 120.8,22.2 L122,22.2 C122,23.7 121.1,24.4 119.7,24.4 C118.3,24.4 117.2,24 117.2,21 C117.2,19 117.4,17.4 119.7,17.4 C121.6,17.4 122.1,18.4 122.1,20.6 L122.1,21.2 L118.3,21.3 L118.3,21.3 Z M120.9,20.5 C120.9,18.6 120.4,18.3 119.6,18.3 C118.9,18.3 118.3,18.6 118.3,20.5 L120.9,20.5 Z"/><path id="Shape" d="M126.8,17.7 L127.9,17.7 L127.9,23 C127.9,23.5 127.9,23.9 128,24.4 L126.9,24.4 L126.9,23.6 L126.9,23.6 C126.5,24.2 125.9,24.5 125.2,24.5 C124,24.5 123.4,23.9 123.4,22.8 L123.4,17.7 L124.5,17.7 L124.5,22.3 C124.5,23.1 124.9,23.6 125.6,23.6 C126.2,23.6 126.9,23.2 126.9,22.1 L126.8,17.7 L126.8,17.7 Z"/><path id="Shape" d="M130.1,17.7 L130.1,16.4 L131.2,15.9 L131.2,17.7 L132.7,17.7 L132.7,18.5 L131.2,18.5 L131.2,22.6 C131.2,23 131.2,23.6 132.2,23.6 C132.3,23.6 132.5,23.6 132.7,23.5 L132.7,24.3 C132.3,24.3 132,24.4 131.6,24.4 C130.6,24.4 130.1,24 130.1,23.2 L130.1,18.5 L129,18.5 L129,17.7 L130.1,17.7 L130.1,17.7 Z"/><path id="Shape" d="M135.7,24.5 C134.3,24.5 133.4,23.9 133.4,22.3 L134.6,22.3 C134.6,22.7 134.6,23.6 135.7,23.6 C136.3,23.6 136.8,23.3 136.8,22.6 C136.8,21.4 133.5,21.4 133.5,19.4 C133.5,18.7 133.9,17.6 135.8,17.6 C137,17.6 138,18.2 137.9,19.5 L136.7,19.5 C136.7,18.8 136.3,18.4 135.7,18.4 C135.1,18.4 134.7,18.7 134.7,19.3 C134.7,20.5 138,20.4 138,22.5 C138,23.9 137,24.5 135.7,24.5 Z"/><path id="Shape" d="M142.4,19.8 C142.4,18.7 141.9,18.4 141.5,18.4 C140.7,18.4 140.1,18.8 140.1,20.6 C140.1,22.8 140.4,23.5 141.5,23.5 C141.7,23.5 142.5,23.2 142.5,22 L143.6,22 C143.6,23.9 142.2,24.4 141.5,24.4 C140.1,24.4 139,24 139,21 C139,19 139.2,17.4 141.5,17.4 C142.8,17.4 143.6,18.2 143.5,19.7 L142.4,19.8 L142.4,19.8 Z"/><path id="Shape" d="M148.5,24.3 L148.5,19.8 C148.5,19 148.2,18.4 147.3,18.4 C146.2,18.4 145.9,19.3 145.9,20.4 L145.9,24.3 L144.8,24.3 L144.8,14.8 L145.9,14.8 L145.9,18.5 L146,18.5 C146.4,17.7 146.9,17.5 147.8,17.5 C148.9,17.5 149.6,18.1 149.6,19.6 L149.6,24.3 L148.5,24.3 L148.5,24.3 Z"/><polygon id="Shape" points="152.1 24.3 151 24.3 151 14.8 152.1 14.8"/><path id="Shape" d="M157,23.4 L157,23.4 C156.6,24.2 156.1,24.5 155.3,24.5 C153.9,24.5 153.5,23.6 153.5,22.3 C153.5,20.3 155.5,20.2 157,20.2 C157,19.3 157,18.4 155.9,18.4 C155.2,18.4 154.8,18.9 154.9,19.6 L153.7,19.6 C153.8,18.1 154.5,17.6 156,17.6 C157.7,17.6 158.2,18.5 158.2,19.6 L158.2,22.8 C158.2,23.3 158.3,23.9 158.3,24.4 L157,24.4 L157,23.4 L157,23.4 Z M154.6,22.3 C154.6,22.9 154.9,23.5 155.6,23.5 C156.3,23.5 157.1,23.1 157,20.9 C156,21 154.6,20.9 154.6,22.3 Z"/><path id="Shape" d="M163.4,24.3 L163.4,19.7 C163.4,19 163.2,18.4 162.2,18.4 C161,18.4 160.8,19.5 160.8,20.4 L160.8,24.3 L159.7,24.3 L159.7,19 C159.7,18.5 159.7,18.1 159.6,17.6 L160.7,17.6 L160.7,18.5 L160.8,18.5 C161.2,17.7 161.7,17.5 162.6,17.5 C164,17.5 164.4,18.4 164.4,19.7 L164.4,24.3 L163.4,24.3 L163.4,24.3 Z"/><path id="Shape" d="M169.5,14.8 L170.6,14.8 L170.6,24.3 L169.5,24.3 L169.5,23.5 L169.5,23.5 C169.1,24.1 168.7,24.4 168,24.4 C166.9,24.4 165.8,24 165.8,21 C165.8,19.3 165.9,17.4 168,17.4 C168.6,17.4 169.1,17.7 169.5,18.2 L169.5,18.2 L169.5,14.8 L169.5,14.8 Z M168.3,18.4 C167.1,18.4 167,19.3 167,21.1 C167,22.1 167,23.6 168.4,23.6 C169.6,23.6 169.6,22.1 169.6,20.7 C169.5,19.8 169.5,18.4 168.3,18.4 Z"/><path id="Shape" d="M174.5,24.5 C173.1,24.5 172.2,23.9 172.2,22.3 L173.4,22.3 C173.4,22.7 173.4,23.6 174.5,23.6 C175.1,23.6 175.6,23.3 175.6,22.6 C175.6,21.4 172.3,21.4 172.3,19.4 C172.3,18.7 172.7,17.6 174.6,17.6 C175.8,17.6 176.8,18.2 176.7,19.5 L175.5,19.5 C175.5,18.8 175.1,18.4 174.5,18.4 C173.9,18.4 173.5,18.7 173.5,19.3 C173.5,20.5 176.8,20.4 176.8,22.5 C176.8,23.9 175.8,24.5 174.5,24.5 Z"/><path id="Shape" d="M182.1,21.3 C182.1,23.2 182.6,23.5 183.4,23.5 C184.1,23.5 184.5,22.9 184.6,22.2 L185.8,22.2 C185.8,23.7 184.9,24.4 183.5,24.4 C182.1,24.4 181,24 181,21 C181,19 181.2,17.4 183.5,17.4 C185.4,17.4 185.9,18.4 185.9,20.6 L185.9,21.2 L182.1,21.3 L182.1,21.3 Z M184.7,20.5 C184.7,18.6 184.2,18.3 183.4,18.3 C182.7,18.3 182.1,18.6 182.1,20.5 L184.7,20.5 Z"/><polygon id="Shape" points="188.6 24.3 187.4 24.3 187.4 22.9 188.6 22.9"/><polygon id="Shape" points="192.7 24.3 191.2 24.3 188.4 14.8 189.7 14.8 191.9 23.2 191.9 23.2 194.1 14.8 195.3 14.8"/><polygon id="Shape" points="196.6 24.3 195.4 24.3 195.4 22.9 196.6 22.9"/></g></g></g></svg>