<svg width="284" height="98" xmlns="http://www.w3.org/2000/svg" xmlns:xlink="http://www.w3.org/1999/xlink"><defs><path id="a" d="M.06.726h195.397v53.517H.06z"/></defs><g fill="none" fill-rule="evenodd"><path d="M195.082 51.258V97.85" stroke="#000105" stroke-width=".3" stroke-linecap="round"/><path d="M280.111 71.049v-2.256h2.865v-1.265h-2.865v-1.979h3.129v-1.265h-4.74v8.031h4.763v-1.266h-3.152zm-3.367-6.765h-1.979l-2.898 3.451v-3.451h-1.612v8.031h1.612v-3.729h.021l2.889 3.729h2.105l-3.439-4.246 3.301-3.785zm-10.959 2.312c0-.967-.899-1.047-1.703-1.047h-.53v2.164h.53c.793 0 1.703-.115 1.703-1.117zm.873 2.578l1.289 3.141h-1.795l-.967-2.508c-.228-.6-.435-.83-1.115-.83h-.518v3.338h-1.611v-8.031h1.738c1.725 0 3.785-.057 3.785 2.173 0 .944-.632 1.727-1.658 1.866v.021c.438.035.692.473.852.83zm-10.512-.381h2.865v-1.265h-2.865v-1.979h3.129v-1.265h-4.74v8.031h4.763v-1.266h-3.152v-2.256zm-6.875 1.911h-.023l-1.415-6.42h-2.185l-1.369 6.42h-.024l-1.496-6.42h-1.691l2.129 8.031h2.082l1.428-6.42h.021l1.451 6.42h2.071l2.093-8.031h-1.564l-1.508 6.42zm-15.77-5.155h2.301v6.766h1.612v-6.766h2.3v-1.265h-6.213v1.265zm-2.802 2.75c0-1.748-1.301-2.75-2.647-2.75h-.896v5.5h.896c1.346 0 2.647-1.002 2.647-2.75zm1.679 0c0 3.188-2.173 4.016-4.636 4.016h-2.198v-8.031h2.198c2.463 0 4.636.828 4.636 4.015zm-11.283.908l-1.162-3.312h-.023l-1.162 3.312h2.347zm-.23-4.923l3.152 8.031h-1.783l-.69-1.842h-3.255l-.704 1.842h-1.668l3.131-8.031h1.817zm-11.846 1.265h2.301v6.766h1.611v-6.766h2.301v-1.265h-6.213v1.265zm-1.113 4.477c0 1.759-1.393 2.426-3.014 2.426-.875 0-1.266-.114-2.06-.311l.15-1.449c.553.299 1.185.494 1.816.494.612 0 1.428-.311 1.428-1.035 0-1.529-3.521-.897-3.521-3.555 0-1.795 1.392-2.451 2.808-2.451.69 0 1.334.094 1.92.289l-.148 1.322a4.157 4.157 0 0 0-1.635-.346c-.551 0-1.266.243-1.266 1.118 0 1.392 3.522.804 3.522 3.498z" fill="#000105"/><path d="M252.824 77.584v5.131c0 2.151-1.219 3.037-3.28 3.037-2.058 0-3.279-.886-3.279-3.037v-5.131h1.611v4.637c0 1.369.438 2.266 1.668 2.266 1.233 0 1.668-.897 1.668-2.266v-4.637h1.612zm-13.295 4.924l1.162-3.314h.023l1.162 3.314h-2.347zm.299-4.924l-3.129 8.03h1.668l.701-1.84h3.256l.691 1.84h1.783l-3.152-8.03h-1.818zm-7.727 3.428h3.244v4.326c-.851.231-1.736.414-2.599.414-2.602 0-4.407-1.3-4.407-4.015 0-2.75 1.68-4.291 4.407-4.291.931 0 1.668.127 2.357.334L235 79.137c-.622-.287-1.426-.426-2.071-.426-1.875 0-2.91 1.266-2.91 2.911 0 1.634 1.012 2.865 2.727 2.865.437 0 .781-.047 1.058-.115v-2.094h-1.703v-1.266zm-9.66 3.336h-.899V78.85h.899c1.346 0 2.644 1 2.644 2.748 0 1.75-1.298 2.75-2.644 2.75zm-.313-6.764h-2.197v8.03h2.197c2.463 0 4.637-.829 4.637-4.016 0-3.186-2.174-4.014-4.637-4.014zm-8.093 6.903c-1.647 0-2.256-1.461-2.256-2.91 0-1.416.656-2.866 2.256-2.866 1.597 0 2.254 1.45 2.254 2.866 0 1.449-.61 2.91-2.254 2.91zm0-7.041c-2.555 0-3.936 1.668-3.936 4.131 0 2.46 1.358 4.175 3.936 4.175 2.543 0 3.933-1.748 3.933-4.175 0-2.428-1.414-4.131-3.933-4.131zm-9.063 3.566h-.529V78.85h.529c.805 0 1.703.08 1.703 1.047 0 1-.91 1.115-1.703 1.115zm1.725.633v-.023c1.025-.137 1.658-.92 1.658-1.864 0-2.232-2.061-2.174-3.785-2.174h-1.738v8.03h1.611v-3.336h.517c.68 0 .887.23 1.116.828l.966 2.508h1.795l-1.289-3.141c-.16-.355-.414-.793-.851-.828z" fill="#747975"/><path d="M180.958 70.039c0-.419-.097-.875-.291-1.23-.648-1.068-1.845-1.135-2.818-1.166h-3.403v4.697h3.37c.779 0 1.75-.031 2.396-.584.391-.289.746-.875.746-1.717zm5.967 1.073c-6.459 3.015-11.66 4.677-19.024 5.203V65.991c.033-.584.033-1.2.422-1.848.744-1.361 2.17-1.49 2.946-1.49h7.553c2.656 0 4.859.195 6.64 1.783 1.329 1.199 1.848 2.754 1.848 4.504 0 .871-.164 1.586-.385 2.172zm-63.606-2.303c0-1.199 1.23-1.881 2.98-1.881.325 0 2.301.033 3.305 1.07.162.165.291.391.422.584.131.26.26.551.389.809.584 1.006 1.523 1.428 2.46 1.428 1.459 0 2.885-1.037 2.885-2.916 0-2.108-2.138-4.342-4.99-5.186-1.521-.453-3.143-.582-4.73-.582-6.61 0-9.04 3.984-9.04 7.16 0 .783.151 1.702.553 2.604 1.817-.586 4.305-.932 7.908-.961.649-.004 1.313.021 1.985.066-1.184-.316-2.246-.603-2.637-.738-.746-.258-1.49-.615-1.49-1.457zm21.547 2.592l-1.33-5.994c-.194-1.004-.744-3.076-3.143-3.076-1.814 0-3.109 1.197-3.109 2.913 0 .551.097 1.071.226 1.588l1.701 6.282c1.989.461 4.067.939 6.227 1.392a87.61 87.61 0 0 0-.572-3.105zm12.279 2.136l-1.783-8.324c-.487-2.332-1.75-2.851-3.434-2.851-2.463 0-3.013 1.426-3.435 2.98-1.088 4.789-1.508 6.762-2.016 9.381 1.436.289 2.914.557 4.428.797l.504-2.207c.324-1.557.357-1.879.55-3.176.291 1.815.358 2.365.747 4.018l.384 1.683a75.45 75.45 0 0 0 4.537.477 33.765 33.765 0 0 0-.482-2.778zm9.137-7.029l-2.657 9.983c-.195.002-.38.007-.578.009a65.273 65.273 0 0 1-5.058-.166c.113-.625.215-1.095.386-1.888l1.911-9.104c.131-.582.293-1.328.81-1.976.293-.325.973-1.035 2.237-1.035 1.521 0 3.078 1.164 3.078 2.978 0 .391-.034.81-.129 1.199z" fill="#87BC40"/><path d="M171.205 85.883c.941 0 1.912-.42 2.495-1.166.681-.844.746-1.781.746-2.594v-4.285c-2.329.385-4.5.615-6.545.743v3.48c0 .808.098 1.879.973 2.785.615.648 1.425 1.037 2.331 1.037zm-12.83-.096c2.657 0 3.143-1.46 3.499-2.722l1.16-4.356a83.3 83.3 0 0 1-9.42-.59l1.035 4.524c.519 2.332 1.393 3.144 3.726 3.144zm21.871-6.869c.259.549.357 1.133.455 1.748.257 1.815.453 3.176 1.748 4.342.293.26 1.006.875 2.236.875 1.781 0 3.402-1.135 3.402-2.689 0-.551-.324-1.071-.519-1.555-.258-.648-.42-1.846-.518-2.561-.34-2.169-1-3.289-1.802-3.898a76.536 76.536 0 0 1-8.114 2.158c1.026.037 2.418.16 3.112 1.58zm-53.363 7.225c3.045 0 6.188-.746 8.1-3.143 1.101-1.392 1.521-3.142 1.521-4.537a6.027 6.027 0 0 0-1.275-3.757c-2.988-.516-6.012-.872-9.307-.872-2.341 0-4.355.329-6.017.776 1.152.779 2.455 1.14 6.265 2.17 2.721.711 3.92 1.068 3.92 2.332 0 1.263-1.49 2.105-3.433 2.105-.422 0-2.367-.064-3.532-.973-.39-.291-.648-.679-.875-1.068-.13-.322-.226-.648-.388-.939-.229-.551-.649-1.264-1.524-1.684a3.03 3.03 0 0 0-1.199-.226c-1.588 0-2.947 1.197-2.947 3.045 0 .939.389 2.623 1.781 4.017 1.944 1.977 4.926 2.754 8.91 2.754zm13.004-10.529c1.906.4 3.854.826 5.893 1.23l.121.906c.057-.296.109-.578.162-.849 1.396.273 2.842.535 4.352.773l-1.047 4.58c-.453 1.879-.875 3.533-3.727 3.533-2.332 0-3.207-.972-3.789-2.918l-1.965-7.255z" fill="#1B5F9C"/><mask id="b" fill="#fff"><use xlink:href="#a"/></mask><path d="M135.765 51.495c-2.888 0-5.991-.075-9.76-.235-13.463-.566-23.218-2.308-33.547-4.155-1.728-.306-3.465-.617-5.228-.921 18.118 3.705 34.016 8.059 48.01 8.059 14.856 0 25.88-3.153 38.818-8.171-16.684 4.622-28.271 5.423-38.293 5.423zM3.544 39.288v-4.396s13.58-4.006 35.229-4.006c17.92 0 35.393 5.498 52.956 10.315-4.225-.722-8.227-1.491-12.073-2.237C68.32 36.772 57.615 34.7 45.454 34.7c-19.144 0-31.658 2.098-41.91 4.588z" fill="#87BC40" mask="url(#b)"/><path d="M45.454 36.206C23.99 36.206 10.971 38.851 0 41.74v7.1s20.482-7.877 45.454-7.877c37.784 0 50.208 7.51 80.615 8.793 3.249.137 6.451.231 9.696.231 15.62 0 32.197-2.198 59.317-12.467v-8.576c-23.022 10.658-38.647 16.968-67.444 16.968-36.886 0-55.926-9.706-82.184-9.706" fill="#1B5F9C" mask="url(#b)"/><path d="M142.468 17.327a2.358 2.358 0 0 1 2.349 2.346 2.36 2.36 0 0 1-2.349 2.349 2.358 2.358 0 0 1-2.346-2.349 2.357 2.357 0 0 1 2.346-2.346zM122.26 2.929c0-1.373.83-2.088 2.089-2.088 1.26 0 2.089.715 2.089 2.088v5.754h.058c.83-1.088 2.289-2.204 4.666-2.204 2.518 0 5.265 1.26 5.265 5.497v8.126c0 1.118-.457 2.09-2.089 2.09s-2.089-.972-2.089-2.09v-7.298c0-1.688-.83-2.891-2.634-2.891a3.246 3.246 0 0 0-3.177 3.293v6.896c0 1.118-.458 2.09-2.089 2.09-1.632 0-2.089-.972-2.089-2.09V2.929zm-8.331 3.55c3.492 0 6.097 1.975 6.097 3.922 0 1.201-.888 1.803-1.946 1.803-1.976 0-1.26-2.463-4.265-2.463-1.631 0-3.55 1.117-3.55 4.897 0 2.603 1.231 4.291 3.522 4.291 2.919 0 2.289-2.69 4.493-2.69 1.059 0 1.746.774 1.746 1.604 0 1.83-2.061 4.349-6.354 4.349-5.152 0-7.585-3.177-7.585-7.554 0-4.811 2.719-8.159 7.842-8.159zM99.16 8.569c0-1.117.458-2.09 2.089-2.09s2.088.973 2.088 2.09v11.533c0 1.118-.457 2.09-2.088 2.09s-2.089-.972-2.089-2.09V8.569zm2.089-7.844a2.175 2.175 0 1 1-.001 4.351 2.175 2.175 0 0 1 .001-4.351zM91.202 2.929c0-1.373.83-2.088 2.089-2.088 1.26 0 2.089.715 2.089 2.088v17.173c0 1.375-.829 2.09-2.089 2.09-1.259 0-2.089-.715-2.089-2.09V2.929zM79.551 8.425c0-1.26.829-1.946 1.889-1.946 1.059 0 1.889.686 1.889 1.946v1.603h.057c.487-1.746 1.43-3.549 3.463-3.549 1.316 0 2.29.86 2.29 2.034 0 1.545-1.03 2.087-2.061 2.087h-.743c-1.689 0-2.606 1.174-2.606 4.637v4.865c0 1.118-.458 2.09-2.089 2.09s-2.089-.972-2.089-2.09V8.425zM71.85.784c1.145 0 2.088.943 2.088 2.09a2.1 2.1 0 0 1-2.088 2.088 2.1 2.1 0 0 1-2.09-2.088 2.1 2.1 0 0 1 2.09-2.09zm-5.84 0a2.1 2.1 0 0 1 2.089 2.09 2.1 2.1 0 0 1-2.089 2.088 2.1 2.1 0 0 1-2.089-2.088A2.1 2.1 0 0 1 66.01.784zm9.989 19.318c0 1.26-.573 2.09-1.889 2.09s-1.889-.83-1.889-2.09v-.542h-.057c-1.173 1.544-2.691 2.632-5.065 2.632-2.52 0-5.267-1.259-5.267-5.496V8.569c0-1.117.457-2.09 2.089-2.09 1.631 0 2.089.973 2.089 2.09v7.297c0 1.69.83 2.893 2.633 2.893a3.245 3.245 0 0 0 3.177-3.291V8.569c0-1.117.459-2.09 2.09-2.09 1.631 0 2.089.973 2.089 2.09v11.533zM52.329 9.6h-.716c-1.173 0-1.66-.458-1.66-1.375 0-.916.487-1.375 1.66-1.375h.716V4.304c0-1.375.829-2.088 2.089-2.088 1.259 0 2.089.713 2.089 2.088V6.85h1.26c1.229 0 1.889.374 1.889 1.375 0 1.002-.66 1.375-1.889 1.375h-1.26v8.356c0 .629.342.973 1.088.973h.601c.915 0 1.46.515 1.46 1.404 0 1.201-1.031 1.859-3.035 1.859-3.033 0-4.292-1.259-4.292-3.72V9.6zm-8.875 5.18c-.458.43-1.317.572-1.804.656l-1.518.231c-1.744.258-2.689.801-2.689 2.06 0 .946.888 1.717 2.318 1.717 2.291 0 3.693-1.488 3.693-3.033V14.78zm4.178 3.004c0 1.746.429 2.147.429 2.807 0 .943-.887 1.601-1.888 1.601-1.804 0-2.405-1.144-2.463-2.431-1.63 1.8-3.52 2.431-5.724 2.431-2.375 0-4.723-1.631-4.723-4.263 0-3.463 2.634-4.438 5.84-4.809l2.547-.285c1.002-.117 1.804-.344 1.804-1.547 0-1.203-1.232-1.719-2.634-1.719-3.091 0-3.176 2.291-4.838 2.291-1.058 0-1.774-.744-1.774-1.603 0-1.658 2.348-3.778 6.641-3.778 4.006 0 6.783 1.289 6.783 4.293v7.012zM16.261 8.569c0-1.26.573-2.09 1.889-2.09s1.888.83 1.888 2.09v.543h.057c1.174-1.545 2.691-2.633 5.067-2.633 2.518 0 5.266 1.26 5.266 5.497v8.126c0 1.118-.458 2.09-2.089 2.09-1.632 0-2.089-.972-2.089-2.09v-7.298c0-1.688-.831-2.891-2.634-2.891a3.246 3.246 0 0 0-3.177 3.293v6.896c0 1.118-.458 2.09-2.089 2.09-1.632 0-2.089-.972-2.089-2.09V8.569z" fill="#87BC40" mask="url(#b)"/><path d="M193.109 17.327a2.359 2.359 0 0 1 2.348 2.346c0 1.289-1.061 2.349-2.348 2.349s-2.346-1.06-2.346-2.349a2.357 2.357 0 0 1 2.346-2.346zm-12.707-8.902c0-1.26.828-1.946 1.889-1.946 1.056 0 1.888.686 1.888 1.946v1.603h.057c.486-1.746 1.43-3.549 3.463-3.549 1.316 0 2.289.86 2.289 2.034 0 1.545-1.031 2.087-2.061 2.087h-.744c-1.689 0-2.603 1.174-2.603 4.637v4.865c0 1.118-.459 2.09-2.09 2.09-1.631 0-2.088-.972-2.088-2.09V8.425zm-7.962.144c0-1.117.458-2.09 2.091-2.09 1.633 0 2.09.973 2.09 2.09v11.533c0 1.118-.457 2.09-2.09 2.09-1.633 0-2.091-.972-2.091-2.09V8.569zm2.091-7.844a2.176 2.176 0 1 1 0 4.351 2.176 2.176 0 0 1 0-4.351zm-25.592 9.247c-.143-.457-.286-.918-.286-1.547 0-1.086.972-1.946 2.031-1.946 1.547 0 1.775.83 2.062 2.034l2.204 9.158h.057l1.775-8.328c.343-1.633.686-2.92 2.633-2.864 1.974-.056 2.375 1.202 2.747 2.864l1.803 8.328h.058l2.06-9.158c.257-1.204.515-2.034 2.061-2.034 1.061 0 2.031.86 2.031 1.946 0 .629-.141 1.09-.286 1.547l-3.061 9.959c-.602 1.974-1.06 2.261-2.719 2.261-1.747 0-2.175-.513-2.605-2.173l-2.061-8.215h-.058l-2.059 8.215c-.43 1.66-.86 2.173-2.607 2.173-1.659 0-2.117-.287-2.719-2.261l-3.061-9.959z" fill="#1B5F9C" mask="url(#b)"/></g></svg>