<svg id="Logo" xmlns="http://www.w3.org/2000/svg" viewBox="0 0 551.31 131.21"><defs><style>.cls-1{fill:#f7be00;}.cls-2{fill:#1d1d1b;}</style></defs><circle class="cls-1" cx="102.82" cy="44.21" r="7.2"/><path class="cls-1" d="M143.8,32.13H41.16A17.8,17.8,0,0,0,23.39,49.91l4.13,36.75s0,.07,0,.11a1.13,1.13,0,0,0,0,.18l6.63,58.94A17.81,17.81,0,0,0,52,163.34h54.87a38.79,38.79,0,0,1-7.43-10.8H52a7,7,0,0,1-7-7l-4.09-36.24a32.62,32.62,0,1,0,19-59.13,5.41,5.41,0,0,0,0,10.81A21.82,21.82,0,1,1,38.25,85.47c0-.07,0-.13,0-.21l-4-35.61a7,7,0,0,1,7-6.71H143.8a7,7,0,0,1,7,7v86.4a16.23,16.23,0,1,1-16.23-16.23,5.41,5.41,0,0,0,0-10.81,27,27,0,1,0,27,27V49.91A17.8,17.8,0,0,0,143.8,32.13Z" transform="translate(-23.39 -32.13)"/><path class="cls-2" d="M225.57,60.91v67H221l-1.43-3.52A22.39,22.39,0,0,1,213.4,128a18.13,18.13,0,0,1-6.27,1.23q-10.27,0-16.12-6.7t-5.85-17.83a27.85,27.85,0,0,1,2.71-12.5,20.31,20.31,0,0,1,7.7-8.51,22.14,22.14,0,0,1,11.75-3,16.33,16.33,0,0,1,5.27,1A25.48,25.48,0,0,1,218,84.11V61.77Zm-12.5,60.81a15.36,15.36,0,0,0,4.9-3.38V91.05A15.74,15.74,0,0,0,207.13,87q-6.85,0-10.56,4.89t-3.8,12.7q0,8.26,3.66,13.26t10.6,5A15.54,15.54,0,0,0,213.07,121.72Z" transform="translate(-23.39 -32.13)"/><path class="cls-2" d="M275.29,117.54a20.76,20.76,0,0,1-8,8.55,23.5,23.5,0,0,1-12.17,3.09,21.41,21.41,0,0,1-11.6-3.09,19.88,19.88,0,0,1-7.56-8.65,29.41,29.41,0,0,1-2.62-12.69,28.78,28.78,0,0,1,2.81-12.51A20.4,20.4,0,0,1,244,83.68a22.9,22.9,0,0,1,12-3.09q10.37,0,16.26,6.61T278.1,105A27.05,27.05,0,0,1,275.29,117.54Zm-9,.28q4-5,4.09-12.69,0-8.17-3.81-13.17t-10.74-5A13.13,13.13,0,0,0,245,92q-4,5-4.09,12.69,0,8.09,3.8,13.12t10.75,5A13.14,13.14,0,0,0,266.31,117.82Z" transform="translate(-23.39 -32.13)"/><path class="cls-2" d="M317.72,119.58,320.1,125a26.42,26.42,0,0,1-7.42,3,31.14,31.14,0,0,1-7.7,1.19,22.31,22.31,0,0,1-11.89-3.09,20.06,20.06,0,0,1-7.7-8.65,29.12,29.12,0,0,1-2.66-12.69,27,27,0,0,1,2.8-12.51,21,21,0,0,1,7.94-8.56,22.9,22.9,0,0,1,12-3.09,31.07,31.07,0,0,1,7.66,1.19,24.94,24.94,0,0,1,7.27,3L318.1,90.1a64.76,64.76,0,0,0-6.32-2.37,23,23,0,0,0-6.52-.76,13.15,13.15,0,0,0-10.84,5q-4,5-4.08,12.69,0,8.09,3.8,13.12c2.53,3.36,6.12,5,10.74,5a25.46,25.46,0,0,0,6.85-.76A33.19,33.19,0,0,0,317.72,119.58Z" transform="translate(-23.39 -32.13)"/><path class="cls-2" d="M364,87.11q6.23,6.51,6.23,17.64a27.76,27.76,0,0,1-2.81,12.74,20.23,20.23,0,0,1-8.13,8.56,25.15,25.15,0,0,1-12.65,3,18.54,18.54,0,0,1-8.27-2.19v20.92l-12.26,1V81.83h6.27L334.88,85a19.38,19.38,0,0,1,12.17-4.38Q357.81,80.59,364,87.11Zm-9.46,27.57a15.9,15.9,0,0,0,2.94-9.93q0-6.09-2.9-9.85a9.58,9.58,0,0,0-8-3.75,14.86,14.86,0,0,0-8.18,2.76v22a14.26,14.26,0,0,0,8.18,2.66A9.53,9.53,0,0,0,354.57,114.68Z" transform="translate(-23.39 -32.13)"/><path class="cls-2" d="M417.12,85.25q3.53,4.95,3.52,13.79V128H408.28V99.61A11,11,0,0,0,406.52,93a5.74,5.74,0,0,0-4.9-2.38,13.09,13.09,0,0,0-6.08,1.47,51.31,51.31,0,0,0-6.28,4v32H377V61.86l12.26-1V85.35a37.43,37.43,0,0,1,8.08-3.71,25,25,0,0,1,7.52-1.33Q413.61,80.31,417.12,85.25Z" transform="translate(-23.39 -32.13)"/><path class="cls-2" d="M433,95.05l-3.33-10.27a25.93,25.93,0,0,1,7.89-2.9,39.6,39.6,0,0,1,8.66-1.29,23,23,0,0,1,10.08,2.19,18.33,18.33,0,0,1,7.27,6.09,14.93,14.93,0,0,1,2.71,8.74V128h-8.08l-2.1-5q-5.79,6.09-12.17,6.09-8.27,0-12.45-4t-4.19-10.89q0-7,4.76-10.89t12.74-3.85h9a7.7,7.7,0,0,0-2-5.47,7.3,7.3,0,0,0-5.37-2,30.31,30.31,0,0,0-6.94.91A33.55,33.55,0,0,0,433,95.05Zm4.85,19.11a4.73,4.73,0,0,0,1.66,3.61,6,6,0,0,0,4.23,1.52q5.52,0,10.18-4.56v-7h-9.32a6.54,6.54,0,0,0-4.9,1.91A6.31,6.31,0,0,0,437.89,114.16Z" transform="translate(-23.39 -32.13)"/><path class="cls-2" d="M487.26,128H474.89V81.83H483l2.09,5A36.63,36.63,0,0,1,494.2,82a26.36,26.36,0,0,1,8.65-1.71q8.75,0,12.27,4.94T518.63,99V128H506.27V99.61A10.93,10.93,0,0,0,504.51,93a5.72,5.72,0,0,0-4.89-2.38,13.1,13.1,0,0,0-6.09,1.47,51.27,51.27,0,0,0-6.27,4Z" transform="translate(-23.39 -32.13)"/><path class="cls-2" d="M549.27,81.93l3.8,9.5H540.9V111a9.56,9.56,0,0,0,1.76,6,5.93,5.93,0,0,0,5,2.28,11.6,11.6,0,0,0,5-1.23l3.62,8.94a13,13,0,0,1-4.23,2,17.71,17.71,0,0,1-5.09.86q-8.65,0-13.5-4.38t-4.85-12.26V91.43h-6.18v-9.5h6.18V71L540.9,68.8V81.93Z" transform="translate(-23.39 -32.13)"/><path class="cls-2" d="M567.85,128a6.86,6.86,0,0,1-5-2,7,7,0,0,1,0-9.89,6.86,6.86,0,0,1,5-2,6.58,6.58,0,0,1,4.9,2,7.25,7.25,0,0,1,0,9.89A6.58,6.58,0,0,1,567.85,128Z" transform="translate(-23.39 -32.13)"/></svg>