<svg width="97" height="97" xmlns="http://www.w3.org/2000/svg" xmlns:xlink="http://www.w3.org/1999/xlink" overflow="hidden"><defs><clipPath id="clip0"><rect x="769" y="324" width="97" height="97"/></clipPath><clipPath id="clip1"><rect x="770" y="325" width="96" height="96"/></clipPath><clipPath id="clip2"><rect x="770" y="325" width="96" height="96"/></clipPath><clipPath id="clip3"><rect x="770" y="325" width="96" height="96"/></clipPath></defs><g clip-path="url(#clip0)" transform="translate(-769 -324)"><g clip-path="url(#clip1)"><g clip-path="url(#clip2)"><g clip-path="url(#clip3)"><path d="M818.005 350C805.302 350 795.005 360.297 795.005 373 795.005 385.703 805.302 396 818.005 396 830.708 396 841.005 385.703 841.005 373 840.991 360.303 830.702 350.014 818.005 350ZM814.735 382.364 804.712 372.34 808.118 368.934 814.735 375.551 828.287 362 831.693 365.406Z" fill="#86C901" fill-rule="nonzero" fill-opacity="1"/><path d="M852.125 374.265C851.524 373.529 851.524 372.471 852.125 371.735L854.589 368.716C855.288 367.861 855.161 366.601 854.306 365.902 854.247 365.854 854.186 365.81 854.123 365.769L850.846 363.659C850.047 363.145 849.72 362.14 850.064 361.254L851.475 357.62C851.875 356.59 851.365 355.431 850.335 355.031 850.265 355.004 850.194 354.981 850.121 354.962L846.352 353.968C845.433 353.726 844.812 352.871 844.865 351.922L845.084 348.03C845.146 346.927 844.302 345.983 843.199 345.921 843.125 345.917 843.05 345.917 842.975 345.921L839.083 346.14C838.134 346.193 837.279 345.572 837.037 344.653L836.043 340.884C835.761 339.816 834.667 339.179 833.599 339.461 833.526 339.48 833.455 339.503 833.385 339.53L829.751 340.941C828.865 341.285 827.86 340.958 827.346 340.159L825.236 336.882C824.638 335.953 823.4 335.685 822.472 336.283 822.408 336.324 822.347 336.368 822.289 336.416L819.27 338.88C818.534 339.481 817.476 339.481 816.74 338.88L813.721 336.416C812.866 335.717 811.606 335.844 810.907 336.699 810.859 336.758 810.815 336.819 810.774 336.882L808.664 340.159C808.15 340.958 807.145 341.285 806.259 340.941L802.625 339.53C801.595 339.13 800.437 339.641 800.036 340.67 800.009 340.74 799.986 340.811 799.967 340.884L798.973 344.653C798.731 345.572 797.876 346.193 796.927 346.14L793.035 345.921C791.932 345.859 790.988 346.703 790.926 347.806 790.922 347.88 790.922 347.955 790.926 348.03L791.145 351.922C791.198 352.871 790.577 353.726 789.658 353.968L785.889 354.962C784.821 355.244 784.184 356.338 784.466 357.406 784.485 357.479 784.508 357.55 784.535 357.62L785.946 361.254C786.29 362.14 785.963 363.145 785.164 363.659L781.887 365.769C780.958 366.367 780.69 367.604 781.287 368.533 781.328 368.596 781.372 368.658 781.42 368.716L783.885 371.735C784.486 372.471 784.486 373.529 783.885 374.265L781.42 377.284C780.721 378.139 780.849 379.4 781.704 380.098 781.763 380.146 781.824 380.19 781.887 380.231L785.164 382.341C785.963 382.855 786.29 383.86 785.946 384.746L784.535 388.38C784.135 389.41 784.646 390.568 785.675 390.969 785.745 390.996 785.816 391.019 785.889 391.038L789.658 392.032C790.577 392.274 791.198 393.129 791.145 394.078L790.926 397.97C790.864 399.073 791.708 400.017 792.811 400.079 792.885 400.083 792.96 400.083 793.035 400.079L796.927 399.86C797.876 399.807 798.731 400.428 798.973 401.347L799.967 405.116C800.249 406.184 801.343 406.821 802.411 406.539 802.484 406.52 802.555 406.497 802.625 406.47L806.259 405.059C807.145 404.715 808.15 405.042 808.664 405.841L810.774 409.118C811.372 410.047 812.61 410.315 813.538 409.717 813.602 409.676 813.663 409.632 813.721 409.584L816.74 407.12C817.476 406.519 818.534 406.519 819.27 407.12L822.289 409.584C823.144 410.283 824.404 410.156 825.103 409.301 825.151 409.242 825.195 409.181 825.236 409.118L827.346 405.841C827.86 405.042 828.865 404.715 829.751 405.059L833.385 406.47C834.415 406.87 835.573 406.359 835.974 405.33 836.001 405.26 836.024 405.189 836.043 405.116L837.037 401.347C837.279 400.428 838.134 399.807 839.083 399.86L842.975 400.079C844.078 400.141 845.022 399.297 845.084 398.194 845.088 398.12 845.088 398.045 845.084 397.97L844.865 394.078C844.812 393.129 845.433 392.274 846.352 392.032L850.121 391.038C851.189 390.756 851.826 389.662 851.544 388.594 851.525 388.521 851.502 388.45 851.475 388.38L850.064 384.746C849.72 383.86 850.047 382.855 850.846 382.341L854.123 380.231C855.052 379.633 855.32 378.395 854.722 377.467 854.681 377.403 854.637 377.342 854.589 377.284ZM818.005 399C803.646 399 792.005 387.359 792.005 373 792.005 358.641 803.646 347 818.005 347 832.364 347 844.005 358.641 844.005 373 843.989 387.353 832.358 398.984 818.005 399Z" fill="#86C901" fill-rule="nonzero" fill-opacity="1"/></g></g></g></g></svg>