<svg xmlns="http://www.w3.org/2000/svg" xmlns:xlink="http://www.w3.org/1999/xlink" width="266" height="265" overflow="hidden"><defs><clipPath id="clip0"><rect width="266" height="265" x="2681" y="1595"/></clipPath><clipPath id="clip1"><rect width="137" height="139" x="2744" y="1657"/></clipPath><clipPath id="clip2"><rect width="137" height="139" x="2744" y="1657"/></clipPath><clipPath id="clip3"><rect width="137" height="139" x="2744" y="1657"/></clipPath></defs><g clip-path="url(#clip0)" transform="translate(-2681 -1595)"><g clip-path="url(#clip1)"><g clip-path="url(#clip2)"><g clip-path="url(#clip3)"><path fill="#86C901" fill-opacity="1" fill-rule="nonzero" stroke="#86C901" stroke-linecap="butt" stroke-linejoin="miter" stroke-miterlimit="4" stroke-opacity="1" stroke-width="1.427" d="M122.872 22.5479 49.8051 91.6186 14.6989 55.6562 2.56875 67.2155 49.2343 115.165 61.5072 103.749 134.431 34.5354Z" transform="matrix(1 0 0 1 2744 1658)"/></g></g></g><path fill="none" fill-rule="evenodd" stroke="#86C901" stroke-linecap="butt" stroke-linejoin="miter" stroke-miterlimit="8" stroke-opacity="1" stroke-width="13.75" d="M2689 1726.5C2689 1658.29 2744.29 1603 2812.5 1603 2880.71 1603 2936 1658.29 2936 1726.5 2936 1794.71 2880.71 1850 2812.5 1850 2744.29 1850 2689 1794.71 2689 1726.5Z"/></g></svg>