<svg enable-background="new 0 0 279.4 41.2" viewBox="0 0 279.4 41.2" xmlns="http://www.w3.org/2000/svg"><path d="m58.9 31.7h-7.6v-18.9h-10.4v-6.1h28.5v6.1h-10.5zm25.7.3c-2.9 0-5.1-.1-6.4-.4-1.4-.3-2.5-.7-3.3-1.4-1-.7-1.7-1.7-2.1-2.8-.4-1.2-.6-2.7-.6-4.6v-6.8c0-2.1.2-3.8.6-5s1.1-2.2 2.1-2.9c.8-.6 1.9-1.1 3.3-1.4s3.5-.4 6.3-.4h9c2.8 0 5 .1 6.4.4s2.5.7 3.4 1.4 1.6 1.7 2 2.9.6 2.8.6 4.7v7c0 1.9-.2 3.5-.6 4.7s-1.1 2.2-2 2.9c-.8.6-2 1.1-3.3 1.4s-3.5.3-6.4.3zm2.1-6.3h4.9c2.7 0 4.5-.3 5.4-1s1.3-1.9 1.3-3.8v-3.5c0-1.8-.4-3.1-1.3-3.8s-2.7-1-5.4-1h-4.9c-2.8 0-4.6.3-5.4 1-.9.7-1.3 2-1.3 3.9v3.5c0 1.8.4 3 1.4 3.7.8.7 2.6 1 5.3 1zm3.7-21.3v-4.4h5.5v4.4zm-8.1 0v-4.4h5.5v4.4zm62.1 27.3h-11.2l-15-18.2v18.2h-7.6v-25h11.3l14.9 18.3v-18.3h7.6zm38.7 0h-11.1l-15-18.2v18.2h-7.6v-25h11.3l14.8 18.3v-18.3h7.6zm28.4-7.1c0 1-.2 2-.5 3-.4.9-.8 1.7-1.5 2.3-.8.7-1.7 1.2-2.9 1.5s-2.9.5-5.1.5h-5.3c-3.8 0-6.4-.6-7.8-1.7s-2.1-3.2-2.1-6.1v-3.3h7.4v.9c0 1.6.2 2.7.7 3.2s1.4.8 2.8.8h3.4c1.2 0 2.1-.2 2.5-.7.5-.5.7-1.4.7-2.8v-15.5h7.6zm32.4-11.8h-19.7v3.8h18.5v5.3h-18.5v3.8h20v6h-27.6v-25h27.3zm4.3 10.6h7.5v.5c0 1 .2 1.6.7 1.9s1.4.5 2.9.5h9.6c.9 0 1.6-.2 2-.5s.6-.9.6-1.6c0-.8-.2-1.3-.7-1.6s-1.5-.5-3-.6l-12-.3c-3-.1-5-.7-6.1-1.7s-1.6-3-1.6-5.8c0-1.4.1-2.6.4-3.5s.7-1.7 1.4-2.3c.7-.7 1.7-1.2 2.9-1.5s3.1-.4 5.7-.4h11.6c2.9 0 5 .5 6.2 1.6s1.9 2.8 1.9 5.1v.5c0 .2 0 .5-.1.9h-7.1v-.1c0-.8-.2-1.4-.6-1.9-.4-.4-1-.6-1.9-.6h-8.8c-1.5 0-2.4.1-2.9.4s-.7.8-.7 1.5.2 1.2.6 1.5 1.2.5 2.4.6l12.5.2c2.9.1 4.9.7 6 1.9 1.2 1.2 1.8 3.3 1.8 6.2 0 1.7-.2 3.1-.6 4s-1.1 1.8-2.2 2.4c-.7.4-1.6.7-2.7.9s-2.8.3-5 .3h-10.2c-4.2 0-7-.5-8.4-1.4s-2.1-2.7-2.1-5.2c0-.1 0-.4 0-.7s0-.7 0-1.2z" fill="#676c6e"/><path d="m44.8 41.2h-.8v-5.6h-3.1v-.7h7v.7h-3.1zm4.9 0h-.8v-6.3h.8v2.7h5.7v-2.7h.8v6.3h-.8v-2.9h-5.7zm8 0v-6.3h6.2v.7h-5.4v2h5.2v.7h-5.2v2.2h5.4v.7zm14.2 0-3.5-6.3h.9l3.1 5.6 3.1-5.6h.9l-3.5 6.3zm5.3 0v-6.3h6.2v.7h-5.4v2h5.2v.7h-5.2v2.2h5.4v.7zm8.1 0h-.8v-6.3h.8v2.7h5.7v-2.7h.8v6.3h-.8v-2.9h-5.7zm8.9 0h-.8v-6.3h.8zm4.2 0c-.6 0-1.1 0-1.4-.1s-.5-.2-.7-.3c-.2-.2-.4-.4-.5-.7s-.1-.7-.1-1.2v-1.7c0-.5.1-.9.1-1.3.1-.3.2-.6.5-.7.2-.2.4-.3.7-.3.3-.1.8-.1 1.4-.1h2c1 0 1.7.1 2.1.4s.5.7.5 1.4v.2.1h-.7v-.1c0-.5-.1-.8-.3-1s-.6-.3-1.1-.3h-2.9c-.4 0-.7 0-.9.1s-.4.2-.5.4c-.1.1-.1.2-.2.4 0 .2-.1.4-.1.8v.1 1.5c0 .4 0 .6.1.8s.1.3.2.4c.1.2.3.3.5.4s.5.1.9.1h2.7c.6 0 1-.1 1.2-.3s.3-.5.3-1v-.2h.7v.2s0 .1 0 .1c0 .4 0 .7-.1 1-.1.2-.2.4-.4.6s-.4.2-.7.3-.8.1-1.5.1zm6 0v-6.3h.8v5.6h4.9v.7zm6.6 0v-6.3h6.2v.7h-5.5v2h5.2v.7h-5.2v2.2h5.5v.7zm12.3 0h-.8v-6.3h.8zm6.9-5.6h-4.5v4.9h4.5c.6 0 1-.1 1.2-.3s.4-.6.4-1.2v-1.8c0-.6-.1-1-.3-1.2-.3-.3-.7-.4-1.3-.4zm-.5-.7c.6 0 1.1 0 1.4.1s.6.2.8.3c.3.2.4.4.6.7.1.3.2.7.2 1.2v1.7c0 .5-.1.9-.2 1.2s-.3.5-.6.7c-.2.1-.5.2-.8.3s-.8.1-1.4.1h-4.8v-6.3zm4.3 6.3v-6.3h6.2v.7h-5.5v2h5.2v.7h-5.2v2.2h5.5v.7zm8.1 0h-.8v-6.3h1.2l5.7 5.6v-5.6h.8v6.3h-1.1l-5.8-5.7zm11.8 0h-.8v-5.6h-3.1v-.7h7v.7h-3.1zm4.9 0h-.8v-6.3h.8zm1.6 0v-6.3h6v.7h-5.2v2h5v.7h-5v2.9zm7.9 0h-.8v-6.3h.8zm4.2 0c-.6 0-1.1 0-1.4-.1s-.5-.2-.7-.3c-.2-.2-.4-.4-.5-.7s-.1-.7-.1-1.2v-1.7c0-.5 0-.9.1-1.3.1-.3.2-.6.5-.7.2-.2.4-.3.7-.3s.8-.1 1.4-.1h2c1 0 1.7.1 2.1.4s.5.7.5 1.4v.2.1h-.7v-.1c0-.5-.1-.8-.3-1s-.6-.3-1.1-.3h-2.7c-.4 0-.7 0-.9.1s-.4.2-.5.4c-.1.1-.1.2-.2.4v.8.1 1.5.8s.1.3.2.4c.1.2.3.3.5.4s.5.1.9.1h2.7c.6 0 1-.1 1.2-.3s.3-.5.3-1v-.2h.7v.2s0 .1 0 .1c0 .4 0 .7-.1 1-.1.2-.2.4-.4.6s-.4.2-.7.3-.8.1-1.5.1zm7.2-2.1h4.2l-2.1-3.6zm-2.1 2.1 3.7-6.3h1l3.7 6.3h-.8l-.8-1.4h-5l-.8 1.4zm11.4 0h-.8v-5.6h-3.1v-.7h7v.7h-3.1zm4.9 0h-.8v-6.3h.8zm4.4 0c-.7 0-1.2 0-1.5-.1s-.6-.2-.8-.3c-.2-.2-.4-.4-.5-.7s-.1-.7-.1-1.2v-1.7c0-.5 0-.9.1-1.2s.3-.6.5-.7c.2-.2.5-.3.8-.3s.8-.1 1.5-.1h2.1c.7 0 1.2 0 1.5.1s.6.2.8.3c.2.2.4.4.5.7s.1.7.1 1.2v1.8c0 .5 0 .9-.1 1.2s-.3.5-.5.7-.5.3-.8.3-.8.1-1.5.1zm2.5-5.7h-2.9c-.4 0-.7 0-.9.1s-.4.2-.5.4c-.1.1-.1.3-.2.4s0 .4 0 .8v.1 1.5.8c0 .2.1.3.2.4.1.2.3.3.5.4s.5.1.9.1h2.9c.4 0 .7 0 .9-.1s.4-.2.5-.4c.1-.1.1-.2.2-.4 0-.2 0-.4 0-.7v-.2-1.6c0-.3 0-.6 0-.7s-.1-.3-.2-.4c-.1-.2-.3-.3-.5-.4s-.5-.1-.9-.1zm4.7 5.7h-.8v-6.3h1.2l5.7 5.6v-5.6h.8v6.3h-1.1l-5.8-5.7zm15.2 0c-.6 0-1.1 0-1.4-.1s-.5-.2-.7-.3c-.2-.2-.4-.4-.5-.7s-.1-.7-.1-1.2v-1.7c0-.5 0-.9.1-1.3.1-.3.2-.6.5-.7.2-.2.4-.3.7-.3.3-.1.8-.1 1.4-.1h2c1 0 1.7.1 2.1.4s.5.7.5 1.4v.2.1h-.7v-.1c0-.5-.1-.8-.3-1s-.6-.3-1.1-.3h-2.7c-.4 0-.7 0-.9.1s-.4.2-.5.4c-.1.1-.1.2-.2.4v.8.1 1.5.8s.1.3.2.4c.1.2.3.3.5.4s.5.1.9.1h2.7c.6 0 1-.1 1.2-.3s.3-.5.3-1v-.2h.7v.2s0 .1 0 .1c0 .4 0 .7-.1 1-.1.2-.2.4-.4.6s-.4.2-.7.3-.8.1-1.5.1zm8.8 0c-.7 0-1.2 0-1.5-.1s-.6-.2-.8-.3c-.2-.2-.4-.4-.5-.7s-.1-.7-.1-1.2v-1.7c0-.5 0-.9.1-1.2s.3-.6.5-.7c.2-.2.5-.3.8-.3s.8-.1 1.5-.1h2.1c.7 0 1.2 0 1.5.1s.6.2.8.3c.2.2.4.4.5.7s.1.7.1 1.2v1.8c0 .5 0 .9-.1 1.2s-.3.5-.5.7-.5.3-.8.3-.8.1-1.5.1zm2.5-5.7h-2.9c-.4 0-.7 0-.9.1s-.4.2-.5.4c-.1.1-.1.3-.2.4s0 .4 0 .8v.1 1.5.8c0 .2.1.3.2.4.1.2.3.3.5.4s.5.1.9.1h2.9c.4 0 .7 0 .9-.1s.4-.2.5-.4c.1-.1.1-.2.2-.4 0-.2 0-.4 0-.7v-.2-1.6c0-.3 0-.6 0-.7s-.1-.3-.2-.4c-.1-.2-.3-.3-.5-.4s-.5-.1-.9-.1zm4.7 5.7h-.8v-6.3h1.1l3.8 5.5 3.8-5.5h1.2v6.3h-.8v-5.5l-3.9 5.5h-.6l-3.9-5.5v5.5zm11.4 0h-.8v-6.3h4.4c1 0 1.7.1 2 .3s.5.6.5 1.2v.8c0 .6-.2 1-.5 1.2s-1 .3-2 .3h-3.6zm0-3.2h3.8c.6 0 .9-.1 1.1-.2s.3-.4.3-.9v-.3c0-.4-.1-.7-.3-.9-.2-.1-.6-.2-1.1-.2h-3.8zm7.7 1.1h4.2l-2.1-3.6zm-2.1 2.1 3.7-6.3h1l3.7 6.3h-.8l-.8-1.4h-5l-.8 1.4zm9.9 0h-.8v-6.3h1.2l5.7 5.6v-5.6h.8v6.3h-1.1l-5.8-5.7zm11.3 0v-2.6l-3.6-3.7h1.1l2.9 3 2.9-3h1.1l-3.6 3.7v2.6z" fill="#666b6e"/><g clip-rule="evenodd" fill-rule="evenodd"><path d="m34.5 41.2h-34.5v-22.3h9.3v14.6h16v-14.6h9.2z" fill="#676c6e"/><path d="m34.5 6.7v10.2h-11.3v14.5h-11.9v-14.5h-11.3v-10.2z" fill="#b51f1f"/></g></svg>