<svg width="154" height="120" xmlns="http://www.w3.org/2000/svg" xmlns:xlink="http://www.w3.org/1999/xlink" overflow="hidden"><defs><clipPath id="clip0"><rect x="605" y="185" width="154" height="120"/></clipPath></defs><g clip-path="url(#clip0)" transform="translate(-605 -185)"><path d="M626.539 285.349 701.551 285.549C703.546 295.125 708.035 301.409 718.209 301.409 728.384 301.409 733.87 296.122 735.865 286.546 745.042 286.446 753.022 288.142 753.122 275.873L753.122 253.03C753.122 247.244 752.125 245.15 746.539 243.753L703.446 232.98 672.324 207.344C668.534 203.953 666.638 203.055 661.551 203.055L646.988 203.055 647.885 208.441 661.352 208.441C664.444 208.441 667.337 209.638 669.631 211.633L698.559 236.87C699.057 237.269 699.656 237.569 700.254 237.768L744.444 248.84C746.339 249.339 747.636 251.035 747.636 252.93L747.636 275.973C747.736 278.267 745.94 280.062 743.646 280.162 743.546 280.162 743.546 280.162 743.446 280.162L735.865 280.162C733.87 270.586 728.384 266.297 718.209 266.297 708.035 266.297 703.546 270.586 701.551 280.162L634.12 280.162 626.539 285.349ZM705.84 284.252C705.741 276.471 709.232 269.888 718.409 269.788 727.387 269.589 731.776 275.474 732.075 284.252 732.274 290.536 727.885 297.419 718.509 297.419 710.529 297.419 705.94 290.935 705.84 284.252Z"/><path d="M630.429 196.571 619.855 207.045 620.354 208.242 623.646 216.421 623.945 217.319 624.843 217.618 633.122 220.91 634.319 221.409 644.893 210.935C645.092 211.434 645.192 211.933 645.192 212.431 645.192 219.314 640.903 225.399 634.419 227.693L633.022 228.092 633.122 275.075C633.122 278.367 630.429 281.16 627.137 281.16 627.137 281.16 627.037 281.16 627.037 281.16 623.746 281.16 621.052 278.466 621.052 275.175 621.052 275.175 621.052 275.075 621.052 275.075L620.853 226.496 619.955 225.898C612.574 220.91 610.579 210.835 615.466 203.454 618.459 198.965 623.546 196.272 628.933 196.272 629.431 196.372 629.93 196.471 630.429 196.571ZM608.783 212.531C608.783 218.915 611.875 224.801 616.963 228.591L617.062 277.868C617.062 283.454 621.751 285.449 627.237 285.449 632.723 285.449 637.212 283.454 637.212 277.868L637.112 230.885C644.494 227.693 649.182 220.511 649.182 212.531 649.182 210.436 648.783 208.242 648.185 206.247L647.187 203.155 633.421 216.721 627.137 214.227 624.643 207.943 638.409 194.377 635.317 193.379C633.322 192.681 631.127 192.382 629.032 192.382 617.96 192.282 608.883 201.16 608.783 212.232 608.783 212.332 608.783 212.431 608.783 212.531Z" fill="#0D4F84"/><path d="M663.845 273.579 656.364 273.579 651.975 268.99C652.374 268.192 652.574 267.394 652.574 266.496 652.474 263.504 650.18 261.209 647.187 261.11 644.195 261.11 641.801 263.504 641.801 266.496 641.801 269.489 644.195 271.883 647.187 271.883 648.085 271.883 648.883 271.683 649.581 271.284L654.668 276.372C654.968 276.671 655.367 276.87 655.766 276.87L663.945 276.87C664.843 276.87 665.541 276.172 665.541 275.274 665.541 274.377 664.843 273.678 663.945 273.678 663.945 273.678 663.945 273.678 663.845 273.579L663.845 273.579 663.845 273.579ZM649.182 266.596C649.182 267.793 648.284 268.691 647.087 268.691 645.89 268.691 644.993 267.793 644.993 266.596 644.993 265.399 645.89 264.501 647.087 264.501 648.284 264.501 649.182 265.399 649.182 266.596ZM661.052 241.658C661.052 244.651 663.446 247.045 666.439 247.045 668.833 247.045 670.928 245.549 671.626 243.254L688.185 243.254C689.082 243.254 689.781 242.556 689.781 241.658 689.781 240.761 689.082 240.062 688.185 240.062L671.626 240.062C670.728 237.17 667.736 235.574 664.843 236.471 662.549 237.17 661.052 239.264 661.052 241.658ZM664.344 241.658C664.344 240.461 665.242 239.564 666.439 239.564 667.636 239.564 668.534 240.461 668.534 241.658 668.534 242.855 667.636 243.753 666.439 243.753 666.439 243.753 666.439 243.753 666.439 243.753 665.342 243.753 664.344 242.855 664.344 241.758 664.344 241.758 664.344 241.658 664.344 241.658ZM666.339 266.297C666.339 269.289 668.733 271.683 671.726 271.683 674.12 271.683 676.214 270.187 676.913 267.893L693.471 267.893C694.369 267.893 695.067 267.195 695.067 266.297 695.067 265.399 694.369 264.701 693.471 264.701 693.471 264.701 693.471 264.701 693.471 264.701L677.012 264.701C676.314 262.406 674.219 260.81 671.825 260.91 668.833 260.91 666.339 263.304 666.339 266.297ZM669.631 266.297C669.631 265.1 670.529 264.202 671.726 264.202 672.823 264.202 673.82 265.2 673.82 266.297 673.82 267.494 672.923 268.392 671.726 268.392 670.628 268.392 669.631 267.394 669.631 266.297ZM656.464 230.387C656.464 229.489 656.264 228.691 655.865 227.893L660.454 223.304 668.035 223.304C668.933 223.304 669.631 222.606 669.631 221.708 669.631 220.81 668.933 220.112 668.035 220.112L659.955 220.112C659.556 220.112 659.157 220.312 658.858 220.611L653.771 225.698C652.973 225.299 652.175 225.1 651.277 225.1 648.284 225.1 645.89 227.494 645.89 230.486 645.89 233.479 648.284 235.873 651.277 235.873 651.277 235.873 651.277 235.873 651.277 235.873 654.07 235.973 656.464 233.678 656.464 230.885 656.464 230.686 656.464 230.586 656.464 230.387ZM653.372 230.486C653.372 231.683 652.474 232.581 651.277 232.581 650.08 232.581 649.182 231.683 649.182 230.486 649.182 229.289 650.08 228.392 651.277 228.392 651.277 228.392 651.277 228.392 651.277 228.392 652.474 228.392 653.372 229.289 653.372 230.486ZM647.486 240.86C644.494 240.96 642.2 243.254 642.1 246.247 642.1 249.239 644.494 251.633 647.486 251.633 648.384 251.633 649.182 251.434 649.98 251.035L655.067 256.122C655.367 256.421 655.766 256.621 656.165 256.621L664.244 256.621C665.142 256.621 665.84 255.923 665.84 255.025 665.84 254.127 665.142 253.429 664.244 253.429L656.663 253.429 652.075 248.84C652.474 248.042 652.673 247.244 652.673 246.347 652.773 243.354 650.479 240.96 647.486 240.86ZM647.387 248.541C646.19 248.541 645.292 247.643 645.292 246.446 645.292 245.249 646.19 244.352 647.387 244.352 648.584 244.352 649.481 245.249 649.481 246.446 649.481 246.446 649.481 246.446 649.481 246.446 649.581 247.544 648.783 248.441 647.686 248.541 647.586 248.541 647.486 248.541 647.387 248.541Z" fill="#0D4F84"/></g></svg>