<svg width="266" height="265" xmlns="http://www.w3.org/2000/svg" xmlns:xlink="http://www.w3.org/1999/xlink" overflow="hidden"><defs><clipPath id="clip0"><rect x="3542" y="1595" width="266" height="265"/></clipPath><clipPath id="clip1"><rect x="3593" y="1642" width="164" height="162"/></clipPath><clipPath id="clip2"><rect x="3593" y="1642" width="164" height="162"/></clipPath><clipPath id="clip3"><rect x="3593" y="1642" width="164" height="162"/></clipPath></defs><g clip-path="url(#clip0)" transform="translate(-3542 -1595)"><path d="M3552 1726.5C3552 1658.29 3607.29 1603 3675.5 1603 3743.71 1603 3799 1658.29 3799 1726.5 3799 1794.71 3743.71 1850 3675.5 1850 3607.29 1850 3552 1794.71 3552 1726.5Z" stroke="#4E4E4E" stroke-width="13.75" stroke-linecap="butt" stroke-linejoin="miter" stroke-miterlimit="8" stroke-opacity="1" fill="none" fill-rule="evenodd"/><g clip-path="url(#clip1)"><g clip-path="url(#clip2)"><g clip-path="url(#clip3)"><path d="M140.737 35.6062 126.394 21.2625 80.9999 66.6562 35.6062 21.2625 21.2625 35.6062 66.6562 80.9999 21.2625 126.394 35.6062 140.737 80.9999 95.3437 126.394 140.737 140.737 126.394 95.3437 80.9999Z" fill="#4E4E4E" fill-rule="nonzero" fill-opacity="1" transform="matrix(1 0 0 1 3594 1642)"/></g></g></g></g></svg>