<svg xmlns="http://www.w3.org/2000/svg" xmlns:xlink="http://www.w3.org/1999/xlink" id="Layer_1" width="1254" height="1254" x="0" y="0" enable-background="new 0 0 1254 1254" version="1.1" viewBox="0 0 1254 1254" xml:space="preserve"><rect width="1254" height="1254" x="0" y="0" fill="#F7F9FB"/><g><g><g style="fill:#444443" transform="translate(76,76) translate(380,0) scale(0.38,0.38)"><rect width="100" height="100"/></g></g><g><g style="fill:#444443" transform="translate(76,76) translate(418,0) scale(0.38,0.38)"><rect width="100" height="100"/></g></g><g><g style="fill:#444443" transform="translate(76,76) translate(456,0) scale(0.38,0.38)"><rect width="100" height="100"/></g></g><g><g style="fill:#444443" transform="translate(76,76) translate(494,0) scale(0.38,0.38)"><rect width="100" height="100"/></g></g><g><g style="fill:#444443" transform="translate(76,76) translate(532,0) scale(0.38,0.38)"><rect width="100" height="100"/></g></g><g><g style="fill:#444443" transform="translate(76,76) translate(570,0) scale(0.38,0.38)"><rect width="100" height="100"/></g></g><g><g style="fill:#444443" transform="translate(76,76) translate(646,0) scale(0.38,0.38)"><rect width="100" height="100"/></g></g><g><g style="fill:#444443" transform="translate(76,76) translate(684,0) scale(0.38,0.38)"><rect width="100" height="100"/></g></g><g><g style="fill:#444443" transform="translate(76,76) translate(304,38) scale(0.38,0.38)"><rect width="100" height="100"/></g></g><g><g style="fill:#444443" transform="translate(76,76) translate(342,38) scale(0.38,0.38)"><rect width="100" height="100"/></g></g><g><g style="fill:#444443" transform="translate(76,76) translate(380,38) scale(0.38,0.38)"><rect width="100" height="100"/></g></g><g><g style="fill:#444443" transform="translate(76,76) translate(418,38) scale(0.38,0.38)"><rect width="100" height="100"/></g></g><g><g style="fill:#444443" transform="translate(76,76) translate(456,38) scale(0.38,0.38)"><rect width="100" height="100"/></g></g><g><g style="fill:#444443" transform="translate(76,76) translate(570,38) scale(0.38,0.38)"><rect width="100" height="100"/></g></g><g><g style="fill:#444443" transform="translate(76,76) translate(304,76) scale(0.38,0.38)"><rect width="100" height="100"/></g></g><g><g style="fill:#444443" transform="translate(76,76) translate(342,76) scale(0.38,0.38)"><rect width="100" height="100"/></g></g><g><g style="fill:#444443" transform="translate(76,76) translate(380,76) scale(0.38,0.38)"><rect width="100" height="100"/></g></g><g><g style="fill:#444443" transform="translate(76,76) translate(532,76) scale(0.38,0.38)"><rect width="100" height="100"/></g></g><g><g style="fill:#444443" transform="translate(76,76) translate(608,76) scale(0.38,0.38)"><rect width="100" height="100"/></g></g><g><g style="fill:#444443" transform="translate(76,76) translate(760,76) scale(0.38,0.38)"><rect width="100" height="100"/></g></g><g><g style="fill:#444443" transform="translate(76,76) translate(304,114) scale(0.38,0.38)"><rect width="100" height="100"/></g></g><g><g style="fill:#444443" transform="translate(76,76) translate(418,114) scale(0.38,0.38)"><rect width="100" height="100"/></g></g><g><g style="fill:#444443" transform="translate(76,76) translate(532,114) scale(0.38,0.38)"><rect width="100" height="100"/></g></g><g><g style="fill:#444443" transform="translate(76,76) translate(570,114) scale(0.38,0.38)"><rect width="100" height="100"/></g></g><g><g style="fill:#444443" transform="translate(76,76) translate(646,114) scale(0.38,0.38)"><rect width="100" height="100"/></g></g><g><g style="fill:#444443" transform="translate(76,76) translate(760,114) scale(0.38,0.38)"><rect width="100" height="100"/></g></g><g><g style="fill:#444443" transform="translate(76,76) translate(380,152) scale(0.38,0.38)"><rect width="100" height="100"/></g></g><g><g style="fill:#444443" transform="translate(76,76) translate(418,152) scale(0.38,0.38)"><rect width="100" height="100"/></g></g><g><g style="fill:#444443" transform="translate(76,76) translate(456,152) scale(0.38,0.38)"><rect width="100" height="100"/></g></g><g><g style="fill:#444443" transform="translate(76,76) translate(494,152) scale(0.38,0.38)"><rect width="100" height="100"/></g></g><g><g style="fill:#444443" transform="translate(76,76) translate(532,152) scale(0.38,0.38)"><rect width="100" height="100"/></g></g><g><g style="fill:#444443" transform="translate(76,76) translate(570,152) scale(0.38,0.38)"><rect width="100" height="100"/></g></g><g><g style="fill:#444443" transform="translate(76,76) translate(646,152) scale(0.38,0.38)"><rect width="100" height="100"/></g></g><g><g style="fill:#444443" transform="translate(76,76) translate(684,152) scale(0.38,0.38)"><rect width="100" height="100"/></g></g><g><g style="fill:#444443" transform="translate(76,76) translate(722,152) scale(0.38,0.38)"><rect width="100" height="100"/></g></g><g><g style="fill:#444443" transform="translate(76,76) translate(760,152) scale(0.38,0.38)"><rect width="100" height="100"/></g></g><g><g style="fill:#444443" transform="translate(76,76) translate(342,190) scale(0.38,0.38)"><rect width="100" height="100"/></g></g><g><g style="fill:#444443" transform="translate(76,76) translate(418,190) scale(0.38,0.38)"><rect width="100" height="100"/></g></g><g><g style="fill:#444443" transform="translate(76,76) translate(494,190) scale(0.38,0.38)"><rect width="100" height="100"/></g></g><g><g style="fill:#444443" transform="translate(76,76) translate(532,190) scale(0.38,0.38)"><rect width="100" height="100"/></g></g><g><g style="fill:#444443" transform="translate(76,76) translate(608,190) scale(0.38,0.38)"><rect width="100" height="100"/></g></g><g><g style="fill:#444443" transform="translate(76,76) translate(684,190) scale(0.38,0.38)"><rect width="100" height="100"/></g></g><g><g style="fill:#444443" transform="translate(76,76) translate(304,228) scale(0.38,0.38)"><rect width="100" height="100"/></g></g><g><g style="fill:#444443" transform="translate(76,76) translate(380,228) scale(0.38,0.38)"><rect width="100" height="100"/></g></g><g><g style="fill:#444443" transform="translate(76,76) translate(456,228) scale(0.38,0.38)"><rect width="100" height="100"/></g></g><g><g style="fill:#444443" transform="translate(76,76) translate(532,228) scale(0.38,0.38)"><rect width="100" height="100"/></g></g><g><g style="fill:#444443" transform="translate(76,76) translate(608,228) scale(0.38,0.38)"><rect width="100" height="100"/></g></g><g><g style="fill:#444443" transform="translate(76,76) translate(684,228) scale(0.38,0.38)"><rect width="100" height="100"/></g></g><g><g style="fill:#444443" transform="translate(76,76) translate(760,228) scale(0.38,0.38)"><rect width="100" height="100"/></g></g><g><g style="fill:#444443" transform="translate(76,76) translate(304,266) scale(0.38,0.38)"><rect width="100" height="100"/></g></g><g><g style="fill:#444443" transform="translate(76,76) translate(456,266) scale(0.38,0.38)"><rect width="100" height="100"/></g></g><g><g style="fill:#444443" transform="translate(76,76) translate(494,266) scale(0.38,0.38)"><rect width="100" height="100"/></g></g><g><g style="fill:#444443" transform="translate(76,76) translate(722,266) scale(0.38,0.38)"><rect width="100" height="100"/></g></g><g><g style="fill:#444443" transform="translate(76,76) translate(760,266) scale(0.38,0.38)"><rect width="100" height="100"/></g></g><g><g style="fill:#444443" transform="translate(76,76) translate(0,304) scale(0.38,0.38)"><rect width="100" height="100"/></g></g><g><g style="fill:#444443" transform="translate(76,76) translate(228,304) scale(0.38,0.38)"><rect width="100" height="100"/></g></g><g><g style="fill:#444443" transform="translate(76,76) translate(304,304) scale(0.38,0.38)"><rect width="100" height="100"/></g></g><g><g style="fill:#444443" transform="translate(76,76) translate(342,304) scale(0.38,0.38)"><rect width="100" height="100"/></g></g><g><g style="fill:#444443" transform="translate(76,76) translate(456,304) scale(0.38,0.38)"><rect width="100" height="100"/></g></g><g><g style="fill:#444443" transform="translate(76,76) translate(532,304) scale(0.38,0.38)"><rect width="100" height="100"/></g></g><g><g style="fill:#444443" transform="translate(76,76) translate(570,304) scale(0.38,0.38)"><rect width="100" height="100"/></g></g><g><g style="fill:#444443" transform="translate(76,76) translate(646,304) scale(0.38,0.38)"><rect width="100" height="100"/></g></g><g><g style="fill:#444443" transform="translate(76,76) translate(722,304) scale(0.38,0.38)"><rect width="100" height="100"/></g></g><g><g style="fill:#444443" transform="translate(76,76) translate(798,304) scale(0.38,0.38)"><rect width="100" height="100"/></g></g><g><g style="fill:#444443" transform="translate(76,76) translate(836,304) scale(0.38,0.38)"><rect width="100" height="100"/></g></g><g><g style="fill:#444443" transform="translate(76,76) translate(950,304) scale(0.38,0.38)"><rect width="100" height="100"/></g></g><g><g style="fill:#444443" transform="translate(76,76) translate(988,304) scale(0.38,0.38)"><rect width="100" height="100"/></g></g><g><g style="fill:#444443" transform="translate(76,76) translate(1026,304) scale(0.38,0.38)"><rect width="100" height="100"/></g></g><g><g style="fill:#444443" transform="translate(76,76) translate(114,342) scale(0.38,0.38)"><rect width="100" height="100"/></g></g><g><g style="fill:#444443" transform="translate(76,76) translate(152,342) scale(0.38,0.38)"><rect width="100" height="100"/></g></g><g><g style="fill:#444443" transform="translate(76,76) translate(266,342) scale(0.38,0.38)"><rect width="100" height="100"/></g></g><g><g style="fill:#444443" transform="translate(76,76) translate(304,342) scale(0.38,0.38)"><rect width="100" height="100"/></g></g><g><g style="fill:#444443" transform="translate(76,76) translate(342,342) scale(0.38,0.38)"><rect width="100" height="100"/></g></g><g><g style="fill:#444443" transform="translate(76,76) translate(418,342) scale(0.38,0.38)"><rect width="100" height="100"/></g></g><g><g style="fill:#444443" transform="translate(76,76) translate(456,342) scale(0.38,0.38)"><rect width="100" height="100"/></g></g><g><g style="fill:#444443" transform="translate(76,76) translate(532,342) scale(0.38,0.38)"><rect width="100" height="100"/></g></g><g><g style="fill:#444443" transform="translate(76,76) translate(646,342) scale(0.38,0.38)"><rect width="100" height="100"/></g></g><g><g style="fill:#444443" transform="translate(76,76) translate(684,342) scale(0.38,0.38)"><rect width="100" height="100"/></g></g><g><g style="fill:#444443" transform="translate(76,76) translate(722,342) scale(0.38,0.38)"><rect width="100" height="100"/></g></g><g><g style="fill:#444443" transform="translate(76,76) translate(798,342) scale(0.38,0.38)"><rect width="100" height="100"/></g></g><g><g style="fill:#444443" transform="translate(76,76) translate(874,342) scale(0.38,0.38)"><rect width="100" height="100"/></g></g><g><g style="fill:#444443" transform="translate(76,76) translate(912,342) scale(0.38,0.38)"><rect width="100" height="100"/></g></g><g><g style="fill:#444443" transform="translate(76,76) translate(988,342) scale(0.38,0.38)"><rect width="100" height="100"/></g></g><g><g style="fill:#444443" transform="translate(76,76) translate(1026,342) scale(0.38,0.38)"><rect width="100" height="100"/></g></g><g><g style="fill:#444443" transform="translate(76,76) translate(0,380) scale(0.38,0.38)"><rect width="100" height="100"/></g></g><g><g style="fill:#444443" transform="translate(76,76) translate(38,380) scale(0.38,0.38)"><rect width="100" height="100"/></g></g><g><g style="fill:#444443" transform="translate(76,76) translate(76,380) scale(0.38,0.38)"><rect width="100" height="100"/></g></g><g><g style="fill:#444443" transform="translate(76,76) translate(190,380) scale(0.38,0.38)"><rect width="100" height="100"/></g></g><g><g style="fill:#444443" transform="translate(76,76) translate(228,380) scale(0.38,0.38)"><rect width="100" height="100"/></g></g><g><g style="fill:#444443" transform="translate(76,76) translate(304,380) scale(0.38,0.38)"><rect width="100" height="100"/></g></g><g><g style="fill:#444443" transform="translate(76,76) translate(380,380) scale(0.38,0.38)"><rect width="100" height="100"/></g></g><g><g style="fill:#444443" transform="translate(76,76) translate(646,380) scale(0.38,0.38)"><rect width="100" height="100"/></g></g><g><g style="fill:#444443" transform="translate(76,76) translate(760,380) scale(0.38,0.38)"><rect width="100" height="100"/></g></g><g><g style="fill:#444443" transform="translate(76,76) translate(0,418) scale(0.38,0.38)"><rect width="100" height="100"/></g></g><g><g style="fill:#444443" transform="translate(76,76) translate(76,418) scale(0.38,0.38)"><rect width="100" height="100"/></g></g><g><g style="fill:#444443" transform="translate(76,76) translate(266,418) scale(0.38,0.38)"><rect width="100" height="100"/></g></g><g><g style="fill:#444443" transform="translate(76,76) translate(304,418) scale(0.38,0.38)"><rect width="100" height="100"/></g></g><g><g style="fill:#444443" transform="translate(76,76) translate(342,418) scale(0.38,0.38)"><rect width="100" height="100"/></g></g><g><g style="fill:#444443" transform="translate(76,76) translate(532,418) scale(0.38,0.38)"><rect width="100" height="100"/></g></g><g><g style="fill:#444443" transform="translate(76,76) translate(570,418) scale(0.38,0.38)"><rect width="100" height="100"/></g></g><g><g style="fill:#444443" transform="translate(76,76) translate(608,418) scale(0.38,0.38)"><rect width="100" height="100"/></g></g><g><g style="fill:#444443" transform="translate(76,76) translate(684,418) scale(0.38,0.38)"><rect width="100" height="100"/></g></g><g><g style="fill:#444443" transform="translate(76,76) translate(760,418) scale(0.38,0.38)"><rect width="100" height="100"/></g></g><g><g style="fill:#444443" transform="translate(76,76) translate(798,418) scale(0.38,0.38)"><rect width="100" height="100"/></g></g><g><g style="fill:#444443" transform="translate(76,76) translate(836,418) scale(0.38,0.38)"><rect width="100" height="100"/></g></g><g><g style="fill:#444443" transform="translate(76,76) translate(874,418) scale(0.38,0.38)"><rect width="100" height="100"/></g></g><g><g style="fill:#444443" transform="translate(76,76) translate(950,418) scale(0.38,0.38)"><rect width="100" height="100"/></g></g><g><g style="fill:#444443" transform="translate(76,76) translate(0,456) scale(0.38,0.38)"><rect width="100" height="100"/></g></g><g><g style="fill:#444443" transform="translate(76,76) translate(38,456) scale(0.38,0.38)"><rect width="100" height="100"/></g></g><g><g style="fill:#444443" transform="translate(76,76) translate(114,456) scale(0.38,0.38)"><rect width="100" height="100"/></g></g><g><g style="fill:#444443" transform="translate(76,76) translate(228,456) scale(0.38,0.38)"><rect width="100" height="100"/></g></g><g><g style="fill:#444443" transform="translate(76,76) translate(304,456) scale(0.38,0.38)"><rect width="100" height="100"/></g></g><g><g style="fill:#444443" transform="translate(76,76) translate(342,456) scale(0.38,0.38)"><rect width="100" height="100"/></g></g><g><g style="fill:#444443" transform="translate(76,76) translate(456,456) scale(0.38,0.38)"><rect width="100" height="100"/></g></g><g><g style="fill:#444443" transform="translate(76,76) translate(494,456) scale(0.38,0.38)"><rect width="100" height="100"/></g></g><g><g style="fill:#444443" transform="translate(76,76) translate(532,456) scale(0.38,0.38)"><rect width="100" height="100"/></g></g><g><g style="fill:#444443" transform="translate(76,76) translate(608,456) scale(0.38,0.38)"><rect width="100" height="100"/></g></g><g><g style="fill:#444443" transform="translate(76,76) translate(722,456) scale(0.38,0.38)"><rect width="100" height="100"/></g></g><g><g style="fill:#444443" transform="translate(76,76) translate(760,456) scale(0.38,0.38)"><rect width="100" height="100"/></g></g><g><g style="fill:#444443" transform="translate(76,76) translate(836,456) scale(0.38,0.38)"><rect width="100" height="100"/></g></g><g><g style="fill:#444443" transform="translate(76,76) translate(874,456) scale(0.38,0.38)"><rect width="100" height="100"/></g></g><g><g style="fill:#444443" transform="translate(76,76) translate(1064,456) scale(0.38,0.38)"><rect width="100" height="100"/></g></g><g><g style="fill:#444443" transform="translate(76,76) translate(38,494) scale(0.38,0.38)"><rect width="100" height="100"/></g></g><g><g style="fill:#444443" transform="translate(76,76) translate(190,494) scale(0.38,0.38)"><rect width="100" height="100"/></g></g><g><g style="fill:#444443" transform="translate(76,76) translate(266,494) scale(0.38,0.38)"><rect width="100" height="100"/></g></g><g><g style="fill:#444443" transform="translate(76,76) translate(304,494) scale(0.38,0.38)"><rect width="100" height="100"/></g></g><g><g style="fill:#444443" transform="translate(76,76) translate(418,494) scale(0.38,0.38)"><rect width="100" height="100"/></g></g><g><g style="fill:#444443" transform="translate(76,76) translate(494,494) scale(0.38,0.38)"><rect width="100" height="100"/></g></g><g><g style="fill:#444443" transform="translate(76,76) translate(532,494) scale(0.38,0.38)"><rect width="100" height="100"/></g></g><g><g style="fill:#444443" transform="translate(76,76) translate(684,494) scale(0.38,0.38)"><rect width="100" height="100"/></g></g><g><g style="fill:#444443" transform="translate(76,76) translate(722,494) scale(0.38,0.38)"><rect width="100" height="100"/></g></g><g><g style="fill:#444443" transform="translate(76,76) translate(760,494) scale(0.38,0.38)"><rect width="100" height="100"/></g></g><g><g style="fill:#444443" transform="translate(76,76) translate(836,494) scale(0.38,0.38)"><rect width="100" height="100"/></g></g><g><g style="fill:#444443" transform="translate(76,76) translate(912,494) scale(0.38,0.38)"><rect width="100" height="100"/></g></g><g><g style="fill:#444443" transform="translate(76,76) translate(1026,494) scale(0.38,0.38)"><rect width="100" height="100"/></g></g><g><g style="fill:#444443" transform="translate(76,76) translate(1064,494) scale(0.38,0.38)"><rect width="100" height="100"/></g></g><g><g style="fill:#444443" transform="translate(76,76) translate(38,532) scale(0.38,0.38)"><rect width="100" height="100"/></g></g><g><g style="fill:#444443" transform="translate(76,76) translate(190,532) scale(0.38,0.38)"><rect width="100" height="100"/></g></g><g><g style="fill:#444443" transform="translate(76,76) translate(228,532) scale(0.38,0.38)"><rect width="100" height="100"/></g></g><g><g style="fill:#444443" transform="translate(76,76) translate(304,532) scale(0.38,0.38)"><rect width="100" height="100"/></g></g><g><g style="fill:#444443" transform="translate(76,76) translate(380,532) scale(0.38,0.38)"><rect width="100" height="100"/></g></g><g><g style="fill:#444443" transform="translate(76,76) translate(418,532) scale(0.38,0.38)"><rect width="100" height="100"/></g></g><g><g style="fill:#444443" transform="translate(76,76) translate(456,532) scale(0.38,0.38)"><rect width="100" height="100"/></g></g><g><g style="fill:#444443" transform="translate(76,76) translate(494,532) scale(0.38,0.38)"><rect width="100" height="100"/></g></g><g><g style="fill:#444443" transform="translate(76,76) translate(532,532) scale(0.38,0.38)"><rect width="100" height="100"/></g></g><g><g style="fill:#444443" transform="translate(76,76) translate(570,532) scale(0.38,0.38)"><rect width="100" height="100"/></g></g><g><g style="fill:#444443" transform="translate(76,76) translate(608,532) scale(0.38,0.38)"><rect width="100" height="100"/></g></g><g><g style="fill:#444443" transform="translate(76,76) translate(798,532) scale(0.38,0.38)"><rect width="100" height="100"/></g></g><g><g style="fill:#444443" transform="translate(76,76) translate(836,532) scale(0.38,0.38)"><rect width="100" height="100"/></g></g><g><g style="fill:#444443" transform="translate(76,76) translate(874,532) scale(0.38,0.38)"><rect width="100" height="100"/></g></g><g><g style="fill:#444443" transform="translate(76,76) translate(950,532) scale(0.38,0.38)"><rect width="100" height="100"/></g></g><g><g style="fill:#444443" transform="translate(76,76) translate(988,532) scale(0.38,0.38)"><rect width="100" height="100"/></g></g><g><g style="fill:#444443" transform="translate(76,76) translate(38,570) scale(0.38,0.38)"><rect width="100" height="100"/></g></g><g><g style="fill:#444443" transform="translate(76,76) translate(114,570) scale(0.38,0.38)"><rect width="100" height="100"/></g></g><g><g style="fill:#444443" transform="translate(76,76) translate(152,570) scale(0.38,0.38)"><rect width="100" height="100"/></g></g><g><g style="fill:#444443" transform="translate(76,76) translate(190,570) scale(0.38,0.38)"><rect width="100" height="100"/></g></g><g><g style="fill:#444443" transform="translate(76,76) translate(342,570) scale(0.38,0.38)"><rect width="100" height="100"/></g></g><g><g style="fill:#444443" transform="translate(76,76) translate(418,570) scale(0.38,0.38)"><rect width="100" height="100"/></g></g><g><g style="fill:#444443" transform="translate(76,76) translate(456,570) scale(0.38,0.38)"><rect width="100" height="100"/></g></g><g><g style="fill:#444443" transform="translate(76,76) translate(494,570) scale(0.38,0.38)"><rect width="100" height="100"/></g></g><g><g style="fill:#444443" transform="translate(76,76) translate(532,570) scale(0.38,0.38)"><rect width="100" height="100"/></g></g><g><g style="fill:#444443" transform="translate(76,76) translate(570,570) scale(0.38,0.38)"><rect width="100" height="100"/></g></g><g><g style="fill:#444443" transform="translate(76,76) translate(722,570) scale(0.38,0.38)"><rect width="100" height="100"/></g></g><g><g style="fill:#444443" transform="translate(76,76) translate(798,570) scale(0.38,0.38)"><rect width="100" height="100"/></g></g><g><g style="fill:#444443" transform="translate(76,76) translate(836,570) scale(0.38,0.38)"><rect width="100" height="100"/></g></g><g><g style="fill:#444443" transform="translate(76,76) translate(874,570) scale(0.38,0.38)"><rect width="100" height="100"/></g></g><g><g style="fill:#444443" transform="translate(76,76) translate(912,570) scale(0.38,0.38)"><rect width="100" height="100"/></g></g><g><g style="fill:#444443" transform="translate(76,76) translate(988,570) scale(0.38,0.38)"><rect width="100" height="100"/></g></g><g><g style="fill:#444443" transform="translate(76,76) translate(1064,570) scale(0.38,0.38)"><rect width="100" height="100"/></g></g><g><g style="fill:#444443" transform="translate(76,76) translate(76,608) scale(0.38,0.38)"><rect width="100" height="100"/></g></g><g><g style="fill:#444443" transform="translate(76,76) translate(228,608) scale(0.38,0.38)"><rect width="100" height="100"/></g></g><g><g style="fill:#444443" transform="translate(76,76) translate(266,608) scale(0.38,0.38)"><rect width="100" height="100"/></g></g><g><g style="fill:#444443" transform="translate(76,76) translate(532,608) scale(0.38,0.38)"><rect width="100" height="100"/></g></g><g><g style="fill:#444443" transform="translate(76,76) translate(646,608) scale(0.38,0.38)"><rect width="100" height="100"/></g></g><g><g style="fill:#444443" transform="translate(76,76) translate(874,608) scale(0.38,0.38)"><rect width="100" height="100"/></g></g><g><g style="fill:#444443" transform="translate(76,76) translate(950,608) scale(0.38,0.38)"><rect width="100" height="100"/></g></g><g><g style="fill:#444443" transform="translate(76,76) translate(988,608) scale(0.38,0.38)"><rect width="100" height="100"/></g></g><g><g style="fill:#444443" transform="translate(76,76) translate(0,646) scale(0.38,0.38)"><rect width="100" height="100"/></g></g><g><g style="fill:#444443" transform="translate(76,76) translate(38,646) scale(0.38,0.38)"><rect width="100" height="100"/></g></g><g><g style="fill:#444443" transform="translate(76,76) translate(152,646) scale(0.38,0.38)"><rect width="100" height="100"/></g></g><g><g style="fill:#444443" transform="translate(76,76) translate(266,646) scale(0.38,0.38)"><rect width="100" height="100"/></g></g><g><g style="fill:#444443" transform="translate(76,76) translate(304,646) scale(0.38,0.38)"><rect width="100" height="100"/></g></g><g><g style="fill:#444443" transform="translate(76,76) translate(342,646) scale(0.38,0.38)"><rect width="100" height="100"/></g></g><g><g style="fill:#444443" transform="translate(76,76) translate(418,646) scale(0.38,0.38)"><rect width="100" height="100"/></g></g><g><g style="fill:#444443" transform="translate(76,76) translate(456,646) scale(0.38,0.38)"><rect width="100" height="100"/></g></g><g><g style="fill:#444443" transform="translate(76,76) translate(570,646) scale(0.38,0.38)"><rect width="100" height="100"/></g></g><g><g style="fill:#444443" transform="translate(76,76) translate(722,646) scale(0.38,0.38)"><rect width="100" height="100"/></g></g><g><g style="fill:#444443" transform="translate(76,76) translate(760,646) scale(0.38,0.38)"><rect width="100" height="100"/></g></g><g><g style="fill:#444443" transform="translate(76,76) translate(798,646) scale(0.38,0.38)"><rect width="100" height="100"/></g></g><g><g style="fill:#444443" transform="translate(76,76) translate(836,646) scale(0.38,0.38)"><rect width="100" height="100"/></g></g><g><g style="fill:#444443" transform="translate(76,76) translate(874,646) scale(0.38,0.38)"><rect width="100" height="100"/></g></g><g><g style="fill:#444443" transform="translate(76,76) translate(912,646) scale(0.38,0.38)"><rect width="100" height="100"/></g></g><g><g style="fill:#444443" transform="translate(76,76) translate(988,646) scale(0.38,0.38)"><rect width="100" height="100"/></g></g><g><g style="fill:#444443" transform="translate(76,76) translate(1026,646) scale(0.38,0.38)"><rect width="100" height="100"/></g></g><g><g style="fill:#444443" transform="translate(76,76) translate(1064,646) scale(0.38,0.38)"><rect width="100" height="100"/></g></g><g><g style="fill:#444443" transform="translate(76,76) translate(0,684) scale(0.38,0.38)"><rect width="100" height="100"/></g></g><g><g style="fill:#444443" transform="translate(76,76) translate(38,684) scale(0.38,0.38)"><rect width="100" height="100"/></g></g><g><g style="fill:#444443" transform="translate(76,76) translate(152,684) scale(0.38,0.38)"><rect width="100" height="100"/></g></g><g><g style="fill:#444443" transform="translate(76,76) translate(228,684) scale(0.38,0.38)"><rect width="100" height="100"/></g></g><g><g style="fill:#444443" transform="translate(76,76) translate(456,684) scale(0.38,0.38)"><rect width="100" height="100"/></g></g><g><g style="fill:#444443" transform="translate(76,76) translate(494,684) scale(0.38,0.38)"><rect width="100" height="100"/></g></g><g><g style="fill:#444443" transform="translate(76,76) translate(532,684) scale(0.38,0.38)"><rect width="100" height="100"/></g></g><g><g style="fill:#444443" transform="translate(76,76) translate(570,684) scale(0.38,0.38)"><rect width="100" height="100"/></g></g><g><g style="fill:#444443" transform="translate(76,76) translate(646,684) scale(0.38,0.38)"><rect width="100" height="100"/></g></g><g><g style="fill:#444443" transform="translate(76,76) translate(722,684) scale(0.38,0.38)"><rect width="100" height="100"/></g></g><g><g style="fill:#444443" transform="translate(76,76) translate(798,684) scale(0.38,0.38)"><rect width="100" height="100"/></g></g><g><g style="fill:#444443" transform="translate(76,76) translate(836,684) scale(0.38,0.38)"><rect width="100" height="100"/></g></g><g><g style="fill:#444443" transform="translate(76,76) translate(950,684) scale(0.38,0.38)"><rect width="100" height="100"/></g></g><g><g style="fill:#444443" transform="translate(76,76) translate(1064,684) scale(0.38,0.38)"><rect width="100" height="100"/></g></g><g><g style="fill:#444443" transform="translate(76,76) translate(0,722) scale(0.38,0.38)"><rect width="100" height="100"/></g></g><g><g style="fill:#444443" transform="translate(76,76) translate(152,722) scale(0.38,0.38)"><rect width="100" height="100"/></g></g><g><g style="fill:#444443" transform="translate(76,76) translate(190,722) scale(0.38,0.38)"><rect width="100" height="100"/></g></g><g><g style="fill:#444443" transform="translate(76,76) translate(304,722) scale(0.38,0.38)"><rect width="100" height="100"/></g></g><g><g style="fill:#444443" transform="translate(76,76) translate(342,722) scale(0.38,0.38)"><rect width="100" height="100"/></g></g><g><g style="fill:#444443" transform="translate(76,76) translate(380,722) scale(0.38,0.38)"><rect width="100" height="100"/></g></g><g><g style="fill:#444443" transform="translate(76,76) translate(532,722) scale(0.38,0.38)"><rect width="100" height="100"/></g></g><g><g style="fill:#444443" transform="translate(76,76) translate(608,722) scale(0.38,0.38)"><rect width="100" height="100"/></g></g><g><g style="fill:#444443" transform="translate(76,76) translate(684,722) scale(0.38,0.38)"><rect width="100" height="100"/></g></g><g><g style="fill:#444443" transform="translate(76,76) translate(760,722) scale(0.38,0.38)"><rect width="100" height="100"/></g></g><g><g style="fill:#444443" transform="translate(76,76) translate(836,722) scale(0.38,0.38)"><rect width="100" height="100"/></g></g><g><g style="fill:#444443" transform="translate(76,76) translate(874,722) scale(0.38,0.38)"><rect width="100" height="100"/></g></g><g><g style="fill:#444443" transform="translate(76,76) translate(912,722) scale(0.38,0.38)"><rect width="100" height="100"/></g></g><g><g style="fill:#444443" transform="translate(76,76) translate(0,760) scale(0.38,0.38)"><rect width="100" height="100"/></g></g><g><g style="fill:#444443" transform="translate(76,76) translate(114,760) scale(0.38,0.38)"><rect width="100" height="100"/></g></g><g><g style="fill:#444443" transform="translate(76,76) translate(152,760) scale(0.38,0.38)"><rect width="100" height="100"/></g></g><g><g style="fill:#444443" transform="translate(76,76) translate(228,760) scale(0.38,0.38)"><rect width="100" height="100"/></g></g><g><g style="fill:#444443" transform="translate(76,76) translate(266,760) scale(0.38,0.38)"><rect width="100" height="100"/></g></g><g><g style="fill:#444443" transform="translate(76,76) translate(304,760) scale(0.38,0.38)"><rect width="100" height="100"/></g></g><g><g style="fill:#444443" transform="translate(76,76) translate(342,760) scale(0.38,0.38)"><rect width="100" height="100"/></g></g><g><g style="fill:#444443" transform="translate(76,76) translate(418,760) scale(0.38,0.38)"><rect width="100" height="100"/></g></g><g><g style="fill:#444443" transform="translate(76,76) translate(456,760) scale(0.38,0.38)"><rect width="100" height="100"/></g></g><g><g style="fill:#444443" transform="translate(76,76) translate(570,760) scale(0.38,0.38)"><rect width="100" height="100"/></g></g><g><g style="fill:#444443" transform="translate(76,76) translate(646,760) scale(0.38,0.38)"><rect width="100" height="100"/></g></g><g><g style="fill:#444443" transform="translate(76,76) translate(760,760) scale(0.38,0.38)"><rect width="100" height="100"/></g></g><g><g style="fill:#444443" transform="translate(76,76) translate(798,760) scale(0.38,0.38)"><rect width="100" height="100"/></g></g><g><g style="fill:#444443" transform="translate(76,76) translate(836,760) scale(0.38,0.38)"><rect width="100" height="100"/></g></g><g><g style="fill:#444443" transform="translate(76,76) translate(874,760) scale(0.38,0.38)"><rect width="100" height="100"/></g></g><g><g style="fill:#444443" transform="translate(76,76) translate(912,760) scale(0.38,0.38)"><rect width="100" height="100"/></g></g><g><g style="fill:#444443" transform="translate(76,76) translate(988,760) scale(0.38,0.38)"><rect width="100" height="100"/></g></g><g><g style="fill:#444443" transform="translate(76,76) translate(1026,760) scale(0.38,0.38)"><rect width="100" height="100"/></g></g><g><g style="fill:#444443" transform="translate(76,76) translate(1064,760) scale(0.38,0.38)"><rect width="100" height="100"/></g></g><g><g style="fill:#444443" transform="translate(76,76) translate(304,798) scale(0.38,0.38)"><rect width="100" height="100"/></g></g><g><g style="fill:#444443" transform="translate(76,76) translate(342,798) scale(0.38,0.38)"><rect width="100" height="100"/></g></g><g><g style="fill:#444443" transform="translate(76,76) translate(456,798) scale(0.38,0.38)"><rect width="100" height="100"/></g></g><g><g style="fill:#444443" transform="translate(76,76) translate(494,798) scale(0.38,0.38)"><rect width="100" height="100"/></g></g><g><g style="fill:#444443" transform="translate(76,76) translate(570,798) scale(0.38,0.38)"><rect width="100" height="100"/></g></g><g><g style="fill:#444443" transform="translate(76,76) translate(646,798) scale(0.38,0.38)"><rect width="100" height="100"/></g></g><g><g style="fill:#444443" transform="translate(76,76) translate(684,798) scale(0.38,0.38)"><rect width="100" height="100"/></g></g><g><g style="fill:#444443" transform="translate(76,76) translate(722,798) scale(0.38,0.38)"><rect width="100" height="100"/></g></g><g><g style="fill:#444443" transform="translate(76,76) translate(760,798) scale(0.38,0.38)"><rect width="100" height="100"/></g></g><g><g style="fill:#444443" transform="translate(76,76) translate(912,798) scale(0.38,0.38)"><rect width="100" height="100"/></g></g><g><g style="fill:#444443" transform="translate(76,76) translate(950,798) scale(0.38,0.38)"><rect width="100" height="100"/></g></g><g><g style="fill:#444443" transform="translate(76,76) translate(456,836) scale(0.38,0.38)"><rect width="100" height="100"/></g></g><g><g style="fill:#444443" transform="translate(76,76) translate(494,836) scale(0.38,0.38)"><rect width="100" height="100"/></g></g><g><g style="fill:#444443" transform="translate(76,76) translate(532,836) scale(0.38,0.38)"><rect width="100" height="100"/></g></g><g><g style="fill:#444443" transform="translate(76,76) translate(570,836) scale(0.38,0.38)"><rect width="100" height="100"/></g></g><g><g style="fill:#444443" transform="translate(76,76) translate(684,836) scale(0.38,0.38)"><rect width="100" height="100"/></g></g><g><g style="fill:#444443" transform="translate(76,76) translate(722,836) scale(0.38,0.38)"><rect width="100" height="100"/></g></g><g><g style="fill:#444443" transform="translate(76,76) translate(760,836) scale(0.38,0.38)"><rect width="100" height="100"/></g></g><g><g style="fill:#444443" transform="translate(76,76) translate(836,836) scale(0.38,0.38)"><rect width="100" height="100"/></g></g><g><g style="fill:#444443" transform="translate(76,76) translate(912,836) scale(0.38,0.38)"><rect width="100" height="100"/></g></g><g><g style="fill:#444443" transform="translate(76,76) translate(950,836) scale(0.38,0.38)"><rect width="100" height="100"/></g></g><g><g style="fill:#444443" transform="translate(76,76) translate(988,836) scale(0.38,0.38)"><rect width="100" height="100"/></g></g><g><g style="fill:#444443" transform="translate(76,76) translate(342,874) scale(0.38,0.38)"><rect width="100" height="100"/></g></g><g><g style="fill:#444443" transform="translate(76,76) translate(380,874) scale(0.38,0.38)"><rect width="100" height="100"/></g></g><g><g style="fill:#444443" transform="translate(76,76) translate(418,874) scale(0.38,0.38)"><rect width="100" height="100"/></g></g><g><g style="fill:#444443" transform="translate(76,76) translate(456,874) scale(0.38,0.38)"><rect width="100" height="100"/></g></g><g><g style="fill:#444443" transform="translate(76,76) translate(494,874) scale(0.38,0.38)"><rect width="100" height="100"/></g></g><g><g style="fill:#444443" transform="translate(76,76) translate(608,874) scale(0.38,0.38)"><rect width="100" height="100"/></g></g><g><g style="fill:#444443" transform="translate(76,76) translate(684,874) scale(0.38,0.38)"><rect width="100" height="100"/></g></g><g><g style="fill:#444443" transform="translate(76,76) translate(722,874) scale(0.38,0.38)"><rect width="100" height="100"/></g></g><g><g style="fill:#444443" transform="translate(76,76) translate(760,874) scale(0.38,0.38)"><rect width="100" height="100"/></g></g><g><g style="fill:#444443" transform="translate(76,76) translate(912,874) scale(0.38,0.38)"><rect width="100" height="100"/></g></g><g><g style="fill:#444443" transform="translate(76,76) translate(1026,874) scale(0.38,0.38)"><rect width="100" height="100"/></g></g><g><g style="fill:#444443" transform="translate(76,76) translate(342,912) scale(0.38,0.38)"><rect width="100" height="100"/></g></g><g><g style="fill:#444443" transform="translate(76,76) translate(380,912) scale(0.38,0.38)"><rect width="100" height="100"/></g></g><g><g style="fill:#444443" transform="translate(76,76) translate(418,912) scale(0.38,0.38)"><rect width="100" height="100"/></g></g><g><g style="fill:#444443" transform="translate(76,76) translate(456,912) scale(0.38,0.38)"><rect width="100" height="100"/></g></g><g><g style="fill:#444443" transform="translate(76,76) translate(494,912) scale(0.38,0.38)"><rect width="100" height="100"/></g></g><g><g style="fill:#444443" transform="translate(76,76) translate(570,912) scale(0.38,0.38)"><rect width="100" height="100"/></g></g><g><g style="fill:#444443" transform="translate(76,76) translate(608,912) scale(0.38,0.38)"><rect width="100" height="100"/></g></g><g><g style="fill:#444443" transform="translate(76,76) translate(722,912) scale(0.38,0.38)"><rect width="100" height="100"/></g></g><g><g style="fill:#444443" transform="translate(76,76) translate(760,912) scale(0.38,0.38)"><rect width="100" height="100"/></g></g><g><g style="fill:#444443" transform="translate(76,76) translate(798,912) scale(0.38,0.38)"><rect width="100" height="100"/></g></g><g><g style="fill:#444443" transform="translate(76,76) translate(836,912) scale(0.38,0.38)"><rect width="100" height="100"/></g></g><g><g style="fill:#444443" transform="translate(76,76) translate(874,912) scale(0.38,0.38)"><rect width="100" height="100"/></g></g><g><g style="fill:#444443" transform="translate(76,76) translate(912,912) scale(0.38,0.38)"><rect width="100" height="100"/></g></g><g><g style="fill:#444443" transform="translate(76,76) translate(950,912) scale(0.38,0.38)"><rect width="100" height="100"/></g></g><g><g style="fill:#444443" transform="translate(76,76) translate(1026,912) scale(0.38,0.38)"><rect width="100" height="100"/></g></g><g><g style="fill:#444443" transform="translate(76,76) translate(1064,912) scale(0.38,0.38)"><rect width="100" height="100"/></g></g><g><g style="fill:#444443" transform="translate(76,76) translate(494,950) scale(0.38,0.38)"><rect width="100" height="100"/></g></g><g><g style="fill:#444443" transform="translate(76,76) translate(570,950) scale(0.38,0.38)"><rect width="100" height="100"/></g></g><g><g style="fill:#444443" transform="translate(76,76) translate(608,950) scale(0.38,0.38)"><rect width="100" height="100"/></g></g><g><g style="fill:#444443" transform="translate(76,76) translate(684,950) scale(0.38,0.38)"><rect width="100" height="100"/></g></g><g><g style="fill:#444443" transform="translate(76,76) translate(722,950) scale(0.38,0.38)"><rect width="100" height="100"/></g></g><g><g style="fill:#444443" transform="translate(76,76) translate(798,950) scale(0.38,0.38)"><rect width="100" height="100"/></g></g><g><g style="fill:#444443" transform="translate(76,76) translate(874,950) scale(0.38,0.38)"><rect width="100" height="100"/></g></g><g><g style="fill:#444443" transform="translate(76,76) translate(950,950) scale(0.38,0.38)"><rect width="100" height="100"/></g></g><g><g style="fill:#444443" transform="translate(76,76) translate(988,950) scale(0.38,0.38)"><rect width="100" height="100"/></g></g><g><g style="fill:#444443" transform="translate(76,76) translate(1064,950) scale(0.38,0.38)"><rect width="100" height="100"/></g></g><g><g style="fill:#444443" transform="translate(76,76) translate(342,988) scale(0.38,0.38)"><rect width="100" height="100"/></g></g><g><g style="fill:#444443" transform="translate(76,76) translate(418,988) scale(0.38,0.38)"><rect width="100" height="100"/></g></g><g><g style="fill:#444443" transform="translate(76,76) translate(456,988) scale(0.38,0.38)"><rect width="100" height="100"/></g></g><g><g style="fill:#444443" transform="translate(76,76) translate(570,988) scale(0.38,0.38)"><rect width="100" height="100"/></g></g><g><g style="fill:#444443" transform="translate(76,76) translate(646,988) scale(0.38,0.38)"><rect width="100" height="100"/></g></g><g><g style="fill:#444443" transform="translate(76,76) translate(798,988) scale(0.38,0.38)"><rect width="100" height="100"/></g></g><g><g style="fill:#444443" transform="translate(76,76) translate(836,988) scale(0.38,0.38)"><rect width="100" height="100"/></g></g><g><g style="fill:#444443" transform="translate(76,76) translate(874,988) scale(0.38,0.38)"><rect width="100" height="100"/></g></g><g><g style="fill:#444443" transform="translate(76,76) translate(912,988) scale(0.38,0.38)"><rect width="100" height="100"/></g></g><g><g style="fill:#444443" transform="translate(76,76) translate(950,988) scale(0.38,0.38)"><rect width="100" height="100"/></g></g><g><g style="fill:#444443" transform="translate(76,76) translate(988,988) scale(0.38,0.38)"><rect width="100" height="100"/></g></g><g><g style="fill:#444443" transform="translate(76,76) translate(1026,988) scale(0.38,0.38)"><rect width="100" height="100"/></g></g><g><g style="fill:#444443" transform="translate(76,76) translate(494,1026) scale(0.38,0.38)"><rect width="100" height="100"/></g></g><g><g style="fill:#444443" transform="translate(76,76) translate(570,1026) scale(0.38,0.38)"><rect width="100" height="100"/></g></g><g><g style="fill:#444443" transform="translate(76,76) translate(874,1026) scale(0.38,0.38)"><rect width="100" height="100"/></g></g><g><g style="fill:#444443" transform="translate(76,76) translate(950,1026) scale(0.38,0.38)"><rect width="100" height="100"/></g></g><g><g style="fill:#444443" transform="translate(76,76) translate(988,1026) scale(0.38,0.38)"><rect width="100" height="100"/></g></g><g><g style="fill:#444443" transform="translate(76,76) translate(1064,1026) scale(0.38,0.38)"><rect width="100" height="100"/></g></g><g><g style="fill:#444443" transform="translate(76,76) translate(304,1064) scale(0.38,0.38)"><rect width="100" height="100"/></g></g><g><g style="fill:#444443" transform="translate(76,76) translate(342,1064) scale(0.38,0.38)"><rect width="100" height="100"/></g></g><g><g style="fill:#444443" transform="translate(76,76) translate(418,1064) scale(0.38,0.38)"><rect width="100" height="100"/></g></g><g><g style="fill:#444443" transform="translate(76,76) translate(456,1064) scale(0.38,0.38)"><rect width="100" height="100"/></g></g><g><g style="fill:#444443" transform="translate(76,76) translate(646,1064) scale(0.38,0.38)"><rect width="100" height="100"/></g></g><g><g style="fill:#444443" transform="translate(76,76) translate(684,1064) scale(0.38,0.38)"><rect width="100" height="100"/></g></g><g><g style="fill:#444443" transform="translate(76,76) translate(722,1064) scale(0.38,0.38)"><rect width="100" height="100"/></g></g><g><g style="fill:#444443" transform="translate(76,76) translate(836,1064) scale(0.38,0.38)"><rect width="100" height="100"/></g></g><g><g style="fill:#444443" transform="translate(76,76) translate(874,1064) scale(0.38,0.38)"><rect width="100" height="100"/></g></g><g><g style="fill:#444443" transform="translate(76,76) translate(912,1064) scale(0.38,0.38)"><rect width="100" height="100"/></g></g><g><g style="fill:#444443" transform="translate(76,76) translate(950,1064) scale(0.38,0.38)"><rect width="100" height="100"/></g></g><g><g style="fill:#444443" transform="translate(76,76) translate(988,1064) scale(0.38,0.38)"><rect width="100" height="100"/></g></g><g><g style="fill:#444443"><g transform="translate(76,76) translate(0,0) scale(2.66, 2.66)"><rect width="70" height="70" x="15" y="15" style="fill:none"/><path d="M85,0H15H0v15v70v15h15h70h15V85V15V0H85z M85,85H15V15h70V85z"/></g></g></g><g><g style="fill:#444443"><g transform="translate(76,76) translate(836,0) scale(2.66, 2.66)"><rect width="70" height="70" x="15" y="15" style="fill:none"/><path d="M85,0H15H0v15v70v15h15h70h15V85V15V0H85z M85,85H15V15h70V85z"/></g></g></g><g><g style="fill:#444443"><g transform="translate(76,76) translate(0,836) scale(2.66, 2.66)"><rect width="70" height="70" x="15" y="15" style="fill:none"/><path d="M85,0H15H0v15v70v15h15h70h15V85V15V0H85z M85,85H15V15h70V85z"/></g></g></g><g><g style="fill:#444443" transform="translate(76,76) translate(76,76) scale(1.14, 1.14)"><rect width="100" height="100"/></g></g><g><g style="fill:#444443" transform="translate(76,76) translate(912,76) scale(1.14, 1.14)"><rect width="100" height="100"/></g></g><g><g style="fill:#444443" transform="translate(76,76) translate(76,912) scale(1.14, 1.14)"><rect width="100" height="100"/></g></g></g></svg>