<svg xmlns="http://www.w3.org/2000/svg" xmlns:xlink="http://www.w3.org/1999/xlink" width="4400" height="2475" overflow="hidden"><defs><clipPath id="clip0"><rect width="4400" height="2475" x="0" y="0"/></clipPath></defs><g clip-path="url(#clip0)"><rect width="4400" height="2475" x="0" y="0" fill="#E4F2EE" fill-opacity="1"/><path fill="#86C901" fill-opacity="1" fill-rule="evenodd" d="M982.912 1143.05C1018.16 738.903 1374.55 439.896 1778.97 475.119 2183.31 510.341 2482.52 866.485 2447.27 1270.55 2412.02 1674.7 2055.64 1973.71 1651.3 1938.49 1246.96 1903.26 947.666 1547.12 982.912 1143.05Z"/><text fill="#FFF" fill-opacity="1" direction="ltr" font-family="Arial,Arial_MSFontService,sans-serif" font-size="403" font-stretch="normal" font-style="normal" font-variant="normal" font-weight="400" text-anchor="start" text-decoration="none" transform="matrix(1 0 0 1 1214.62 1355)" unicode-bidi="normal" writing-mode="lr-tb">350 €</text><path fill="#E6E6E6" fill-opacity="1" fill-rule="evenodd" d="M2233.72 475.87C2232.66 462.798 2242.39 451.338 2255.46 450.273L3324.66 363.174C3337.73 362.109 3349.19 371.843 3350.25 384.915L3408.56 1101.32C3409.63 1114.39 3399.9 1125.85 3386.83 1126.92L2317.63 1214.01C2304.56 1215.08 2293.11 1205.34 2292.04 1192.28Z"/><path fill="#3F3D56" fill-opacity="1" fill-rule="evenodd" d="M2292.59 485.716C2293.33 495.073 2286.56 503.277 2277.48 504.039 2268.4 504.802 2260.44 497.834 2259.7 488.477 2258.96 479.119 2265.73 470.916 2274.81 470.153 2283.89 469.391 2291.85 476.359 2292.59 485.716Z"/><path fill="#3F3D56" fill-opacity="1" fill-rule="evenodd" d="M2348.59 1175.25C2349.33 1184.33 2342.57 1192.29 2333.49 1193.04 2324.4 1193.78 2316.44 1187.01 2315.7 1177.93 2314.96 1168.85 2321.72 1160.89 2330.81 1160.15 2339.89 1159.4 2347.85 1166.17 2348.59 1175.25Z"/><path fill="#FFF" fill-opacity="1" fill-rule="evenodd" stroke="#CACACA" stroke-linecap="butt" stroke-linejoin="miter" stroke-miterlimit="8" stroke-opacity="1" stroke-width="4.331" d="M2296.67 540.912C2296.27 536.001 2299.93 531.696 2304.84 531.296L3289.68 451.124C3294.59 450.724 3298.9 454.381 3299.29 459.291L3339.61 954.277C3340.02 959.187 3336.36 963.493 3331.44 963.892L2346.61 1044.06C2341.7 1044.46 2337.4 1040.81 2336.99 1035.9Z"/><path fill="#86C901" fill-opacity="1" fill-rule="evenodd" d="M2434.69 623.463C2433.67 610.9 2451.19 599.206 2473.81 597.346 2496.43 595.486 2515.59 604.163 2516.6 616.727 2517.62 629.291 2500.1 640.984 2477.48 642.844 2454.86 644.704 2435.7 636.027 2434.69 623.463Z"/><text fill="#FFF" fill-opacity="1" direction="ltr" font-family="Calibri,Calibri_MSFontService,sans-serif" font-size="35" font-stretch="normal" font-style="normal" font-variant="normal" font-weight="400" text-anchor="start" text-decoration="none" transform="matrix(0.996701 -0.081165 0.081165 0.996701 2465.98 632)" unicode-bidi="normal" writing-mode="lr-tb">D</text><path fill="none" fill-rule="evenodd" stroke="#E4E4E4" stroke-linecap="butt" stroke-linejoin="miter" stroke-miterlimit="8" stroke-opacity="1" stroke-width="12.993" d="M2644.15 571.594 2676.15 965.594"/><path fill="none" fill-rule="evenodd" stroke="#E4E4E4" stroke-linecap="butt" stroke-linejoin="miter" stroke-miterlimit="8" stroke-opacity="1" stroke-width="12.993" d="M2967.15 545.594 2999.15 938.594"/><path fill="none" fill-rule="evenodd" stroke="#E4E4E4" stroke-linecap="butt" stroke-linejoin="miter" stroke-miterlimit="8" stroke-opacity="1" stroke-width="12.993" d="M2351.15 674.477 2607.7 653.594 2614.15 732.711 2357.59 753.594Z"/><path fill="none" fill-rule="evenodd" stroke="#E4E4E4" stroke-linecap="butt" stroke-linejoin="miter" stroke-miterlimit="8" stroke-opacity="1" stroke-width="12.993" d="M2361.14 800.595 2618.14 779.595"/><path fill="none" fill-rule="evenodd" stroke="#E4E4E4" stroke-linecap="butt" stroke-linejoin="miter" stroke-miterlimit="8" stroke-opacity="1" stroke-width="12.993" d="M2364.15 834.595 2621.14 813.595"/><path fill="none" fill-rule="evenodd" stroke="#E4E4E4" stroke-linecap="butt" stroke-linejoin="miter" stroke-miterlimit="8" stroke-opacity="1" stroke-width="12.993" d="M2367.14 869.595 2624.14 848.594"/><path fill="none" fill-rule="evenodd" stroke="#E4E4E4" stroke-linecap="butt" stroke-linejoin="miter" stroke-miterlimit="8" stroke-opacity="1" stroke-width="12.993" d="M2369.14 903.595 2627.14 882.594"/><path fill="none" fill-rule="evenodd" stroke="#E4E4E4" stroke-linecap="butt" stroke-linejoin="miter" stroke-miterlimit="8" stroke-opacity="1" stroke-width="12.993" d="M2372.14 937.59 2629.14 917.59"/><path fill="none" fill-rule="evenodd" stroke="#E4E4E4" stroke-linecap="butt" stroke-linejoin="miter" stroke-miterlimit="8" stroke-opacity="1" stroke-width="12.993" d="M2375.15 972.594 2632.14 951.594"/><path fill="none" fill-rule="evenodd" stroke="#E4E4E4" stroke-linecap="butt" stroke-linejoin="miter" stroke-miterlimit="8" stroke-opacity="1" stroke-width="12.993" d="M2343.14 577.59 2600.15 557.59"/><path fill="none" fill-rule="evenodd" stroke="#E4E4E4" stroke-linecap="butt" stroke-linejoin="miter" stroke-miterlimit="8" stroke-opacity="1" stroke-width="12.993" d="M2347.14 627.599 2394.14 623.599"/><path fill="none" fill-rule="evenodd" stroke="#E4E4E4" stroke-linecap="butt" stroke-linejoin="miter" stroke-miterlimit="8" stroke-opacity="1" stroke-width="12.993" d="M2557.14 610.599 2604.14 606.599"/><path fill="none" fill-rule="evenodd" stroke="#E4E4E4" stroke-linecap="butt" stroke-linejoin="miter" stroke-miterlimit="8" stroke-opacity="1" stroke-width="12.993" d="M2674.14 599.595 2931.14 578.595"/><path fill="none" fill-rule="evenodd" stroke="#E4E4E4" stroke-linecap="butt" stroke-linejoin="miter" stroke-miterlimit="8" stroke-opacity="1" stroke-width="12.993" d="M2677.14 633.595 2934.14 612.595"/><path fill="none" fill-rule="evenodd" stroke="#E4E4E4" stroke-linecap="butt" stroke-linejoin="miter" stroke-miterlimit="8" stroke-opacity="1" stroke-width="12.993" d="M2680.14 668.595 2937.14 647.595"/><path fill="none" fill-rule="evenodd" stroke="#E4E4E4" stroke-linecap="butt" stroke-linejoin="miter" stroke-miterlimit="8" stroke-opacity="1" stroke-width="12.993" d="M2683.15 702.595 2940.15 681.595"/><path fill="none" fill-rule="evenodd" stroke="#E4E4E4" stroke-linecap="butt" stroke-linejoin="miter" stroke-miterlimit="8" stroke-opacity="1" stroke-width="12.993" d="M2686.14 736.59 2943.15 716.59"/><path fill="none" fill-rule="evenodd" stroke="#E4E4E4" stroke-linecap="butt" stroke-linejoin="miter" stroke-miterlimit="8" stroke-opacity="1" stroke-width="12.993" d="M2688.14 771.594 2945.15 750.594"/><path fill="none" fill-rule="evenodd" stroke="#E4E4E4" stroke-linecap="butt" stroke-linejoin="miter" stroke-miterlimit="8" stroke-opacity="1" stroke-width="12.993" d="M2691.14 807.59 2948.14 787.59"/><path fill="none" fill-rule="evenodd" stroke="#E4E4E4" stroke-linecap="butt" stroke-linejoin="miter" stroke-miterlimit="8" stroke-opacity="1" stroke-width="12.993" d="M2694.15 842.595 2951.15 821.595"/><path fill="none" fill-rule="evenodd" stroke="#E4E4E4" stroke-linecap="butt" stroke-linejoin="miter" stroke-miterlimit="8" stroke-opacity="1" stroke-width="12.993" d="M2697.14 876.595 2954.15 855.595"/><path fill="none" fill-rule="evenodd" stroke="#E4E4E4" stroke-linecap="butt" stroke-linejoin="miter" stroke-miterlimit="8" stroke-opacity="1" stroke-width="12.993" d="M2700.14 911.595 2957.15 890.595"/><path fill="none" fill-rule="evenodd" stroke="#E4E4E4" stroke-linecap="butt" stroke-linejoin="miter" stroke-miterlimit="8" stroke-opacity="1" stroke-width="12.993" d="M2702.14 945.595 2960.14 924.594"/><path fill="none" fill-rule="evenodd" stroke="#E4E4E4" stroke-linecap="butt" stroke-linejoin="miter" stroke-miterlimit="8" stroke-opacity="1" stroke-width="12.993" d="M3006.14 573.595 3263.14 552.594"/><path fill="none" fill-rule="evenodd" stroke="#E4E4E4" stroke-linecap="butt" stroke-linejoin="miter" stroke-miterlimit="8" stroke-opacity="1" stroke-width="12.993" d="M3009.14 607.59 3266.15 587.59"/><path fill="none" fill-rule="evenodd" stroke="#E4E4E4" stroke-linecap="butt" stroke-linejoin="miter" stroke-miterlimit="8" stroke-opacity="1" stroke-width="12.993" d="M3012.15 642.594 3269.15 621.594"/><path fill="none" fill-rule="evenodd" stroke="#E4E4E4" stroke-linecap="butt" stroke-linejoin="miter" stroke-miterlimit="8" stroke-opacity="1" stroke-width="12.993" d="M3014.14 676.595 3272.14 655.595"/><path fill="none" fill-rule="evenodd" stroke="#E4E4E4" stroke-linecap="butt" stroke-linejoin="miter" stroke-miterlimit="8" stroke-opacity="1" stroke-width="12.993" d="M3017.14 711.595 3274.15 690.595"/><path fill="none" fill-rule="evenodd" stroke="#E4E4E4" stroke-linecap="butt" stroke-linejoin="miter" stroke-miterlimit="8" stroke-opacity="1" stroke-width="12.993" d="M3020.14 745.595 3277.15 724.595"/><path fill="none" fill-rule="evenodd" stroke="#E4E4E4" stroke-linecap="butt" stroke-linejoin="miter" stroke-miterlimit="8" stroke-opacity="1" stroke-width="12.993" d="M3023.15 782.594 3280.15 761.594"/><path fill="none" fill-rule="evenodd" stroke="#E4E4E4" stroke-linecap="butt" stroke-linejoin="miter" stroke-miterlimit="8" stroke-opacity="1" stroke-width="12.993" d="M3026.14 816.594 3283.15 795.594"/><path fill="none" fill-rule="evenodd" stroke="#E4E4E4" stroke-linecap="butt" stroke-linejoin="miter" stroke-miterlimit="8" stroke-opacity="1" stroke-width="12.993" d="M3029.14 851.594 3286.15 830.594"/><path fill="none" fill-rule="evenodd" stroke="#E4E4E4" stroke-linecap="butt" stroke-linejoin="miter" stroke-miterlimit="8" stroke-opacity="1" stroke-width="12.993" d="M3031.14 885.595 3289.14 864.595"/><path fill="none" fill-rule="evenodd" stroke="#E4E4E4" stroke-linecap="butt" stroke-linejoin="miter" stroke-miterlimit="8" stroke-opacity="1" stroke-width="12.993" d="M3034.15 920.595 3291.15 899.595"/><path fill="#3F3D56" fill-opacity="1" fill-rule="evenodd" d="M3383.59 1090.72C3384.33 1100.07 3377.56 1108.28 3368.48 1109.04 3359.4 1109.8 3351.45 1102.83 3350.7 1093.48 3349.96 1084.12 3356.73 1075.92 3365.81 1075.15 3374.89 1074.39 3382.85 1081.36 3383.59 1090.72Z"/><path fill="#3F3D56" fill-opacity="1" fill-rule="evenodd" d="M3327.59 400.254C3328.33 409.336 3321.56 417.298 3312.48 418.038 3303.4 418.778 3295.44 412.015 3294.7 402.933 3293.96 393.851 3300.73 385.889 3309.81 385.149 3318.89 384.409 3326.85 391.172 3327.59 400.254Z"/><path fill="#E6E6E6" fill-opacity="1" fill-rule="evenodd" d="M2297.2 1276.79C2298.34 1263.71 2309.87 1254.04 2322.94 1255.19L3392.94 1348.4C3406.01 1349.53 3415.69 1361.06 3414.55 1374.12L3352.08 2090.4C3350.95 2103.48 3339.42 2113.14 3326.34 2112L2256.35 2018.79C2243.27 2017.65 2233.59 2006.13 2234.74 1993.07Z"/><path fill="#3F3D56" fill-opacity="1" fill-rule="evenodd" d="M2354.57 1297.03C2353.76 1306.11 2345.52 1312.82 2336.17 1312.03 2326.81 1311.24 2319.89 1303.24 2320.7 1294.16 2321.52 1285.09 2329.76 1278.37 2339.11 1279.16 2348.46 1279.95 2355.39 1287.95 2354.57 1297.03Z"/><path fill="#3F3D56" fill-opacity="1" fill-rule="evenodd" d="M2293.58 1986.03C2292.8 1995.11 2284.8 2001.82 2275.71 2001.03 2266.64 2000.24 2259.92 1992.24 2260.71 1983.16 2261.5 1974.09 2269.5 1967.37 2278.58 1968.16 2287.66 1968.95 2294.37 1976.95 2293.58 1986.03Z"/><path fill="#3F3D56" fill-opacity="1" fill-rule="evenodd" d="M3329.57 2076.03C3328.75 2085.11 3320.51 2091.83 3311.16 2091.03 3301.81 2090.24 3294.89 2082.24 3295.7 2073.16 3296.51 2064.08 3304.76 2057.36 3314.11 2058.16 3323.46 2058.95 3330.38 2066.95 3329.57 2076.03Z"/><path fill="#3F3D56" fill-opacity="1" fill-rule="evenodd" d="M3389.57 1386.03C3388.75 1395.11 3380.51 1401.82 3371.16 1401.03 3361.81 1400.24 3354.89 1392.24 3355.7 1383.16 3356.51 1374.09 3364.76 1367.37 3374.11 1368.16 3383.46 1368.95 3390.38 1376.95 3389.57 1386.03Z"/><path fill="#FFF" fill-opacity="1" fill-rule="evenodd" stroke="#CACACA" stroke-linecap="butt" stroke-linejoin="miter" stroke-miterlimit="8" stroke-opacity="1" stroke-width="4.331" d="M2348.84 1352.25C2349.27 1347.34 2353.61 1343.7 2358.52 1344.13L3343.49 1429.99C3348.41 1430.42 3352.04 1434.75 3351.61 1439.66L3308.45 1934.94C3308.02 1939.85 3303.69 1943.48 3298.78 1943.06L2313.8 1857.2C2308.89 1856.77 2305.25 1852.43 2305.68 1847.52Z"/><path fill="#86C901" fill-opacity="1" fill-rule="evenodd" d="M2339.85 1765.49C2342.41 1736.33 2368.35 1714.76 2397.79 1717.3 2427.22 1719.84 2449 1745.54 2446.44 1774.69 2443.87 1803.86 2417.93 1825.43 2388.5 1822.89 2359.07 1820.35 2337.28 1794.65 2339.85 1765.49Z"/><path fill="none" fill-rule="evenodd" stroke="#E4E4E4" stroke-linecap="butt" stroke-linejoin="miter" stroke-miterlimit="8" stroke-opacity="1" stroke-width="12.993" d="M2686.15 1440.59 2652.15 1833.59"/><path fill="none" fill-rule="evenodd" stroke="#E4E4E4" stroke-linecap="butt" stroke-linejoin="miter" stroke-miterlimit="8" stroke-opacity="1" stroke-width="12.993" d="M3010.14 1468.59 2975.14 1862.59"/><path fill="#E6E6E6" fill-opacity="1" fill-rule="evenodd" stroke="#E4E4E4" stroke-linecap="butt" stroke-linejoin="miter" stroke-miterlimit="8" stroke-opacity="1" stroke-width="12.993" d="M2479.33 1631.59 2640.14 1645.45 2633.96 1715.59 2473.14 1701.73Z"/><path fill="none" fill-rule="evenodd" stroke="#E4E4E4" stroke-linecap="butt" stroke-linejoin="miter" stroke-miterlimit="8" stroke-opacity="1" stroke-width="12.993" d="M2467.14 1731.59 2630.15 1745.59"/><path fill="none" fill-rule="evenodd" stroke="#E4E4E4" stroke-linecap="butt" stroke-linejoin="miter" stroke-miterlimit="8" stroke-opacity="1" stroke-width="12.993" d="M2464.14 1765.59 2627.15 1779.59"/><path fill="none" fill-rule="evenodd" stroke="#E4E4E4" stroke-linecap="butt" stroke-linejoin="miter" stroke-miterlimit="8" stroke-opacity="1" stroke-width="12.993" d="M2461.15 1800.58 2518.15 1804.58"/><path fill="none" fill-rule="evenodd" stroke="#E4E4E4" stroke-linecap="butt" stroke-linejoin="miter" stroke-miterlimit="8" stroke-opacity="1" stroke-width="12.993" d="M2712.14 1472.6 2969.14 1495.6"/><path fill="none" fill-rule="evenodd" stroke="#E4E4E4" stroke-linecap="butt" stroke-linejoin="miter" stroke-miterlimit="8" stroke-opacity="1" stroke-width="12.993" d="M2709.14 1507.59 2966.14 1529.59"/><path fill="none" fill-rule="evenodd" stroke="#E4E4E4" stroke-linecap="butt" stroke-linejoin="miter" stroke-miterlimit="8" stroke-opacity="1" stroke-width="12.993" d="M2706.14 1541.6 2963.14 1564.6"/><path fill="none" fill-rule="evenodd" stroke="#E4E4E4" stroke-linecap="butt" stroke-linejoin="miter" stroke-miterlimit="8" stroke-opacity="1" stroke-width="12.993" d="M2703.14 1576.59 2960.14 1598.59"/><path fill="none" fill-rule="evenodd" stroke="#E4E4E4" stroke-linecap="butt" stroke-linejoin="miter" stroke-miterlimit="8" stroke-opacity="1" stroke-width="12.993" d="M2700.14 1610.59 2957.14 1632.59"/><path fill="none" fill-rule="evenodd" stroke="#E4E4E4" stroke-linecap="butt" stroke-linejoin="miter" stroke-miterlimit="8" stroke-opacity="1" stroke-width="12.993" d="M2697.14 1644.6 2954.15 1667.6"/><path fill="none" fill-rule="evenodd" stroke="#E4E4E4" stroke-linecap="butt" stroke-linejoin="miter" stroke-miterlimit="8" stroke-opacity="1" stroke-width="12.993" d="M2693.14 1681.59 2950.14 1703.59"/><path fill="none" fill-rule="evenodd" stroke="#E4E4E4" stroke-linecap="butt" stroke-linejoin="miter" stroke-miterlimit="8" stroke-opacity="1" stroke-width="12.993" d="M2690.14 1715.6 2947.14 1738.6"/><path fill="none" fill-rule="evenodd" stroke="#E4E4E4" stroke-linecap="butt" stroke-linejoin="miter" stroke-miterlimit="8" stroke-opacity="1" stroke-width="12.993" d="M2687.14 1750.59 2945.14 1772.59"/><path fill="none" fill-rule="evenodd" stroke="#E4E4E4" stroke-linecap="butt" stroke-linejoin="miter" stroke-miterlimit="8" stroke-opacity="1" stroke-width="12.993" d="M2684.14 1784.6 2942.14 1807.6"/><path fill="none" fill-rule="evenodd" stroke="#E4E4E4" stroke-linecap="butt" stroke-linejoin="miter" stroke-miterlimit="8" stroke-opacity="1" stroke-width="12.993" d="M2681.14 1819.59 2939.14 1841.59"/><path fill="none" fill-rule="evenodd" stroke="#E4E4E4" stroke-linecap="butt" stroke-linejoin="miter" stroke-miterlimit="8" stroke-opacity="1" stroke-width="12.993" d="M3043.14 1503.59 3300.14 1525.59"/><path fill="none" fill-rule="evenodd" stroke="#E4E4E4" stroke-linecap="butt" stroke-linejoin="miter" stroke-miterlimit="8" stroke-opacity="1" stroke-width="12.993" d="M3040.14 1537.59 3297.14 1559.59"/><path fill="none" fill-rule="evenodd" stroke="#E4E4E4" stroke-linecap="butt" stroke-linejoin="miter" stroke-miterlimit="8" stroke-opacity="1" stroke-width="12.993" d="M3037.14 1571.6 3294.14 1594.6"/><path fill="none" fill-rule="evenodd" stroke="#E4E4E4" stroke-linecap="butt" stroke-linejoin="miter" stroke-miterlimit="8" stroke-opacity="1" stroke-width="12.993" d="M3034.14 1606.59 3291.15 1628.59"/><path fill="none" fill-rule="evenodd" stroke="#E4E4E4" stroke-linecap="butt" stroke-linejoin="miter" stroke-miterlimit="8" stroke-opacity="1" stroke-width="12.993" d="M3031.14 1640.6 3288.14 1663.6"/><path fill="none" fill-rule="evenodd" stroke="#E4E4E4" stroke-linecap="butt" stroke-linejoin="miter" stroke-miterlimit="8" stroke-opacity="1" stroke-width="12.993" d="M3028.14 1675.59 3285.15 1697.59"/><path fill="none" fill-rule="evenodd" stroke="#E4E4E4" stroke-linecap="butt" stroke-linejoin="miter" stroke-miterlimit="8" stroke-opacity="1" stroke-width="12.993" d="M3025.14 1711.6 3282.14 1734.6"/><path fill="none" fill-rule="evenodd" stroke="#E4E4E4" stroke-linecap="butt" stroke-linejoin="miter" stroke-miterlimit="8" stroke-opacity="1" stroke-width="12.993" d="M3022.14 1746.59 3279.14 1768.59"/><path fill="none" fill-rule="evenodd" stroke="#E4E4E4" stroke-linecap="butt" stroke-linejoin="miter" stroke-miterlimit="8" stroke-opacity="1" stroke-width="12.993" d="M3019.14 1780.59 3276.15 1802.59"/><path fill="none" fill-rule="evenodd" stroke="#E4E4E4" stroke-linecap="butt" stroke-linejoin="miter" stroke-miterlimit="8" stroke-opacity="1" stroke-width="12.993" d="M3016.14 1815.59 3273.14 1837.59"/><path fill="none" fill-rule="evenodd" stroke="#E4E4E4" stroke-linecap="butt" stroke-linejoin="miter" stroke-miterlimit="8" stroke-opacity="1" stroke-width="12.993" d="M3013.14 1849.59 3270.15 1871.59"/><path fill="#86C901" fill-opacity="1" fill-rule="evenodd" d="M2486.39 1645.76C2486.9 1639.93 2492.07 1635.62 2497.93 1636.13L2620.91 1646.78C2626.77 1647.28 2631.11 1652.42 2630.6 1658.25L2626.9 1700.42C2626.39 1706.25 2621.22 1710.56 2615.36 1710.05L2492.38 1699.4C2486.51 1698.9 2482.18 1693.76 2482.69 1687.94Z"/></g></svg>