<?xml version="1.0" encoding="utf-8"?>
<!-- Generator: Adobe Illustrator 21.1.0, SVG Export Plug-In . SVG Version: 6.00 Build 0)  -->
<svg version="1.1" id="Ebene_1" xmlns="http://www.w3.org/2000/svg" xmlns:xlink="http://www.w3.org/1999/xlink" x="0px" y="0px"
	 viewBox="0 0 595.3 247.1" style="enable-background:new 0 0 595.3 247.1;" xml:space="preserve">
<style type="text/css">
	.st0{fill:#004791;}
	.st1{fill:#FFFFFF;}
</style>
<g>
	<path d="M106.4,77.2l14.1,43.3h-5.7l-3.5-11.3H94.9l-3.5,11.3H86l14.5-43.3H106.4z M110,104.4l-6.6-21.6h-0.1l-6.8,21.6H110z"/>
	<path d="M126,73.9h5.8v19.4h0.1c2.1-3.3,5.8-5.3,10.2-5.3c8.2,0,11.8,5.1,11.8,13.6v18.8h-5.8V104c0-7.4-1.6-11-6.7-11.3
		c-6.6,0-9.6,5.3-9.6,13v14.6H126V73.9z"/>
	<path d="M164.6,73.9h5.8v46.5h-5.8V73.9z"/>
	<path d="M205.4,119.1c-2.2,0.8-4.8,2-10,2c-11.2,0-16.4-6.8-16.4-17.1c0-9.4,5.9-16,14.8-16c10.5,0,13.9,7.7,13.9,17.9h-22.6
		c0,6.3,4.9,10.5,10.4,10.5c3.8,0,8.3-2,9.7-3.2v5.9C205.2,119.1,205.4,119.1,205.4,119.1z M201.6,101.6c0-4.8-2.9-8.8-7.9-8.8
		c-5.7,0-8.1,4.7-8.5,8.8H201.6z"/>
	<path d="M215.6,88.8h5.5v4.9h0.1c1.5-3.3,4.9-5.6,8.2-5.6c1.7,0,2.6,0.2,3.8,0.4v5.2c-1.1-0.4-2.2-0.6-3.2-0.6
		c-5.2,0-8.6,5-8.6,12.9v14.4h-5.8V88.8z"/>
	<path d="M237.4,114.2c2.3,1.5,5.6,2.2,7.3,2.2c2.7,0,6-1.1,6-4.5c0-5.8-13.7-5.3-13.7-14.1c0-6.6,4.9-9.7,11.2-9.7
		c2.7,0,5,0.6,7.3,1.2l-0.5,5.1c-1.3-0.8-4.8-1.6-6.1-1.6c-3,0-5.6,1.2-5.6,3.8c0,6.4,13.7,4.6,13.7,14.7c0,6.8-5.4,9.9-11,9.9
		c-3,0-6-0.3-8.7-1.7L237.4,114.2z"/>
</g>
<g>
	<path d="M126,136.9h19.2v3.4h-15.3v13.9h14.5v3.4h-14.5v15.1h16v3.4H126V136.9z"/>
	<path d="M176.2,176h-3.5v-4.5h-0.1c-1.9,3.6-4.8,5.2-8.9,5.2c-7.8,0-11.8-6.5-11.8-15c0-8.7,3.4-15,11.8-15c5.6,0,8.4,4.1,8.9,5.5
		h0.1V134h3.5V176z M164.2,173.6c6.3,0,8.5-6.7,8.5-11.9s-2.2-11.9-8.5-11.9c-6.7,0-8.5,6.4-8.5,11.9S157.5,173.6,164.2,173.6z"/>
	<path d="M203.9,175.1c-2.5,1-5.7,1.6-8.3,1.6c-9.5,0-13-6.4-13-15c0-8.7,4.8-15,12-15c8.1,0,11.4,6.5,11.4,14.2v1.8h-19.5
		c0,6,3.2,10.9,9.4,10.9c2.6,0,6.3-1.1,8-2.1L203.9,175.1L203.9,175.1z M202.1,159.7c0-5-2-9.9-7.3-9.9c-5.2,0-8.4,5.2-8.4,9.9
		H202.1z"/>
	<path d="M212.7,134h3.5v42h-3.5V134z"/>
	<path d="M223,171.8c2.1,1.1,4.7,1.8,7.4,1.8c3.4,0,6.3-1.8,6.3-5.1c0-6.8-13.7-5.7-13.7-14c0-5.7,4.6-7.8,9.3-7.8
		c1.5,0,4.5,0.3,7.1,1.3l-0.3,3.1c-1.8-0.8-4.4-1.3-6.3-1.3c-3.6,0-6.2,1.1-6.2,4.8c0,5.3,14.1,4.6,14.1,14c0,6-5.7,8.1-10,8.1
		c-2.7,0-5.5-0.3-8-1.3L223,171.8z"/>
	<path d="M259.3,150.4h-6.5v18.5c0,2.6,1,4.7,3.8,4.7c1.3,0,2.2-0.3,3.2-0.7l0.2,2.9c-0.8,0.3-2.6,0.8-4.3,0.8
		c-6.3,0-6.5-4.3-6.5-9.5v-16.7h-5.6v-3h5.6v-6.9l3.5-1.2v8.1h6.5L259.3,150.4L259.3,150.4z"/>
	<path d="M282,171.4h-0.1c-1.6,3.4-5.5,5.3-9.1,5.3c-8.1,0-9.4-5.5-9.4-8.1c0-9.6,10.2-10,17.6-10h0.7v-1.5c0-4.9-1.7-7.3-6.5-7.3
		c-3,0-5.8,0.7-8.4,2.4v-3.4c2.2-1.1,5.9-2,8.4-2c7.1,0,10,3.2,10,10.6V170c0,2.3,0,4,0.3,6H282V171.4z M281.7,161.6h-1
		c-6.1,0-13.4,0.6-13.4,6.9c0,3.8,2.7,5.2,5.9,5.2c8.3,0,8.5-7.2,8.5-10.3V161.6z"/>
	<path d="M293.6,134h3.5v18.3h0.1c1.5-3.1,4.7-5.5,8.9-5.5c7.7,0,9.7,5.1,9.7,12.2v17h-3.5v-17c0-4.9-1-9.2-6.8-9.2
		c-6.3,0-8.5,5.9-8.5,10.9V176h-3.5L293.6,134L293.6,134z"/>
	<path d="M324.7,134h3.5v42h-3.5V134z"/>
	<path d="M349.5,150.4H343v18.5c0,2.6,1,4.7,3.8,4.7c1.3,0,2.2-0.3,3.2-0.7l0.2,2.9c-0.8,0.3-2.6,0.8-4.3,0.8
		c-6.3,0-6.5-4.3-6.5-9.5v-16.7h-5.6v-3h5.6v-6.9l3.5-1.2v8.1h6.5L349.5,150.4L349.5,150.4z"/>
	<path d="M375,175.1c-2.5,1-5.7,1.6-8.3,1.6c-9.5,0-13-6.4-13-15c0-8.7,4.8-15,12-15c8.1,0,11.4,6.5,11.4,14.2v1.8h-19.5
		c0,6,3.2,10.9,9.4,10.9c2.6,0,6.3-1.1,8-2.1V175.1z M373.2,159.7c0-5-2-9.9-7.3-9.9c-5.2,0-8.4,5.2-8.4,9.9H373.2z"/>
	<path d="M402.4,151.2c-1.9-0.8-4.2-1.5-6.1-1.5c-6.9,0-10.8,5-10.8,11.9c0,6.5,3.9,11.9,10.4,11.9c2.2,0,4.3-0.5,6.4-1.3l0.3,3.3
		c-2.4,0.8-4.6,1-7.3,1c-9.2,0-13.7-7-13.7-15c0-8.8,5.7-15,14.1-15c3.4,0,5.9,0.8,6.9,1.1L402.4,151.2z"/>
	<path d="M408.7,134h3.5v18.3h0.1c1.5-3.1,4.7-5.5,8.9-5.5c7.7,0,9.7,5.1,9.7,12.2v17h-3.5v-17c0-4.9-1-9.2-6.8-9.2
		c-6.3,0-8.5,5.9-8.5,10.9V176h-3.5L408.7,134L408.7,134z"/>
	<path d="M439.8,154.1c0-2.2,0-4.4-0.2-6.7h3.4v5.1h0.1c1.2-2.6,3.3-5.8,9.2-5.8c7.1,0,9.7,4.7,9.7,11V176h-3.5v-17.4
		c0-5.4-1.9-8.8-6.8-8.8c-6.4,0-8.5,5.7-8.5,10.4V176h-3.5L439.8,154.1L439.8,154.1z"/>
	<path d="M474.5,139.8H471v-4.7h3.5V139.8z M470.9,147.4h3.5V176h-3.5V147.4z"/>
	<path d="M483.4,134h3.5v25.1l12.8-11.7h4.5L490.3,160l15.6,15.9H501l-14.1-14.7V176h-3.5V134z"/>
</g>
<path class="st0" d="M340.6,21.1l-5.3,0.1h4.6c-11,0-15.4,6.3-15.4,13.7v86.9h94V21.1H340.6z"/>
<g>
	<polygon class="st1" points="356,36.3 332.2,107.4 345.2,107.4 350.3,90.3 371.4,90.3 368.7,80.3 353.1,80.3 362.8,47.1 363,47.1 
		366,58.1 366,58.1 376.5,96.4 379.7,107.4 393.2,107.4 370.3,36.3 	"/>
	<polygon class="st1" points="409.9,76 409.9,65.7 383.2,65.7 386.6,76 	"/>
	<polygon class="st1" points="393.3,97 396.7,107.4 409.9,107.4 409.9,97 	"/>
	<polygon class="st1" points="377.2,46.7 409.8,46.7 409.8,36.3 373.8,36.3 377.2,46.8 	"/>
</g>
</svg>
